<?xml version="1.0" standalone="no"?>
<!DOCTYPE svg PUBLIC "-//W3C//DTD SVG 1.1//EN"
  "http://www.w3.org/Graphics/SVG/1.1/DTD/svg11.dtd">
<!-- Created with matplotlib (http://matplotlib.sourceforge.net/) -->
<svg width="576pt" height="432pt" viewBox="0 0 576 432"
   xmlns="http://www.w3.org/2000/svg"
   xmlns:xlink="http://www.w3.org/1999/xlink"
   version="1.1"
   id="svg1">
<g id="figure1">
<g id="patch1">
<path style="fill: #ffffff; stroke: #ffffff; stroke-width: 1.000000; stroke-linejoin: round; stroke-linecap: square;  opacity: 1.000000"  d="M0.000000 432.000000L576.000000 432.000000L576.000000 0.000000
L0.000000 0.000000L0.000000 432.000000"/>
</g>
<g id="axes1">
<g id="patch2">
<path style="fill: #ffffff; opacity: 1.000000"  d="M72.000000 388.800000L518.400000 388.800000L518.400000 43.200000
L72.000000 43.200000L72.000000 388.800000"/>
</g>
<g id="line2d1">
<defs>
  <clipPath id="p50431ccdcb28178602d99d9270004dde">
<rect x="72.000000" y="43.200000" width="446.400000" height="345.600000"/>
  </clipPath>
</defs><path style="fill: none; stroke: #0000ff; stroke-width: 1.000000; stroke-linejoin: round; stroke-linecap: square;  opacity: 1.000000" clip-path="url(#p50431ccdcb28178602d99d9270004dde)" d="M120.815712 187.119529L123.473938 196.601419L123.881464 194.205015
L123.354908 187.309554L122.498089 181.312760L129.759922 193.132044
L134.043901 197.728382L139.043106 201.345474L144.598455 203.381589
L150.349209 203.523832L155.898893 201.779385L160.859106 198.438111
L164.890864 193.985374L167.740356 188.992786L169.264324 184.012273
L169.439113 179.490609L168.350223 175.714600L166.165490 172.791721
L163.149505 170.666663L159.478923 169.167979L150.998826 167.169466
L129.984442 163.271737L126.845139 163.103180L124.377568 163.408599
L122.675732 164.248313L121.766777 165.622516L121.590740 167.472537
L122.751071 172.159048L124.205538 177.298269L124.378776 179.739990
L123.922490 181.954652L122.742202 183.832844L120.833623 185.256127
L118.280503 186.102799L115.246484 186.265388L111.961218 185.675885
L108.700030 184.329009L105.756086 182.292423L103.406581 179.696938
L101.878181 176.708650L101.319393 173.493672L101.786359 170.189218
L103.242979 166.891490L105.572157 163.663257L108.593380 160.556794
L112.083734 157.643348L115.799316 155.036739L119.494237 152.897309
L122.934063 151.405990L125.903966 150.709649L128.214892 150.854957
L129.712055 151.739813L130.287132 153.109452L129.890964 154.608563
L128.541979 155.875187L126.327338 156.642781L123.397671 156.811362
L116.244946 155.812944L109.019393 154.652414L103.413480 154.567819
L100.006206 154.703649L98.914944 154.198676L98.004112 153.037838
L95.344813 146.822676L101.103701 160.031704L101.103701 160.031704
L112.554547 183.018754L120.294305 197.109583L129.137456 211.787831
L138.915711 226.165667L149.519205 239.507806L160.904922 251.341647
L173.074790 261.508225L186.029988 270.144772L199.713617 277.607906
L213.958245 284.360946L242.746952 297.423778L256.249155 304.221223
L268.353734 311.187533L278.440703 318.068611L285.965490 324.471561
L290.516181 329.948536L291.851452 334.087938L289.917390 336.590975
L284.845405 337.317127L276.938108 336.292449L266.634143 333.687288
L254.517317 329.773590L241.239438 324.871057L227.506122 319.289626
L213.972583 313.276448L201.247943 306.976487L189.830472 300.412590
L180.071657 293.487520L172.157792 286.010626L166.114622 277.751212
L161.834672 268.512578L159.119064 258.208198L157.733574 246.916714
L157.410101 234.899024L157.901834 222.574996L158.981691 210.469847
L160.441354 199.146254L162.115056 189.137924L163.873420 180.896075
L165.645413 174.752557L167.433699 170.897360L169.323172 169.367340
L171.478943 170.047670L174.133526 172.689382L182.065480 182.414052
L187.906069 188.697614L195.295253 195.440845L204.354567 202.371093
L215.076818 209.320534L227.347853 216.233659L240.954502 223.159388
L286.705650 245.480415L302.427133 253.922130L317.782724 262.902307
L332.417966 272.216879L345.966740 281.493811L383.851157 308.522156
L388.503640 311.116943L391.327229 312.087132L392.577478 311.802102
L392.587787 310.727137L391.720595 309.323982L390.300270 307.953614
L386.869239 305.860339L383.302996 303.700702L381.379881 301.842252
L379.227227 299.084326L373.937151 290.450012L367.507332 278.235420
L364.193845 271.232930L361.087517 263.838977L358.381654 256.133274
L356.256641 248.147007L354.855733 239.897925L354.278851 231.428760
L354.580885 222.831388L355.770742 214.247771L357.808361 205.850623
L360.600964 197.815377L364.002925 190.294531L367.823216 183.401864
L371.842395 177.207463L379.620151 167.003505L386.089228 159.651555
L388.763162 157.021451L391.185343 155.108526L393.508711 153.953956
L395.893900 153.609069L398.476258 154.113459L401.343879 155.466880
L404.527201 157.604184L411.705300 163.590613L419.467639 170.223422
L423.384083 173.113942L427.259657 175.434936L431.065505 177.067678
L434.777025 177.988980L438.365846 178.275726L445.018150 177.709189
L447.987245 177.401929L450.656967 177.485169L452.993106 178.238680
L454.978361 179.880329L456.617688 182.535889L457.945358 186.213947
L459.976286 196.015177L461.955581 206.933760L463.228850 211.813589
L464.802007 215.824067L466.702301 218.716624L468.908261 220.362653
L471.355544 220.753501L473.951191 219.983048L476.591508 218.218659
L479.180495 215.668214L481.642435 212.552731L486.000168 205.504119
L490.676826 196.178639L491.849259 193.094615L490.303013 193.434186
L485.198901 197.148494L476.923600 204.143949L472.136559 208.880499
L467.327927 214.399924L462.797838 220.590301L458.816168 227.258150
L455.558101 234.134618L453.095158 240.897229L451.394557 247.199214
L449.754288 257.099779L449.322851 261.778711L449.330879 256.620160
L449.662728 254.537943L450.224891 253.300053L451.942155 255.168268
L452.926451 258.613347L453.843330 263.510269L455.165313 275.710276
L456.418877 292.068322L457.239757 295.932022L458.593182 299.244251
L460.628946 302.438850L470.873538 315.920377L475.114137 322.615410
L479.264879 330.293370L482.976247 338.502761L485.939868 346.601261
L487.931235 353.854660L488.835981 359.552346L488.655689 363.117997
L487.496696 364.197832L485.544100 362.717084L483.026208 358.898604
L480.177866 353.240272L467.010005 323.671811L465.257011 321.892306
L463.872113 322.022247L462.841414 323.847334L462.133745 327.023904
L461.490451 335.875913L461.550265 355.640213L461.517302 372.103934
L462.849685 371.003434L469.177955 358.590718L472.514446 352.864819
L476.217877 347.287352L480.002500 342.466161L483.532845 338.913809
L486.468156 336.965142L488.529432 336.714159L489.533828 337.984645
L489.430621 340.344855L488.307480 343.168171L486.382039 345.731754
L483.873847 347.335966L481.148995 347.420259L478.484047 345.649949
L476.078728 341.952380L474.029736 336.498294L472.328589 329.642298
L466.569871 297.772287L464.655773 291.000146L462.351562 285.417562
L459.695767 281.196348L456.673549 278.362337L453.380785 276.792797
L449.966418 276.245653L446.622447 276.417139L440.970707 277.793539
L437.741436 279.417148L437.003755 280.754574L436.875734 279.565340
L433.953500 275.262512L428.112922 268.951154L424.220441 265.547925
L419.846895 262.266628L415.172731 259.266066L405.768966 254.364307
L394.671657 249.164311L391.091897 246.773833L392.883145 247.338556
L395.418218 249.478455L398.803393 252.803304L407.325612 262.665959
L411.870601 268.708873L416.124337 275.015525L419.708658 281.192813
L422.279552 286.873690L423.558628 291.744575L423.379643 295.559503
L421.687162 298.148835L418.544617 299.424257L414.124151 299.375403
L408.683964 298.052850L402.537993 295.542702L396.020855 291.947841
L389.455185 287.390685L383.126140 282.039052L377.263197 276.140003
L372.028754 270.036848L358.157908 251.951240L356.152948 250.588238
L354.540305 250.633251L353.267629 251.898118L352.340821 254.100734
L351.817535 256.913545L351.777365 260.005913L352.269346 263.080138
L353.295894 265.903017L354.765206 268.330191L358.277383 271.888352
L360.995287 274.125657L361.545652 275.500368L359.793190 275.775914
L358.312703 275.257642L356.638117 274.153096L354.916368 272.375988
L353.271309 269.881760L351.778688 266.678583L349.233915 258.454937
L346.618700 248.791639L344.934536 243.896031L342.825883 239.216016
L340.236744 234.913237L337.173185 231.120206L333.774630 227.907657
L330.228381 225.321678L326.766257 223.380320L323.632409 222.078947
L321.044957 221.392749L319.152981 221.278311L317.989426 221.676715
L317.391381 223.743977L317.332327 227.118289L316.802230 229.171700
L315.680502 231.398965L313.988143 233.701171L309.635975 237.955949
L305.988708 240.837174L305.168148 242.082389L309.722396 242.212939
L311.955131 241.856772L313.973669 241.105097L315.387060 239.777172
L315.862118 237.726080L315.160789 234.892971L313.124417 231.341814
L309.823292 227.266497L305.430300 222.966796L300.126647 218.795952
L294.380215 215.087718L288.567720 212.077965L283.018320 209.839620
L269.815733 205.652080L266.743599 203.678484L264.157759 200.632394
L261.910671 196.198368L259.767269 190.277722L252.428932 166.197049
L249.275713 157.770648L245.703312 150.081722L241.811378 143.529085
L237.660667 138.338671L233.427518 134.533853L229.352357 131.968494
L222.880376 129.413057L221.120927 128.750239L221.794181 127.307163
L224.355192 126.326279L228.197005 125.274154L232.965687 124.374365
L238.193410 123.902092L243.369316 124.102911L248.001175 125.108803
L251.728318 126.875240L254.315860 129.161452L255.681662 131.563618
L255.878801 133.593055L255.048031 134.778215L253.408696 134.763495
L251.188474 133.382822L248.618470 130.695058L245.885802 126.978714
L236.211576 111.863839L234.582679 110.377974L233.345460 110.179907
L231.869154 112.446340L231.423090 113.852535L230.355247 114.306459
L228.012083 109.357300L223.606495 99.490831L220.654604 93.679189
L217.361901 87.948734L213.921443 82.769766L210.556482 78.531957
L207.488644 75.522283L204.904309 73.916678L202.941222 73.775102
L201.666015 75.033905L201.074925 77.497663L201.100362 80.840561
L201.625078 84.630556L203.591996 91.616493L204.767957 93.951785
L205.956598 95.141654L207.136748 95.118236L208.294600 93.995909
L212.679488 87.159169L214.661208 84.936671L216.900953 83.159160
L221.695026 80.873495L225.681181 78.902820L226.893518 77.403705
L227.350369 75.389343L226.995342 72.930075L225.744636 70.256764
L223.623333 67.706702L220.711126 65.638724L217.133214 64.342126
L213.049447 63.961927L208.641950 64.457185L199.622140 67.012603
L195.382385 68.252693L191.518115 68.905445L188.203187 68.681835
L185.549715 67.482449L183.638915 65.416226L182.480116 62.773789
L182.132493 59.967438L182.576299 57.451877L183.744950 55.639569
L185.513472 54.820901L187.725103 55.101506L187.725103 55.101506"/>
</g>
<g id="matplotlib.axis1">
<g id="xtick1">
<g id="line2d2">
<defs><path id="m30e32995789d870ad79a2e54c91cf9c6" d="M0.000000 0.000000L0.000000 -4.000000"/></defs>
<g ><use style="fill: none; stroke: #000000; stroke-width: 0.500000; stroke-linejoin: round; stroke-linecap: butt;  opacity: 1.000000" xlink:href="#m30e32995789d870ad79a2e54c91cf9c6" x="72.000000" y="388.800000"/>
</g></g>
<g id="line2d3">
<defs><path id="m9281cae24120827b11d5ea8a7ad3e96b" d="M0.000000 0.000000L0.000000 4.000000"/></defs>
<g ><use style="fill: none; stroke: #000000; stroke-width: 0.500000; stroke-linejoin: round; stroke-linecap: butt;  opacity: 1.000000" xlink:href="#m9281cae24120827b11d5ea8a7ad3e96b" x="72.000000" y="43.200000"/>
</g></g>
<g id="text1">
<defs>
<path id="c_6a8d56c819c37117ab4cf023bec22a5a" d="M10.593750 -35.500000l62.593750 0.000000l0.000000 8.296875l-62.593750 0.000000z"/>
<path id="c_42baa63129a918535c52adb20d687ea7" d="M12.406250 -8.296875l16.109375 0.000000l0.000000 -55.625000l-17.531250 3.515625l0.000000 -8.984375l17.437500 -3.515625l9.859375 0.000000l0.000000 64.609375l16.109375 0.000000l0.000000 8.296875l-41.984375 0.000000z"/>
</defs>
<g style="fill: #000000; opacity: 1.000000" transform="translate(64.335938,401.550000)scale(0.120000)">
<use xlink:href="#c_6a8d56c819c37117ab4cf023bec22a5a"/>
<use xlink:href="#c_42baa63129a918535c52adb20d687ea7" x="83.789062"/>
</g>
</g>
</g>
<g id="xtick2">
<g id="line2d4">
<g ><use style="fill: none; stroke: #000000; stroke-width: 0.500000; stroke-linejoin: round; stroke-linecap: butt;  opacity: 1.000000" xlink:href="#m30e32995789d870ad79a2e54c91cf9c6" x="135.771429" y="388.800000"/>
</g></g>
<g id="line2d5">
<g ><use style="fill: none; stroke: #000000; stroke-width: 0.500000; stroke-linejoin: round; stroke-linecap: butt;  opacity: 1.000000" xlink:href="#m9281cae24120827b11d5ea8a7ad3e96b" x="135.771429" y="43.200000"/>
</g></g>
<g id="text2">
<defs>
<path id="c_7a2040fe3b94fcd41d0a72c84e93b115" d="M31.781250 -66.406250q-7.609375 0.000000 -11.453125 7.500000q-3.828125 7.484375 -3.828125 22.531250q0.000000 14.984375 3.828125 22.484375q3.843750 7.500000 11.453125 7.500000q7.671875 0.000000 11.500000 -7.500000q3.843750 -7.500000 3.843750 -22.484375q0.000000 -15.046875 -3.843750 -22.531250q-3.828125 -7.500000 -11.500000 -7.500000M31.781250 -74.218750q12.265625 0.000000 18.734375 9.703125q6.468750 9.687500 6.468750 28.140625q0.000000 18.406250 -6.468750 28.109375q-6.468750 9.687500 -18.734375 9.687500q-12.250000 0.000000 -18.718750 -9.687500q-6.468750 -9.703125 -6.468750 -28.109375q0.000000 -18.453125 6.468750 -28.140625q6.468750 -9.703125 18.718750 -9.703125"/>
</defs>
<g style="fill: #000000; opacity: 1.000000" transform="translate(132.747991,401.706250)scale(0.120000)">
<use xlink:href="#c_7a2040fe3b94fcd41d0a72c84e93b115"/>
</g>
</g>
</g>
<g id="xtick3">
<g id="line2d6">
<g ><use style="fill: none; stroke: #000000; stroke-width: 0.500000; stroke-linejoin: round; stroke-linecap: butt;  opacity: 1.000000" xlink:href="#m30e32995789d870ad79a2e54c91cf9c6" x="199.542857" y="388.800000"/>
</g></g>
<g id="line2d7">
<g ><use style="fill: none; stroke: #000000; stroke-width: 0.500000; stroke-linejoin: round; stroke-linecap: butt;  opacity: 1.000000" xlink:href="#m9281cae24120827b11d5ea8a7ad3e96b" x="199.542857" y="43.200000"/>
</g></g>
<g id="text3">
<g style="fill: #000000; opacity: 1.000000" transform="translate(196.933482,401.550000)scale(0.120000)">
<use xlink:href="#c_42baa63129a918535c52adb20d687ea7"/>
</g>
</g>
</g>
<g id="xtick4">
<g id="line2d8">
<g ><use style="fill: none; stroke: #000000; stroke-width: 0.500000; stroke-linejoin: round; stroke-linecap: butt;  opacity: 1.000000" xlink:href="#m30e32995789d870ad79a2e54c91cf9c6" x="263.314286" y="388.800000"/>
</g></g>
<g id="line2d9">
<g ><use style="fill: none; stroke: #000000; stroke-width: 0.500000; stroke-linejoin: round; stroke-linecap: butt;  opacity: 1.000000" xlink:href="#m9281cae24120827b11d5ea8a7ad3e96b" x="263.314286" y="43.200000"/>
</g></g>
<g id="text4">
<defs>
<path id="c_ed3f3ed3ebfbd18bcb9c012009a68ad1" d="M19.187500 -8.296875l34.421875 0.000000l0.000000 8.296875l-46.281250 0.000000l0.000000 -8.296875q5.609375 -5.812500 15.296875 -15.593750q9.703125 -9.796875 12.187500 -12.640625q4.734375 -5.312500 6.609375 -9.000000q1.890625 -3.687500 1.890625 -7.250000q0.000000 -5.812500 -4.078125 -9.468750q-4.078125 -3.671875 -10.625000 -3.671875q-4.640625 0.000000 -9.796875 1.609375q-5.140625 1.609375 -11.000000 4.890625l0.000000 -9.968750q5.953125 -2.390625 11.125000 -3.609375q5.187500 -1.218750 9.484375 -1.218750q11.328125 0.000000 18.062500 5.671875q6.734375 5.656250 6.734375 15.125000q0.000000 4.500000 -1.687500 8.531250q-1.671875 4.015625 -6.125000 9.484375q-1.218750 1.421875 -7.765625 8.187500q-6.531250 6.765625 -18.453125 18.921875"/>
</defs>
<g style="fill: #000000; opacity: 1.000000" transform="translate(260.533036,401.706250)scale(0.120000)">
<use xlink:href="#c_ed3f3ed3ebfbd18bcb9c012009a68ad1"/>
</g>
</g>
</g>
<g id="xtick5">
<g id="line2d10">
<g ><use style="fill: none; stroke: #000000; stroke-width: 0.500000; stroke-linejoin: round; stroke-linecap: butt;  opacity: 1.000000" xlink:href="#m30e32995789d870ad79a2e54c91cf9c6" x="327.085714" y="388.800000"/>
</g></g>
<g id="line2d11">
<g ><use style="fill: none; stroke: #000000; stroke-width: 0.500000; stroke-linejoin: round; stroke-linecap: butt;  opacity: 1.000000" xlink:href="#m9281cae24120827b11d5ea8a7ad3e96b" x="327.085714" y="43.200000"/>
</g></g>
<g id="text5">
<defs>
<path id="c_3dcfa38a02242cb63ec6726c6e70be7a" d="M40.578125 -39.312500q7.078125 1.515625 11.046875 6.312500q3.984375 4.781250 3.984375 11.812500q0.000000 10.781250 -7.421875 16.703125q-7.421875 5.906250 -21.093750 5.906250q-4.578125 0.000000 -9.437500 -0.906250q-4.859375 -0.906250 -10.031250 -2.718750l0.000000 -9.515625q4.093750 2.390625 8.968750 3.609375q4.890625 1.218750 10.218750 1.218750q9.265625 0.000000 14.125000 -3.656250q4.859375 -3.656250 4.859375 -10.640625q0.000000 -6.453125 -4.515625 -10.078125q-4.515625 -3.640625 -12.562500 -3.640625l-8.500000 0.000000l0.000000 -8.109375l8.890625 0.000000q7.265625 0.000000 11.125000 -2.906250q3.859375 -2.906250 3.859375 -8.375000q0.000000 -5.609375 -3.984375 -8.609375q-3.968750 -3.015625 -11.390625 -3.015625q-4.062500 0.000000 -8.703125 0.890625q-4.640625 0.875000 -10.203125 2.718750l0.000000 -8.781250q5.625000 -1.562500 10.531250 -2.343750q4.906250 -0.781250 9.250000 -0.781250q11.234375 0.000000 17.765625 5.109375q6.546875 5.093750 6.546875 13.781250q0.000000 6.062500 -3.468750 10.234375q-3.468750 4.171875 -9.859375 5.781250"/>
</defs>
<g style="fill: #000000; opacity: 1.000000" transform="translate(324.210714,401.706250)scale(0.120000)">
<use xlink:href="#c_3dcfa38a02242cb63ec6726c6e70be7a"/>
</g>
</g>
</g>
<g id="xtick6">
<g id="line2d12">
<g ><use style="fill: none; stroke: #000000; stroke-width: 0.500000; stroke-linejoin: round; stroke-linecap: butt;  opacity: 1.000000" xlink:href="#m30e32995789d870ad79a2e54c91cf9c6" x="390.857143" y="388.800000"/>
</g></g>
<g id="line2d13">
<g ><use style="fill: none; stroke: #000000; stroke-width: 0.500000; stroke-linejoin: round; stroke-linecap: butt;  opacity: 1.000000" xlink:href="#m9281cae24120827b11d5ea8a7ad3e96b" x="390.857143" y="43.200000"/>
</g></g>
<g id="text6">
<defs>
<path id="c_a0416418d96557a09b8c1332d34883ba" d="M37.796875 -64.312500l-24.906250 38.921875l24.906250 0.000000zM35.203125 -72.906250l12.406250 0.000000l0.000000 47.515625l10.406250 0.000000l0.000000 8.203125l-10.406250 0.000000l0.000000 17.187500l-9.812500 0.000000l0.000000 -17.187500l-32.906250 0.000000l0.000000 -9.515625z"/>
</defs>
<g style="fill: #000000; opacity: 1.000000" transform="translate(387.669643,401.550000)scale(0.120000)">
<use xlink:href="#c_a0416418d96557a09b8c1332d34883ba"/>
</g>
</g>
</g>
<g id="xtick7">
<g id="line2d14">
<g ><use style="fill: none; stroke: #000000; stroke-width: 0.500000; stroke-linejoin: round; stroke-linecap: butt;  opacity: 1.000000" xlink:href="#m30e32995789d870ad79a2e54c91cf9c6" x="454.628571" y="388.800000"/>
</g></g>
<g id="line2d15">
<g ><use style="fill: none; stroke: #000000; stroke-width: 0.500000; stroke-linejoin: round; stroke-linecap: butt;  opacity: 1.000000" xlink:href="#m9281cae24120827b11d5ea8a7ad3e96b" x="454.628571" y="43.200000"/>
</g></g>
<g id="text7">
<defs>
<path id="c_1260a2df50f305f3db244e29828f968e" d="M10.796875 -72.906250l38.718750 0.000000l0.000000 8.312500l-29.687500 0.000000l0.000000 17.859375q2.140625 -0.734375 4.281250 -1.093750q2.156250 -0.359375 4.312500 -0.359375q12.203125 0.000000 19.328125 6.687500q7.140625 6.687500 7.140625 18.109375q0.000000 11.765625 -7.328125 18.296875q-7.328125 6.515625 -20.656250 6.515625q-4.593750 0.000000 -9.359375 -0.781250q-4.750000 -0.781250 -9.828125 -2.343750l0.000000 -9.921875q4.390625 2.390625 9.078125 3.562500q4.687500 1.171875 9.906250 1.171875q8.453125 0.000000 13.375000 -4.437500q4.937500 -4.437500 4.937500 -12.062500q0.000000 -7.609375 -4.937500 -12.046875q-4.921875 -4.453125 -13.375000 -4.453125q-3.953125 0.000000 -7.890625 0.875000q-3.921875 0.875000 -8.015625 2.734375z"/>
</defs>
<g style="fill: #000000; opacity: 1.000000" transform="translate(451.792634,401.550000)scale(0.120000)">
<use xlink:href="#c_1260a2df50f305f3db244e29828f968e"/>
</g>
</g>
</g>
<g id="xtick8">
<g id="line2d16">
<g ><use style="fill: none; stroke: #000000; stroke-width: 0.500000; stroke-linejoin: round; stroke-linecap: butt;  opacity: 1.000000" xlink:href="#m30e32995789d870ad79a2e54c91cf9c6" x="518.400000" y="388.800000"/>
</g></g>
<g id="line2d17">
<g ><use style="fill: none; stroke: #000000; stroke-width: 0.500000; stroke-linejoin: round; stroke-linecap: butt;  opacity: 1.000000" xlink:href="#m9281cae24120827b11d5ea8a7ad3e96b" x="518.400000" y="43.200000"/>
</g></g>
<g id="text8">
<defs>
<path id="c_cc8d6d580d1b10c8632f7a42cd53db8a" d="M33.015625 -40.375000q-6.640625 0.000000 -10.531250 4.546875q-3.875000 4.531250 -3.875000 12.437500q0.000000 7.859375 3.875000 12.437500q3.890625 4.562500 10.531250 4.562500q6.640625 0.000000 10.515625 -4.562500q3.875000 -4.578125 3.875000 -12.437500q0.000000 -7.906250 -3.875000 -12.437500q-3.875000 -4.546875 -10.515625 -4.546875M52.593750 -71.296875l0.000000 8.984375q-3.718750 -1.750000 -7.500000 -2.671875q-3.781250 -0.937500 -7.500000 -0.937500q-9.765625 0.000000 -14.921875 6.593750q-5.140625 6.593750 -5.875000 19.921875q2.875000 -4.250000 7.218750 -6.515625q4.359375 -2.265625 9.578125 -2.265625q10.984375 0.000000 17.359375 6.671875q6.375000 6.656250 6.375000 18.125000q0.000000 11.234375 -6.640625 18.031250q-6.640625 6.781250 -17.671875 6.781250q-12.656250 0.000000 -19.343750 -9.687500q-6.687500 -9.703125 -6.687500 -28.109375q0.000000 -17.281250 8.203125 -27.562500q8.203125 -10.281250 22.015625 -10.281250q3.718750 0.000000 7.500000 0.734375q3.781250 0.734375 7.890625 2.187500"/>
</defs>
<g style="fill: #000000; opacity: 1.000000" transform="translate(515.384375,401.706250)scale(0.120000)">
<use xlink:href="#c_cc8d6d580d1b10c8632f7a42cd53db8a"/>
</g>
</g>
</g>
</g>
<g id="matplotlib.axis2">
<g id="ytick1">
<g id="line2d18">
<defs><path id="m3400efa6b1638b3fea9e19e898273957" d="M0.000000 0.000000L4.000000 0.000000"/></defs>
<g ><use style="fill: none; stroke: #000000; stroke-width: 0.500000; stroke-linejoin: round; stroke-linecap: butt;  opacity: 1.000000" xlink:href="#m3400efa6b1638b3fea9e19e898273957" x="72.000000" y="388.800000"/>
</g></g>
<g id="line2d19">
<defs><path id="m20b58b2501143cb5e0a5e8f1ef6f1643" d="M0.000000 0.000000L-4.000000 0.000000"/></defs>
<g ><use style="fill: none; stroke: #000000; stroke-width: 0.500000; stroke-linejoin: round; stroke-linecap: butt;  opacity: 1.000000" xlink:href="#m20b58b2501143cb5e0a5e8f1ef6f1643" x="518.400000" y="388.800000"/>
</g></g>
<g id="text9">
<g style="fill: #000000; opacity: 1.000000" transform="translate(52.531250,393.167187)scale(0.120000)">
<use xlink:href="#c_6a8d56c819c37117ab4cf023bec22a5a"/>
<use xlink:href="#c_3dcfa38a02242cb63ec6726c6e70be7a" x="83.789062"/>
</g>
</g>
</g>
<g id="ytick2">
<g id="line2d20">
<g ><use style="fill: none; stroke: #000000; stroke-width: 0.500000; stroke-linejoin: round; stroke-linecap: butt;  opacity: 1.000000" xlink:href="#m3400efa6b1638b3fea9e19e898273957" x="72.000000" y="319.680000"/>
</g></g>
<g id="line2d21">
<g ><use style="fill: none; stroke: #000000; stroke-width: 0.500000; stroke-linejoin: round; stroke-linecap: butt;  opacity: 1.000000" xlink:href="#m20b58b2501143cb5e0a5e8f1ef6f1643" x="518.400000" y="319.680000"/>
</g></g>
<g id="text10">
<g style="fill: #000000; opacity: 1.000000" transform="translate(52.765625,324.133125)scale(0.120000)">
<use xlink:href="#c_6a8d56c819c37117ab4cf023bec22a5a"/>
<use xlink:href="#c_ed3f3ed3ebfbd18bcb9c012009a68ad1" x="83.789062"/>
</g>
</g>
</g>
<g id="ytick3">
<g id="line2d22">
<g ><use style="fill: none; stroke: #000000; stroke-width: 0.500000; stroke-linejoin: round; stroke-linecap: butt;  opacity: 1.000000" xlink:href="#m3400efa6b1638b3fea9e19e898273957" x="72.000000" y="250.560000"/>
</g></g>
<g id="line2d23">
<g ><use style="fill: none; stroke: #000000; stroke-width: 0.500000; stroke-linejoin: round; stroke-linecap: butt;  opacity: 1.000000" xlink:href="#m20b58b2501143cb5e0a5e8f1ef6f1643" x="518.400000" y="250.560000"/>
</g></g>
<g id="text11">
<g style="fill: #000000; opacity: 1.000000" transform="translate(52.671875,254.935000)scale(0.120000)">
<use xlink:href="#c_6a8d56c819c37117ab4cf023bec22a5a"/>
<use xlink:href="#c_42baa63129a918535c52adb20d687ea7" x="83.789062"/>
</g>
</g>
</g>
<g id="ytick4">
<g id="line2d24">
<g ><use style="fill: none; stroke: #000000; stroke-width: 0.500000; stroke-linejoin: round; stroke-linecap: butt;  opacity: 1.000000" xlink:href="#m3400efa6b1638b3fea9e19e898273957" x="72.000000" y="181.440000"/>
</g></g>
<g id="line2d25">
<g ><use style="fill: none; stroke: #000000; stroke-width: 0.500000; stroke-linejoin: round; stroke-linecap: butt;  opacity: 1.000000" xlink:href="#m20b58b2501143cb5e0a5e8f1ef6f1643" x="518.400000" y="181.440000"/>
</g></g>
<g id="text12">
<g style="fill: #000000; opacity: 1.000000" transform="translate(61.953125,185.807187)scale(0.120000)">
<use xlink:href="#c_7a2040fe3b94fcd41d0a72c84e93b115"/>
</g>
</g>
</g>
<g id="ytick5">
<g id="line2d26">
<g ><use style="fill: none; stroke: #000000; stroke-width: 0.500000; stroke-linejoin: round; stroke-linecap: butt;  opacity: 1.000000" xlink:href="#m3400efa6b1638b3fea9e19e898273957" x="72.000000" y="112.320000"/>
</g></g>
<g id="line2d27">
<g ><use style="fill: none; stroke: #000000; stroke-width: 0.500000; stroke-linejoin: round; stroke-linecap: butt;  opacity: 1.000000" xlink:href="#m20b58b2501143cb5e0a5e8f1ef6f1643" x="518.400000" y="112.320000"/>
</g></g>
<g id="text13">
<g style="fill: #000000; opacity: 1.000000" transform="translate(62.781250,116.695000)scale(0.120000)">
<use xlink:href="#c_42baa63129a918535c52adb20d687ea7"/>
</g>
</g>
</g>
<g id="ytick6">
<g id="line2d28">
<g ><use style="fill: none; stroke: #000000; stroke-width: 0.500000; stroke-linejoin: round; stroke-linecap: butt;  opacity: 1.000000" xlink:href="#m3400efa6b1638b3fea9e19e898273957" x="72.000000" y="43.200000"/>
</g></g>
<g id="line2d29">
<g ><use style="fill: none; stroke: #000000; stroke-width: 0.500000; stroke-linejoin: round; stroke-linecap: butt;  opacity: 1.000000" xlink:href="#m20b58b2501143cb5e0a5e8f1ef6f1643" x="518.400000" y="43.200000"/>
</g></g>
<g id="text14">
<g style="fill: #000000; opacity: 1.000000" transform="translate(62.437500,47.653125)scale(0.120000)">
<use xlink:href="#c_ed3f3ed3ebfbd18bcb9c012009a68ad1"/>
</g>
</g>
</g>
</g>
<g id="patch3">
<path style="fill: none; stroke: #000000; stroke-width: 1.000000; stroke-linejoin: round; stroke-linecap: square;  opacity: 1.000000"  d="M72.000000 43.200000L518.400000 43.200000"/>
</g>
<g id="patch4">
<path style="fill: none; stroke: #000000; stroke-width: 1.000000; stroke-linejoin: round; stroke-linecap: square;  opacity: 1.000000"  d="M518.400000 388.800000L518.400000 43.200000"/>
</g>
<g id="patch5">
<path style="fill: none; stroke: #000000; stroke-width: 1.000000; stroke-linejoin: round; stroke-linecap: square;  opacity: 1.000000"  d="M72.000000 388.800000L518.400000 388.800000"/>
</g>
<g id="patch6">
<path style="fill: none; stroke: #000000; stroke-width: 1.000000; stroke-linejoin: round; stroke-linecap: square;  opacity: 1.000000"  d="M72.000000 388.800000L72.000000 43.200000"/>
</g>
</g>
</g>
</svg>
