<?xml version="1.0" standalone="no"?>
<!DOCTYPE svg PUBLIC "-//W3C//DTD SVG 1.1//EN"
  "http://www.w3.org/Graphics/SVG/1.1/DTD/svg11.dtd">
<!-- Created with matplotlib (http://matplotlib.sourceforge.net/) -->
<svg width="576pt" height="432pt" viewBox="0 0 576 432"
   xmlns="http://www.w3.org/2000/svg"
   xmlns:xlink="http://www.w3.org/1999/xlink"
   version="1.1"
   id="svg1">
<g id="figure1">
<g id="patch1">
<path style="fill: #ffffff; stroke: #ffffff; stroke-width: 1.000000; stroke-linejoin: round; stroke-linecap: square;  opacity: 1.000000"  d="M0.000000 432.000000L576.000000 432.000000L576.000000 0.000000
L0.000000 0.000000L0.000000 432.000000"/>
</g>
<g id="axes1">
<g id="patch2">
<path style="fill: #ffffff; opacity: 1.000000"  d="M72.000000 388.800000L518.400000 388.800000L518.400000 43.200000
L72.000000 43.200000L72.000000 388.800000"/>
</g>
<g id="line2d1">
<defs>
  <clipPath id="p50431ccdcb28178602d99d9270004dde">
<rect x="72.000000" y="43.200000" width="446.400000" height="345.600000"/>
  </clipPath>
</defs><path style="fill: none; stroke: #0000ff; stroke-width: 1.000000; stroke-linejoin: round; stroke-linecap: square;  opacity: 1.000000" clip-path="url(#p50431ccdcb28178602d99d9270004dde)" d="M135.621871 220.732941L135.859699 234.284657L135.972703 232.949487
L136.075369 208.793101L135.750338 201.304636L135.633669 206.211894
L136.274014 289.920644L137.312888 345.292479L136.958887 339.611325
L136.214431 309.372933L135.991050 270.563928L136.106946 205.939450
L136.292775 222.048012L137.123503 262.811282L138.298751 324.064119
L138.055653 290.827441L138.019724 229.646147L138.372653 192.807557
L138.493738 198.452716L139.102797 248.435544L139.292139 233.141216
L139.082520 323.472952L139.082520 323.472952L139.300271 367.398331
L139.028310 353.062134L138.694844 288.925962L138.694844 288.925962
L138.649301 307.920479L138.649301 307.920479L138.599160 314.320214
L138.373923 308.089867L136.965412 210.478440L136.585046 118.418438
L136.367538 121.677244L136.239477 112.676564L136.251164 111.166308
L136.251164 111.166308"/>
</g>
<g id="line2d2">
<path style="fill: none; stroke: #008000; stroke-width: 1.000000; stroke-linejoin: round; stroke-linecap: square;  opacity: 1.000000" clip-path="url(#p50431ccdcb28178602d99d9270004dde)" d="M135.771429 206.783196L137.046857 209.169162L139.597714 214.788530
L140.873143 215.326980L142.148571 212.692590L143.424000 206.679845
L145.337143 196.242587L145.974857 194.473557L147.250286 196.928172
L148.525714 209.457990L151.714286 255.916653L152.352000 258.257473
L152.989714 256.202511L153.627429 250.039246L155.540571 216.747643
L156.816000 195.963511L158.091429 185.614319L159.366857 187.329688
L160.642286 198.636112L163.830857 236.535154L164.468571 239.314600
L165.744000 234.565897L167.019429 217.143580L169.570286 177.201099
L170.208000 173.200551L171.483429 176.711995L172.758857 193.633333
L175.309714 236.811810L176.585143 246.161979L177.860571 242.777915
L179.136000 229.214555L182.324571 185.583695L182.962286 181.015827
L183.600000 178.994535L184.875429 182.143209L187.426286 199.064740
L188.064000 200.609526L189.339429 197.101471L191.890286 178.776151
L193.165714 180.138078L193.803429 186.029321L195.078857 207.960184
L196.992000 258.630651L200.818286 366.376891L202.093714 382.037325
L203.369143 377.527588L204.644571 354.839749L207.195429 298.392531
L207.833143 290.781361L208.470857 287.243227L209.746286 290.393420
L211.659429 302.995315L212.297143 304.128960L212.934857 302.377155
L214.210286 290.512498L217.398857 250.638379L218.674286 244.181262
L220.587429 240.138207L221.225143 239.040797L222.500571 238.104628
L223.138286 239.162956L223.776000 241.811212L225.051429 252.586996
L226.964571 279.111855L228.877714 305.012336L230.153143 315.147752
L230.790857 317.509827L232.066286 317.834946L233.341714 315.455898
L234.617143 314.557539L235.892571 317.152647L239.718857 331.912807
L240.994286 330.981029L241.632000 327.787413L242.907429 315.040794
L244.820571 283.939027L246.733714 252.876184L248.009143 238.647315
L249.284571 229.763985L250.560000 224.364725L251.835429 221.271546
L253.110857 220.962881L253.748571 222.270821L255.024000 228.255112
L258.850286 253.915034L259.488000 255.281517L260.763429 254.376051
L262.038857 249.678314L264.589714 234.669205L265.865143 227.995646
L266.502857 225.945456L267.778286 226.146486L268.416000 228.954097
L269.691429 240.359778L273.517714 287.950802L274.155429 290.042235
L274.793143 288.871703L275.430857 284.431716L276.706286 267.638581
L278.619429 237.957083L279.257143 231.805835L279.894857 229.171183
L280.532571 230.431943L281.170286 235.424853L282.445714 253.437225
L284.358857 282.343469L285.634286 292.101622L286.272000 293.804922
L287.547429 294.250610L288.822857 296.385020L290.098286 304.304150
L293.286857 334.659279L293.924571 336.802190L295.200000 332.927724
L296.475429 319.908087L298.388571 298.118127L299.026286 294.338610
L300.301714 295.784205L301.577143 308.201296L304.128000 340.213541
L305.403429 348.683615L306.678857 352.117516L310.505143 357.609128
L311.780571 354.623154L313.056000 346.433739L314.969143 331.831233
L315.606857 328.918016L316.244571 327.714869L317.520000 330.344234
L321.346286 349.350005L322.621714 349.868436L323.897143 346.730809
L325.810286 340.410361L327.085714 339.477003L327.723429 340.642447
L328.998857 345.855006L332.825143 365.254129L334.100571 368.461436
L335.376000 369.445921L336.651429 367.400542L337.926857 361.302319
L339.202286 350.610535L342.390857 318.858247L343.028571 316.535360
L344.304000 320.277647L345.579429 333.657065L347.492571 355.175533
L348.130286 358.168359L349.405714 355.099246L350.681143 343.106337
L352.594286 323.344920L353.869714 315.926216L354.507429 314.298104
L355.782857 314.068689L357.058286 315.578760L358.333714 316.564144
L359.609143 316.320275L361.522286 314.044849L362.797714 310.563741
L364.710857 301.515820L365.986286 295.736147L366.624000 294.205071
L367.899429 295.255412L369.174857 301.050309L370.450286 307.647654
L371.088000 309.552827L372.363429 308.016149L373.638857 298.846266
L376.827429 267.103108L378.102857 261.661192L379.378286 261.411768
L381.929143 264.869471L383.204571 263.046320L386.393143 252.398920
L387.668571 251.625823L390.857143 255.832646L392.132571 254.006976
L393.408000 249.105515L394.683429 243.690396L395.321143 242.016082
L396.596571 243.012281L397.872000 250.906730L401.060571 279.369374
L401.698286 281.437022L402.973714 278.798524L404.249143 267.660633
L408.075429 219.804681L408.713143 216.910151L409.988571 221.316536
L411.264000 238.561932L413.177143 270.097651L413.814857 276.094130
L414.452571 277.911742L415.090286 275.222845L416.365714 258.350740
L418.278857 224.919173L418.916571 218.115221L419.554286 215.482779
L420.192000 217.293750L421.467429 231.408763L423.380571 259.512791
L424.018286 265.199486L424.656000 267.729644L425.931429 263.339329
L427.206857 249.836868L429.120000 226.870837L430.395429 218.294538
L431.033143 217.082685L432.308571 219.259373L433.584000 222.415527
L434.859429 220.307090L436.134857 211.527409L438.048000 196.924521
L438.685714 194.872613L439.961143 196.870666L441.236571 204.827145
L443.149714 217.233676L443.787429 219.418413L445.062857 219.902023
L446.338286 216.327540L448.251429 206.945885L450.164571 193.100549
L453.353143 164.737439L453.990857 161.933962L455.266286 162.188038
L456.541714 169.076895L459.092571 186.151990L460.368000 189.597696
L461.643429 189.049955L465.469714 181.430907L466.745143 176.270715
L468.658286 162.806592L469.933714 155.316598L470.571429 154.180385
L471.209143 155.398899L472.484571 164.228608L474.397714 180.229590
L475.035429 181.733687L475.673143 180.123428L476.948571 168.560534
L478.861714 147.032433L479.499429 144.404029L480.137143 145.698116
L480.774857 151.088365L482.050286 171.392452L483.963429 203.406078
L484.601143 208.271637L485.876571 204.489537L485.876571 204.489537"/>
</g>
<g id="line2d3">
<path style="fill: none; stroke: #ff0000; stroke-width: 1.000000; stroke-linejoin: round; stroke-linecap: square;  opacity: 1.000000" clip-path="url(#p50431ccdcb28178602d99d9270004dde)" d="M135.771429 225.494864L138.960000 237.768805L140.235429 237.288383
L141.510857 231.616684L144.061714 216.617296L144.699429 215.062962
L145.974857 216.042510L149.163429 226.885256L150.438857 227.294547
L152.989714 222.705336L156.178286 217.235469L157.453714 212.573768
L161.280000 194.004944L161.917714 192.677479L163.193143 191.790351
L164.468571 192.082678L165.744000 192.810127L167.657143 195.549958
L168.932571 199.113124L170.845714 206.791436L174.034286 220.822963
L175.309714 223.786689L176.585143 224.215144L179.136000 221.761351
L180.411429 221.674774L181.686857 222.407965L182.962286 222.592600
L184.237714 220.923910L185.513143 217.084107L188.064000 205.838492
L190.614857 194.903285L191.252571 193.151709L192.528000 192.507426
L193.165714 194.009340L194.441143 200.613644L197.629714 222.065774
L198.905143 225.880751L201.456000 229.271663L202.731429 232.656147
L204.644571 238.185736L205.920000 237.671439L206.557714 235.093478
L207.833143 225.324861L210.384000 201.497910L211.021714 198.395305
L211.659429 197.202980L212.934857 200.120876L216.123429 215.692104
L217.398857 214.971623L218.674286 209.111613L223.138286 181.853356
L224.413714 177.585298L225.689143 176.745431L226.326857 178.131682
L227.602286 184.861258L231.428571 214.587551L232.066286 216.768746
L233.341714 217.453995L233.979429 216.256318L235.254857 211.838306
L239.081143 196.029291L240.356571 193.243437L244.182857 188.702700
L245.458286 185.652363L247.371429 179.233961L249.922286 169.884277
L250.560000 168.489452L251.835429 168.678551L252.473143 170.660131
L253.748571 178.419085L258.850286 219.337179L260.125714 225.053009
L261.401143 228.252500L262.676571 228.479829L263.314286 227.430758
L264.589714 223.254811L267.140571 210.109969L269.691429 198.182025
L270.966857 194.399717L271.604571 193.171217L272.880000 192.254425
L274.155429 193.767953L275.430857 198.076044L277.344000 208.675337
L279.257143 218.490979L280.532571 221.647436L283.083429 223.319271
L285.634286 227.375617L286.909714 227.821410L287.547429 226.696061
L288.822857 221.303558L290.736000 207.702870L293.286857 190.220463
L294.562286 184.619624L295.837714 181.224382L297.113143 179.603840
L298.388571 179.092255L300.939429 178.928860L302.214857 179.206784
L303.490286 180.198128L306.041143 183.468511L307.316571 184.299850
L308.592000 184.037829L309.867429 182.828046L312.418286 179.064861
L313.693714 177.868979L316.244571 176.913041L316.882286 175.902491
L318.157714 171.722114L321.984000 154.081343L323.259429 153.336216
L325.172571 156.578487L325.810286 157.774232L327.085714 158.868921
L328.361143 157.766920L330.274286 154.106550L331.549714 152.927099
L332.825143 153.840997L334.100571 155.901496L335.376000 156.852981
L336.651429 154.459101L337.926857 147.821251L341.753143 121.371329
L342.390857 119.925803L343.666286 120.675936L346.217143 126.951835
L347.492571 127.217464L349.405714 123.650670L351.318857 119.510912
L352.594286 117.921973L353.869714 117.332048L356.420571 116.761631
L357.696000 115.489600L358.971429 113.658879L360.246857 112.424723
L361.522286 112.978626L362.797714 115.537383L364.710857 120.254109
L365.986286 120.893486L366.624000 119.819366L367.899429 114.799569
L372.363429 90.023003L373.638857 86.873003L374.914286 86.483455
L376.189714 89.155948L377.465143 94.660634L380.653714 109.988848
L381.291429 111.328088L382.566857 111.380699L383.842286 108.554089
L387.030857 99.527783L388.306286 98.542310L389.581714 99.145486
L392.132571 102.582326L394.045714 106.399505L397.872000 115.999194
L399.147429 117.206289L400.422857 116.710606L402.336000 113.362935
L403.611429 110.892906L404.886857 110.230074L406.162286 112.389690
L409.350857 122.485419L410.626286 123.499745L411.901714 122.382456
L413.177143 120.584344L414.452571 119.782164L415.728000 120.991079
L417.003429 124.363978L418.916571 129.945417L419.554286 131.121613
L420.829714 132.020233L422.105143 131.450860L427.206857 127.404568
L429.120000 123.758288L432.308571 115.686646L433.584000 115.310468
L434.221714 116.316946L435.497143 120.857574L438.685714 136.805445
L439.323429 138.246947L440.598857 138.512013L441.874286 136.809242
L443.149714 136.130939L444.425143 138.259458L446.976000 145.396204
L448.251429 145.373751L449.526857 142.691185L452.077714 136.552279
L454.628571 132.083336L455.904000 130.414238L457.179429 130.025576
L458.454857 131.053526L462.281143 136.045226L464.832000 136.228340
L466.107429 137.318568L467.382857 140.527661L469.296000 148.653369
L471.846857 159.268425L473.122286 162.076465L474.397714 162.806156
L475.673143 162.323104L476.948571 162.418833L478.224000 164.456031
L480.137143 170.493287L482.050286 175.486906L483.325714 176.746464
L485.876571 177.777476L485.876571 177.777476"/>
</g>
<g id="line2d4">
<path style="fill: none; stroke: #00bfbf; stroke-width: 1.000000; stroke-linejoin: round; stroke-linecap: square;  opacity: 1.000000" clip-path="url(#p50431ccdcb28178602d99d9270004dde)" d="M135.771429 220.903800L138.322286 233.339174L139.597714 237.210892
L140.235429 238.219589L141.510857 238.138325L142.786286 235.329722
L145.337143 225.456031L152.352000 200.092350L153.627429 198.996307
L156.178286 200.696179L157.453714 199.957474L158.729143 197.942488
L160.004571 196.787218L161.280000 198.986725L162.555429 205.572740
L166.381714 232.312646L167.657143 235.393454L168.932571 234.873631
L170.208000 232.154209L172.758857 223.871700L174.672000 218.199941
L175.947429 216.996825L177.222857 218.524396L179.136000 224.125390
L181.049143 230.032058L181.686857 231.445401L182.962286 232.759360
L184.237714 231.521086L185.513143 227.364847L187.426286 216.304863
L189.339429 205.256996L189.977143 203.414099L191.252571 204.169936
L192.528000 210.457437L196.354286 235.516992L198.267429 242.007701
L202.093714 252.431193L203.369143 252.121993L204.006857 250.104292
L205.282286 242.359458L208.470857 217.855584L209.108571 215.408904
L209.746286 214.293400L211.021714 215.556387L213.572571 222.462975
L214.848000 221.573978L215.485714 219.063443L216.761143 210.141722
L219.312000 188.150196L220.587429 183.243188L221.862857 185.143806
L223.138286 192.698571L226.964571 220.553324L228.240000 224.669148
L229.515429 225.832034L230.790857 224.949092L233.341714 220.173557
L236.530286 213.630896L237.168000 212.579681L238.443429 211.179150
L239.718857 211.381061L242.269714 214.257825L243.545143 212.206890
L244.820571 206.124578L247.371429 191.463823L248.646857 188.325311
L249.922286 189.033665L251.197714 192.547839L255.661714 207.757723
L256.937143 210.070096L258.212571 210.992328L259.488000 210.507670
L262.038857 208.220354L263.314286 208.708251L264.589714 211.256909
L268.416000 222.548815L269.691429 222.267714L271.604571 218.263852
L272.880000 217.398887L273.517714 218.556183L274.793143 224.222121
L277.344000 238.765164L277.981714 240.441114L279.257143 239.961880
L280.532571 235.286073L285.634286 210.837061L288.822857 200.124483
L290.098286 197.686673L291.373714 197.027410L295.200000 198.852136
L297.113143 196.648719L302.852571 185.466282L306.041143 176.067859
L308.592000 169.690934L310.505143 166.791000L311.780571 165.622951
L313.056000 165.166146L314.331429 166.071461L315.606857 168.852423
L318.157714 176.246538L318.795429 177.299169L320.070857 177.990604
L322.621714 176.771987L323.897143 175.953076L325.172571 174.694040
L327.085714 171.013599L329.636571 165.024766L330.912000 164.024176
L333.462857 164.586920L334.738286 162.779051L336.013714 158.369341
L338.564571 147.104530L339.202286 145.714245L340.477714 146.947948
L341.753143 153.836478L345.579429 181.349914L346.217143 182.653895
L347.492571 180.903320L348.768000 174.592608L351.318857 160.765387
L351.956571 159.270399L353.232000 159.603793L354.507429 163.110721
L356.420571 168.874173L357.696000 170.077111L358.971429 168.326281
L360.246857 164.148603L364.073143 149.582352L365.348571 146.598685
L366.624000 145.070913L367.899429 145.555369L369.174857 148.086729
L371.725714 154.835905L373.001143 156.059679L374.276571 154.409628
L375.552000 149.870689L378.740571 136.042678L379.378286 134.960669
L380.653714 135.512341L381.929143 138.784886L383.842286 144.056147
L385.117714 144.726533L386.393143 142.186315L388.306286 134.350262
L392.132571 117.917310L393.408000 114.456686L394.683429 114.162650
L395.321143 115.696053L396.596571 122.363381L401.060571 155.578848
L402.336000 159.151207L403.611429 159.932514L404.886857 159.565282
L406.162286 159.581683L407.437714 160.610992L409.988571 164.079036
L411.264000 164.388644L412.539429 161.879363L413.814857 155.790438
L417.641143 131.227480L418.278857 129.444166L419.554286 129.571765
L420.829714 134.276379L422.742857 146.574076L424.656000 158.723492
L425.931429 163.316718L427.206857 164.062034L428.482286 161.335993
L429.757714 156.045671L432.946286 139.662982L433.584000 137.810186
L434.859429 137.233747L435.497143 138.529612L436.772571 143.467149
L440.598857 161.846857L441.874286 165.279264L443.149714 166.213672
L444.425143 164.669080L445.700571 161.030954L447.613714 152.886827
L450.164571 142.061689L451.440000 141.394723L452.077714 143.119295
L453.353143 150.468606L456.541714 174.423038L457.817143 179.071329
L458.454857 180.084056L459.730286 180.587061L461.005714 180.660845
L462.281143 181.886847L463.556571 184.534082L465.469714 188.905518
L466.745143 190.103257L468.020571 189.512229L470.571429 185.213243
L471.846857 182.937226L473.122286 181.441217L474.397714 181.235553
L475.673143 182.332586L478.861714 187.218915L480.137143 187.976349
L481.412571 187.486577L483.325714 184.662028L485.238857 179.947228
L485.876571 178.157888L485.876571 178.157888"/>
</g>
<g id="matplotlib.axis1">
<g id="xtick1">
<g id="line2d5">
<defs><path id="m30e32995789d870ad79a2e54c91cf9c6" d="M0.000000 0.000000L0.000000 -4.000000"/></defs>
<g ><use style="fill: none; stroke: #000000; stroke-width: 0.500000; stroke-linejoin: round; stroke-linecap: butt;  opacity: 1.000000" xlink:href="#m30e32995789d870ad79a2e54c91cf9c6" x="72.000000" y="388.800000"/>
</g></g>
<g id="line2d6">
<defs><path id="m9281cae24120827b11d5ea8a7ad3e96b" d="M0.000000 0.000000L0.000000 4.000000"/></defs>
<g ><use style="fill: none; stroke: #000000; stroke-width: 0.500000; stroke-linejoin: round; stroke-linecap: butt;  opacity: 1.000000" xlink:href="#m9281cae24120827b11d5ea8a7ad3e96b" x="72.000000" y="43.200000"/>
</g></g>
<g id="text1">
<defs>
<path id="c_6a8d56c819c37117ab4cf023bec22a5a" d="M10.593750 -35.500000l62.593750 0.000000l0.000000 8.296875l-62.593750 0.000000z"/>
<path id="c_42baa63129a918535c52adb20d687ea7" d="M12.406250 -8.296875l16.109375 0.000000l0.000000 -55.625000l-17.531250 3.515625l0.000000 -8.984375l17.437500 -3.515625l9.859375 0.000000l0.000000 64.609375l16.109375 0.000000l0.000000 8.296875l-41.984375 0.000000z"/>
<path id="c_7a2040fe3b94fcd41d0a72c84e93b115" d="M31.781250 -66.406250q-7.609375 0.000000 -11.453125 7.500000q-3.828125 7.484375 -3.828125 22.531250q0.000000 14.984375 3.828125 22.484375q3.843750 7.500000 11.453125 7.500000q7.671875 0.000000 11.500000 -7.500000q3.843750 -7.500000 3.843750 -22.484375q0.000000 -15.046875 -3.843750 -22.531250q-3.828125 -7.500000 -11.500000 -7.500000M31.781250 -74.218750q12.265625 0.000000 18.734375 9.703125q6.468750 9.687500 6.468750 28.140625q0.000000 18.406250 -6.468750 28.109375q-6.468750 9.687500 -18.734375 9.687500q-12.250000 0.000000 -18.718750 -9.687500q-6.468750 -9.703125 -6.468750 -28.109375q0.000000 -18.453125 6.468750 -28.140625q6.468750 -9.703125 18.718750 -9.703125"/>
</defs>
<g style="fill: #000000; opacity: 1.000000" transform="translate(56.539062,401.706250)scale(0.120000)">
<use xlink:href="#c_6a8d56c819c37117ab4cf023bec22a5a"/>
<use xlink:href="#c_42baa63129a918535c52adb20d687ea7" x="83.789062"/>
<use xlink:href="#c_7a2040fe3b94fcd41d0a72c84e93b115" x="147.412109"/>
<use xlink:href="#c_7a2040fe3b94fcd41d0a72c84e93b115" x="211.035156"/>
</g>
</g>
</g>
<g id="xtick2">
<g id="line2d7">
<g ><use style="fill: none; stroke: #000000; stroke-width: 0.500000; stroke-linejoin: round; stroke-linecap: butt;  opacity: 1.000000" xlink:href="#m30e32995789d870ad79a2e54c91cf9c6" x="135.771429" y="388.800000"/>
</g></g>
<g id="line2d8">
<g ><use style="fill: none; stroke: #000000; stroke-width: 0.500000; stroke-linejoin: round; stroke-linecap: butt;  opacity: 1.000000" xlink:href="#m9281cae24120827b11d5ea8a7ad3e96b" x="135.771429" y="43.200000"/>
</g></g>
<g id="text2">
<g style="fill: #000000; opacity: 1.000000" transform="translate(132.747991,401.706250)scale(0.120000)">
<use xlink:href="#c_7a2040fe3b94fcd41d0a72c84e93b115"/>
</g>
</g>
</g>
<g id="xtick3">
<g id="line2d9">
<g ><use style="fill: none; stroke: #000000; stroke-width: 0.500000; stroke-linejoin: round; stroke-linecap: butt;  opacity: 1.000000" xlink:href="#m30e32995789d870ad79a2e54c91cf9c6" x="199.542857" y="388.800000"/>
</g></g>
<g id="line2d10">
<g ><use style="fill: none; stroke: #000000; stroke-width: 0.500000; stroke-linejoin: round; stroke-linecap: butt;  opacity: 1.000000" xlink:href="#m9281cae24120827b11d5ea8a7ad3e96b" x="199.542857" y="43.200000"/>
</g></g>
<g id="text3">
<g style="fill: #000000; opacity: 1.000000" transform="translate(189.136607,401.706250)scale(0.120000)">
<use xlink:href="#c_42baa63129a918535c52adb20d687ea7"/>
<use xlink:href="#c_7a2040fe3b94fcd41d0a72c84e93b115" x="63.623047"/>
<use xlink:href="#c_7a2040fe3b94fcd41d0a72c84e93b115" x="127.246094"/>
</g>
</g>
</g>
<g id="xtick4">
<g id="line2d11">
<g ><use style="fill: none; stroke: #000000; stroke-width: 0.500000; stroke-linejoin: round; stroke-linecap: butt;  opacity: 1.000000" xlink:href="#m30e32995789d870ad79a2e54c91cf9c6" x="263.314286" y="388.800000"/>
</g></g>
<g id="line2d12">
<g ><use style="fill: none; stroke: #000000; stroke-width: 0.500000; stroke-linejoin: round; stroke-linecap: butt;  opacity: 1.000000" xlink:href="#m9281cae24120827b11d5ea8a7ad3e96b" x="263.314286" y="43.200000"/>
</g></g>
<g id="text4">
<defs>
<path id="c_ed3f3ed3ebfbd18bcb9c012009a68ad1" d="M19.187500 -8.296875l34.421875 0.000000l0.000000 8.296875l-46.281250 0.000000l0.000000 -8.296875q5.609375 -5.812500 15.296875 -15.593750q9.703125 -9.796875 12.187500 -12.640625q4.734375 -5.312500 6.609375 -9.000000q1.890625 -3.687500 1.890625 -7.250000q0.000000 -5.812500 -4.078125 -9.468750q-4.078125 -3.671875 -10.625000 -3.671875q-4.640625 0.000000 -9.796875 1.609375q-5.140625 1.609375 -11.000000 4.890625l0.000000 -9.968750q5.953125 -2.390625 11.125000 -3.609375q5.187500 -1.218750 9.484375 -1.218750q11.328125 0.000000 18.062500 5.671875q6.734375 5.656250 6.734375 15.125000q0.000000 4.500000 -1.687500 8.531250q-1.671875 4.015625 -6.125000 9.484375q-1.218750 1.421875 -7.765625 8.187500q-6.531250 6.765625 -18.453125 18.921875"/>
</defs>
<g style="fill: #000000; opacity: 1.000000" transform="translate(252.689286,401.706250)scale(0.120000)">
<use xlink:href="#c_ed3f3ed3ebfbd18bcb9c012009a68ad1"/>
<use xlink:href="#c_7a2040fe3b94fcd41d0a72c84e93b115" x="63.623047"/>
<use xlink:href="#c_7a2040fe3b94fcd41d0a72c84e93b115" x="127.246094"/>
</g>
</g>
</g>
<g id="xtick5">
<g id="line2d13">
<g ><use style="fill: none; stroke: #000000; stroke-width: 0.500000; stroke-linejoin: round; stroke-linecap: butt;  opacity: 1.000000" xlink:href="#m30e32995789d870ad79a2e54c91cf9c6" x="327.085714" y="388.800000"/>
</g></g>
<g id="line2d14">
<g ><use style="fill: none; stroke: #000000; stroke-width: 0.500000; stroke-linejoin: round; stroke-linecap: butt;  opacity: 1.000000" xlink:href="#m9281cae24120827b11d5ea8a7ad3e96b" x="327.085714" y="43.200000"/>
</g></g>
<g id="text5">
<defs>
<path id="c_3dcfa38a02242cb63ec6726c6e70be7a" d="M40.578125 -39.312500q7.078125 1.515625 11.046875 6.312500q3.984375 4.781250 3.984375 11.812500q0.000000 10.781250 -7.421875 16.703125q-7.421875 5.906250 -21.093750 5.906250q-4.578125 0.000000 -9.437500 -0.906250q-4.859375 -0.906250 -10.031250 -2.718750l0.000000 -9.515625q4.093750 2.390625 8.968750 3.609375q4.890625 1.218750 10.218750 1.218750q9.265625 0.000000 14.125000 -3.656250q4.859375 -3.656250 4.859375 -10.640625q0.000000 -6.453125 -4.515625 -10.078125q-4.515625 -3.640625 -12.562500 -3.640625l-8.500000 0.000000l0.000000 -8.109375l8.890625 0.000000q7.265625 0.000000 11.125000 -2.906250q3.859375 -2.906250 3.859375 -8.375000q0.000000 -5.609375 -3.984375 -8.609375q-3.968750 -3.015625 -11.390625 -3.015625q-4.062500 0.000000 -8.703125 0.890625q-4.640625 0.875000 -10.203125 2.718750l0.000000 -8.781250q5.625000 -1.562500 10.531250 -2.343750q4.906250 -0.781250 9.250000 -0.781250q11.234375 0.000000 17.765625 5.109375q6.546875 5.093750 6.546875 13.781250q0.000000 6.062500 -3.468750 10.234375q-3.468750 4.171875 -9.859375 5.781250"/>
</defs>
<g style="fill: #000000; opacity: 1.000000" transform="translate(316.484152,401.706250)scale(0.120000)">
<use xlink:href="#c_3dcfa38a02242cb63ec6726c6e70be7a"/>
<use xlink:href="#c_7a2040fe3b94fcd41d0a72c84e93b115" x="63.623047"/>
<use xlink:href="#c_7a2040fe3b94fcd41d0a72c84e93b115" x="127.246094"/>
</g>
</g>
</g>
<g id="xtick6">
<g id="line2d15">
<g ><use style="fill: none; stroke: #000000; stroke-width: 0.500000; stroke-linejoin: round; stroke-linecap: butt;  opacity: 1.000000" xlink:href="#m30e32995789d870ad79a2e54c91cf9c6" x="390.857143" y="388.800000"/>
</g></g>
<g id="line2d16">
<g ><use style="fill: none; stroke: #000000; stroke-width: 0.500000; stroke-linejoin: round; stroke-linecap: butt;  opacity: 1.000000" xlink:href="#m9281cae24120827b11d5ea8a7ad3e96b" x="390.857143" y="43.200000"/>
</g></g>
<g id="text6">
<defs>
<path id="c_a0416418d96557a09b8c1332d34883ba" d="M37.796875 -64.312500l-24.906250 38.921875l24.906250 0.000000zM35.203125 -72.906250l12.406250 0.000000l0.000000 47.515625l10.406250 0.000000l0.000000 8.203125l-10.406250 0.000000l0.000000 17.187500l-9.812500 0.000000l0.000000 -17.187500l-32.906250 0.000000l0.000000 -9.515625z"/>
</defs>
<g style="fill: #000000; opacity: 1.000000" transform="translate(380.091518,401.706250)scale(0.120000)">
<use xlink:href="#c_a0416418d96557a09b8c1332d34883ba"/>
<use xlink:href="#c_7a2040fe3b94fcd41d0a72c84e93b115" x="63.623047"/>
<use xlink:href="#c_7a2040fe3b94fcd41d0a72c84e93b115" x="127.246094"/>
</g>
</g>
</g>
<g id="xtick7">
<g id="line2d17">
<g ><use style="fill: none; stroke: #000000; stroke-width: 0.500000; stroke-linejoin: round; stroke-linecap: butt;  opacity: 1.000000" xlink:href="#m30e32995789d870ad79a2e54c91cf9c6" x="454.628571" y="388.800000"/>
</g></g>
<g id="line2d18">
<g ><use style="fill: none; stroke: #000000; stroke-width: 0.500000; stroke-linejoin: round; stroke-linecap: butt;  opacity: 1.000000" xlink:href="#m9281cae24120827b11d5ea8a7ad3e96b" x="454.628571" y="43.200000"/>
</g></g>
<g id="text7">
<defs>
<path id="c_1260a2df50f305f3db244e29828f968e" d="M10.796875 -72.906250l38.718750 0.000000l0.000000 8.312500l-29.687500 0.000000l0.000000 17.859375q2.140625 -0.734375 4.281250 -1.093750q2.156250 -0.359375 4.312500 -0.359375q12.203125 0.000000 19.328125 6.687500q7.140625 6.687500 7.140625 18.109375q0.000000 11.765625 -7.328125 18.296875q-7.328125 6.515625 -20.656250 6.515625q-4.593750 0.000000 -9.359375 -0.781250q-4.750000 -0.781250 -9.828125 -2.343750l0.000000 -9.921875q4.390625 2.390625 9.078125 3.562500q4.687500 1.171875 9.906250 1.171875q8.453125 0.000000 13.375000 -4.437500q4.937500 -4.437500 4.937500 -12.062500q0.000000 -7.609375 -4.937500 -12.046875q-4.921875 -4.453125 -13.375000 -4.453125q-3.953125 0.000000 -7.890625 0.875000q-3.921875 0.875000 -8.015625 2.734375z"/>
</defs>
<g style="fill: #000000; opacity: 1.000000" transform="translate(444.027009,401.706250)scale(0.120000)">
<use xlink:href="#c_1260a2df50f305f3db244e29828f968e"/>
<use xlink:href="#c_7a2040fe3b94fcd41d0a72c84e93b115" x="63.623047"/>
<use xlink:href="#c_7a2040fe3b94fcd41d0a72c84e93b115" x="127.246094"/>
</g>
</g>
</g>
<g id="xtick8">
<g id="line2d19">
<g ><use style="fill: none; stroke: #000000; stroke-width: 0.500000; stroke-linejoin: round; stroke-linecap: butt;  opacity: 1.000000" xlink:href="#m30e32995789d870ad79a2e54c91cf9c6" x="518.400000" y="388.800000"/>
</g></g>
<g id="line2d20">
<g ><use style="fill: none; stroke: #000000; stroke-width: 0.500000; stroke-linejoin: round; stroke-linecap: butt;  opacity: 1.000000" xlink:href="#m9281cae24120827b11d5ea8a7ad3e96b" x="518.400000" y="43.200000"/>
</g></g>
<g id="text8">
<defs>
<path id="c_cc8d6d580d1b10c8632f7a42cd53db8a" d="M33.015625 -40.375000q-6.640625 0.000000 -10.531250 4.546875q-3.875000 4.531250 -3.875000 12.437500q0.000000 7.859375 3.875000 12.437500q3.890625 4.562500 10.531250 4.562500q6.640625 0.000000 10.515625 -4.562500q3.875000 -4.578125 3.875000 -12.437500q0.000000 -7.906250 -3.875000 -12.437500q-3.875000 -4.546875 -10.515625 -4.546875M52.593750 -71.296875l0.000000 8.984375q-3.718750 -1.750000 -7.500000 -2.671875q-3.781250 -0.937500 -7.500000 -0.937500q-9.765625 0.000000 -14.921875 6.593750q-5.140625 6.593750 -5.875000 19.921875q2.875000 -4.250000 7.218750 -6.515625q4.359375 -2.265625 9.578125 -2.265625q10.984375 0.000000 17.359375 6.671875q6.375000 6.656250 6.375000 18.125000q0.000000 11.234375 -6.640625 18.031250q-6.640625 6.781250 -17.671875 6.781250q-12.656250 0.000000 -19.343750 -9.687500q-6.687500 -9.703125 -6.687500 -28.109375q0.000000 -17.281250 8.203125 -27.562500q8.203125 -10.281250 22.015625 -10.281250q3.718750 0.000000 7.500000 0.734375q3.781250 0.734375 7.890625 2.187500"/>
</defs>
<g style="fill: #000000; opacity: 1.000000" transform="translate(507.759375,401.706250)scale(0.120000)">
<use xlink:href="#c_cc8d6d580d1b10c8632f7a42cd53db8a"/>
<use xlink:href="#c_7a2040fe3b94fcd41d0a72c84e93b115" x="63.623047"/>
<use xlink:href="#c_7a2040fe3b94fcd41d0a72c84e93b115" x="127.246094"/>
</g>
</g>
</g>
</g>
<g id="matplotlib.axis2">
<g id="ytick1">
<g id="line2d21">
<defs><path id="m3400efa6b1638b3fea9e19e898273957" d="M0.000000 0.000000L4.000000 0.000000"/></defs>
<g ><use style="fill: none; stroke: #000000; stroke-width: 0.500000; stroke-linejoin: round; stroke-linecap: butt;  opacity: 1.000000" xlink:href="#m3400efa6b1638b3fea9e19e898273957" x="72.000000" y="388.800000"/>
</g></g>
<g id="line2d22">
<defs><path id="m20b58b2501143cb5e0a5e8f1ef6f1643" d="M0.000000 0.000000L-4.000000 0.000000"/></defs>
<g ><use style="fill: none; stroke: #000000; stroke-width: 0.500000; stroke-linejoin: round; stroke-linecap: butt;  opacity: 1.000000" xlink:href="#m20b58b2501143cb5e0a5e8f1ef6f1643" x="518.400000" y="388.800000"/>
</g></g>
<g id="text9">
<g style="fill: #000000; opacity: 1.000000" transform="translate(52.531250,393.167188)scale(0.120000)">
<use xlink:href="#c_6a8d56c819c37117ab4cf023bec22a5a"/>
<use xlink:href="#c_3dcfa38a02242cb63ec6726c6e70be7a" x="83.789062"/>
</g>
</g>
</g>
<g id="ytick2">
<g id="line2d23">
<g ><use style="fill: none; stroke: #000000; stroke-width: 0.500000; stroke-linejoin: round; stroke-linecap: butt;  opacity: 1.000000" xlink:href="#m3400efa6b1638b3fea9e19e898273957" x="72.000000" y="331.200000"/>
</g></g>
<g id="line2d24">
<g ><use style="fill: none; stroke: #000000; stroke-width: 0.500000; stroke-linejoin: round; stroke-linecap: butt;  opacity: 1.000000" xlink:href="#m20b58b2501143cb5e0a5e8f1ef6f1643" x="518.400000" y="331.200000"/>
</g></g>
<g id="text10">
<g style="fill: #000000; opacity: 1.000000" transform="translate(52.765625,335.653125)scale(0.120000)">
<use xlink:href="#c_6a8d56c819c37117ab4cf023bec22a5a"/>
<use xlink:href="#c_ed3f3ed3ebfbd18bcb9c012009a68ad1" x="83.789062"/>
</g>
</g>
</g>
<g id="ytick3">
<g id="line2d25">
<g ><use style="fill: none; stroke: #000000; stroke-width: 0.500000; stroke-linejoin: round; stroke-linecap: butt;  opacity: 1.000000" xlink:href="#m3400efa6b1638b3fea9e19e898273957" x="72.000000" y="273.600000"/>
</g></g>
<g id="line2d26">
<g ><use style="fill: none; stroke: #000000; stroke-width: 0.500000; stroke-linejoin: round; stroke-linecap: butt;  opacity: 1.000000" xlink:href="#m20b58b2501143cb5e0a5e8f1ef6f1643" x="518.400000" y="273.600000"/>
</g></g>
<g id="text11">
<g style="fill: #000000; opacity: 1.000000" transform="translate(52.671875,277.975000)scale(0.120000)">
<use xlink:href="#c_6a8d56c819c37117ab4cf023bec22a5a"/>
<use xlink:href="#c_42baa63129a918535c52adb20d687ea7" x="83.789062"/>
</g>
</g>
</g>
<g id="ytick4">
<g id="line2d27">
<g ><use style="fill: none; stroke: #000000; stroke-width: 0.500000; stroke-linejoin: round; stroke-linecap: butt;  opacity: 1.000000" xlink:href="#m3400efa6b1638b3fea9e19e898273957" x="72.000000" y="216.000000"/>
</g></g>
<g id="line2d28">
<g ><use style="fill: none; stroke: #000000; stroke-width: 0.500000; stroke-linejoin: round; stroke-linecap: butt;  opacity: 1.000000" xlink:href="#m20b58b2501143cb5e0a5e8f1ef6f1643" x="518.400000" y="216.000000"/>
</g></g>
<g id="text12">
<g style="fill: #000000; opacity: 1.000000" transform="translate(61.953125,220.367188)scale(0.120000)">
<use xlink:href="#c_7a2040fe3b94fcd41d0a72c84e93b115"/>
</g>
</g>
</g>
<g id="ytick5">
<g id="line2d29">
<g ><use style="fill: none; stroke: #000000; stroke-width: 0.500000; stroke-linejoin: round; stroke-linecap: butt;  opacity: 1.000000" xlink:href="#m3400efa6b1638b3fea9e19e898273957" x="72.000000" y="158.400000"/>
</g></g>
<g id="line2d30">
<g ><use style="fill: none; stroke: #000000; stroke-width: 0.500000; stroke-linejoin: round; stroke-linecap: butt;  opacity: 1.000000" xlink:href="#m20b58b2501143cb5e0a5e8f1ef6f1643" x="518.400000" y="158.400000"/>
</g></g>
<g id="text13">
<g style="fill: #000000; opacity: 1.000000" transform="translate(62.781250,162.775000)scale(0.120000)">
<use xlink:href="#c_42baa63129a918535c52adb20d687ea7"/>
</g>
</g>
</g>
<g id="ytick6">
<g id="line2d31">
<g ><use style="fill: none; stroke: #000000; stroke-width: 0.500000; stroke-linejoin: round; stroke-linecap: butt;  opacity: 1.000000" xlink:href="#m3400efa6b1638b3fea9e19e898273957" x="72.000000" y="100.800000"/>
</g></g>
<g id="line2d32">
<g ><use style="fill: none; stroke: #000000; stroke-width: 0.500000; stroke-linejoin: round; stroke-linecap: butt;  opacity: 1.000000" xlink:href="#m20b58b2501143cb5e0a5e8f1ef6f1643" x="518.400000" y="100.800000"/>
</g></g>
<g id="text14">
<g style="fill: #000000; opacity: 1.000000" transform="translate(62.437500,105.253125)scale(0.120000)">
<use xlink:href="#c_ed3f3ed3ebfbd18bcb9c012009a68ad1"/>
</g>
</g>
</g>
<g id="ytick7">
<g id="line2d33">
<g ><use style="fill: none; stroke: #000000; stroke-width: 0.500000; stroke-linejoin: round; stroke-linecap: butt;  opacity: 1.000000" xlink:href="#m3400efa6b1638b3fea9e19e898273957" x="72.000000" y="43.200000"/>
</g></g>
<g id="line2d34">
<g ><use style="fill: none; stroke: #000000; stroke-width: 0.500000; stroke-linejoin: round; stroke-linecap: butt;  opacity: 1.000000" xlink:href="#m20b58b2501143cb5e0a5e8f1ef6f1643" x="518.400000" y="43.200000"/>
</g></g>
<g id="text15">
<g style="fill: #000000; opacity: 1.000000" transform="translate(62.250000,47.567187)scale(0.120000)">
<use xlink:href="#c_3dcfa38a02242cb63ec6726c6e70be7a"/>
</g>
</g>
</g>
</g>
<g id="patch3">
<path style="fill: none; stroke: #000000; stroke-width: 1.000000; stroke-linejoin: round; stroke-linecap: square;  opacity: 1.000000"  d="M72.000000 43.200000L518.400000 43.200000"/>
</g>
<g id="patch4">
<path style="fill: none; stroke: #000000; stroke-width: 1.000000; stroke-linejoin: round; stroke-linecap: square;  opacity: 1.000000"  d="M518.400000 388.800000L518.400000 43.200000"/>
</g>
<g id="patch5">
<path style="fill: none; stroke: #000000; stroke-width: 1.000000; stroke-linejoin: round; stroke-linecap: square;  opacity: 1.000000"  d="M72.000000 388.800000L518.400000 388.800000"/>
</g>
<g id="patch6">
<path style="fill: none; stroke: #000000; stroke-width: 1.000000; stroke-linejoin: round; stroke-linecap: square;  opacity: 1.000000"  d="M72.000000 388.800000L72.000000 43.200000"/>
</g>
</g>
</g>
</svg>
