<?xml version="1.0" standalone="no"?>
<!DOCTYPE svg PUBLIC "-//W3C//DTD SVG 1.1//EN"
  "http://www.w3.org/Graphics/SVG/1.1/DTD/svg11.dtd">
<!-- Created with matplotlib (http://matplotlib.sourceforge.net/) -->
<svg width="576pt" height="432pt" viewBox="0 0 576 432"
   xmlns="http://www.w3.org/2000/svg"
   xmlns:xlink="http://www.w3.org/1999/xlink"
   version="1.1"
   id="svg1">
<g id="figure1">
<g id="patch1">
<path style="fill: #ffffff; stroke: #ffffff; stroke-width: 1.000000; stroke-linejoin: round; stroke-linecap: square;  opacity: 1.000000"  d="M0.000000 432.000000L576.000000 432.000000L576.000000 0.000000
L0.000000 0.000000L0.000000 432.000000"/>
</g>
<g id="axes1">
<g id="patch2">
<path style="fill: #ffffff; opacity: 1.000000"  d="M72.000000 388.800000L518.400000 388.800000L518.400000 43.200000
L72.000000 43.200000L72.000000 388.800000"/>
</g>
<g id="line2d1">
<defs>
  <clipPath id="p50431ccdcb28178602d99d9270004dde">
<rect x="72.000000" y="43.200000" width="446.400000" height="345.600000"/>
  </clipPath>
</defs><path style="fill: none; stroke: #0000ff; stroke-width: 1.000000; stroke-linejoin: round; stroke-linecap: square;  opacity: 1.000000" clip-path="url(#p50431ccdcb28178602d99d9270004dde)" d="M72.000000 347.567026L75.720000 358.087547L77.208000 357.675757
L77.952000 355.725202L80.184000 345.663003L81.672000 339.957682
L82.416000 338.625396L83.904000 339.465009L86.136000 345.673862
L87.624000 348.758791L89.112000 349.109612L92.088000 345.176003
L95.808000 340.487545L97.296000 336.491801L101.760000 320.575666
L102.504000 319.437839L103.992000 318.677443L105.480000 318.928010
L106.968000 319.551538L109.200000 321.899964L110.688000 324.954107
L112.920000 331.535516L116.640000 343.562540L117.384000 345.105250
L118.872000 346.537726L120.360000 346.033947L121.848000 344.803627
L123.336000 344.195030L126.312000 345.142175L127.800000 344.604421
L129.288000 342.213488L131.520000 335.787977L135.984000 321.345673
L136.728000 319.844322L138.216000 319.292080L138.960000 320.579434
L140.448000 326.240266L144.168000 344.627806L145.656000 347.897786
L148.632000 350.804282L150.120000 353.705269L152.352000 358.444917
L153.840000 358.004090L154.584000 355.794410L156.072000 347.421310
L159.048000 326.998208L159.792000 324.338833L160.536000 323.316840
L162.024000 325.817894L165.744000 339.164661L167.232000 338.547105
L168.720000 333.524240L173.928000 310.160019L175.416000 306.501684
L176.904000 305.781798L177.648000 306.970013L179.136000 312.738221
L183.600000 338.217900L184.344000 340.087496L185.832000 340.674853
L186.576000 339.648272L188.064000 335.861405L192.528000 322.310821
L194.016000 319.922946L198.480000 316.030885L199.968000 313.416311
L202.200000 307.914824L205.176000 299.900808L205.920000 298.705245
L207.408000 298.867330L208.152000 300.565827L209.640000 307.216358
L215.592000 342.289011L217.080000 347.188293L218.568000 349.930714
L220.056000 350.125568L221.544000 347.707710L223.032000 343.151194
L228.240000 324.156021L229.728000 320.914043L230.472000 319.861043
L231.960000 319.075221L233.448000 320.372531L234.936000 324.065181
L237.168000 333.150289L239.400000 341.563696L240.888000 344.269231
L243.864000 345.702232L247.584000 349.693147L249.072000 348.596624
L250.560000 343.974478L252.792000 332.316746L255.768000 317.331825
L257.256000 312.531106L258.744000 309.620899L260.232000 308.231863
L263.208000 307.690108L266.184000 307.891529L267.672000 308.741253
L270.648000 311.544438L272.136000 312.257014L273.624000 312.032425
L275.112000 310.995468L278.088000 307.769881L279.576000 306.744839
L282.552000 305.925464L284.040000 303.588716L285.528000 298.815499
L288.504000 287.832376L289.248000 286.355437L290.736000 285.716757
L292.968000 288.495846L293.712000 289.520771L295.200000 290.459075
L296.688000 289.514503L298.920000 286.377043L300.408000 285.366085
L301.896000 286.149426L303.384000 287.915568L304.872000 288.731126
L306.360000 286.679230L307.848000 280.989644L312.312000 258.318282
L313.056000 257.079260L314.544000 257.722231L317.520000 263.101573
L319.008000 263.329255L321.240000 260.272003L323.472000 256.723638
L324.960000 255.361691L326.448000 254.856041L329.424000 254.367112
L330.912000 253.276800L332.400000 251.707611L333.888000 250.649763
L335.376000 251.124537L337.608000 254.783578L339.096000 257.360665
L340.584000 257.908702L342.072000 255.215129L343.560000 249.592238
L347.280000 233.598073L348.768000 229.822574L349.512000 228.748288
L351.000000 228.414390L352.488000 230.705098L353.976000 235.423400
L356.952000 246.695191L358.440000 249.709790L359.928000 249.754885
L362.160000 245.597456L364.392000 240.647388L365.136000 239.595243
L366.624000 238.750551L368.112000 239.267560L371.088000 242.213422
L373.320000 245.485290L377.784000 253.713594L379.272000 254.748248
L380.760000 254.323377L382.992000 251.453944L383.736000 250.293959
L385.224000 248.780388L386.712000 249.388546L388.200000 252.345702
L390.432000 258.033582L391.176000 259.273216L392.664000 260.142639
L394.152000 259.184962L395.640000 257.643724L397.128000 256.956141
L398.616000 257.992353L400.104000 260.883410L402.336000 265.667500
L403.080000 266.675669L404.568000 267.445914L407.544000 266.142192
L412.008000 263.489629L414.240000 260.364247L417.216000 254.444884
L418.704000 252.968050L420.192000 253.985953L421.680000 257.877921
L425.400000 271.547524L426.144000 272.783098L427.632000 273.010297
L429.120000 271.550779L430.608000 270.969377L432.096000 272.793821
L435.072000 278.911032L436.560000 278.891787L438.792000 275.101427
L441.024000 271.330525L444.000000 267.500002L445.488000 266.069347
L446.976000 265.736208L448.464000 266.617308L451.440000 269.847153
L452.928000 270.895908L455.904000 271.052863L457.392000 271.987344
L458.880000 274.737995L461.112000 281.702888L464.088000 290.801507
L464.832000 292.235693L466.320000 293.714186L469.296000 293.302973
L470.784000 294.140917L472.272000 296.764699L475.248000 303.630094
L475.992000 304.703062L477.480000 305.782684L480.456000 306.666408
L480.456000 306.666408"/>
</g>
<g id="line2d2">
<path style="fill: none; stroke: #008000; stroke-width: 1.000000; stroke-linejoin: round; stroke-linecap: square;  opacity: 1.000000" clip-path="url(#p50431ccdcb28178602d99d9270004dde)" d="M72.000000 343.631828L74.976000 354.290721L76.464000 357.609336
L77.952000 358.745581L79.440000 357.466070L80.928000 354.116883
L89.856000 328.957200L91.344000 325.793443L92.832000 324.853978
L95.808000 326.311010L97.296000 325.677834L98.784000 323.950704
L100.272000 322.960472L101.760000 324.845764L103.248000 330.490920
L107.712000 353.410839L108.456000 355.175456L109.944000 356.143085
L111.432000 354.604498L113.664000 349.970842L117.384000 341.314235
L118.872000 340.282993L120.360000 341.592339L121.848000 344.596072
L124.824000 351.456050L125.568000 352.667486L127.056000 353.793737
L128.544000 352.732360L130.032000 349.169869L131.520000 343.236512
L134.496000 330.220282L135.240000 328.640657L136.728000 329.288516
L138.216000 334.677803L142.680000 356.157422L144.912000 361.720887
L149.376000 370.655308L150.864000 370.390280L151.608000 368.660822
L153.096000 362.022392L156.816000 341.019072L157.560000 338.921917
L159.048000 338.074412L161.280000 342.348066L162.768000 344.968265
L164.256000 344.206267L165.000000 342.054379L166.488000 334.407191
L169.464000 315.557310L170.208000 312.745940L170.952000 311.351304
L172.440000 312.980405L173.928000 319.455918L177.648000 340.479369
L179.136000 345.450319L179.880000 346.859270L181.368000 347.856029
L182.856000 347.099222L185.832000 343.005906L189.552000 337.397911
L191.040000 335.765325L192.528000 335.182704L194.016000 336.107103
L195.504000 337.643868L196.992000 337.504769L197.736000 336.177334
L199.224000 330.963924L202.200000 318.397563L202.944000 316.622017
L204.432000 315.635974L205.920000 317.600775L208.152000 323.464063
L211.128000 330.994650L212.616000 333.486420L214.104000 334.898616
L215.592000 335.063225L220.056000 332.764888L221.544000 334.049627
L223.032000 337.059687L226.008000 344.179068L227.496000 345.248651
L228.984000 343.823276L230.472000 341.369016L231.960000 340.627618
L233.448000 343.621384L235.680000 353.357566L237.168000 358.941569
L237.912000 360.378098L239.400000 359.967326L240.888000 355.959491
L246.840000 335.003195L249.816000 327.344509L251.304000 324.594795
L252.792000 323.261376L254.280000 323.376573L257.256000 324.809527
L258.744000 324.357186L260.976000 321.832455L267.672000 311.797528
L273.624000 299.735087L275.112000 297.931412L276.600000 296.689874
L278.088000 295.949894L279.576000 296.056149L281.064000 297.629178
L283.296000 302.419499L284.784000 305.354176L286.272000 306.732617
L287.760000 306.716712L292.224000 304.639837L294.456000 302.142355
L298.176000 295.735514L299.664000 294.877865L302.640000 295.360217
L304.128000 293.810615L305.616000 290.030864L308.592000 280.375312
L309.336000 279.183638L310.824000 280.241098L312.312000 286.145553
L316.032000 307.378116L316.776000 309.728498L317.520000 310.846196
L319.008000 309.345703L320.496000 303.936521L322.728000 294.278291
L324.216000 290.803199L325.704000 291.088965L327.192000 294.094904
L329.424000 299.035005L330.912000 300.066095L332.400000 298.565384
L333.888000 294.984517L338.352000 282.499159L339.840000 279.941730
L341.328000 278.632211L342.816000 279.047459L345.048000 282.725211
L347.280000 287.002204L348.768000 288.051153L350.256000 286.636824
L351.744000 282.746305L355.464000 270.893724L356.952000 269.829473
L358.440000 271.654194L361.416000 277.762412L362.904000 278.337028
L364.392000 276.159699L366.624000 269.443081L370.344000 257.381635
L371.832000 253.636159L372.576000 252.391445L374.064000 252.139415
L374.808000 253.453760L376.296000 259.168612L381.504000 287.639013
L382.992000 290.701035L384.480000 291.370726L387.456000 291.070014
L388.944000 291.952279L391.920000 294.924888L393.408000 295.190266
L394.896000 293.039454L396.384000 287.820375L400.848000 266.766412
L401.592000 265.237856L403.080000 265.347227L403.824000 266.931984
L405.312000 272.502164L409.776000 292.703305L410.520000 294.271473
L412.008000 294.910315L413.496000 292.573708L414.984000 288.039147
L418.704000 273.996842L419.448000 272.408731L420.936000 271.914640
L421.680000 273.025382L423.168000 277.257557L427.632000 293.011592
L429.120000 295.953655L430.608000 296.754576L432.096000 295.430640
L433.584000 292.312247L435.816000 285.331566L438.048000 277.781104
L438.792000 276.052876L440.280000 275.481191L441.024000 276.959395
L442.512000 283.258805L446.232000 303.791175L447.720000 307.775425
L449.208000 309.009709L450.696000 309.054990L452.184000 309.504503
L454.416000 312.457784L456.648000 316.204729L458.136000 317.231363
L459.624000 316.724768L462.600000 313.039922L464.832000 310.333136
L466.320000 309.560787L467.808000 309.968513L469.296000 311.361977
L472.272000 314.759070L473.760000 315.408299L475.248000 314.988494
L477.480000 312.567452L479.712000 308.526195L480.456000 306.992475
L480.456000 306.992475"/>
</g>
<g id="line2d3">
<path style="fill: none; stroke: #ff0000; stroke-width: 1.000000; stroke-linejoin: round; stroke-linecap: square;  opacity: 1.000000" clip-path="url(#p50431ccdcb28178602d99d9270004dde)" d="M72.000000 344.164636L76.464000 338.690604L77.952000 338.445655
L79.440000 340.032023L81.672000 344.875348L83.160000 348.001835
L84.648000 349.353476L86.136000 348.172311L87.624000 344.777364
L90.600000 336.803265L91.344000 335.619606L92.832000 334.866419
L94.320000 335.921331L97.296000 339.120004L98.784000 339.132160
L101.016000 336.470748L103.248000 332.829976L104.736000 331.631926
L106.224000 332.425003L107.712000 335.421534L112.176000 348.515803
L113.664000 349.862705L115.152000 348.819921L116.640000 346.122120
L119.616000 340.205519L121.104000 338.635155L122.592000 338.262881
L125.568000 338.992132L127.056000 338.680380L128.544000 337.456657
L131.520000 334.012832L133.008000 333.586451L134.496000 335.415606
L135.984000 340.223537L137.472000 347.991046L142.680000 379.299924
L143.424000 381.226244L144.912000 381.455524L145.656000 379.664342
L147.144000 372.365920L148.632000 360.663409L151.608000 328.966486
L154.584000 298.068010L156.072000 287.527715L157.560000 281.695730
L158.304000 280.456356L159.792000 280.477056L161.280000 282.081322
L162.768000 283.167994L164.256000 282.434148L165.744000 279.711320
L168.720000 271.214090L173.928000 254.243256L176.160000 247.950348
L177.648000 245.213186L181.368000 239.966924L182.856000 236.632979
L185.088000 229.496588L191.784000 204.658186L195.504000 194.993691
L197.736000 190.582516L202.200000 183.133010L205.176000 175.623824
L207.408000 170.505627L208.152000 169.340468L209.640000 167.936925
L214.104000 166.231733L216.336000 163.448720L218.568000 160.110873
L220.056000 158.843848L221.544000 158.985665L223.776000 161.587134
L226.008000 165.094570L227.496000 166.618719L228.984000 166.918167
L230.472000 165.908657L234.192000 160.443226L236.424000 157.630616
L242.376000 152.238047L243.864000 151.556522L245.352000 151.857230
L247.584000 154.623042L249.816000 159.956523L252.792000 167.885588
L253.536000 169.164353L255.024000 170.057836L256.512000 168.639081
L260.232000 161.500597L261.720000 160.774471L263.208000 161.975147
L264.696000 164.090376L266.184000 165.426526L267.672000 164.542279
L269.160000 160.839098L271.392000 151.084494L276.600000 125.535788
L281.808000 103.354855L283.296000 98.855663L284.040000 97.360793
L285.528000 96.030411L287.016000 96.504275L288.504000 97.615950
L289.992000 97.854824L291.480000 96.079960L292.968000 92.005436
L298.176000 74.117419L299.664000 71.676131L302.640000 69.272212
L308.592000 65.498424L310.080000 65.444795L311.568000 65.962699
L314.544000 68.226330L317.520000 71.018481L319.008000 71.884016
L320.496000 71.862961L321.984000 70.818114L324.960000 67.389117
L326.448000 66.381694L327.936000 66.442935L329.424000 67.604825
L331.656000 71.161076L333.888000 76.482406L338.352000 87.754481
L340.584000 91.316672L345.048000 97.145704L348.024000 102.537323
L351.000000 109.358452L353.232000 115.650047L355.464000 123.717006
L361.416000 147.250356L362.904000 150.507551L363.648000 151.644063
L369.600000 158.657123L371.088000 162.091920L373.320000 169.353275
L377.040000 185.312051L379.272000 193.729765L380.760000 197.402868
L381.504000 198.557780L382.992000 199.715327L387.456000 200.267804
L388.944000 201.955294L390.432000 204.988433L395.640000 217.793775
L400.848000 227.460341L403.080000 231.945398L403.824000 233.041628
L405.312000 234.341645L408.288000 235.202490L409.776000 236.643659
L411.264000 239.651721L416.472000 253.354812L417.960000 254.214439
L419.448000 253.330090L423.168000 248.729765L424.656000 248.161334
L426.144000 249.166432L427.632000 251.940724L429.864000 258.806408
L435.816000 279.421540L438.792000 287.441575L440.280000 290.189537
L441.768000 291.934747L443.256000 292.817605L447.720000 294.225744
L449.952000 297.581972L452.184000 303.649059L454.416000 309.633850
L455.160000 310.951240L456.648000 312.220021L458.136000 312.129887
L459.624000 311.669214L461.112000 311.563179L462.600000 312.090379
L467.064000 315.427383L468.552000 315.822396L470.040000 315.467885
L471.528000 314.383133L474.504000 310.464478L478.224000 304.466526
L479.712000 303.212554L479.712000 303.212554"/>
</g>
<g id="line2d4">
<path style="fill: none; stroke: #00bfbf; stroke-width: 1.000000; stroke-linejoin: round; stroke-linecap: square;  opacity: 1.000000" clip-path="url(#p50431ccdcb28178602d99d9270004dde)" d="M72.000000 344.164636L76.464000 338.690604L77.952000 338.445655
L79.440000 340.032023L81.672000 344.875348L83.160000 348.001835
L84.648000 349.353476L86.136000 348.172311L87.624000 344.777364
L90.600000 336.803265L91.344000 335.619606L92.832000 334.866419
L94.320000 335.921331L97.296000 339.120004L98.784000 339.132160
L101.016000 336.470748L103.248000 332.829976L104.736000 331.631926
L106.224000 332.425003L107.712000 335.421534L112.176000 348.515803
L113.664000 349.862705L115.152000 348.819921L116.640000 346.122120
L119.616000 340.205519L121.104000 338.635155L122.592000 338.262881
L125.568000 338.992132L127.056000 338.680380L128.544000 337.456657
L131.520000 334.012832L133.008000 333.586451L134.496000 335.415606
L135.984000 340.223537L137.472000 347.991046L142.680000 379.299924
L143.424000 381.226244L144.912000 381.455524L145.656000 379.664342
L147.144000 372.365920L148.632000 360.663409L151.608000 328.966486
L154.584000 298.068010L156.072000 287.527715L157.560000 281.695730
L158.304000 280.456356L159.792000 280.477056L161.280000 282.081322
L162.768000 283.167994L164.256000 282.434148L165.744000 279.711320
L168.720000 271.214090L173.928000 254.243256L176.160000 247.950348
L177.648000 245.213186L181.368000 239.966924L182.856000 236.632979
L185.088000 229.496588L191.784000 204.658186L195.504000 194.993691
L197.736000 190.582516L202.200000 183.133010L205.176000 175.623824
L207.408000 170.505627L208.152000 169.340468L209.640000 167.936925
L214.104000 166.231733L216.336000 163.448720L218.568000 160.110873
L220.056000 158.843848L221.544000 158.985665L223.776000 161.587134
L226.008000 165.094570L227.496000 166.618719L228.984000 166.918167
L230.472000 165.908657L234.192000 160.443226L236.424000 157.630616
L242.376000 152.238047L243.864000 151.556522L245.352000 151.857230
L247.584000 154.623042L249.816000 159.956523L252.792000 167.885588
L253.536000 169.164353L255.024000 170.057836L256.512000 168.639081
L260.232000 161.500597L261.720000 160.774471L263.208000 161.975147
L264.696000 164.090376L266.184000 165.426526L267.672000 164.542279
L269.160000 160.839098L271.392000 151.084494L276.600000 125.535788
L281.808000 103.354855L283.296000 98.855663L284.040000 97.360793
L285.528000 96.030411L287.016000 96.504275L288.504000 97.615950
L289.992000 97.854824L291.480000 96.079960L292.968000 92.005436
L298.176000 74.117419L299.664000 71.676131L302.640000 69.272212
L308.592000 65.498424L310.080000 65.444795L311.568000 65.962699
L314.544000 68.226330L317.520000 71.018481L319.008000 71.884016
L320.496000 71.862961L321.984000 70.818114L324.960000 67.389117
L326.448000 66.381694L327.936000 66.442935L329.424000 67.604825
L331.656000 71.161076L333.888000 76.482406L338.352000 87.754481
L340.584000 91.316672L345.048000 97.145704L348.024000 102.537323
L351.000000 109.358452L353.232000 115.650047L355.464000 123.717006
L361.416000 147.250356L362.904000 150.507551L363.648000 151.644063
L369.600000 158.657123L371.088000 162.091920L373.320000 169.353275
L377.040000 185.312051L379.272000 193.729765L380.760000 197.402868
L381.504000 198.557780L382.992000 199.715327L387.456000 200.267804
L388.944000 201.955294L390.432000 204.988433L395.640000 217.793775
L400.848000 227.460341L403.080000 231.945398L403.824000 233.041628
L405.312000 234.341645L408.288000 235.202490L409.776000 236.643659
L411.264000 239.651721L416.472000 253.354812L417.960000 254.214439
L419.448000 253.330090L423.168000 248.729765L424.656000 248.161334
L426.144000 249.166432L427.632000 251.940724L429.864000 258.806408
L435.816000 279.421540L438.792000 287.441575L440.280000 290.189537
L441.768000 291.934747L443.256000 292.817605L447.720000 294.225744
L449.952000 297.581972L452.184000 303.649059L454.416000 309.633850
L455.160000 310.951240L456.648000 312.220021L458.136000 312.129887
L459.624000 311.669214L461.112000 311.563179L462.600000 312.090379
L467.064000 315.427383L468.552000 315.822396L470.040000 315.467885
L471.528000 314.383133L474.504000 310.464478L478.224000 304.466526
L479.712000 303.212554L479.712000 303.212554"/>
</g>
<g id="line2d5">
<path style="fill: none; stroke: #bf00bf; stroke-width: 1.000000; stroke-linejoin: round; stroke-linecap: square;  opacity: 1.000000" clip-path="url(#p50431ccdcb28178602d99d9270004dde)" d="M72.000000 344.164636L76.464000 338.690604L77.952000 338.445655
L79.440000 340.032023L81.672000 344.875348L83.160000 348.001835
L84.648000 349.353476L86.136000 348.172311L87.624000 344.777364
L90.600000 336.803265L91.344000 335.619606L92.832000 334.866419
L94.320000 335.921331L97.296000 339.120004L98.784000 339.132160
L101.016000 336.470748L103.248000 332.829976L104.736000 331.631926
L106.224000 332.425003L107.712000 335.421534L112.176000 348.515803
L113.664000 349.862705L115.152000 348.819921L116.640000 346.122120
L119.616000 340.205519L121.104000 338.635155L122.592000 338.262881
L125.568000 338.992132L127.056000 338.680380L128.544000 337.456657
L131.520000 334.012832L133.008000 333.586451L134.496000 335.415606
L135.984000 340.223537L137.472000 347.991046L142.680000 379.299924
L143.424000 381.226244L144.912000 381.455524L145.656000 379.664342
L147.144000 372.365920L148.632000 360.663409L151.608000 328.966486
L154.584000 298.068010L156.072000 287.527715L157.560000 281.695730
L158.304000 280.456356L159.792000 280.477056L161.280000 282.081322
L162.768000 283.167994L164.256000 282.434148L165.744000 279.711320
L168.720000 271.214090L173.928000 254.243256L176.160000 247.950348
L177.648000 245.213186L181.368000 239.966924L182.856000 236.632979
L185.088000 229.496588L191.784000 204.658186L195.504000 194.993691
L197.736000 190.582516L202.200000 183.133010L205.176000 175.623824
L207.408000 170.505627L208.152000 169.340468L209.640000 167.936925
L214.104000 166.231733L216.336000 163.448720L218.568000 160.110873
L220.056000 158.843848L221.544000 158.985665L223.776000 161.587134
L226.008000 165.094570L227.496000 166.618719L228.984000 166.918167
L230.472000 165.908657L234.192000 160.443226L236.424000 157.630616
L242.376000 152.238047L243.864000 151.556522L245.352000 151.857230
L247.584000 154.623042L249.816000 159.956523L252.792000 167.885588
L253.536000 169.164353L255.024000 170.057836L256.512000 168.639081
L260.232000 161.500597L261.720000 160.774471L263.208000 161.975147
L264.696000 164.090376L266.184000 165.426526L267.672000 164.542279
L269.160000 160.839098L271.392000 151.084494L276.600000 125.535788
L281.808000 103.354855L283.296000 98.855663L284.040000 97.360793
L285.528000 96.030411L287.016000 96.504275L288.504000 97.615950
L289.992000 97.854824L291.480000 96.079960L292.968000 92.005436
L298.176000 74.117419L299.664000 71.676131L302.640000 69.272212
L308.592000 65.498424L310.080000 65.444795L311.568000 65.962699
L314.544000 68.226330L317.520000 71.018481L319.008000 71.884016
L320.496000 71.862961L321.984000 70.818114L324.960000 67.389117
L326.448000 66.381694L327.936000 66.442935L329.424000 67.604825
L331.656000 71.161076L333.888000 76.482406L338.352000 87.754481
L340.584000 91.316672L345.048000 97.145704L348.024000 102.537323
L351.000000 109.358452L353.232000 115.650047L355.464000 123.717006
L361.416000 147.250356L362.904000 150.507551L363.648000 151.644063
L369.600000 158.657123L371.088000 162.091920L373.320000 169.353275
L377.040000 185.312051L379.272000 193.729765L380.760000 197.402868
L381.504000 198.557780L382.992000 199.715327L387.456000 200.267804
L388.944000 201.955294L390.432000 204.988433L395.640000 217.793775
L400.848000 227.460341L403.080000 231.945398L403.824000 233.041628
L405.312000 234.341645L408.288000 235.202490L409.776000 236.643659
L411.264000 239.651721L416.472000 253.354812L417.960000 254.214439
L419.448000 253.330090L423.168000 248.729765L424.656000 248.161334
L426.144000 249.166432L427.632000 251.940724L429.864000 258.806408
L435.816000 279.421540L438.792000 287.441575L440.280000 290.189537
L441.768000 291.934747L443.256000 292.817605L447.720000 294.225744
L449.952000 297.581972L452.184000 303.649059L454.416000 309.633850
L455.160000 310.951240L456.648000 312.220021L458.136000 312.129887
L459.624000 311.669214L461.112000 311.563179L462.600000 312.090379
L467.064000 315.427383L468.552000 315.822396L470.040000 315.467885
L471.528000 314.383133L474.504000 310.464478L478.224000 304.466526
L479.712000 303.212554L479.712000 303.212554"/>
</g>
<g id="line2d6">
<path style="fill: none; stroke: #bfbf00; stroke-width: 1.000000; stroke-linejoin: round; stroke-linecap: square;  opacity: 1.000000" clip-path="url(#p50431ccdcb28178602d99d9270004dde)" d="M72.000000 344.164636L76.464000 338.690604L77.952000 338.445655
L79.440000 340.032023L81.672000 344.875348L83.160000 348.001835
L84.648000 349.353476L86.136000 348.172311L87.624000 344.777364
L90.600000 336.803265L91.344000 335.619606L92.832000 334.866419
L94.320000 335.921331L97.296000 339.120004L98.784000 339.132160
L101.016000 336.470748L103.248000 332.829976L104.736000 331.631926
L106.224000 332.425003L107.712000 335.421534L112.176000 348.515803
L113.664000 349.862705L115.152000 348.819921L116.640000 346.122120
L119.616000 340.205519L121.104000 338.635155L122.592000 338.262881
L125.568000 338.992132L127.056000 338.680380L128.544000 337.456657
L131.520000 334.012832L133.008000 333.586451L134.496000 335.415606
L135.984000 340.223537L137.472000 347.991046L142.680000 379.299924
L143.424000 381.226244L144.912000 381.455524L145.656000 379.664342
L147.144000 372.365920L148.632000 360.663409L151.608000 328.966486
L154.584000 298.068010L156.072000 287.527715L157.560000 281.695730
L158.304000 280.456356L159.792000 280.477056L161.280000 282.081322
L162.768000 283.167994L164.256000 282.434148L165.744000 279.711320
L168.720000 271.214090L173.928000 254.243256L176.160000 247.950348
L177.648000 245.213186L181.368000 239.966924L182.856000 236.632979
L185.088000 229.496588L191.784000 204.658186L195.504000 194.993691
L197.736000 190.582516L202.200000 183.133010L205.176000 175.623824
L207.408000 170.505627L208.152000 169.340468L209.640000 167.936925
L214.104000 166.231733L216.336000 163.448720L218.568000 160.110873
L220.056000 158.843848L221.544000 158.985665L223.776000 161.587134
L226.008000 165.094570L227.496000 166.618719L228.984000 166.918167
L230.472000 165.908657L234.192000 160.443226L236.424000 157.630616
L242.376000 152.238047L243.864000 151.556522L245.352000 151.857230
L247.584000 154.623042L249.816000 159.956523L252.792000 167.885588
L253.536000 169.164353L255.024000 170.057836L256.512000 168.639081
L260.232000 161.500597L261.720000 160.774471L263.208000 161.975147
L264.696000 164.090376L266.184000 165.426526L267.672000 164.542279
L269.160000 160.839098L271.392000 151.084494L276.600000 125.535788
L281.808000 103.354855L283.296000 98.855663L284.040000 97.360793
L285.528000 96.030411L287.016000 96.504275L288.504000 97.615950
L289.992000 97.854824L291.480000 96.079960L292.968000 92.005436
L298.176000 74.117419L299.664000 71.676131L302.640000 69.272212
L308.592000 65.498424L310.080000 65.444795L311.568000 65.962699
L314.544000 68.226330L317.520000 71.018481L319.008000 71.884016
L320.496000 71.862961L321.984000 70.818114L324.960000 67.389117
L326.448000 66.381694L327.936000 66.442935L329.424000 67.604825
L331.656000 71.161076L333.888000 76.482406L338.352000 87.754481
L340.584000 91.316672L345.048000 97.145704L348.024000 102.537323
L351.000000 109.358452L353.232000 115.650047L355.464000 123.717006
L361.416000 147.250356L362.904000 150.507551L363.648000 151.644063
L369.600000 158.657123L371.088000 162.091920L373.320000 169.353275
L377.040000 185.312051L379.272000 193.729765L380.760000 197.402868
L381.504000 198.557780L382.992000 199.715327L387.456000 200.267804
L388.944000 201.955294L390.432000 204.988433L395.640000 217.793775
L400.848000 227.460341L403.080000 231.945398L403.824000 233.041628
L405.312000 234.341645L408.288000 235.202490L409.776000 236.643659
L411.264000 239.651721L416.472000 253.354812L417.960000 254.214439
L419.448000 253.330090L423.168000 248.729765L424.656000 248.161334
L426.144000 249.166432L427.632000 251.940724L429.864000 258.806408
L435.816000 279.421540L438.792000 287.441575L440.280000 290.189537
L441.768000 291.934747L443.256000 292.817605L447.720000 294.225744
L449.952000 297.581972L452.184000 303.649059L454.416000 309.633850
L455.160000 310.951240L456.648000 312.220021L458.136000 312.129887
L459.624000 311.669214L461.112000 311.563179L462.600000 312.090379
L467.064000 315.427383L468.552000 315.822396L470.040000 315.467885
L471.528000 314.383133L474.504000 310.464478L478.224000 304.466526
L479.712000 303.212554L479.712000 303.212554"/>
</g>
<g id="line2d7">
<path style="fill: none; stroke: #000000; stroke-width: 1.000000; stroke-linejoin: round; stroke-linecap: square;  opacity: 1.000000" clip-path="url(#p50431ccdcb28178602d99d9270004dde)" d="M72.000000 344.164636L76.464000 338.690604L77.952000 338.445655
L79.440000 340.032023L81.672000 344.875348L83.160000 348.001835
L84.648000 349.353476L86.136000 348.172311L87.624000 344.777364
L90.600000 336.803265L91.344000 335.619606L92.832000 334.866419
L94.320000 335.921331L97.296000 339.120004L98.784000 339.132160
L101.016000 336.470748L103.248000 332.829976L104.736000 331.631926
L106.224000 332.425003L107.712000 335.421534L112.176000 348.515803
L113.664000 349.862705L115.152000 348.819921L116.640000 346.122120
L119.616000 340.205519L121.104000 338.635155L122.592000 338.262881
L125.568000 338.992132L127.056000 338.680380L128.544000 337.456657
L131.520000 334.012832L133.008000 333.586451L134.496000 335.415606
L135.984000 340.223537L137.472000 347.991046L142.680000 379.299924
L143.424000 381.226244L144.912000 381.455524L145.656000 379.664342
L147.144000 372.365920L148.632000 360.663409L151.608000 328.966486
L154.584000 298.068010L156.072000 287.527715L157.560000 281.695730
L158.304000 280.456356L159.792000 280.477056L161.280000 282.081322
L162.768000 283.167994L164.256000 282.434148L165.744000 279.711320
L168.720000 271.214090L173.928000 254.243256L176.160000 247.950348
L177.648000 245.213186L181.368000 239.966924L182.856000 236.632979
L185.088000 229.496588L191.784000 204.658186L195.504000 194.993691
L197.736000 190.582516L202.200000 183.133010L205.176000 175.623824
L207.408000 170.505627L208.152000 169.340468L209.640000 167.936925
L214.104000 166.231733L216.336000 163.448720L218.568000 160.110873
L220.056000 158.843848L221.544000 158.985665L223.776000 161.587134
L226.008000 165.094570L227.496000 166.618719L228.984000 166.918167
L230.472000 165.908657L234.192000 160.443226L236.424000 157.630616
L242.376000 152.238047L243.864000 151.556522L245.352000 151.857230
L247.584000 154.623042L249.816000 159.956523L252.792000 167.885588
L253.536000 169.164353L255.024000 170.057836L256.512000 168.639081
L260.232000 161.500597L261.720000 160.774471L263.208000 161.975147
L264.696000 164.090376L266.184000 165.426526L267.672000 164.542279
L269.160000 160.839098L271.392000 151.084494L276.600000 125.535788
L281.808000 103.354855L283.296000 98.855663L284.040000 97.360793
L285.528000 96.030411L287.016000 96.504275L288.504000 97.615950
L289.992000 97.854824L291.480000 96.079960L292.968000 92.005436
L298.176000 74.117419L299.664000 71.676131L302.640000 69.272212
L308.592000 65.498424L310.080000 65.444795L311.568000 65.962699
L314.544000 68.226330L317.520000 71.018481L319.008000 71.884016
L320.496000 71.862961L321.984000 70.818114L324.960000 67.389117
L326.448000 66.381694L327.936000 66.442935L329.424000 67.604825
L331.656000 71.161076L333.888000 76.482406L338.352000 87.754481
L340.584000 91.316672L345.048000 97.145704L348.024000 102.537323
L351.000000 109.358452L353.232000 115.650047L355.464000 123.717006
L361.416000 147.250356L362.904000 150.507551L363.648000 151.644063
L369.600000 158.657123L371.088000 162.091920L373.320000 169.353275
L377.040000 185.312051L379.272000 193.729765L380.760000 197.402868
L381.504000 198.557780L382.992000 199.715327L387.456000 200.267804
L388.944000 201.955294L390.432000 204.988433L395.640000 217.793775
L400.848000 227.460341L403.080000 231.945398L403.824000 233.041628
L405.312000 234.341645L408.288000 235.202490L409.776000 236.643659
L411.264000 239.651721L416.472000 253.354812L417.960000 254.214439
L419.448000 253.330090L423.168000 248.729765L424.656000 248.161334
L426.144000 249.166432L427.632000 251.940724L429.864000 258.806408
L435.816000 279.421540L438.792000 287.441575L440.280000 290.189537
L441.768000 291.934747L443.256000 292.817605L447.720000 294.225744
L449.952000 297.581972L452.184000 303.649059L454.416000 309.633850
L455.160000 310.951240L456.648000 312.220021L458.136000 312.129887
L459.624000 311.669214L461.112000 311.563179L462.600000 312.090379
L467.064000 315.427383L468.552000 315.822396L470.040000 315.467885
L471.528000 314.383133L474.504000 310.464478L478.224000 304.466526
L479.712000 303.212554L479.712000 303.212554"/>
</g>
<g id="matplotlib.axis1">
<g id="xtick1">
<g id="line2d8">
<defs><path id="m30e32995789d870ad79a2e54c91cf9c6" d="M0.000000 0.000000L0.000000 -4.000000"/></defs>
<g ><use style="fill: none; stroke: #000000; stroke-width: 0.500000; stroke-linejoin: round; stroke-linecap: butt;  opacity: 1.000000" xlink:href="#m30e32995789d870ad79a2e54c91cf9c6" x="72.000000" y="388.800000"/>
</g></g>
<g id="line2d9">
<defs><path id="m9281cae24120827b11d5ea8a7ad3e96b" d="M0.000000 0.000000L0.000000 4.000000"/></defs>
<g ><use style="fill: none; stroke: #000000; stroke-width: 0.500000; stroke-linejoin: round; stroke-linecap: butt;  opacity: 1.000000" xlink:href="#m9281cae24120827b11d5ea8a7ad3e96b" x="72.000000" y="43.200000"/>
</g></g>
<g id="text1">
<defs>
<path id="c_7a2040fe3b94fcd41d0a72c84e93b115" d="M31.781250 -66.406250q-7.609375 0.000000 -11.453125 7.500000q-3.828125 7.484375 -3.828125 22.531250q0.000000 14.984375 3.828125 22.484375q3.843750 7.500000 11.453125 7.500000q7.671875 0.000000 11.500000 -7.500000q3.843750 -7.500000 3.843750 -22.484375q0.000000 -15.046875 -3.843750 -22.531250q-3.828125 -7.500000 -11.500000 -7.500000M31.781250 -74.218750q12.265625 0.000000 18.734375 9.703125q6.468750 9.687500 6.468750 28.140625q0.000000 18.406250 -6.468750 28.109375q-6.468750 9.687500 -18.734375 9.687500q-12.250000 0.000000 -18.718750 -9.687500q-6.468750 -9.703125 -6.468750 -28.109375q0.000000 -18.453125 6.468750 -28.140625q6.468750 -9.703125 18.718750 -9.703125"/>
</defs>
<g style="fill: #000000; opacity: 1.000000" transform="translate(68.976562,401.706250)scale(0.120000)">
<use xlink:href="#c_7a2040fe3b94fcd41d0a72c84e93b115"/>
</g>
</g>
</g>
<g id="xtick2">
<g id="line2d10">
<g ><use style="fill: none; stroke: #000000; stroke-width: 0.500000; stroke-linejoin: round; stroke-linecap: butt;  opacity: 1.000000" xlink:href="#m30e32995789d870ad79a2e54c91cf9c6" x="146.400000" y="388.800000"/>
</g></g>
<g id="line2d11">
<g ><use style="fill: none; stroke: #000000; stroke-width: 0.500000; stroke-linejoin: round; stroke-linecap: butt;  opacity: 1.000000" xlink:href="#m9281cae24120827b11d5ea8a7ad3e96b" x="146.400000" y="43.200000"/>
</g></g>
<g id="text2">
<defs>
<path id="c_42baa63129a918535c52adb20d687ea7" d="M12.406250 -8.296875l16.109375 0.000000l0.000000 -55.625000l-17.531250 3.515625l0.000000 -8.984375l17.437500 -3.515625l9.859375 0.000000l0.000000 64.609375l16.109375 0.000000l0.000000 8.296875l-41.984375 0.000000z"/>
</defs>
<g style="fill: #000000; opacity: 1.000000" transform="translate(135.993750,401.706250)scale(0.120000)">
<use xlink:href="#c_42baa63129a918535c52adb20d687ea7"/>
<use xlink:href="#c_7a2040fe3b94fcd41d0a72c84e93b115" x="63.623047"/>
<use xlink:href="#c_7a2040fe3b94fcd41d0a72c84e93b115" x="127.246094"/>
</g>
</g>
</g>
<g id="xtick3">
<g id="line2d12">
<g ><use style="fill: none; stroke: #000000; stroke-width: 0.500000; stroke-linejoin: round; stroke-linecap: butt;  opacity: 1.000000" xlink:href="#m30e32995789d870ad79a2e54c91cf9c6" x="220.800000" y="388.800000"/>
</g></g>
<g id="line2d13">
<g ><use style="fill: none; stroke: #000000; stroke-width: 0.500000; stroke-linejoin: round; stroke-linecap: butt;  opacity: 1.000000" xlink:href="#m9281cae24120827b11d5ea8a7ad3e96b" x="220.800000" y="43.200000"/>
</g></g>
<g id="text3">
<defs>
<path id="c_ed3f3ed3ebfbd18bcb9c012009a68ad1" d="M19.187500 -8.296875l34.421875 0.000000l0.000000 8.296875l-46.281250 0.000000l0.000000 -8.296875q5.609375 -5.812500 15.296875 -15.593750q9.703125 -9.796875 12.187500 -12.640625q4.734375 -5.312500 6.609375 -9.000000q1.890625 -3.687500 1.890625 -7.250000q0.000000 -5.812500 -4.078125 -9.468750q-4.078125 -3.671875 -10.625000 -3.671875q-4.640625 0.000000 -9.796875 1.609375q-5.140625 1.609375 -11.000000 4.890625l0.000000 -9.968750q5.953125 -2.390625 11.125000 -3.609375q5.187500 -1.218750 9.484375 -1.218750q11.328125 0.000000 18.062500 5.671875q6.734375 5.656250 6.734375 15.125000q0.000000 4.500000 -1.687500 8.531250q-1.671875 4.015625 -6.125000 9.484375q-1.218750 1.421875 -7.765625 8.187500q-6.531250 6.765625 -18.453125 18.921875"/>
</defs>
<g style="fill: #000000; opacity: 1.000000" transform="translate(210.175000,401.706250)scale(0.120000)">
<use xlink:href="#c_ed3f3ed3ebfbd18bcb9c012009a68ad1"/>
<use xlink:href="#c_7a2040fe3b94fcd41d0a72c84e93b115" x="63.623047"/>
<use xlink:href="#c_7a2040fe3b94fcd41d0a72c84e93b115" x="127.246094"/>
</g>
</g>
</g>
<g id="xtick4">
<g id="line2d14">
<g ><use style="fill: none; stroke: #000000; stroke-width: 0.500000; stroke-linejoin: round; stroke-linecap: butt;  opacity: 1.000000" xlink:href="#m30e32995789d870ad79a2e54c91cf9c6" x="295.200000" y="388.800000"/>
</g></g>
<g id="line2d15">
<g ><use style="fill: none; stroke: #000000; stroke-width: 0.500000; stroke-linejoin: round; stroke-linecap: butt;  opacity: 1.000000" xlink:href="#m9281cae24120827b11d5ea8a7ad3e96b" x="295.200000" y="43.200000"/>
</g></g>
<g id="text4">
<defs>
<path id="c_3dcfa38a02242cb63ec6726c6e70be7a" d="M40.578125 -39.312500q7.078125 1.515625 11.046875 6.312500q3.984375 4.781250 3.984375 11.812500q0.000000 10.781250 -7.421875 16.703125q-7.421875 5.906250 -21.093750 5.906250q-4.578125 0.000000 -9.437500 -0.906250q-4.859375 -0.906250 -10.031250 -2.718750l0.000000 -9.515625q4.093750 2.390625 8.968750 3.609375q4.890625 1.218750 10.218750 1.218750q9.265625 0.000000 14.125000 -3.656250q4.859375 -3.656250 4.859375 -10.640625q0.000000 -6.453125 -4.515625 -10.078125q-4.515625 -3.640625 -12.562500 -3.640625l-8.500000 0.000000l0.000000 -8.109375l8.890625 0.000000q7.265625 0.000000 11.125000 -2.906250q3.859375 -2.906250 3.859375 -8.375000q0.000000 -5.609375 -3.984375 -8.609375q-3.968750 -3.015625 -11.390625 -3.015625q-4.062500 0.000000 -8.703125 0.890625q-4.640625 0.875000 -10.203125 2.718750l0.000000 -8.781250q5.625000 -1.562500 10.531250 -2.343750q4.906250 -0.781250 9.250000 -0.781250q11.234375 0.000000 17.765625 5.109375q6.546875 5.093750 6.546875 13.781250q0.000000 6.062500 -3.468750 10.234375q-3.468750 4.171875 -9.859375 5.781250"/>
</defs>
<g style="fill: #000000; opacity: 1.000000" transform="translate(284.598437,401.706250)scale(0.120000)">
<use xlink:href="#c_3dcfa38a02242cb63ec6726c6e70be7a"/>
<use xlink:href="#c_7a2040fe3b94fcd41d0a72c84e93b115" x="63.623047"/>
<use xlink:href="#c_7a2040fe3b94fcd41d0a72c84e93b115" x="127.246094"/>
</g>
</g>
</g>
<g id="xtick5">
<g id="line2d16">
<g ><use style="fill: none; stroke: #000000; stroke-width: 0.500000; stroke-linejoin: round; stroke-linecap: butt;  opacity: 1.000000" xlink:href="#m30e32995789d870ad79a2e54c91cf9c6" x="369.600000" y="388.800000"/>
</g></g>
<g id="line2d17">
<g ><use style="fill: none; stroke: #000000; stroke-width: 0.500000; stroke-linejoin: round; stroke-linecap: butt;  opacity: 1.000000" xlink:href="#m9281cae24120827b11d5ea8a7ad3e96b" x="369.600000" y="43.200000"/>
</g></g>
<g id="text5">
<defs>
<path id="c_a0416418d96557a09b8c1332d34883ba" d="M37.796875 -64.312500l-24.906250 38.921875l24.906250 0.000000zM35.203125 -72.906250l12.406250 0.000000l0.000000 47.515625l10.406250 0.000000l0.000000 8.203125l-10.406250 0.000000l0.000000 17.187500l-9.812500 0.000000l0.000000 -17.187500l-32.906250 0.000000l0.000000 -9.515625z"/>
</defs>
<g style="fill: #000000; opacity: 1.000000" transform="translate(358.834375,401.706250)scale(0.120000)">
<use xlink:href="#c_a0416418d96557a09b8c1332d34883ba"/>
<use xlink:href="#c_7a2040fe3b94fcd41d0a72c84e93b115" x="63.623047"/>
<use xlink:href="#c_7a2040fe3b94fcd41d0a72c84e93b115" x="127.246094"/>
</g>
</g>
</g>
<g id="xtick6">
<g id="line2d18">
<g ><use style="fill: none; stroke: #000000; stroke-width: 0.500000; stroke-linejoin: round; stroke-linecap: butt;  opacity: 1.000000" xlink:href="#m30e32995789d870ad79a2e54c91cf9c6" x="444.000000" y="388.800000"/>
</g></g>
<g id="line2d19">
<g ><use style="fill: none; stroke: #000000; stroke-width: 0.500000; stroke-linejoin: round; stroke-linecap: butt;  opacity: 1.000000" xlink:href="#m9281cae24120827b11d5ea8a7ad3e96b" x="444.000000" y="43.200000"/>
</g></g>
<g id="text6">
<defs>
<path id="c_1260a2df50f305f3db244e29828f968e" d="M10.796875 -72.906250l38.718750 0.000000l0.000000 8.312500l-29.687500 0.000000l0.000000 17.859375q2.140625 -0.734375 4.281250 -1.093750q2.156250 -0.359375 4.312500 -0.359375q12.203125 0.000000 19.328125 6.687500q7.140625 6.687500 7.140625 18.109375q0.000000 11.765625 -7.328125 18.296875q-7.328125 6.515625 -20.656250 6.515625q-4.593750 0.000000 -9.359375 -0.781250q-4.750000 -0.781250 -9.828125 -2.343750l0.000000 -9.921875q4.390625 2.390625 9.078125 3.562500q4.687500 1.171875 9.906250 1.171875q8.453125 0.000000 13.375000 -4.437500q4.937500 -4.437500 4.937500 -12.062500q0.000000 -7.609375 -4.937500 -12.046875q-4.921875 -4.453125 -13.375000 -4.453125q-3.953125 0.000000 -7.890625 0.875000q-3.921875 0.875000 -8.015625 2.734375z"/>
</defs>
<g style="fill: #000000; opacity: 1.000000" transform="translate(433.398438,401.706250)scale(0.120000)">
<use xlink:href="#c_1260a2df50f305f3db244e29828f968e"/>
<use xlink:href="#c_7a2040fe3b94fcd41d0a72c84e93b115" x="63.623047"/>
<use xlink:href="#c_7a2040fe3b94fcd41d0a72c84e93b115" x="127.246094"/>
</g>
</g>
</g>
<g id="xtick7">
<g id="line2d20">
<g ><use style="fill: none; stroke: #000000; stroke-width: 0.500000; stroke-linejoin: round; stroke-linecap: butt;  opacity: 1.000000" xlink:href="#m30e32995789d870ad79a2e54c91cf9c6" x="518.400000" y="388.800000"/>
</g></g>
<g id="line2d21">
<g ><use style="fill: none; stroke: #000000; stroke-width: 0.500000; stroke-linejoin: round; stroke-linecap: butt;  opacity: 1.000000" xlink:href="#m9281cae24120827b11d5ea8a7ad3e96b" x="518.400000" y="43.200000"/>
</g></g>
<g id="text7">
<defs>
<path id="c_cc8d6d580d1b10c8632f7a42cd53db8a" d="M33.015625 -40.375000q-6.640625 0.000000 -10.531250 4.546875q-3.875000 4.531250 -3.875000 12.437500q0.000000 7.859375 3.875000 12.437500q3.890625 4.562500 10.531250 4.562500q6.640625 0.000000 10.515625 -4.562500q3.875000 -4.578125 3.875000 -12.437500q0.000000 -7.906250 -3.875000 -12.437500q-3.875000 -4.546875 -10.515625 -4.546875M52.593750 -71.296875l0.000000 8.984375q-3.718750 -1.750000 -7.500000 -2.671875q-3.781250 -0.937500 -7.500000 -0.937500q-9.765625 0.000000 -14.921875 6.593750q-5.140625 6.593750 -5.875000 19.921875q2.875000 -4.250000 7.218750 -6.515625q4.359375 -2.265625 9.578125 -2.265625q10.984375 0.000000 17.359375 6.671875q6.375000 6.656250 6.375000 18.125000q0.000000 11.234375 -6.640625 18.031250q-6.640625 6.781250 -17.671875 6.781250q-12.656250 0.000000 -19.343750 -9.687500q-6.687500 -9.703125 -6.687500 -28.109375q0.000000 -17.281250 8.203125 -27.562500q8.203125 -10.281250 22.015625 -10.281250q3.718750 0.000000 7.500000 0.734375q3.781250 0.734375 7.890625 2.187500"/>
</defs>
<g style="fill: #000000; opacity: 1.000000" transform="translate(507.759375,401.706250)scale(0.120000)">
<use xlink:href="#c_cc8d6d580d1b10c8632f7a42cd53db8a"/>
<use xlink:href="#c_7a2040fe3b94fcd41d0a72c84e93b115" x="63.623047"/>
<use xlink:href="#c_7a2040fe3b94fcd41d0a72c84e93b115" x="127.246094"/>
</g>
</g>
</g>
</g>
<g id="matplotlib.axis2">
<g id="ytick1">
<g id="line2d22">
<defs><path id="m3400efa6b1638b3fea9e19e898273957" d="M0.000000 0.000000L4.000000 0.000000"/></defs>
<g ><use style="fill: none; stroke: #000000; stroke-width: 0.500000; stroke-linejoin: round; stroke-linecap: butt;  opacity: 1.000000" xlink:href="#m3400efa6b1638b3fea9e19e898273957" x="72.000000" y="388.800000"/>
</g></g>
<g id="line2d23">
<defs><path id="m20b58b2501143cb5e0a5e8f1ef6f1643" d="M0.000000 0.000000L-4.000000 0.000000"/></defs>
<g ><use style="fill: none; stroke: #000000; stroke-width: 0.500000; stroke-linejoin: round; stroke-linecap: butt;  opacity: 1.000000" xlink:href="#m20b58b2501143cb5e0a5e8f1ef6f1643" x="518.400000" y="388.800000"/>
</g></g>
<g id="text8">
<defs>
<path id="c_6a8d56c819c37117ab4cf023bec22a5a" d="M10.593750 -35.500000l62.593750 0.000000l0.000000 8.296875l-62.593750 0.000000z"/>
</defs>
<g style="fill: #000000; opacity: 1.000000" transform="translate(52.671875,393.175000)scale(0.120000)">
<use xlink:href="#c_6a8d56c819c37117ab4cf023bec22a5a"/>
<use xlink:href="#c_42baa63129a918535c52adb20d687ea7" x="83.789062"/>
</g>
</g>
</g>
<g id="ytick2">
<g id="line2d24">
<g ><use style="fill: none; stroke: #000000; stroke-width: 0.500000; stroke-linejoin: round; stroke-linecap: butt;  opacity: 1.000000" xlink:href="#m3400efa6b1638b3fea9e19e898273957" x="72.000000" y="339.428571"/>
</g></g>
<g id="line2d25">
<g ><use style="fill: none; stroke: #000000; stroke-width: 0.500000; stroke-linejoin: round; stroke-linecap: butt;  opacity: 1.000000" xlink:href="#m20b58b2501143cb5e0a5e8f1ef6f1643" x="518.400000" y="339.428571"/>
</g></g>
<g id="text9">
<g style="fill: #000000; opacity: 1.000000" transform="translate(61.953125,343.795759)scale(0.120000)">
<use xlink:href="#c_7a2040fe3b94fcd41d0a72c84e93b115"/>
</g>
</g>
</g>
<g id="ytick3">
<g id="line2d26">
<g ><use style="fill: none; stroke: #000000; stroke-width: 0.500000; stroke-linejoin: round; stroke-linecap: butt;  opacity: 1.000000" xlink:href="#m3400efa6b1638b3fea9e19e898273957" x="72.000000" y="290.057143"/>
</g></g>
<g id="line2d27">
<g ><use style="fill: none; stroke: #000000; stroke-width: 0.500000; stroke-linejoin: round; stroke-linecap: butt;  opacity: 1.000000" xlink:href="#m20b58b2501143cb5e0a5e8f1ef6f1643" x="518.400000" y="290.057143"/>
</g></g>
<g id="text10">
<g style="fill: #000000; opacity: 1.000000" transform="translate(62.781250,294.432143)scale(0.120000)">
<use xlink:href="#c_42baa63129a918535c52adb20d687ea7"/>
</g>
</g>
</g>
<g id="ytick4">
<g id="line2d28">
<g ><use style="fill: none; stroke: #000000; stroke-width: 0.500000; stroke-linejoin: round; stroke-linecap: butt;  opacity: 1.000000" xlink:href="#m3400efa6b1638b3fea9e19e898273957" x="72.000000" y="240.685714"/>
</g></g>
<g id="line2d29">
<g ><use style="fill: none; stroke: #000000; stroke-width: 0.500000; stroke-linejoin: round; stroke-linecap: butt;  opacity: 1.000000" xlink:href="#m20b58b2501143cb5e0a5e8f1ef6f1643" x="518.400000" y="240.685714"/>
</g></g>
<g id="text11">
<g style="fill: #000000; opacity: 1.000000" transform="translate(62.437500,245.138839)scale(0.120000)">
<use xlink:href="#c_ed3f3ed3ebfbd18bcb9c012009a68ad1"/>
</g>
</g>
</g>
<g id="ytick5">
<g id="line2d30">
<g ><use style="fill: none; stroke: #000000; stroke-width: 0.500000; stroke-linejoin: round; stroke-linecap: butt;  opacity: 1.000000" xlink:href="#m3400efa6b1638b3fea9e19e898273957" x="72.000000" y="191.314286"/>
</g></g>
<g id="line2d31">
<g ><use style="fill: none; stroke: #000000; stroke-width: 0.500000; stroke-linejoin: round; stroke-linecap: butt;  opacity: 1.000000" xlink:href="#m20b58b2501143cb5e0a5e8f1ef6f1643" x="518.400000" y="191.314286"/>
</g></g>
<g id="text12">
<g style="fill: #000000; opacity: 1.000000" transform="translate(62.250000,195.681473)scale(0.120000)">
<use xlink:href="#c_3dcfa38a02242cb63ec6726c6e70be7a"/>
</g>
</g>
</g>
<g id="ytick6">
<g id="line2d32">
<g ><use style="fill: none; stroke: #000000; stroke-width: 0.500000; stroke-linejoin: round; stroke-linecap: butt;  opacity: 1.000000" xlink:href="#m3400efa6b1638b3fea9e19e898273957" x="72.000000" y="141.942857"/>
</g></g>
<g id="line2d33">
<g ><use style="fill: none; stroke: #000000; stroke-width: 0.500000; stroke-linejoin: round; stroke-linecap: butt;  opacity: 1.000000" xlink:href="#m20b58b2501143cb5e0a5e8f1ef6f1643" x="518.400000" y="141.942857"/>
</g></g>
<g id="text13">
<g style="fill: #000000; opacity: 1.000000" transform="translate(61.625000,146.317857)scale(0.120000)">
<use xlink:href="#c_a0416418d96557a09b8c1332d34883ba"/>
</g>
</g>
</g>
<g id="ytick7">
<g id="line2d34">
<g ><use style="fill: none; stroke: #000000; stroke-width: 0.500000; stroke-linejoin: round; stroke-linecap: butt;  opacity: 1.000000" xlink:href="#m3400efa6b1638b3fea9e19e898273957" x="72.000000" y="92.571429"/>
</g></g>
<g id="line2d35">
<g ><use style="fill: none; stroke: #000000; stroke-width: 0.500000; stroke-linejoin: round; stroke-linecap: butt;  opacity: 1.000000" xlink:href="#m20b58b2501143cb5e0a5e8f1ef6f1643" x="518.400000" y="92.571429"/>
</g></g>
<g id="text14">
<g style="fill: #000000; opacity: 1.000000" transform="translate(62.328125,96.860491)scale(0.120000)">
<use xlink:href="#c_1260a2df50f305f3db244e29828f968e"/>
</g>
</g>
</g>
<g id="ytick8">
<g id="line2d36">
<g ><use style="fill: none; stroke: #000000; stroke-width: 0.500000; stroke-linejoin: round; stroke-linecap: butt;  opacity: 1.000000" xlink:href="#m3400efa6b1638b3fea9e19e898273957" x="72.000000" y="43.200000"/>
</g></g>
<g id="line2d37">
<g ><use style="fill: none; stroke: #000000; stroke-width: 0.500000; stroke-linejoin: round; stroke-linecap: butt;  opacity: 1.000000" xlink:href="#m20b58b2501143cb5e0a5e8f1ef6f1643" x="518.400000" y="43.200000"/>
</g></g>
<g id="text15">
<g style="fill: #000000; opacity: 1.000000" transform="translate(61.968750,47.567187)scale(0.120000)">
<use xlink:href="#c_cc8d6d580d1b10c8632f7a42cd53db8a"/>
</g>
</g>
</g>
</g>
<g id="patch3">
<path style="fill: none; stroke: #000000; stroke-width: 1.000000; stroke-linejoin: round; stroke-linecap: square;  opacity: 1.000000"  d="M72.000000 43.200000L518.400000 43.200000"/>
</g>
<g id="patch4">
<path style="fill: none; stroke: #000000; stroke-width: 1.000000; stroke-linejoin: round; stroke-linecap: square;  opacity: 1.000000"  d="M518.400000 388.800000L518.400000 43.200000"/>
</g>
<g id="patch5">
<path style="fill: none; stroke: #000000; stroke-width: 1.000000; stroke-linejoin: round; stroke-linecap: square;  opacity: 1.000000"  d="M72.000000 388.800000L518.400000 388.800000"/>
</g>
<g id="patch6">
<path style="fill: none; stroke: #000000; stroke-width: 1.000000; stroke-linejoin: round; stroke-linecap: square;  opacity: 1.000000"  d="M72.000000 388.800000L72.000000 43.200000"/>
</g>
</g>
</g>
</svg>
