<?xml version="1.0" standalone="no"?>
<!DOCTYPE svg PUBLIC "-//W3C//DTD SVG 1.1//EN"
  "http://www.w3.org/Graphics/SVG/1.1/DTD/svg11.dtd">
<!-- Created with matplotlib (http://matplotlib.sourceforge.net/) -->
<svg width="576pt" height="432pt" viewBox="0 0 576 432"
   xmlns="http://www.w3.org/2000/svg"
   xmlns:xlink="http://www.w3.org/1999/xlink"
   version="1.1"
   id="svg1">
<g id="figure1">
<g id="patch1">
<path style="fill: #ffffff; stroke: #ffffff; stroke-width: 1.000000; stroke-linejoin: round; stroke-linecap: square;  opacity: 1.000000"  d="M0.000000 432.000000L576.000000 432.000000L576.000000 0.000000
L0.000000 0.000000L0.000000 432.000000"/>
</g>
<g id="axes1">
<g id="patch2">
<path style="fill: #ffffff; opacity: 1.000000"  d="M72.000000 388.800000L518.400000 388.800000L518.400000 43.200000
L72.000000 43.200000L72.000000 388.800000"/>
</g>
<g id="line2d1">
<defs>
  <clipPath id="p50431ccdcb28178602d99d9270004dde">
<rect x="72.000000" y="43.200000" width="446.400000" height="345.600000"/>
  </clipPath>
</defs><path style="fill: none; stroke: #0000ff; stroke-width: 1.000000; stroke-linejoin: round; stroke-linecap: square;  opacity: 1.000000" clip-path="url(#p50431ccdcb28178602d99d9270004dde)" d="M72.000000 219.499244L74.232000 215.827327L75.720000 214.561981
L77.208000 215.130275L78.696000 217.776278L81.672000 225.118311
L82.416000 226.140554L83.904000 226.004238L84.648000 224.845790
L86.136000 220.665027L89.112000 210.965824L89.856000 209.469163
L91.344000 208.184338L92.832000 208.761029L98.784000 215.146313
L100.272000 215.402064L101.760000 214.579557L103.248000 213.331041
L104.736000 212.997358L106.224000 214.742640L107.712000 218.688869
L111.432000 230.077069L112.920000 231.167230L114.408000 229.329901
L116.640000 223.510786L118.872000 218.349113L119.616000 217.208257
L121.104000 215.811300L122.592000 215.642981L124.080000 217.086849
L125.568000 220.528160L130.032000 234.306017L131.520000 234.892923
L134.496000 232.263180L135.984000 232.803621L137.472000 234.431615
L138.960000 234.453392L139.704000 232.938337L140.448000 230.095250
L141.936000 220.335747L144.168000 197.767659L147.888000 150.092578
L151.608000 103.727723L153.096000 90.644437L154.584000 82.619131
L155.328000 80.778866L156.816000 81.895351L157.560000 84.980384
L159.048000 96.278456L160.536000 113.967296L163.512000 161.687822
L166.488000 208.056205L168.720000 231.840039L170.208000 241.736489
L171.696000 247.683871L172.440000 249.356148L173.928000 250.099659
L174.672000 249.060701L175.416000 246.980894L176.904000 239.466256
L178.392000 227.427521L180.624000 202.089670L187.320000 113.886083
L188.808000 103.470797L190.296000 98.667499L191.784000 98.209070
L194.016000 101.776994L196.248000 107.348154L197.736000 112.383545
L199.968000 122.878592L206.664000 158.721039L208.152000 163.604206
L209.640000 166.873166L210.384000 167.965293L211.872000 169.154772
L213.360000 168.961427L214.848000 167.187595L216.336000 163.677720
L218.568000 155.545230L222.288000 141.269813L223.776000 137.674307
L225.264000 135.254742L228.984000 130.323826L231.960000 124.749581
L235.680000 117.515362L237.912000 114.946899L242.376000 111.430299
L245.352000 108.513779L246.840000 107.985271L249.816000 107.730303
L251.304000 106.251886L252.792000 103.118023L255.024000 95.898687
L258.000000 85.881710L260.232000 80.971872L264.696000 73.982682
L266.184000 72.511517L267.672000 72.710620L270.648000 75.743073
L272.136000 74.934826L273.624000 70.964082L277.344000 56.593182
L278.088000 55.216207L279.576000 55.092652L281.064000 57.839454
L285.528000 69.255416L286.272000 70.395344L287.760000 71.841965
L290.736000 72.774540L292.224000 73.198577L293.712000 74.118937
L295.944000 76.783392L298.176000 80.133560L299.664000 81.470139
L301.152000 81.329600L304.128000 78.900152L305.616000 79.661144
L307.104000 83.102093L311.568000 98.019752L313.800000 101.657476
L315.288000 103.940143L316.776000 107.205452L319.752000 116.277268
L321.984000 122.080840L322.728000 123.249854L324.216000 124.436903
L325.704000 124.843874L327.192000 125.630276L329.424000 129.025999
L331.656000 134.812087L334.632000 144.643850L337.608000 155.094423
L339.096000 158.139046L340.584000 157.948388L341.328000 156.476352
L342.816000 151.263230L345.792000 139.565437L346.536000 138.246079
L348.024000 138.976847L349.512000 143.985551L353.976000 164.484361
L354.720000 166.017911L356.208000 166.979335L359.184000 165.697674
L360.672000 166.571998L362.160000 169.061648L365.136000 175.000275
L366.624000 176.687340L369.600000 178.278744L371.088000 179.830983
L372.576000 182.679772L376.296000 191.393852L377.784000 192.806261
L379.272000 192.895232L380.760000 192.604675L382.248000 192.767966
L383.736000 193.796621L385.968000 196.991414L388.944000 203.201000
L391.176000 207.572417L392.664000 208.831165L394.152000 207.672798
L395.640000 203.705108L397.872000 193.841976L400.104000 184.284471
L400.848000 182.414975L402.336000 181.716999L403.080000 182.870576
L404.568000 187.336151L407.544000 197.131642L409.776000 201.206522
L412.008000 205.350731L414.240000 212.141589L418.704000 227.909201
L420.192000 231.206754L421.680000 232.589095L423.168000 231.898445
L427.632000 225.945500L433.584000 223.863205L435.072000 223.962533
L436.560000 225.178430L438.048000 226.845095L439.536000 227.752976
L441.024000 227.202806L444.000000 224.642191L445.488000 225.482130
L446.976000 228.554277L450.696000 238.509300L451.440000 239.655551
L452.928000 240.906172L454.416000 241.330161L455.904000 241.379469
L457.392000 240.850750L458.880000 239.094162L460.368000 235.822724
L464.088000 226.505360L465.576000 225.187409L467.064000 225.466097
L473.016000 229.286440L475.248000 232.645998L478.224000 238.222101
L479.712000 239.006262L479.712000 239.006262"/>
</g>
<g id="line2d2">
<path style="fill: none; stroke: #008000; stroke-width: 1.000000; stroke-linejoin: round; stroke-linecap: square;  opacity: 1.000000" clip-path="url(#p50431ccdcb28178602d99d9270004dde)" d="M72.000000 190.022568L74.232000 206.365004L75.720000 216.042730
L76.464000 218.565964L77.952000 217.780031L79.440000 211.416077
L80.928000 204.738994L81.672000 202.949147L83.160000 204.459415
L84.648000 212.678718L88.368000 242.268298L89.112000 244.224192
L90.600000 239.536044L92.088000 224.201807L95.064000 187.227633
L95.808000 182.404598L96.552000 180.776432L97.296000 182.553848
L98.040000 187.617103L99.528000 205.570008L102.504000 245.955548
L103.248000 250.578411L104.736000 248.289209L106.224000 231.949653
L109.200000 188.856240L109.944000 182.602350L110.688000 179.571029
L112.176000 183.181972L113.664000 196.513226L115.896000 219.875956
L117.384000 228.128802L118.872000 227.579353L120.360000 221.185558
L121.848000 214.358296L122.592000 212.175759L123.336000 211.134989
L124.824000 211.953831L125.568000 213.038175L127.056000 213.852592
L127.800000 212.625138L128.544000 209.994856L130.032000 201.323340
L132.264000 188.576454L133.008000 186.856906L134.496000 188.591911
L135.984000 195.805917L139.704000 217.306346L141.192000 220.779724
L142.680000 221.347283L144.168000 222.776388L144.912000 225.520826
L145.656000 230.483533L147.144000 248.425255L149.376000 291.832891
L151.608000 333.680466L152.352000 341.951770L153.096000 345.901245
L154.584000 339.668979L156.072000 316.678306L160.536000 225.394002
L162.024000 210.170212L162.768000 206.663597L164.256000 207.627246
L165.000000 211.959416L166.488000 227.311473L169.464000 266.033556
L170.208000 271.608383L170.952000 273.873628L171.696000 272.610697
L172.440000 268.069706L173.928000 252.197014L176.160000 228.660761
L176.904000 225.507802L178.392000 230.437529L179.880000 249.536815
L183.600000 310.710927L184.344000 317.248877L185.088000 320.833167
L186.576000 319.980827L188.064000 311.082313L192.528000 275.039836
L194.016000 269.968411L195.504000 268.756844L196.992000 269.101069
L198.480000 268.111816L199.224000 266.263002L200.712000 258.920284
L202.944000 240.390588L205.176000 221.225358L206.664000 213.873716
L207.408000 212.834355L208.896000 216.305336L211.128000 230.099236
L212.616000 237.609419L213.360000 239.028661L214.848000 236.211147
L216.336000 227.724713L218.568000 214.646367L219.312000 212.526837
L220.800000 213.549497L221.544000 216.728853L223.032000 227.611484
L228.240000 276.785055L228.984000 278.192826L229.728000 276.710011
L230.472000 272.390469L231.960000 257.313757L234.192000 232.574435
L234.936000 227.451214L235.680000 224.758197L237.168000 226.493588
L238.656000 235.241084L242.376000 266.813268L245.352000 290.631428
L246.840000 296.750609L248.328000 295.486688L249.816000 286.788184
L252.792000 264.307072L253.536000 262.801480L254.280000 264.440010
L255.024000 269.326772L256.512000 286.679836L258.744000 314.885718
L259.488000 320.347733L260.232000 322.797471L261.720000 319.235171
L266.184000 291.458230L267.672000 291.656231L268.416000 294.009101
L269.904000 301.916682L272.880000 319.429485L273.624000 321.937993
L274.368000 323.262193L275.856000 322.675687L278.088000 318.495242
L279.576000 317.917584L281.064000 320.395585L283.296000 325.485904
L284.784000 325.451658L285.528000 323.701247L287.016000 316.966367
L290.736000 295.244265L291.480000 293.213270L292.968000 294.198821
L293.712000 297.322380L295.200000 307.403462L297.432000 322.914970
L298.176000 325.786933L298.920000 326.971778L300.408000 324.820092
L304.872000 310.120292L306.360000 308.658932L307.848000 308.917979
L309.336000 311.100245L310.824000 315.495923L313.800000 325.770464
L314.544000 327.071777L316.032000 326.371172L316.776000 324.147564
L318.264000 316.735356L320.496000 305.098826L321.240000 303.297535
L322.728000 304.163718L324.216000 309.260093L326.448000 316.911326
L327.192000 318.234186L328.680000 318.863280L330.168000 317.520037
L331.656000 314.758764L333.144000 310.292060L334.632000 303.797615
L339.840000 275.821396L340.584000 274.726488L342.072000 277.265030
L343.560000 284.685282L345.048000 292.339059L345.792000 294.393186
L347.280000 292.442978L348.768000 282.344679L351.744000 255.957632
L352.488000 252.158856L353.232000 250.130511L354.720000 250.442919
L356.952000 254.547592L358.440000 254.178603L359.184000 252.152210
L360.672000 244.276893L364.392000 219.367496L365.136000 217.177085
L366.624000 217.014303L367.368000 218.703202L368.856000 224.259632
L371.088000 232.666878L371.832000 233.732254L373.320000 231.148632
L374.808000 222.741126L377.040000 209.796747L377.784000 208.439306
L379.272000 212.486933L380.760000 223.842845L382.992000 241.719049
L383.736000 244.394842L385.224000 241.559103L386.712000 228.627152
L389.688000 194.903572L391.176000 186.865301L392.664000 187.871868
L394.152000 194.929360L396.384000 205.956469L397.128000 207.878176
L398.616000 208.388355L400.104000 205.709550L401.592000 202.452289
L403.080000 201.299030L404.568000 204.076939L406.056000 210.795710
L408.288000 222.074229L409.032000 223.981957L410.520000 222.873535
L412.008000 215.966345L415.728000 194.550861L417.960000 186.794761
L419.448000 183.056257L420.192000 181.737825L421.680000 181.238393
L422.424000 182.537531L423.912000 188.178593L426.144000 198.334440
L426.888000 199.828871L428.376000 198.031677L429.864000 191.285814
L432.096000 180.406475L432.840000 178.271145L433.584000 177.207386
L435.072000 178.277327L436.560000 182.703132L439.536000 192.706045
L440.280000 193.784167L441.768000 193.033384L443.256000 188.427809
L445.488000 176.759698L447.720000 165.855341L448.464000 163.832514
L449.952000 163.221249L450.696000 164.479844L453.672000 172.633964
L455.160000 173.630481L456.648000 170.789651L460.368000 158.652577
L461.856000 158.336166L462.600000 159.522133L466.320000 168.836383
L467.808000 167.960406L469.296000 163.159276L471.528000 155.140293
L472.272000 154.130100L473.760000 155.890800L478.224000 169.637251
L479.712000 170.214084L479.712000 170.214084"/>
</g>
<g id="matplotlib.axis1">
<g id="xtick1">
<g id="line2d3">
<defs><path id="m30e32995789d870ad79a2e54c91cf9c6" d="M0.000000 0.000000L0.000000 -4.000000"/></defs>
<g ><use style="fill: none; stroke: #000000; stroke-width: 0.500000; stroke-linejoin: round; stroke-linecap: butt;  opacity: 1.000000" xlink:href="#m30e32995789d870ad79a2e54c91cf9c6" x="72.000000" y="388.800000"/>
</g></g>
<g id="line2d4">
<defs><path id="m9281cae24120827b11d5ea8a7ad3e96b" d="M0.000000 0.000000L0.000000 4.000000"/></defs>
<g ><use style="fill: none; stroke: #000000; stroke-width: 0.500000; stroke-linejoin: round; stroke-linecap: butt;  opacity: 1.000000" xlink:href="#m9281cae24120827b11d5ea8a7ad3e96b" x="72.000000" y="43.200000"/>
</g></g>
<g id="text1">
<defs>
<path id="c_7a2040fe3b94fcd41d0a72c84e93b115" d="M31.781250 -66.406250q-7.609375 0.000000 -11.453125 7.500000q-3.828125 7.484375 -3.828125 22.531250q0.000000 14.984375 3.828125 22.484375q3.843750 7.500000 11.453125 7.500000q7.671875 0.000000 11.500000 -7.500000q3.843750 -7.500000 3.843750 -22.484375q0.000000 -15.046875 -3.843750 -22.531250q-3.828125 -7.500000 -11.500000 -7.500000M31.781250 -74.218750q12.265625 0.000000 18.734375 9.703125q6.468750 9.687500 6.468750 28.140625q0.000000 18.406250 -6.468750 28.109375q-6.468750 9.687500 -18.734375 9.687500q-12.250000 0.000000 -18.718750 -9.687500q-6.468750 -9.703125 -6.468750 -28.109375q0.000000 -18.453125 6.468750 -28.140625q6.468750 -9.703125 18.718750 -9.703125"/>
</defs>
<g style="fill: #000000; opacity: 1.000000" transform="translate(68.976562,401.706250)scale(0.120000)">
<use xlink:href="#c_7a2040fe3b94fcd41d0a72c84e93b115"/>
</g>
</g>
</g>
<g id="xtick2">
<g id="line2d5">
<g ><use style="fill: none; stroke: #000000; stroke-width: 0.500000; stroke-linejoin: round; stroke-linecap: butt;  opacity: 1.000000" xlink:href="#m30e32995789d870ad79a2e54c91cf9c6" x="146.400000" y="388.800000"/>
</g></g>
<g id="line2d6">
<g ><use style="fill: none; stroke: #000000; stroke-width: 0.500000; stroke-linejoin: round; stroke-linecap: butt;  opacity: 1.000000" xlink:href="#m9281cae24120827b11d5ea8a7ad3e96b" x="146.400000" y="43.200000"/>
</g></g>
<g id="text2">
<defs>
<path id="c_42baa63129a918535c52adb20d687ea7" d="M12.406250 -8.296875l16.109375 0.000000l0.000000 -55.625000l-17.531250 3.515625l0.000000 -8.984375l17.437500 -3.515625l9.859375 0.000000l0.000000 64.609375l16.109375 0.000000l0.000000 8.296875l-41.984375 0.000000z"/>
</defs>
<g style="fill: #000000; opacity: 1.000000" transform="translate(135.993750,401.706250)scale(0.120000)">
<use xlink:href="#c_42baa63129a918535c52adb20d687ea7"/>
<use xlink:href="#c_7a2040fe3b94fcd41d0a72c84e93b115" x="63.623047"/>
<use xlink:href="#c_7a2040fe3b94fcd41d0a72c84e93b115" x="127.246094"/>
</g>
</g>
</g>
<g id="xtick3">
<g id="line2d7">
<g ><use style="fill: none; stroke: #000000; stroke-width: 0.500000; stroke-linejoin: round; stroke-linecap: butt;  opacity: 1.000000" xlink:href="#m30e32995789d870ad79a2e54c91cf9c6" x="220.800000" y="388.800000"/>
</g></g>
<g id="line2d8">
<g ><use style="fill: none; stroke: #000000; stroke-width: 0.500000; stroke-linejoin: round; stroke-linecap: butt;  opacity: 1.000000" xlink:href="#m9281cae24120827b11d5ea8a7ad3e96b" x="220.800000" y="43.200000"/>
</g></g>
<g id="text3">
<defs>
<path id="c_ed3f3ed3ebfbd18bcb9c012009a68ad1" d="M19.187500 -8.296875l34.421875 0.000000l0.000000 8.296875l-46.281250 0.000000l0.000000 -8.296875q5.609375 -5.812500 15.296875 -15.593750q9.703125 -9.796875 12.187500 -12.640625q4.734375 -5.312500 6.609375 -9.000000q1.890625 -3.687500 1.890625 -7.250000q0.000000 -5.812500 -4.078125 -9.468750q-4.078125 -3.671875 -10.625000 -3.671875q-4.640625 0.000000 -9.796875 1.609375q-5.140625 1.609375 -11.000000 4.890625l0.000000 -9.968750q5.953125 -2.390625 11.125000 -3.609375q5.187500 -1.218750 9.484375 -1.218750q11.328125 0.000000 18.062500 5.671875q6.734375 5.656250 6.734375 15.125000q0.000000 4.500000 -1.687500 8.531250q-1.671875 4.015625 -6.125000 9.484375q-1.218750 1.421875 -7.765625 8.187500q-6.531250 6.765625 -18.453125 18.921875"/>
</defs>
<g style="fill: #000000; opacity: 1.000000" transform="translate(210.175000,401.706250)scale(0.120000)">
<use xlink:href="#c_ed3f3ed3ebfbd18bcb9c012009a68ad1"/>
<use xlink:href="#c_7a2040fe3b94fcd41d0a72c84e93b115" x="63.623047"/>
<use xlink:href="#c_7a2040fe3b94fcd41d0a72c84e93b115" x="127.246094"/>
</g>
</g>
</g>
<g id="xtick4">
<g id="line2d9">
<g ><use style="fill: none; stroke: #000000; stroke-width: 0.500000; stroke-linejoin: round; stroke-linecap: butt;  opacity: 1.000000" xlink:href="#m30e32995789d870ad79a2e54c91cf9c6" x="295.200000" y="388.800000"/>
</g></g>
<g id="line2d10">
<g ><use style="fill: none; stroke: #000000; stroke-width: 0.500000; stroke-linejoin: round; stroke-linecap: butt;  opacity: 1.000000" xlink:href="#m9281cae24120827b11d5ea8a7ad3e96b" x="295.200000" y="43.200000"/>
</g></g>
<g id="text4">
<defs>
<path id="c_3dcfa38a02242cb63ec6726c6e70be7a" d="M40.578125 -39.312500q7.078125 1.515625 11.046875 6.312500q3.984375 4.781250 3.984375 11.812500q0.000000 10.781250 -7.421875 16.703125q-7.421875 5.906250 -21.093750 5.906250q-4.578125 0.000000 -9.437500 -0.906250q-4.859375 -0.906250 -10.031250 -2.718750l0.000000 -9.515625q4.093750 2.390625 8.968750 3.609375q4.890625 1.218750 10.218750 1.218750q9.265625 0.000000 14.125000 -3.656250q4.859375 -3.656250 4.859375 -10.640625q0.000000 -6.453125 -4.515625 -10.078125q-4.515625 -3.640625 -12.562500 -3.640625l-8.500000 0.000000l0.000000 -8.109375l8.890625 0.000000q7.265625 0.000000 11.125000 -2.906250q3.859375 -2.906250 3.859375 -8.375000q0.000000 -5.609375 -3.984375 -8.609375q-3.968750 -3.015625 -11.390625 -3.015625q-4.062500 0.000000 -8.703125 0.890625q-4.640625 0.875000 -10.203125 2.718750l0.000000 -8.781250q5.625000 -1.562500 10.531250 -2.343750q4.906250 -0.781250 9.250000 -0.781250q11.234375 0.000000 17.765625 5.109375q6.546875 5.093750 6.546875 13.781250q0.000000 6.062500 -3.468750 10.234375q-3.468750 4.171875 -9.859375 5.781250"/>
</defs>
<g style="fill: #000000; opacity: 1.000000" transform="translate(284.598437,401.706250)scale(0.120000)">
<use xlink:href="#c_3dcfa38a02242cb63ec6726c6e70be7a"/>
<use xlink:href="#c_7a2040fe3b94fcd41d0a72c84e93b115" x="63.623047"/>
<use xlink:href="#c_7a2040fe3b94fcd41d0a72c84e93b115" x="127.246094"/>
</g>
</g>
</g>
<g id="xtick5">
<g id="line2d11">
<g ><use style="fill: none; stroke: #000000; stroke-width: 0.500000; stroke-linejoin: round; stroke-linecap: butt;  opacity: 1.000000" xlink:href="#m30e32995789d870ad79a2e54c91cf9c6" x="369.600000" y="388.800000"/>
</g></g>
<g id="line2d12">
<g ><use style="fill: none; stroke: #000000; stroke-width: 0.500000; stroke-linejoin: round; stroke-linecap: butt;  opacity: 1.000000" xlink:href="#m9281cae24120827b11d5ea8a7ad3e96b" x="369.600000" y="43.200000"/>
</g></g>
<g id="text5">
<defs>
<path id="c_a0416418d96557a09b8c1332d34883ba" d="M37.796875 -64.312500l-24.906250 38.921875l24.906250 0.000000zM35.203125 -72.906250l12.406250 0.000000l0.000000 47.515625l10.406250 0.000000l0.000000 8.203125l-10.406250 0.000000l0.000000 17.187500l-9.812500 0.000000l0.000000 -17.187500l-32.906250 0.000000l0.000000 -9.515625z"/>
</defs>
<g style="fill: #000000; opacity: 1.000000" transform="translate(358.834375,401.706250)scale(0.120000)">
<use xlink:href="#c_a0416418d96557a09b8c1332d34883ba"/>
<use xlink:href="#c_7a2040fe3b94fcd41d0a72c84e93b115" x="63.623047"/>
<use xlink:href="#c_7a2040fe3b94fcd41d0a72c84e93b115" x="127.246094"/>
</g>
</g>
</g>
<g id="xtick6">
<g id="line2d13">
<g ><use style="fill: none; stroke: #000000; stroke-width: 0.500000; stroke-linejoin: round; stroke-linecap: butt;  opacity: 1.000000" xlink:href="#m30e32995789d870ad79a2e54c91cf9c6" x="444.000000" y="388.800000"/>
</g></g>
<g id="line2d14">
<g ><use style="fill: none; stroke: #000000; stroke-width: 0.500000; stroke-linejoin: round; stroke-linecap: butt;  opacity: 1.000000" xlink:href="#m9281cae24120827b11d5ea8a7ad3e96b" x="444.000000" y="43.200000"/>
</g></g>
<g id="text6">
<defs>
<path id="c_1260a2df50f305f3db244e29828f968e" d="M10.796875 -72.906250l38.718750 0.000000l0.000000 8.312500l-29.687500 0.000000l0.000000 17.859375q2.140625 -0.734375 4.281250 -1.093750q2.156250 -0.359375 4.312500 -0.359375q12.203125 0.000000 19.328125 6.687500q7.140625 6.687500 7.140625 18.109375q0.000000 11.765625 -7.328125 18.296875q-7.328125 6.515625 -20.656250 6.515625q-4.593750 0.000000 -9.359375 -0.781250q-4.750000 -0.781250 -9.828125 -2.343750l0.000000 -9.921875q4.390625 2.390625 9.078125 3.562500q4.687500 1.171875 9.906250 1.171875q8.453125 0.000000 13.375000 -4.437500q4.937500 -4.437500 4.937500 -12.062500q0.000000 -7.609375 -4.937500 -12.046875q-4.921875 -4.453125 -13.375000 -4.453125q-3.953125 0.000000 -7.890625 0.875000q-3.921875 0.875000 -8.015625 2.734375z"/>
</defs>
<g style="fill: #000000; opacity: 1.000000" transform="translate(433.398438,401.706250)scale(0.120000)">
<use xlink:href="#c_1260a2df50f305f3db244e29828f968e"/>
<use xlink:href="#c_7a2040fe3b94fcd41d0a72c84e93b115" x="63.623047"/>
<use xlink:href="#c_7a2040fe3b94fcd41d0a72c84e93b115" x="127.246094"/>
</g>
</g>
</g>
<g id="xtick7">
<g id="line2d15">
<g ><use style="fill: none; stroke: #000000; stroke-width: 0.500000; stroke-linejoin: round; stroke-linecap: butt;  opacity: 1.000000" xlink:href="#m30e32995789d870ad79a2e54c91cf9c6" x="518.400000" y="388.800000"/>
</g></g>
<g id="line2d16">
<g ><use style="fill: none; stroke: #000000; stroke-width: 0.500000; stroke-linejoin: round; stroke-linecap: butt;  opacity: 1.000000" xlink:href="#m9281cae24120827b11d5ea8a7ad3e96b" x="518.400000" y="43.200000"/>
</g></g>
<g id="text7">
<defs>
<path id="c_cc8d6d580d1b10c8632f7a42cd53db8a" d="M33.015625 -40.375000q-6.640625 0.000000 -10.531250 4.546875q-3.875000 4.531250 -3.875000 12.437500q0.000000 7.859375 3.875000 12.437500q3.890625 4.562500 10.531250 4.562500q6.640625 0.000000 10.515625 -4.562500q3.875000 -4.578125 3.875000 -12.437500q0.000000 -7.906250 -3.875000 -12.437500q-3.875000 -4.546875 -10.515625 -4.546875M52.593750 -71.296875l0.000000 8.984375q-3.718750 -1.750000 -7.500000 -2.671875q-3.781250 -0.937500 -7.500000 -0.937500q-9.765625 0.000000 -14.921875 6.593750q-5.140625 6.593750 -5.875000 19.921875q2.875000 -4.250000 7.218750 -6.515625q4.359375 -2.265625 9.578125 -2.265625q10.984375 0.000000 17.359375 6.671875q6.375000 6.656250 6.375000 18.125000q0.000000 11.234375 -6.640625 18.031250q-6.640625 6.781250 -17.671875 6.781250q-12.656250 0.000000 -19.343750 -9.687500q-6.687500 -9.703125 -6.687500 -28.109375q0.000000 -17.281250 8.203125 -27.562500q8.203125 -10.281250 22.015625 -10.281250q3.718750 0.000000 7.500000 0.734375q3.781250 0.734375 7.890625 2.187500"/>
</defs>
<g style="fill: #000000; opacity: 1.000000" transform="translate(507.759375,401.706250)scale(0.120000)">
<use xlink:href="#c_cc8d6d580d1b10c8632f7a42cd53db8a"/>
<use xlink:href="#c_7a2040fe3b94fcd41d0a72c84e93b115" x="63.623047"/>
<use xlink:href="#c_7a2040fe3b94fcd41d0a72c84e93b115" x="127.246094"/>
</g>
</g>
</g>
</g>
<g id="matplotlib.axis2">
<g id="ytick1">
<g id="line2d17">
<defs><path id="m3400efa6b1638b3fea9e19e898273957" d="M0.000000 0.000000L4.000000 0.000000"/></defs>
<g ><use style="fill: none; stroke: #000000; stroke-width: 0.500000; stroke-linejoin: round; stroke-linecap: butt;  opacity: 1.000000" xlink:href="#m3400efa6b1638b3fea9e19e898273957" x="72.000000" y="388.800000"/>
</g></g>
<g id="line2d18">
<defs><path id="m20b58b2501143cb5e0a5e8f1ef6f1643" d="M0.000000 0.000000L-4.000000 0.000000"/></defs>
<g ><use style="fill: none; stroke: #000000; stroke-width: 0.500000; stroke-linejoin: round; stroke-linecap: butt;  opacity: 1.000000" xlink:href="#m20b58b2501143cb5e0a5e8f1ef6f1643" x="518.400000" y="388.800000"/>
</g></g>
<g id="text8">
<defs>
<path id="c_6a8d56c819c37117ab4cf023bec22a5a" d="M10.593750 -35.500000l62.593750 0.000000l0.000000 8.296875l-62.593750 0.000000z"/>
</defs>
<g style="fill: #000000; opacity: 1.000000" transform="translate(52.234375,393.175000)scale(0.120000)">
<use xlink:href="#c_6a8d56c819c37117ab4cf023bec22a5a"/>
<use xlink:href="#c_a0416418d96557a09b8c1332d34883ba" x="83.789062"/>
</g>
</g>
</g>
<g id="ytick2">
<g id="line2d19">
<g ><use style="fill: none; stroke: #000000; stroke-width: 0.500000; stroke-linejoin: round; stroke-linecap: butt;  opacity: 1.000000" xlink:href="#m3400efa6b1638b3fea9e19e898273957" x="72.000000" y="345.600000"/>
</g></g>
<g id="line2d20">
<g ><use style="fill: none; stroke: #000000; stroke-width: 0.500000; stroke-linejoin: round; stroke-linecap: butt;  opacity: 1.000000" xlink:href="#m20b58b2501143cb5e0a5e8f1ef6f1643" x="518.400000" y="345.600000"/>
</g></g>
<g id="text9">
<g style="fill: #000000; opacity: 1.000000" transform="translate(52.531250,349.967188)scale(0.120000)">
<use xlink:href="#c_6a8d56c819c37117ab4cf023bec22a5a"/>
<use xlink:href="#c_3dcfa38a02242cb63ec6726c6e70be7a" x="83.789062"/>
</g>
</g>
</g>
<g id="ytick3">
<g id="line2d21">
<g ><use style="fill: none; stroke: #000000; stroke-width: 0.500000; stroke-linejoin: round; stroke-linecap: butt;  opacity: 1.000000" xlink:href="#m3400efa6b1638b3fea9e19e898273957" x="72.000000" y="302.400000"/>
</g></g>
<g id="line2d22">
<g ><use style="fill: none; stroke: #000000; stroke-width: 0.500000; stroke-linejoin: round; stroke-linecap: butt;  opacity: 1.000000" xlink:href="#m20b58b2501143cb5e0a5e8f1ef6f1643" x="518.400000" y="302.400000"/>
</g></g>
<g id="text10">
<g style="fill: #000000; opacity: 1.000000" transform="translate(52.765625,306.853125)scale(0.120000)">
<use xlink:href="#c_6a8d56c819c37117ab4cf023bec22a5a"/>
<use xlink:href="#c_ed3f3ed3ebfbd18bcb9c012009a68ad1" x="83.789062"/>
</g>
</g>
</g>
<g id="ytick4">
<g id="line2d23">
<g ><use style="fill: none; stroke: #000000; stroke-width: 0.500000; stroke-linejoin: round; stroke-linecap: butt;  opacity: 1.000000" xlink:href="#m3400efa6b1638b3fea9e19e898273957" x="72.000000" y="259.200000"/>
</g></g>
<g id="line2d24">
<g ><use style="fill: none; stroke: #000000; stroke-width: 0.500000; stroke-linejoin: round; stroke-linecap: butt;  opacity: 1.000000" xlink:href="#m20b58b2501143cb5e0a5e8f1ef6f1643" x="518.400000" y="259.200000"/>
</g></g>
<g id="text11">
<g style="fill: #000000; opacity: 1.000000" transform="translate(52.671875,263.575000)scale(0.120000)">
<use xlink:href="#c_6a8d56c819c37117ab4cf023bec22a5a"/>
<use xlink:href="#c_42baa63129a918535c52adb20d687ea7" x="83.789062"/>
</g>
</g>
</g>
<g id="ytick5">
<g id="line2d25">
<g ><use style="fill: none; stroke: #000000; stroke-width: 0.500000; stroke-linejoin: round; stroke-linecap: butt;  opacity: 1.000000" xlink:href="#m3400efa6b1638b3fea9e19e898273957" x="72.000000" y="216.000000"/>
</g></g>
<g id="line2d26">
<g ><use style="fill: none; stroke: #000000; stroke-width: 0.500000; stroke-linejoin: round; stroke-linecap: butt;  opacity: 1.000000" xlink:href="#m20b58b2501143cb5e0a5e8f1ef6f1643" x="518.400000" y="216.000000"/>
</g></g>
<g id="text12">
<g style="fill: #000000; opacity: 1.000000" transform="translate(61.953125,220.367188)scale(0.120000)">
<use xlink:href="#c_7a2040fe3b94fcd41d0a72c84e93b115"/>
</g>
</g>
</g>
<g id="ytick6">
<g id="line2d27">
<g ><use style="fill: none; stroke: #000000; stroke-width: 0.500000; stroke-linejoin: round; stroke-linecap: butt;  opacity: 1.000000" xlink:href="#m3400efa6b1638b3fea9e19e898273957" x="72.000000" y="172.800000"/>
</g></g>
<g id="line2d28">
<g ><use style="fill: none; stroke: #000000; stroke-width: 0.500000; stroke-linejoin: round; stroke-linecap: butt;  opacity: 1.000000" xlink:href="#m20b58b2501143cb5e0a5e8f1ef6f1643" x="518.400000" y="172.800000"/>
</g></g>
<g id="text13">
<g style="fill: #000000; opacity: 1.000000" transform="translate(62.781250,177.175000)scale(0.120000)">
<use xlink:href="#c_42baa63129a918535c52adb20d687ea7"/>
</g>
</g>
</g>
<g id="ytick7">
<g id="line2d29">
<g ><use style="fill: none; stroke: #000000; stroke-width: 0.500000; stroke-linejoin: round; stroke-linecap: butt;  opacity: 1.000000" xlink:href="#m3400efa6b1638b3fea9e19e898273957" x="72.000000" y="129.600000"/>
</g></g>
<g id="line2d30">
<g ><use style="fill: none; stroke: #000000; stroke-width: 0.500000; stroke-linejoin: round; stroke-linecap: butt;  opacity: 1.000000" xlink:href="#m20b58b2501143cb5e0a5e8f1ef6f1643" x="518.400000" y="129.600000"/>
</g></g>
<g id="text14">
<g style="fill: #000000; opacity: 1.000000" transform="translate(62.437500,134.053125)scale(0.120000)">
<use xlink:href="#c_ed3f3ed3ebfbd18bcb9c012009a68ad1"/>
</g>
</g>
</g>
<g id="ytick8">
<g id="line2d31">
<g ><use style="fill: none; stroke: #000000; stroke-width: 0.500000; stroke-linejoin: round; stroke-linecap: butt;  opacity: 1.000000" xlink:href="#m3400efa6b1638b3fea9e19e898273957" x="72.000000" y="86.400000"/>
</g></g>
<g id="line2d32">
<g ><use style="fill: none; stroke: #000000; stroke-width: 0.500000; stroke-linejoin: round; stroke-linecap: butt;  opacity: 1.000000" xlink:href="#m20b58b2501143cb5e0a5e8f1ef6f1643" x="518.400000" y="86.400000"/>
</g></g>
<g id="text15">
<g style="fill: #000000; opacity: 1.000000" transform="translate(62.250000,90.767187)scale(0.120000)">
<use xlink:href="#c_3dcfa38a02242cb63ec6726c6e70be7a"/>
</g>
</g>
</g>
<g id="ytick9">
<g id="line2d33">
<g ><use style="fill: none; stroke: #000000; stroke-width: 0.500000; stroke-linejoin: round; stroke-linecap: butt;  opacity: 1.000000" xlink:href="#m3400efa6b1638b3fea9e19e898273957" x="72.000000" y="43.200000"/>
</g></g>
<g id="line2d34">
<g ><use style="fill: none; stroke: #000000; stroke-width: 0.500000; stroke-linejoin: round; stroke-linecap: butt;  opacity: 1.000000" xlink:href="#m20b58b2501143cb5e0a5e8f1ef6f1643" x="518.400000" y="43.200000"/>
</g></g>
<g id="text16">
<g style="fill: #000000; opacity: 1.000000" transform="translate(61.625000,47.575000)scale(0.120000)">
<use xlink:href="#c_a0416418d96557a09b8c1332d34883ba"/>
</g>
</g>
</g>
</g>
<g id="patch3">
<path style="fill: none; stroke: #000000; stroke-width: 1.000000; stroke-linejoin: round; stroke-linecap: square;  opacity: 1.000000"  d="M72.000000 43.200000L518.400000 43.200000"/>
</g>
<g id="patch4">
<path style="fill: none; stroke: #000000; stroke-width: 1.000000; stroke-linejoin: round; stroke-linecap: square;  opacity: 1.000000"  d="M518.400000 388.800000L518.400000 43.200000"/>
</g>
<g id="patch5">
<path style="fill: none; stroke: #000000; stroke-width: 1.000000; stroke-linejoin: round; stroke-linecap: square;  opacity: 1.000000"  d="M72.000000 388.800000L518.400000 388.800000"/>
</g>
<g id="patch6">
<path style="fill: none; stroke: #000000; stroke-width: 1.000000; stroke-linejoin: round; stroke-linecap: square;  opacity: 1.000000"  d="M72.000000 388.800000L72.000000 43.200000"/>
</g>
</g>
</g>
</svg>
