<?xml version="1.0" standalone="no"?>
<!DOCTYPE svg PUBLIC "-//W3C//DTD SVG 1.1//EN"
  "http://www.w3.org/Graphics/SVG/1.1/DTD/svg11.dtd">
<!-- Created with matplotlib (http://matplotlib.sourceforge.net/) -->
<svg width="576pt" height="432pt" viewBox="0 0 576 432"
   xmlns="http://www.w3.org/2000/svg"
   xmlns:xlink="http://www.w3.org/1999/xlink"
   version="1.1"
   id="svg1">
<g id="figure1">
<g id="patch1">
<path style="fill: #ffffff; stroke: #ffffff; stroke-width: 1.000000; stroke-linejoin: round; stroke-linecap: square;  opacity: 1.000000"  d="M0.000000 432.000000L576.000000 432.000000L576.000000 0.000000
L0.000000 0.000000L0.000000 432.000000"/>
</g>
<g id="axes1">
<g id="patch2">
<path style="fill: #ffffff; opacity: 1.000000"  d="M72.000000 388.800000L518.400000 388.800000L518.400000 43.200000
L72.000000 43.200000L72.000000 388.800000"/>
</g>
<g id="line2d1">
<defs>
  <clipPath id="p50431ccdcb28178602d99d9270004dde">
<rect x="72.000000" y="43.200000" width="446.400000" height="345.600000"/>
  </clipPath>
</defs><path style="fill: none; stroke: #0000ff; stroke-width: 1.000000; stroke-linejoin: round; stroke-linecap: square;  opacity: 1.000000" clip-path="url(#p50431ccdcb28178602d99d9270004dde)" d="M72.000000 253.359396L74.232000 250.421861L75.720000 249.409585
L77.208000 249.864220L79.440000 253.480811L81.672000 257.854649
L83.160000 258.924100L84.648000 257.636632L86.136000 254.292022
L89.112000 246.532659L89.856000 245.335330L91.344000 244.307471
L92.832000 244.768823L98.784000 249.877050L100.272000 250.081652
L104.736000 248.157886L106.224000 249.554112L107.712000 252.711095
L111.432000 261.821655L112.920000 262.693784L114.408000 261.223921
L118.872000 252.439290L120.360000 250.852333L121.848000 250.205767
L123.336000 250.664671L124.824000 252.603691L126.312000 256.104974
L129.288000 264.090693L130.032000 265.204814L131.520000 265.674338
L134.496000 263.570544L135.984000 264.002896L137.472000 265.305292
L138.960000 265.322713L139.704000 264.110669L140.448000 261.836200
L141.936000 254.028598L144.168000 235.974127L147.888000 197.834063
L151.608000 160.742178L153.096000 150.275550L154.584000 143.855305
L155.328000 142.383093L156.816000 143.276281L157.560000 145.744308
L159.048000 154.782765L160.536000 168.933837L163.512000 207.110257
L166.488000 244.204964L168.720000 263.232031L170.208000 271.149191
L171.696000 275.907097L172.440000 277.244918L173.928000 277.839727
L175.416000 275.344715L176.904000 269.333005L178.392000 259.702017
L180.624000 239.431736L187.320000 168.868867L188.808000 160.536638
L190.296000 156.693999L191.784000 156.327256L194.016000 159.181595
L196.248000 163.638523L198.480000 170.150081L200.712000 179.388888
L205.920000 202.286191L208.152000 208.643365L209.640000 211.258533
L211.128000 212.739854L212.616000 213.153436L214.104000 212.388214
L216.336000 208.702176L218.568000 202.196184L222.288000 190.775851
L223.776000 187.899446L226.008000 185.193295L228.984000 182.019061
L232.704000 176.305279L234.936000 172.753783L236.424000 170.939778
L239.400000 168.880122L242.376000 166.904239L245.352000 164.571023
L246.840000 164.148217L249.816000 163.944242L251.304000 162.761509
L252.792000 160.254418L255.024000 154.478949L258.000000 146.465368
L260.232000 142.537497L264.696000 136.946146L266.184000 135.769213
L267.672000 135.928496L270.648000 138.354458L272.136000 137.707861
L273.624000 134.531266L277.344000 123.034546L278.088000 121.932966
L279.576000 121.834122L281.808000 125.629670L284.784000 132.010109
L285.528000 133.164333L287.016000 134.756721L288.504000 135.546592
L292.968000 136.623502L294.456000 137.629204L298.920000 142.531046
L300.408000 143.033637L301.896000 142.365056L303.384000 141.218487
L304.872000 140.929247L306.360000 142.606777L307.848000 146.266213
L310.824000 154.707190L312.312000 157.332497L316.032000 162.098539
L318.264000 166.960945L321.240000 174.147512L321.984000 175.424672
L323.472000 176.966765L326.448000 177.860877L327.936000 178.908799
L330.168000 182.363886L333.144000 189.332544L338.352000 203.321556
L339.840000 204.561119L341.328000 202.941082L342.816000 198.770584
L345.792000 189.412350L346.536000 188.356863L348.024000 188.941477
L349.512000 192.948441L353.976000 209.347489L354.720000 210.574329
L356.208000 211.343468L359.184000 210.318139L360.672000 211.017599
L362.904000 214.277737L365.136000 217.760220L366.624000 219.109872
L369.600000 220.382995L371.832000 222.634468L374.064000 226.940302
L376.296000 230.875082L377.784000 232.005008L382.248000 231.974373
L383.736000 232.797297L385.968000 235.353131L388.944000 240.320800
L391.176000 243.817934L392.664000 244.824932L394.152000 243.898238
L395.640000 240.724086L397.872000 232.833581L400.104000 225.187576
L400.848000 223.691980L402.336000 223.133599L403.824000 225.606296
L407.544000 235.465314L409.032000 237.804254L412.008000 242.040585
L414.240000 247.473271L418.704000 260.087361L420.192000 262.725403
L421.680000 263.831276L423.168000 263.278756L427.632000 258.516400
L433.584000 256.850564L435.072000 256.930027L439.536000 259.962380
L441.024000 259.522245L444.000000 257.473753L445.488000 258.145704
L446.976000 260.603421L450.696000 268.567440L452.184000 270.103407
L453.672000 270.703829L456.648000 270.732029L458.136000 269.890638
L460.368000 266.418179L464.088000 258.964288L465.576000 257.909927
L467.064000 258.132878L473.016000 261.189152L475.248000 263.876799
L477.480000 267.448116L478.968000 268.869159L480.456000 268.594083
L480.456000 268.594083"/>
</g>
<g id="line2d2">
<path style="fill: none; stroke: #008000; stroke-width: 1.000000; stroke-linejoin: round; stroke-linecap: square;  opacity: 1.000000" clip-path="url(#p50431ccdcb28178602d99d9270004dde)" d="M72.000000 229.778054L74.232000 242.852003L75.720000 250.594184
L76.464000 252.612771L77.952000 251.984025L79.440000 246.892862
L80.928000 241.551195L81.672000 240.119318L83.160000 241.327532
L84.648000 247.902975L88.368000 271.574638L89.112000 273.139354
L90.600000 269.388835L92.088000 257.121445L95.064000 227.542107
L95.808000 223.683679L96.552000 222.381146L97.296000 223.803079
L98.040000 227.853682L99.528000 242.216006L102.504000 274.524438
L103.248000 278.222729L104.736000 276.391367L106.224000 263.319723
L109.200000 228.844992L109.944000 223.841880L110.688000 221.416824
L112.176000 224.305578L113.664000 234.970581L115.896000 253.660765
L117.384000 260.263042L118.872000 259.823482L120.360000 254.708447
L121.848000 249.246637L122.592000 247.500607L124.080000 246.689323
L125.568000 248.190540L127.056000 248.842074L128.544000 245.755885
L130.032000 238.818672L132.264000 228.621163L133.008000 227.245525
L134.496000 228.633529L135.984000 234.404734L139.704000 251.605077
L141.192000 254.383780L142.680000 254.837826L144.168000 255.981111
L144.912000 258.176661L145.656000 262.146827L147.144000 276.500204
L149.376000 311.226313L151.608000 344.704373L152.352000 351.321416
L153.096000 354.480996L154.584000 349.495183L156.072000 331.102645
L160.536000 258.075202L162.024000 245.896169L162.768000 243.090878
L164.256000 243.861797L165.000000 247.327532L166.488000 259.609179
L169.464000 290.586845L170.208000 295.046706L170.952000 296.858903
L171.696000 295.848557L172.440000 292.215764L173.928000 279.517611
L176.160000 260.688609L176.904000 258.166241L178.392000 262.110023
L179.880000 277.389452L183.600000 326.328742L185.088000 334.426534
L186.576000 333.744662L188.064000 326.625851L192.528000 297.791868
L194.016000 293.734729L195.504000 292.765475L196.992000 293.040856
L198.480000 292.249453L199.224000 290.770402L200.712000 284.896227
L202.944000 270.072471L205.176000 254.740287L206.664000 248.858973
L208.152000 248.715067L208.896000 250.804268L211.128000 261.839388
L212.616000 267.847535L213.360000 268.982929L214.848000 266.728918
L216.336000 259.939771L218.568000 249.477094L219.312000 247.781469
L220.800000 248.599597L221.544000 251.143082L223.032000 259.849187
L228.240000 299.188044L228.984000 300.314261L229.728000 299.128009
L230.472000 295.672375L231.960000 283.611006L234.192000 263.819548
L234.936000 259.720971L235.680000 257.566557L237.168000 258.954870
L238.656000 265.952867L242.376000 291.210614L245.352000 310.265143
L246.840000 315.160487L248.328000 314.149351L249.816000 307.190547
L252.792000 289.205658L253.536000 288.001184L254.280000 289.312008
L255.024000 293.221417L256.512000 307.103869L258.744000 329.668575
L259.488000 334.038186L260.232000 335.997977L261.720000 333.148137
L266.184000 310.926584L267.672000 311.084985L268.416000 312.967281
L269.904000 319.293346L272.880000 333.303588L274.368000 336.369754
L275.856000 335.900550L278.088000 332.556194L279.576000 332.094067
L281.808000 335.593010L283.296000 338.148723L284.784000 338.121326
L285.528000 336.720998L287.016000 331.333094L290.736000 313.955412
L291.480000 312.330616L292.968000 313.119057L294.456000 319.274613
L297.432000 336.091976L298.176000 338.389547L299.664000 339.003902
L300.408000 337.616073L304.872000 325.856234L306.360000 324.687145
L307.848000 324.894383L309.336000 326.640196L310.824000 330.156738
L313.800000 338.376371L314.544000 339.417422L316.032000 338.856938
L316.776000 337.078051L318.264000 331.148285L320.496000 321.839061
L321.240000 320.398028L322.728000 321.090974L324.216000 325.168075
L326.448000 331.289061L327.192000 332.347349L328.680000 332.850624
L330.168000 331.776030L332.400000 327.972423L333.888000 323.602605
L336.120000 314.066801L339.096000 300.412186L339.840000 298.417117
L341.328000 297.932673L342.072000 299.572024L343.560000 305.508226
L345.048000 311.631247L345.792000 313.274549L347.280000 311.714382
L348.768000 303.635744L351.744000 282.526105L352.488000 279.487085
L353.232000 277.864409L354.720000 278.114335L356.208000 280.472934
L357.696000 281.691452L359.184000 279.481768L360.672000 273.181514
L364.392000 253.253997L365.136000 251.501668L366.624000 251.371443
L368.112000 254.737425L371.088000 263.893503L372.576000 264.388008
L373.320000 262.678905L374.808000 255.952901L377.040000 245.597398
L377.784000 244.511445L379.272000 247.749546L380.760000 256.834276
L382.992000 271.135239L383.736000 273.275874L385.224000 271.007282
L386.712000 260.661722L389.688000 233.682858L391.176000 227.252241
L392.664000 228.057494L394.152000 233.703488L396.384000 242.525175
L397.128000 244.062541L398.616000 244.470684L401.592000 239.721831
L403.080000 238.799224L404.568000 241.021551L406.056000 246.396568
L408.288000 255.419383L409.032000 256.945565L410.520000 256.058828
L412.008000 250.533076L415.728000 233.400689L417.960000 227.195809
L420.192000 223.150260L421.680000 222.750715L422.424000 223.790025
L423.912000 228.302874L426.144000 236.427552L426.888000 237.623097
L428.376000 236.185342L429.864000 230.788651L432.096000 222.085180
L432.840000 220.376916L434.328000 219.547860L435.816000 221.908949
L439.536000 231.924836L441.024000 232.888114L442.512000 230.699017
L444.000000 225.725393L447.720000 210.444273L448.464000 208.826012
L449.952000 208.336999L451.440000 210.909814L453.672000 215.867171
L455.160000 216.664385L456.648000 214.391721L460.368000 204.682062
L461.856000 204.428933L464.088000 208.629230L465.576000 211.906152
L467.064000 212.930126L468.552000 210.502672L471.528000 201.872234
L473.016000 201.286553L473.760000 202.472640L477.480000 212.575014
L478.968000 213.867595L480.456000 213.876164L480.456000 213.876164"/>
</g>
<g id="line2d3">
<path style="fill: none; stroke: #ff0000; stroke-width: 1.000000; stroke-linejoin: round; stroke-linecap: square;  opacity: 1.000000" clip-path="url(#p50431ccdcb28178602d99d9270004dde)" d="M72.000000 248.679868L72.744000 254.592799L73.488000 258.958061
L74.232000 261.428906L75.720000 260.680402L77.208000 254.757977
L78.696000 248.504301L79.440000 246.547550L80.928000 245.968937
L82.416000 249.085002L85.392000 257.071013L86.136000 258.079851
L87.624000 257.881649L89.112000 254.766421L93.576000 241.678902
L95.064000 239.231212L96.552000 237.711950L98.040000 237.617328
L99.528000 239.977167L101.016000 245.183915L103.992000 257.631849
L104.736000 259.215665L106.224000 258.991854L107.712000 254.730277
L111.432000 241.080973L112.920000 238.435710L114.408000 237.224698
L115.896000 237.205550L117.384000 238.836878L118.872000 242.432134
L122.592000 253.127604L123.336000 254.163429L124.824000 254.510433
L126.312000 252.688323L130.032000 244.474028L131.520000 243.480442
L133.008000 243.848902L134.496000 242.914933L135.240000 241.128186
L136.728000 234.814343L138.960000 224.778193L139.704000 223.529000
L141.192000 226.323232L142.680000 235.888178L145.656000 265.023678
L148.632000 292.131101L150.864000 307.139897L152.352000 313.786612
L153.840000 317.098253L155.328000 317.064132L156.072000 315.971814
L157.560000 312.044281L159.048000 305.945406L160.536000 297.274791
L162.768000 279.137942L165.744000 254.378582L167.232000 247.991111
L167.976000 246.814977L169.464000 247.595970L171.696000 251.158919
L173.184000 251.976642L174.672000 251.849485L176.160000 253.064163
L176.904000 254.906430L178.392000 261.709826L180.624000 278.597802
L183.600000 302.791413L185.088000 310.456898L186.576000 313.947926
L188.064000 313.960883L190.296000 310.490364L194.016000 303.895304
L196.992000 298.577957L199.224000 293.204068L201.456000 285.690260
L203.688000 275.359520L206.664000 261.834459L208.152000 257.892804
L208.896000 256.678054L213.360000 251.948350L217.080000 244.891883
L218.568000 243.814403L220.056000 244.510254L221.544000 245.799634
L223.032000 245.926525L224.520000 243.804761L228.240000 235.055976
L229.728000 234.945360L230.472000 235.976306L231.960000 239.589487
L234.192000 247.063285L237.168000 259.755435L238.656000 265.733364
L240.144000 268.886895L241.632000 267.951317L244.608000 260.326873
L246.096000 259.739540L246.840000 260.890822L248.328000 265.215533
L251.304000 274.790479L257.256000 290.121118L258.744000 290.957757
L259.488000 289.756295L260.976000 284.037419L263.952000 269.321603
L264.696000 267.637987L266.184000 268.614163L267.672000 275.043959
L272.880000 307.279804L274.368000 310.669117L275.856000 310.079859
L278.832000 304.057923L280.320000 304.705205L281.808000 309.609522
L284.040000 319.556593L284.784000 321.739912L285.528000 322.776628
L287.016000 321.097278L288.504000 315.611147L290.736000 307.167756
L291.480000 305.865802L292.968000 306.638826L294.456000 311.578921
L298.176000 328.256356L299.664000 328.849387L300.408000 327.124627
L301.896000 320.961264L304.128000 311.297517L305.616000 307.412633
L308.592000 301.423850L311.568000 293.590414L312.312000 292.482695
L313.800000 292.381305L316.032000 296.480043L317.520000 299.394202
L319.008000 300.290988L321.984000 297.975648L323.472000 298.729700
L325.704000 302.682520L327.192000 303.626766L328.680000 301.087923
L332.400000 289.356391L333.888000 288.606929L336.120000 291.646320
L336.864000 292.805149L338.352000 294.112822L339.840000 293.710191
L342.072000 290.783285L345.048000 286.011985L346.536000 284.932130
L348.024000 285.237009L349.512000 286.556311L352.488000 290.923381
L355.464000 296.061617L356.952000 297.160815L358.440000 296.695385
L361.416000 294.597455L364.392000 294.608958L365.880000 293.144911
L367.368000 289.525656L371.832000 275.342015L372.576000 274.072785
L375.552000 271.445834L377.040000 269.996395L382.992000 262.019246
L384.480000 258.698131L386.712000 252.792436L388.200000 252.076556
L388.944000 253.547951L390.432000 259.755619L392.664000 270.748525
L393.408000 272.822745L394.896000 272.697699L395.640000 270.500307
L397.128000 263.144738L399.360000 251.344551L400.104000 248.948695
L400.848000 247.715150L402.336000 248.452127L405.312000 254.262801
L406.800000 255.347697L409.776000 254.697968L412.752000 254.074783
L414.240000 252.914951L415.728000 249.837030L417.216000 244.289603
L420.192000 230.835436L420.936000 228.911392L422.424000 228.653315
L423.912000 232.581809L425.400000 237.639735L426.144000 239.270855
L427.632000 238.918821L428.376000 236.733678L429.864000 229.301336
L432.840000 213.018724L433.584000 210.733307L434.328000 209.581745
L435.816000 210.482567L437.304000 214.200876L439.536000 219.865650
L441.024000 221.150989L442.512000 220.133434L444.000000 217.178331
L445.488000 212.334516L449.208000 197.469614L450.696000 197.177215
L451.440000 199.348384L452.928000 207.612198L455.904000 227.362797
L457.392000 231.874534L458.880000 231.335877L460.368000 226.926849
L464.832000 209.750593L465.576000 208.748533L467.064000 209.882363
L468.552000 215.189992L472.272000 233.808794L473.016000 235.827236
L474.504000 236.764589L475.992000 234.107170L478.224000 226.072531
L480.456000 216.860823L480.456000 216.860823"/>
</g>
<g id="line2d4">
<path style="fill: none; stroke: #00bfbf; stroke-width: 1.000000; stroke-linejoin: round; stroke-linecap: square;  opacity: 1.000000" clip-path="url(#p50431ccdcb28178602d99d9270004dde)" d="M72.000000 258.665033L73.488000 257.786571L74.976000 257.224447
L76.464000 257.003594L80.928000 257.533355L82.416000 255.616431
L83.904000 251.496208L89.112000 233.234904L90.600000 232.314287
L92.088000 234.088380L93.576000 237.712068L100.272000 256.734737
L101.760000 258.149618L103.248000 258.025659L104.736000 257.166255
L106.224000 256.734083L107.712000 257.621000L109.200000 260.038953
L112.920000 268.099659L114.408000 269.230781L115.896000 268.188321
L117.384000 265.288749L121.848000 254.655155L123.336000 253.532135
L124.824000 254.477895L126.312000 257.265778L130.776000 268.095920
L131.520000 269.156143L134.496000 271.504891L135.984000 272.468618
L137.472000 272.831634L138.960000 271.244999L140.448000 266.636237
L141.936000 258.947603L144.168000 243.109592L147.144000 215.907459
L150.864000 178.708944L152.352000 169.164509L153.096000 166.698328
L154.584000 167.022834L155.328000 169.771523L156.816000 179.640851
L162.768000 230.840938L164.256000 236.435404L165.000000 237.907088
L166.488000 238.833236L167.976000 237.981535L170.952000 234.370228
L173.184000 231.208831L174.672000 227.910701L176.160000 222.306389
L177.648000 213.392363L179.880000 193.557560L186.576000 124.373059
L188.064000 116.116793L189.552000 112.065244L191.040000 111.382103
L192.528000 112.621789L196.992000 118.622664L199.224000 123.182161
L202.200000 129.919620L202.944000 131.071240L204.432000 132.143074
L205.920000 131.334565L207.408000 128.716897L210.384000 120.458958
L212.616000 114.903902L218.568000 103.028417L226.752000 81.359171
L228.984000 77.570436L230.472000 75.962516L234.936000 72.246654
L237.168000 68.695060L241.632000 60.758619L243.120000 58.906357
L244.608000 57.761955L246.096000 57.785273L247.584000 59.561614
L249.072000 63.267556L253.536000 77.256255L254.280000 78.591011
L255.768000 80.085339L258.744000 80.681995L261.720000 80.451167
L264.696000 78.682440L267.672000 77.249152L269.160000 76.789770
L270.648000 75.611437L272.136000 73.001761L274.368000 66.658145
L276.600000 60.791298L277.344000 59.712105L278.832000 59.319498
L280.320000 61.005778L283.296000 67.099202L285.528000 71.050062
L287.016000 72.750597L288.504000 73.692680L291.480000 74.058063
L297.432000 73.786119L298.920000 72.518615L300.408000 69.875173
L304.872000 59.387921L306.360000 58.899534L307.848000 60.551669
L311.568000 67.245820L316.776000 73.574637L319.008000 78.436219
L321.984000 85.161682L322.728000 86.223884L324.216000 87.248661
L327.192000 87.121225L328.680000 87.977598L330.912000 92.129771
L333.144000 99.142520L336.120000 108.597200L337.608000 111.466198
L339.096000 112.403230L340.584000 111.222037L342.072000 108.013645
L346.536000 95.291082L348.024000 94.694903L349.512000 97.315175
L351.000000 102.659013L356.208000 124.968826L357.696000 128.690077
L359.184000 131.127435L360.672000 132.691091L362.160000 133.476949
L363.648000 133.232097L365.136000 131.879501L368.112000 128.503199
L369.600000 128.204937L371.088000 129.154658L380.016000 139.752990
L385.224000 151.179030L386.712000 152.089612L388.200000 152.102302
L389.688000 152.452985L391.920000 155.118766L393.408000 157.457057
L394.896000 158.767498L396.384000 158.284748L399.360000 153.985883
L400.848000 152.962465L402.336000 154.446122L403.824000 158.615837
L409.032000 177.916635L411.264000 182.200669L414.240000 187.339160
L416.472000 193.093189L420.192000 203.352571L421.680000 204.530813
L423.168000 202.553315L424.656000 197.886982L427.632000 187.718847
L428.376000 186.316566L429.864000 185.469553L431.352000 186.808190
L433.584000 190.885114L436.560000 196.127920L438.048000 197.681170
L442.512000 199.813390L444.744000 202.959061L449.952000 214.158306
L451.440000 215.169718L452.928000 214.871571L455.904000 212.524166
L458.880000 209.798203L461.856000 205.293604L463.344000 202.804170
L464.832000 201.177706L466.320000 201.122525L467.808000 202.949935
L469.296000 206.467162L475.248000 223.583380L475.992000 224.618910
L477.480000 225.435294L478.968000 224.561446L480.456000 222.404460
L480.456000 222.404460"/>
</g>
<g id="line2d5">
<path style="fill: none; stroke: #bf00bf; stroke-width: 1.000000; stroke-linejoin: round; stroke-linecap: square;  opacity: 1.000000" clip-path="url(#p50431ccdcb28178602d99d9270004dde)" d="M72.000000 258.665033L73.488000 257.786571L74.976000 257.224447
L76.464000 257.003594L80.928000 257.533355L82.416000 255.616431
L83.904000 251.496208L89.112000 233.234904L90.600000 232.314287
L92.088000 234.088380L93.576000 237.712068L100.272000 256.734737
L101.760000 258.149618L103.248000 258.025659L104.736000 257.166255
L106.224000 256.734083L107.712000 257.621000L109.200000 260.038953
L112.920000 268.099659L114.408000 269.230781L115.896000 268.188321
L117.384000 265.288749L121.848000 254.655155L123.336000 253.532135
L124.824000 254.477895L126.312000 257.265778L130.776000 268.095920
L131.520000 269.156143L134.496000 271.504891L135.984000 272.468618
L137.472000 272.831634L138.960000 271.244999L140.448000 266.636237
L141.936000 258.947603L144.168000 243.109592L147.144000 215.907459
L150.864000 178.708944L152.352000 169.164509L153.096000 166.698328
L154.584000 167.022834L155.328000 169.771523L156.816000 179.640851
L162.768000 230.840938L164.256000 236.435404L165.000000 237.907088
L166.488000 238.833236L167.976000 237.981535L170.952000 234.370228
L173.184000 231.208831L174.672000 227.910701L176.160000 222.306389
L177.648000 213.392363L179.880000 193.557560L186.576000 124.373059
L188.064000 116.116793L189.552000 112.065244L191.040000 111.382103
L192.528000 112.621789L196.992000 118.622664L199.224000 123.182161
L202.200000 129.919620L202.944000 131.071240L204.432000 132.143074
L205.920000 131.334565L207.408000 128.716897L210.384000 120.458958
L212.616000 114.903902L218.568000 103.028417L226.752000 81.359171
L228.984000 77.570436L230.472000 75.962516L234.936000 72.246654
L237.168000 68.695060L241.632000 60.758619L243.120000 58.906357
L244.608000 57.761955L246.096000 57.785273L247.584000 59.561614
L249.072000 63.267556L253.536000 77.256255L254.280000 78.591011
L255.768000 80.085339L258.744000 80.681995L261.720000 80.451167
L264.696000 78.682440L267.672000 77.249152L269.160000 76.789770
L270.648000 75.611437L272.136000 73.001761L274.368000 66.658145
L276.600000 60.791298L277.344000 59.712105L278.832000 59.319498
L280.320000 61.005778L283.296000 67.099202L285.528000 71.050062
L287.016000 72.750597L288.504000 73.692680L291.480000 74.058063
L297.432000 73.786119L298.920000 72.518615L300.408000 69.875173
L304.872000 59.387921L306.360000 58.899534L307.848000 60.551669
L311.568000 67.245820L316.776000 73.574637L319.008000 78.436219
L321.984000 85.161682L322.728000 86.223884L324.216000 87.248661
L327.192000 87.121225L328.680000 87.977598L330.912000 92.129771
L333.144000 99.142520L336.120000 108.597200L337.608000 111.466198
L339.096000 112.403230L340.584000 111.222037L342.072000 108.013645
L346.536000 95.291082L348.024000 94.694903L349.512000 97.315175
L351.000000 102.659013L356.208000 124.968826L357.696000 128.690077
L359.184000 131.127435L360.672000 132.691091L362.160000 133.476949
L363.648000 133.232097L365.136000 131.879501L368.112000 128.503199
L369.600000 128.204937L371.088000 129.154658L380.016000 139.752990
L385.224000 151.179030L386.712000 152.089612L388.200000 152.102302
L389.688000 152.452985L391.920000 155.118766L393.408000 157.457057
L394.896000 158.767498L396.384000 158.284748L399.360000 153.985883
L400.848000 152.962465L402.336000 154.446122L403.824000 158.615837
L409.032000 177.916635L411.264000 182.200669L414.240000 187.339160
L416.472000 193.093189L420.192000 203.352571L421.680000 204.530813
L423.168000 202.553315L424.656000 197.886982L427.632000 187.718847
L428.376000 186.316566L429.864000 185.469553L431.352000 186.808190
L433.584000 190.885114L436.560000 196.127920L438.048000 197.681170
L442.512000 199.813390L444.744000 202.959061L449.952000 214.158306
L451.440000 215.169718L452.928000 214.871571L455.904000 212.524166
L458.880000 209.798203L461.856000 205.293604L463.344000 202.804170
L464.832000 201.177706L466.320000 201.122525L467.808000 202.949935
L469.296000 206.467162L475.248000 223.583380L475.992000 224.618910
L477.480000 225.435294L478.968000 224.561446L480.456000 222.404460
L480.456000 222.404460"/>
</g>
<g id="line2d6">
<path style="fill: none; stroke: #bfbf00; stroke-width: 1.000000; stroke-linejoin: round; stroke-linecap: square;  opacity: 1.000000" clip-path="url(#p50431ccdcb28178602d99d9270004dde)" d="M72.000000 249.113457L75.720000 238.800070L77.208000 237.739735
L78.696000 239.561463L80.184000 243.809698L83.904000 255.967965
L84.648000 257.004627L86.136000 256.576571L87.624000 253.374788
L90.600000 245.414228L92.088000 244.163966L93.576000 245.731803
L95.064000 249.478966L98.040000 258.162108L98.784000 259.574930
L100.272000 260.701917L101.760000 259.586457L104.736000 254.760649
L106.224000 253.979845L107.712000 255.302950L112.176000 262.443759
L113.664000 261.832418L115.152000 259.392754L118.128000 253.192742
L119.616000 251.667053L121.104000 251.824251L124.080000 254.078440
L125.568000 253.594483L127.056000 251.066298L130.032000 243.650022
L131.520000 242.553092L133.008000 245.390626L134.496000 252.336544
L138.216000 274.911329L138.960000 277.508302L139.704000 278.845019
L141.192000 277.476620L142.680000 271.020789L144.168000 260.326182
L146.400000 238.245953L152.352000 170.043731L153.840000 162.736394
L155.328000 164.278141L156.072000 168.448598L157.560000 182.503393
L162.768000 244.628346L164.256000 253.621931L165.000000 256.012912
L165.744000 257.064793L167.232000 255.962833L168.720000 251.678327
L170.952000 241.616503L174.672000 220.417548L177.648000 200.889525
L180.624000 176.802893L185.832000 133.078252L188.064000 120.958542
L189.552000 115.690740L191.040000 112.190751L191.784000 110.965435
L193.272000 109.427289L194.760000 109.131103L196.248000 110.190635
L197.736000 112.573578L202.200000 122.031035L203.688000 122.815014
L205.176000 121.323678L206.664000 117.922780L210.384000 108.056739
L211.128000 106.784868L212.616000 105.110272L215.592000 102.810575
L217.824000 99.016584L223.032000 86.535906L224.520000 85.571906
L227.496000 86.144601L228.984000 86.322777L230.472000 86.099793
L231.960000 85.519913L233.448000 84.532527L236.424000 81.166822
L240.144000 76.427584L241.632000 75.639238L243.120000 75.780253
L246.096000 77.855466L249.072000 79.926295L252.048000 81.945527
L255.024000 84.277408L256.512000 84.647357L259.488000 83.672710
L260.976000 84.057720L262.464000 86.358224L263.952000 90.737831
L267.672000 103.597042L268.416000 104.862816L269.904000 104.778358
L270.648000 103.363495L272.136000 98.264279L275.856000 82.840924
L277.344000 79.354424L278.088000 78.242932L282.552000 73.730962
L284.040000 72.641700L285.528000 72.752525L287.016000 74.463393
L289.248000 79.186102L291.480000 83.546411L292.968000 84.693779
L294.456000 84.178202L297.432000 81.428516L298.920000 81.490562
L300.408000 83.386708L302.640000 88.776227L304.872000 93.708062
L306.360000 94.746055L307.848000 93.480710L309.336000 90.447017
L312.312000 83.662509L313.056000 82.632821L314.544000 81.924137
L316.032000 83.007367L317.520000 85.459318L320.496000 91.018444
L321.984000 92.103964L323.472000 91.326066L327.936000 85.300142
L329.424000 85.890685L330.912000 88.526497L335.376000 99.665217
L336.120000 100.691889L337.608000 101.586083L339.096000 101.181758
L342.072000 98.419120L346.536000 93.943438L348.024000 92.959810
L349.512000 92.748741L351.000000 93.525782L355.464000 98.054561
L356.952000 98.747853L361.416000 99.642030L362.904000 100.675591
L365.136000 104.139943L367.368000 110.075905L371.088000 120.875081
L380.016000 142.164995L380.760000 143.222591L382.248000 144.518744
L383.736000 144.775239L385.224000 144.161881L389.688000 140.968897
L391.176000 141.226891L393.408000 143.632156L395.640000 147.653210
L401.592000 159.096948L403.080000 160.741634L407.544000 164.236539
L412.008000 168.705744L413.496000 169.532463L419.448000 171.088893
L422.424000 172.400620L423.912000 173.449745L425.400000 175.621825
L426.888000 179.620573L429.120000 188.768933L432.096000 201.358330
L433.584000 205.339029L434.328000 206.571094L435.816000 207.829282
L438.792000 208.929404L441.024000 211.594665L444.744000 218.219818
L446.232000 219.490185L447.720000 219.443460L452.184000 216.182273
L453.672000 216.098877L459.624000 218.305998L464.088000 217.352756
L465.576000 218.094978L468.552000 220.472376L470.040000 220.574975
L471.528000 219.568799L474.504000 216.419073L475.992000 215.567409
L477.480000 215.872824L479.712000 218.778492L480.456000 220.272494
L480.456000 220.272494"/>
</g>
<g id="matplotlib.axis1">
<g id="xtick1">
<g id="line2d7">
<defs><path id="m30e32995789d870ad79a2e54c91cf9c6" d="M0.000000 0.000000L0.000000 -4.000000"/></defs>
<g ><use style="fill: none; stroke: #000000; stroke-width: 0.500000; stroke-linejoin: round; stroke-linecap: butt;  opacity: 1.000000" xlink:href="#m30e32995789d870ad79a2e54c91cf9c6" x="72.000000" y="388.800000"/>
</g></g>
<g id="line2d8">
<defs><path id="m9281cae24120827b11d5ea8a7ad3e96b" d="M0.000000 0.000000L0.000000 4.000000"/></defs>
<g ><use style="fill: none; stroke: #000000; stroke-width: 0.500000; stroke-linejoin: round; stroke-linecap: butt;  opacity: 1.000000" xlink:href="#m9281cae24120827b11d5ea8a7ad3e96b" x="72.000000" y="43.200000"/>
</g></g>
<g id="text1">
<defs>
<path id="c_7a2040fe3b94fcd41d0a72c84e93b115" d="M31.781250 -66.406250q-7.609375 0.000000 -11.453125 7.500000q-3.828125 7.484375 -3.828125 22.531250q0.000000 14.984375 3.828125 22.484375q3.843750 7.500000 11.453125 7.500000q7.671875 0.000000 11.500000 -7.500000q3.843750 -7.500000 3.843750 -22.484375q0.000000 -15.046875 -3.843750 -22.531250q-3.828125 -7.500000 -11.500000 -7.500000M31.781250 -74.218750q12.265625 0.000000 18.734375 9.703125q6.468750 9.687500 6.468750 28.140625q0.000000 18.406250 -6.468750 28.109375q-6.468750 9.687500 -18.734375 9.687500q-12.250000 0.000000 -18.718750 -9.687500q-6.468750 -9.703125 -6.468750 -28.109375q0.000000 -18.453125 6.468750 -28.140625q6.468750 -9.703125 18.718750 -9.703125"/>
</defs>
<g style="fill: #000000; opacity: 1.000000" transform="translate(68.976562,401.706250)scale(0.120000)">
<use xlink:href="#c_7a2040fe3b94fcd41d0a72c84e93b115"/>
</g>
</g>
</g>
<g id="xtick2">
<g id="line2d9">
<g ><use style="fill: none; stroke: #000000; stroke-width: 0.500000; stroke-linejoin: round; stroke-linecap: butt;  opacity: 1.000000" xlink:href="#m30e32995789d870ad79a2e54c91cf9c6" x="146.400000" y="388.800000"/>
</g></g>
<g id="line2d10">
<g ><use style="fill: none; stroke: #000000; stroke-width: 0.500000; stroke-linejoin: round; stroke-linecap: butt;  opacity: 1.000000" xlink:href="#m9281cae24120827b11d5ea8a7ad3e96b" x="146.400000" y="43.200000"/>
</g></g>
<g id="text2">
<defs>
<path id="c_42baa63129a918535c52adb20d687ea7" d="M12.406250 -8.296875l16.109375 0.000000l0.000000 -55.625000l-17.531250 3.515625l0.000000 -8.984375l17.437500 -3.515625l9.859375 0.000000l0.000000 64.609375l16.109375 0.000000l0.000000 8.296875l-41.984375 0.000000z"/>
</defs>
<g style="fill: #000000; opacity: 1.000000" transform="translate(135.993750,401.706250)scale(0.120000)">
<use xlink:href="#c_42baa63129a918535c52adb20d687ea7"/>
<use xlink:href="#c_7a2040fe3b94fcd41d0a72c84e93b115" x="63.623047"/>
<use xlink:href="#c_7a2040fe3b94fcd41d0a72c84e93b115" x="127.246094"/>
</g>
</g>
</g>
<g id="xtick3">
<g id="line2d11">
<g ><use style="fill: none; stroke: #000000; stroke-width: 0.500000; stroke-linejoin: round; stroke-linecap: butt;  opacity: 1.000000" xlink:href="#m30e32995789d870ad79a2e54c91cf9c6" x="220.800000" y="388.800000"/>
</g></g>
<g id="line2d12">
<g ><use style="fill: none; stroke: #000000; stroke-width: 0.500000; stroke-linejoin: round; stroke-linecap: butt;  opacity: 1.000000" xlink:href="#m9281cae24120827b11d5ea8a7ad3e96b" x="220.800000" y="43.200000"/>
</g></g>
<g id="text3">
<defs>
<path id="c_ed3f3ed3ebfbd18bcb9c012009a68ad1" d="M19.187500 -8.296875l34.421875 0.000000l0.000000 8.296875l-46.281250 0.000000l0.000000 -8.296875q5.609375 -5.812500 15.296875 -15.593750q9.703125 -9.796875 12.187500 -12.640625q4.734375 -5.312500 6.609375 -9.000000q1.890625 -3.687500 1.890625 -7.250000q0.000000 -5.812500 -4.078125 -9.468750q-4.078125 -3.671875 -10.625000 -3.671875q-4.640625 0.000000 -9.796875 1.609375q-5.140625 1.609375 -11.000000 4.890625l0.000000 -9.968750q5.953125 -2.390625 11.125000 -3.609375q5.187500 -1.218750 9.484375 -1.218750q11.328125 0.000000 18.062500 5.671875q6.734375 5.656250 6.734375 15.125000q0.000000 4.500000 -1.687500 8.531250q-1.671875 4.015625 -6.125000 9.484375q-1.218750 1.421875 -7.765625 8.187500q-6.531250 6.765625 -18.453125 18.921875"/>
</defs>
<g style="fill: #000000; opacity: 1.000000" transform="translate(210.175000,401.706250)scale(0.120000)">
<use xlink:href="#c_ed3f3ed3ebfbd18bcb9c012009a68ad1"/>
<use xlink:href="#c_7a2040fe3b94fcd41d0a72c84e93b115" x="63.623047"/>
<use xlink:href="#c_7a2040fe3b94fcd41d0a72c84e93b115" x="127.246094"/>
</g>
</g>
</g>
<g id="xtick4">
<g id="line2d13">
<g ><use style="fill: none; stroke: #000000; stroke-width: 0.500000; stroke-linejoin: round; stroke-linecap: butt;  opacity: 1.000000" xlink:href="#m30e32995789d870ad79a2e54c91cf9c6" x="295.200000" y="388.800000"/>
</g></g>
<g id="line2d14">
<g ><use style="fill: none; stroke: #000000; stroke-width: 0.500000; stroke-linejoin: round; stroke-linecap: butt;  opacity: 1.000000" xlink:href="#m9281cae24120827b11d5ea8a7ad3e96b" x="295.200000" y="43.200000"/>
</g></g>
<g id="text4">
<defs>
<path id="c_3dcfa38a02242cb63ec6726c6e70be7a" d="M40.578125 -39.312500q7.078125 1.515625 11.046875 6.312500q3.984375 4.781250 3.984375 11.812500q0.000000 10.781250 -7.421875 16.703125q-7.421875 5.906250 -21.093750 5.906250q-4.578125 0.000000 -9.437500 -0.906250q-4.859375 -0.906250 -10.031250 -2.718750l0.000000 -9.515625q4.093750 2.390625 8.968750 3.609375q4.890625 1.218750 10.218750 1.218750q9.265625 0.000000 14.125000 -3.656250q4.859375 -3.656250 4.859375 -10.640625q0.000000 -6.453125 -4.515625 -10.078125q-4.515625 -3.640625 -12.562500 -3.640625l-8.500000 0.000000l0.000000 -8.109375l8.890625 0.000000q7.265625 0.000000 11.125000 -2.906250q3.859375 -2.906250 3.859375 -8.375000q0.000000 -5.609375 -3.984375 -8.609375q-3.968750 -3.015625 -11.390625 -3.015625q-4.062500 0.000000 -8.703125 0.890625q-4.640625 0.875000 -10.203125 2.718750l0.000000 -8.781250q5.625000 -1.562500 10.531250 -2.343750q4.906250 -0.781250 9.250000 -0.781250q11.234375 0.000000 17.765625 5.109375q6.546875 5.093750 6.546875 13.781250q0.000000 6.062500 -3.468750 10.234375q-3.468750 4.171875 -9.859375 5.781250"/>
</defs>
<g style="fill: #000000; opacity: 1.000000" transform="translate(284.598437,401.706250)scale(0.120000)">
<use xlink:href="#c_3dcfa38a02242cb63ec6726c6e70be7a"/>
<use xlink:href="#c_7a2040fe3b94fcd41d0a72c84e93b115" x="63.623047"/>
<use xlink:href="#c_7a2040fe3b94fcd41d0a72c84e93b115" x="127.246094"/>
</g>
</g>
</g>
<g id="xtick5">
<g id="line2d15">
<g ><use style="fill: none; stroke: #000000; stroke-width: 0.500000; stroke-linejoin: round; stroke-linecap: butt;  opacity: 1.000000" xlink:href="#m30e32995789d870ad79a2e54c91cf9c6" x="369.600000" y="388.800000"/>
</g></g>
<g id="line2d16">
<g ><use style="fill: none; stroke: #000000; stroke-width: 0.500000; stroke-linejoin: round; stroke-linecap: butt;  opacity: 1.000000" xlink:href="#m9281cae24120827b11d5ea8a7ad3e96b" x="369.600000" y="43.200000"/>
</g></g>
<g id="text5">
<defs>
<path id="c_a0416418d96557a09b8c1332d34883ba" d="M37.796875 -64.312500l-24.906250 38.921875l24.906250 0.000000zM35.203125 -72.906250l12.406250 0.000000l0.000000 47.515625l10.406250 0.000000l0.000000 8.203125l-10.406250 0.000000l0.000000 17.187500l-9.812500 0.000000l0.000000 -17.187500l-32.906250 0.000000l0.000000 -9.515625z"/>
</defs>
<g style="fill: #000000; opacity: 1.000000" transform="translate(358.834375,401.706250)scale(0.120000)">
<use xlink:href="#c_a0416418d96557a09b8c1332d34883ba"/>
<use xlink:href="#c_7a2040fe3b94fcd41d0a72c84e93b115" x="63.623047"/>
<use xlink:href="#c_7a2040fe3b94fcd41d0a72c84e93b115" x="127.246094"/>
</g>
</g>
</g>
<g id="xtick6">
<g id="line2d17">
<g ><use style="fill: none; stroke: #000000; stroke-width: 0.500000; stroke-linejoin: round; stroke-linecap: butt;  opacity: 1.000000" xlink:href="#m30e32995789d870ad79a2e54c91cf9c6" x="444.000000" y="388.800000"/>
</g></g>
<g id="line2d18">
<g ><use style="fill: none; stroke: #000000; stroke-width: 0.500000; stroke-linejoin: round; stroke-linecap: butt;  opacity: 1.000000" xlink:href="#m9281cae24120827b11d5ea8a7ad3e96b" x="444.000000" y="43.200000"/>
</g></g>
<g id="text6">
<defs>
<path id="c_1260a2df50f305f3db244e29828f968e" d="M10.796875 -72.906250l38.718750 0.000000l0.000000 8.312500l-29.687500 0.000000l0.000000 17.859375q2.140625 -0.734375 4.281250 -1.093750q2.156250 -0.359375 4.312500 -0.359375q12.203125 0.000000 19.328125 6.687500q7.140625 6.687500 7.140625 18.109375q0.000000 11.765625 -7.328125 18.296875q-7.328125 6.515625 -20.656250 6.515625q-4.593750 0.000000 -9.359375 -0.781250q-4.750000 -0.781250 -9.828125 -2.343750l0.000000 -9.921875q4.390625 2.390625 9.078125 3.562500q4.687500 1.171875 9.906250 1.171875q8.453125 0.000000 13.375000 -4.437500q4.937500 -4.437500 4.937500 -12.062500q0.000000 -7.609375 -4.937500 -12.046875q-4.921875 -4.453125 -13.375000 -4.453125q-3.953125 0.000000 -7.890625 0.875000q-3.921875 0.875000 -8.015625 2.734375z"/>
</defs>
<g style="fill: #000000; opacity: 1.000000" transform="translate(433.398438,401.706250)scale(0.120000)">
<use xlink:href="#c_1260a2df50f305f3db244e29828f968e"/>
<use xlink:href="#c_7a2040fe3b94fcd41d0a72c84e93b115" x="63.623047"/>
<use xlink:href="#c_7a2040fe3b94fcd41d0a72c84e93b115" x="127.246094"/>
</g>
</g>
</g>
<g id="xtick7">
<g id="line2d19">
<g ><use style="fill: none; stroke: #000000; stroke-width: 0.500000; stroke-linejoin: round; stroke-linecap: butt;  opacity: 1.000000" xlink:href="#m30e32995789d870ad79a2e54c91cf9c6" x="518.400000" y="388.800000"/>
</g></g>
<g id="line2d20">
<g ><use style="fill: none; stroke: #000000; stroke-width: 0.500000; stroke-linejoin: round; stroke-linecap: butt;  opacity: 1.000000" xlink:href="#m9281cae24120827b11d5ea8a7ad3e96b" x="518.400000" y="43.200000"/>
</g></g>
<g id="text7">
<defs>
<path id="c_cc8d6d580d1b10c8632f7a42cd53db8a" d="M33.015625 -40.375000q-6.640625 0.000000 -10.531250 4.546875q-3.875000 4.531250 -3.875000 12.437500q0.000000 7.859375 3.875000 12.437500q3.890625 4.562500 10.531250 4.562500q6.640625 0.000000 10.515625 -4.562500q3.875000 -4.578125 3.875000 -12.437500q0.000000 -7.906250 -3.875000 -12.437500q-3.875000 -4.546875 -10.515625 -4.546875M52.593750 -71.296875l0.000000 8.984375q-3.718750 -1.750000 -7.500000 -2.671875q-3.781250 -0.937500 -7.500000 -0.937500q-9.765625 0.000000 -14.921875 6.593750q-5.140625 6.593750 -5.875000 19.921875q2.875000 -4.250000 7.218750 -6.515625q4.359375 -2.265625 9.578125 -2.265625q10.984375 0.000000 17.359375 6.671875q6.375000 6.656250 6.375000 18.125000q0.000000 11.234375 -6.640625 18.031250q-6.640625 6.781250 -17.671875 6.781250q-12.656250 0.000000 -19.343750 -9.687500q-6.687500 -9.703125 -6.687500 -28.109375q0.000000 -17.281250 8.203125 -27.562500q8.203125 -10.281250 22.015625 -10.281250q3.718750 0.000000 7.500000 0.734375q3.781250 0.734375 7.890625 2.187500"/>
</defs>
<g style="fill: #000000; opacity: 1.000000" transform="translate(507.759375,401.706250)scale(0.120000)">
<use xlink:href="#c_cc8d6d580d1b10c8632f7a42cd53db8a"/>
<use xlink:href="#c_7a2040fe3b94fcd41d0a72c84e93b115" x="63.623047"/>
<use xlink:href="#c_7a2040fe3b94fcd41d0a72c84e93b115" x="127.246094"/>
</g>
</g>
</g>
<g id="text8">
<defs>
<path id="c_72234ddc5dcad8d05c893ef0371171da" d="M9.812500 -72.906250l14.703125 0.000000l18.593750 49.609375l18.703125 -49.609375l14.703125 0.000000l0.000000 72.906250l-9.625000 0.000000l0.000000 -64.015625l-18.796875 50.000000l-9.906250 0.000000l-18.796875 -50.000000l0.000000 64.015625l-9.578125 0.000000z"/>
<path id="c_6a63bda47b2f3da1cec6aadd80692cfe" d="M9.421875 -54.687500l8.984375 0.000000l0.000000 54.687500l-8.984375 0.000000zM9.421875 -75.984375l8.984375 0.000000l0.000000 11.390625l-8.984375 0.000000z"/>
<path id="c_5099edb83619131346ae654950954dea" d="M9.421875 -75.984375l8.984375 0.000000l0.000000 75.984375l-8.984375 0.000000z"/>
<path id="c_8e0810ad13fe20a2a87a2619799b154d" d="M44.281250 -53.078125l0.000000 8.500000q-3.796875 -1.953125 -7.906250 -2.921875q-4.093750 -0.984375 -8.500000 -0.984375q-6.687500 0.000000 -10.031250 2.046875q-3.343750 2.046875 -3.343750 6.156250q0.000000 3.125000 2.390625 4.906250q2.390625 1.781250 9.625000 3.390625l3.078125 0.687500q9.562500 2.046875 13.593750 5.781250q4.031250 3.734375 4.031250 10.421875q0.000000 7.625000 -6.031250 12.078125q-6.031250 4.437500 -16.578125 4.437500q-4.390625 0.000000 -9.156250 -0.859375q-4.765625 -0.859375 -10.031250 -2.562500l0.000000 -9.281250q4.984375 2.593750 9.812500 3.890625q4.828125 1.281250 9.578125 1.281250q6.343750 0.000000 9.750000 -2.171875q3.421875 -2.171875 3.421875 -6.125000q0.000000 -3.656250 -2.468750 -5.609375q-2.453125 -1.953125 -10.812500 -3.765625l-3.125000 -0.734375q-8.343750 -1.750000 -12.062500 -5.390625q-3.703125 -3.640625 -3.703125 -9.984375q0.000000 -7.718750 5.468750 -11.906250q5.468750 -4.203125 15.531250 -4.203125q4.968750 0.000000 9.359375 0.734375q4.406250 0.718750 8.109375 2.187500"/>
<path id="c_0bce5afba2dc6b9024b26277c38ad8e8" d="M56.203125 -29.593750l0.000000 4.390625l-41.312500 0.000000q0.593750 9.281250 5.593750 14.140625q5.000000 4.859375 13.937500 4.859375q5.171875 0.000000 10.031250 -1.265625q4.859375 -1.265625 9.656250 -3.812500l0.000000 8.500000q-4.843750 2.046875 -9.921875 3.125000q-5.078125 1.078125 -10.296875 1.078125q-13.093750 0.000000 -20.734375 -7.609375q-7.640625 -7.625000 -7.640625 -20.625000q0.000000 -13.421875 7.250000 -21.296875q7.250000 -7.890625 19.562500 -7.890625q11.031250 0.000000 17.453125 7.109375q6.421875 7.093750 6.421875 19.296875M47.218750 -32.234375q-0.093750 -7.359375 -4.125000 -11.750000q-4.031250 -4.406250 -10.671875 -4.406250q-7.515625 0.000000 -12.031250 4.250000q-4.515625 4.250000 -5.203125 11.968750z"/>
<path id="c_d650c37394b681142a10dfc54356d478" d="M48.781250 -52.593750l0.000000 8.406250q-3.812500 -2.109375 -7.640625 -3.156250q-3.828125 -1.046875 -7.734375 -1.046875q-8.750000 0.000000 -13.593750 5.546875q-4.828125 5.531250 -4.828125 15.546875q0.000000 10.015625 4.828125 15.562500q4.843750 5.531250 13.593750 5.531250q3.906250 0.000000 7.734375 -1.046875q3.828125 -1.046875 7.640625 -3.156250l0.000000 8.312500q-3.765625 1.750000 -7.796875 2.625000q-4.015625 0.890625 -8.562500 0.890625q-12.359375 0.000000 -19.640625 -7.765625q-7.265625 -7.765625 -7.265625 -20.953125q0.000000 -13.375000 7.343750 -21.031250q7.359375 -7.671875 20.156250 -7.671875q4.140625 0.000000 8.093750 0.859375q3.953125 0.843750 7.671875 2.546875"/>
<path id="c_f05dd90d41f04bb96ef1ca503cc2044b" d="M30.609375 -48.390625q-7.218750 0.000000 -11.421875 5.640625q-4.203125 5.640625 -4.203125 15.453125q0.000000 9.812500 4.171875 15.453125q4.187500 5.640625 11.453125 5.640625q7.187500 0.000000 11.375000 -5.656250q4.203125 -5.671875 4.203125 -15.437500q0.000000 -9.718750 -4.203125 -15.406250q-4.187500 -5.687500 -11.375000 -5.687500M30.609375 -56.000000q11.718750 0.000000 18.406250 7.625000q6.703125 7.609375 6.703125 21.078125q0.000000 13.421875 -6.703125 21.078125q-6.687500 7.640625 -18.406250 7.640625q-11.765625 0.000000 -18.437500 -7.640625q-6.656250 -7.656250 -6.656250 -21.078125q0.000000 -13.468750 6.656250 -21.078125q6.671875 -7.625000 18.437500 -7.625000"/>
<path id="c_fe791a90f5471e2ab20a5ed41a7fa451" d="M54.890625 -33.015625l0.000000 33.015625l-8.984375 0.000000l0.000000 -32.718750q0.000000 -7.765625 -3.031250 -11.609375q-3.031250 -3.859375 -9.078125 -3.859375q-7.281250 0.000000 -11.484375 4.640625q-4.203125 4.625000 -4.203125 12.640625l0.000000 30.906250l-9.031250 0.000000l0.000000 -54.687500l9.031250 0.000000l0.000000 8.500000q3.234375 -4.937500 7.593750 -7.375000q4.375000 -2.437500 10.093750 -2.437500q9.421875 0.000000 14.250000 5.828125q4.843750 5.828125 4.843750 17.156250"/>
<path id="c_d821beae607506e87470f334d9ff47af" d="M45.406250 -46.390625l0.000000 -29.593750l8.984375 0.000000l0.000000 75.984375l-8.984375 0.000000l0.000000 -8.203125q-2.828125 4.875000 -7.156250 7.250000q-4.312500 2.375000 -10.375000 2.375000q-9.906250 0.000000 -16.140625 -7.906250q-6.218750 -7.921875 -6.218750 -20.812500q0.000000 -12.890625 6.218750 -20.796875q6.234375 -7.906250 16.140625 -7.906250q6.062500 0.000000 10.375000 2.375000q4.328125 2.359375 7.156250 7.234375M14.796875 -27.296875q0.000000 9.906250 4.078125 15.546875q4.078125 5.640625 11.203125 5.640625q7.125000 0.000000 11.218750 -5.640625q4.109375 -5.640625 4.109375 -15.546875q0.000000 -9.906250 -4.109375 -15.546875q-4.093750 -5.640625 -11.218750 -5.640625q-7.125000 0.000000 -11.203125 5.640625q-4.078125 5.640625 -4.078125 15.546875"/>
</defs>
<g style="fill: #000000; opacity: 1.000000" transform="translate(259.707812,416.003125)scale(0.120000)">
<use xlink:href="#c_72234ddc5dcad8d05c893ef0371171da"/>
<use xlink:href="#c_6a63bda47b2f3da1cec6aadd80692cfe" x="86.279297"/>
<use xlink:href="#c_5099edb83619131346ae654950954dea" x="114.062500"/>
<use xlink:href="#c_5099edb83619131346ae654950954dea" x="141.845703"/>
<use xlink:href="#c_6a63bda47b2f3da1cec6aadd80692cfe" x="169.628906"/>
<use xlink:href="#c_8e0810ad13fe20a2a87a2619799b154d" x="197.412109"/>
<use xlink:href="#c_0bce5afba2dc6b9024b26277c38ad8e8" x="249.511719"/>
<use xlink:href="#c_d650c37394b681142a10dfc54356d478" x="311.035156"/>
<use xlink:href="#c_f05dd90d41f04bb96ef1ca503cc2044b" x="366.015625"/>
<use xlink:href="#c_fe791a90f5471e2ab20a5ed41a7fa451" x="427.197266"/>
<use xlink:href="#c_d821beae607506e87470f334d9ff47af" x="490.576172"/>
<use xlink:href="#c_8e0810ad13fe20a2a87a2619799b154d" x="554.052734"/>
</g>
</g>
</g>
<g id="matplotlib.axis2">
<g id="ytick1">
<g id="line2d21">
<defs><path id="m3400efa6b1638b3fea9e19e898273957" d="M0.000000 0.000000L4.000000 0.000000"/></defs>
<g ><use style="fill: none; stroke: #000000; stroke-width: 0.500000; stroke-linejoin: round; stroke-linecap: butt;  opacity: 1.000000" xlink:href="#m3400efa6b1638b3fea9e19e898273957" x="72.000000" y="388.800000"/>
</g></g>
<g id="line2d22">
<defs><path id="m20b58b2501143cb5e0a5e8f1ef6f1643" d="M0.000000 0.000000L-4.000000 0.000000"/></defs>
<g ><use style="fill: none; stroke: #000000; stroke-width: 0.500000; stroke-linejoin: round; stroke-linecap: butt;  opacity: 1.000000" xlink:href="#m20b58b2501143cb5e0a5e8f1ef6f1643" x="518.400000" y="388.800000"/>
</g></g>
<g id="text9">
<defs>
<path id="c_6a8d56c819c37117ab4cf023bec22a5a" d="M10.593750 -35.500000l62.593750 0.000000l0.000000 8.296875l-62.593750 0.000000z"/>
</defs>
<g style="fill: #000000; opacity: 1.000000" transform="translate(52.234375,393.175000)scale(0.120000)">
<use xlink:href="#c_6a8d56c819c37117ab4cf023bec22a5a"/>
<use xlink:href="#c_a0416418d96557a09b8c1332d34883ba" x="83.789062"/>
</g>
</g>
</g>
<g id="ytick2">
<g id="line2d23">
<g ><use style="fill: none; stroke: #000000; stroke-width: 0.500000; stroke-linejoin: round; stroke-linecap: butt;  opacity: 1.000000" xlink:href="#m3400efa6b1638b3fea9e19e898273957" x="72.000000" y="319.680000"/>
</g></g>
<g id="line2d24">
<g ><use style="fill: none; stroke: #000000; stroke-width: 0.500000; stroke-linejoin: round; stroke-linecap: butt;  opacity: 1.000000" xlink:href="#m20b58b2501143cb5e0a5e8f1ef6f1643" x="518.400000" y="319.680000"/>
</g></g>
<g id="text10">
<g style="fill: #000000; opacity: 1.000000" transform="translate(52.765625,324.133125)scale(0.120000)">
<use xlink:href="#c_6a8d56c819c37117ab4cf023bec22a5a"/>
<use xlink:href="#c_ed3f3ed3ebfbd18bcb9c012009a68ad1" x="83.789062"/>
</g>
</g>
</g>
<g id="ytick3">
<g id="line2d25">
<g ><use style="fill: none; stroke: #000000; stroke-width: 0.500000; stroke-linejoin: round; stroke-linecap: butt;  opacity: 1.000000" xlink:href="#m3400efa6b1638b3fea9e19e898273957" x="72.000000" y="250.560000"/>
</g></g>
<g id="line2d26">
<g ><use style="fill: none; stroke: #000000; stroke-width: 0.500000; stroke-linejoin: round; stroke-linecap: butt;  opacity: 1.000000" xlink:href="#m20b58b2501143cb5e0a5e8f1ef6f1643" x="518.400000" y="250.560000"/>
</g></g>
<g id="text11">
<g style="fill: #000000; opacity: 1.000000" transform="translate(61.953125,254.927188)scale(0.120000)">
<use xlink:href="#c_7a2040fe3b94fcd41d0a72c84e93b115"/>
</g>
</g>
</g>
<g id="ytick4">
<g id="line2d27">
<g ><use style="fill: none; stroke: #000000; stroke-width: 0.500000; stroke-linejoin: round; stroke-linecap: butt;  opacity: 1.000000" xlink:href="#m3400efa6b1638b3fea9e19e898273957" x="72.000000" y="181.440000"/>
</g></g>
<g id="line2d28">
<g ><use style="fill: none; stroke: #000000; stroke-width: 0.500000; stroke-linejoin: round; stroke-linecap: butt;  opacity: 1.000000" xlink:href="#m20b58b2501143cb5e0a5e8f1ef6f1643" x="518.400000" y="181.440000"/>
</g></g>
<g id="text12">
<g style="fill: #000000; opacity: 1.000000" transform="translate(62.437500,185.893125)scale(0.120000)">
<use xlink:href="#c_ed3f3ed3ebfbd18bcb9c012009a68ad1"/>
</g>
</g>
</g>
<g id="ytick5">
<g id="line2d29">
<g ><use style="fill: none; stroke: #000000; stroke-width: 0.500000; stroke-linejoin: round; stroke-linecap: butt;  opacity: 1.000000" xlink:href="#m3400efa6b1638b3fea9e19e898273957" x="72.000000" y="112.320000"/>
</g></g>
<g id="line2d30">
<g ><use style="fill: none; stroke: #000000; stroke-width: 0.500000; stroke-linejoin: round; stroke-linecap: butt;  opacity: 1.000000" xlink:href="#m20b58b2501143cb5e0a5e8f1ef6f1643" x="518.400000" y="112.320000"/>
</g></g>
<g id="text13">
<g style="fill: #000000; opacity: 1.000000" transform="translate(61.625000,116.695000)scale(0.120000)">
<use xlink:href="#c_a0416418d96557a09b8c1332d34883ba"/>
</g>
</g>
</g>
<g id="ytick6">
<g id="line2d31">
<g ><use style="fill: none; stroke: #000000; stroke-width: 0.500000; stroke-linejoin: round; stroke-linecap: butt;  opacity: 1.000000" xlink:href="#m3400efa6b1638b3fea9e19e898273957" x="72.000000" y="43.200000"/>
</g></g>
<g id="line2d32">
<g ><use style="fill: none; stroke: #000000; stroke-width: 0.500000; stroke-linejoin: round; stroke-linecap: butt;  opacity: 1.000000" xlink:href="#m20b58b2501143cb5e0a5e8f1ef6f1643" x="518.400000" y="43.200000"/>
</g></g>
<g id="text14">
<g style="fill: #000000; opacity: 1.000000" transform="translate(61.968750,47.567187)scale(0.120000)">
<use xlink:href="#c_cc8d6d580d1b10c8632f7a42cd53db8a"/>
</g>
</g>
</g>
<g id="text15">
<defs>
<path id="c_5d9b0d099c491f27a9f40b391fa98eef" d="M9.812500 -72.906250l41.890625 0.000000l0.000000 8.312500l-32.031250 0.000000l0.000000 21.484375l28.906250 0.000000l0.000000 8.296875l-28.906250 0.000000l0.000000 34.812500l-9.859375 0.000000z"/>
<path id="c_6ec8d5749226675394676a5d2a3b468b" d="M41.109375 -46.296875q-1.515625 -0.875000 -3.296875 -1.281250q-1.781250 -0.421875 -3.921875 -0.421875q-7.625000 0.000000 -11.703125 4.953125q-4.078125 4.953125 -4.078125 14.234375l0.000000 28.812500l-9.031250 0.000000l0.000000 -54.687500l9.031250 0.000000l0.000000 8.500000q2.843750 -4.984375 7.375000 -7.390625q4.546875 -2.421875 11.046875 -2.421875q0.921875 0.000000 2.046875 0.125000q1.125000 0.109375 2.484375 0.359375z"/>
<path id="c_a66ecc39892414b9ca9362e0fffdc75b" d="M14.796875 -27.296875q0.000000 9.906250 4.078125 15.546875q4.078125 5.640625 11.203125 5.640625q7.125000 0.000000 11.218750 -5.640625q4.109375 -5.640625 4.109375 -15.546875q0.000000 -9.906250 -4.109375 -15.546875q-4.093750 -5.640625 -11.218750 -5.640625q-7.125000 0.000000 -11.203125 5.640625q-4.078125 5.640625 -4.078125 15.546875M45.406250 -8.203125q-2.828125 4.875000 -7.156250 7.250000q-4.312500 2.375000 -10.375000 2.375000q-9.906250 0.000000 -16.140625 -7.906250q-6.218750 -7.921875 -6.218750 -20.812500q0.000000 -12.890625 6.218750 -20.796875q6.234375 -7.906250 16.140625 -7.906250q6.062500 0.000000 10.375000 2.375000q4.328125 2.359375 7.156250 7.234375l0.000000 -8.296875l8.984375 0.000000l0.000000 75.484375l-8.984375 0.000000z"/>
<path id="c_3b515ad41f960e225ec85275856806ca" d="M8.500000 -21.578125l0.000000 -33.109375l8.984375 0.000000l0.000000 32.765625q0.000000 7.765625 3.015625 11.656250q3.031250 3.875000 9.093750 3.875000q7.265625 0.000000 11.484375 -4.640625q4.234375 -4.640625 4.234375 -12.656250l0.000000 -31.000000l8.984375 0.000000l0.000000 54.687500l-8.984375 0.000000l0.000000 -8.406250q-3.265625 4.984375 -7.593750 7.406250q-4.312500 2.421875 -10.031250 2.421875q-9.421875 0.000000 -14.312500 -5.859375q-4.875000 -5.859375 -4.875000 -17.140625M31.109375 -56.000000z"/>
<path id="c_3fe22c4af425ac970aec982ae9662abe" d="M32.171875 5.078125q-3.796875 9.765625 -7.421875 12.734375q-3.609375 2.984375 -9.656250 2.984375l-7.187500 0.000000l0.000000 -7.515625l5.281250 0.000000q3.703125 0.000000 5.750000 -1.765625q2.062500 -1.750000 4.546875 -8.296875l1.609375 -4.093750l-22.109375 -53.812500l9.515625 0.000000l17.093750 42.765625l17.093750 -42.765625l9.515625 0.000000z"/>
</defs>
<g style="fill: #000000; opacity: 1.000000" transform="translate(47.234375,243.757812)rotate(-90.0)scale(0.120000)">
<use xlink:href="#c_5d9b0d099c491f27a9f40b391fa98eef"/>
<use xlink:href="#c_6ec8d5749226675394676a5d2a3b468b" x="50.269531"/>
<use xlink:href="#c_0bce5afba2dc6b9024b26277c38ad8e8" x="89.132812"/>
<use xlink:href="#c_a66ecc39892414b9ca9362e0fffdc75b" x="150.656250"/>
<use xlink:href="#c_3b515ad41f960e225ec85275856806ca" x="214.132812"/>
<use xlink:href="#c_0bce5afba2dc6b9024b26277c38ad8e8" x="277.511719"/>
<use xlink:href="#c_fe791a90f5471e2ab20a5ed41a7fa451" x="339.035156"/>
<use xlink:href="#c_d650c37394b681142a10dfc54356d478" x="402.414062"/>
<use xlink:href="#c_3fe22c4af425ac970aec982ae9662abe" x="457.394531"/>
</g>
</g>
</g>
<g id="patch3">
<path style="fill: none; stroke: #000000; stroke-width: 1.000000; stroke-linejoin: round; stroke-linecap: square;  opacity: 1.000000"  d="M72.000000 43.200000L518.400000 43.200000"/>
</g>
<g id="patch4">
<path style="fill: none; stroke: #000000; stroke-width: 1.000000; stroke-linejoin: round; stroke-linecap: square;  opacity: 1.000000"  d="M518.400000 388.800000L518.400000 43.200000"/>
</g>
<g id="patch5">
<path style="fill: none; stroke: #000000; stroke-width: 1.000000; stroke-linejoin: round; stroke-linecap: square;  opacity: 1.000000"  d="M72.000000 388.800000L518.400000 388.800000"/>
</g>
<g id="patch6">
<path style="fill: none; stroke: #000000; stroke-width: 1.000000; stroke-linejoin: round; stroke-linecap: square;  opacity: 1.000000"  d="M72.000000 388.800000L72.000000 43.200000"/>
</g>
<g id="legend1">
<g id="patch7">
<path style="fill: #ffffff; stroke: #000000; stroke-width: 1.000000; stroke-linejoin: round; stroke-linecap: square;  opacity: 1.000000"  d="M338.797500 93.510625L511.200000 93.510625L511.200000 50.400000
L338.797500 50.400000L338.797500 93.510625z"/>
</g>
<g id="line2d33">
<path style="fill: none; stroke: #bf00bf; stroke-width: 1.000000; stroke-linejoin: round; stroke-linecap: square;  opacity: 1.000000"  d="M348.877500 61.760625L369.037500 61.760625"/>
</g>
<g id="line2d34">
</g>
<g id="text16">
<defs>
<path id="c_ff9441f72805bc441fcb0bfe0d774f13" d="M19.671875 -64.796875l0.000000 56.687500l11.921875 0.000000q15.093750 0.000000 22.093750 -6.828125q7.000000 -6.843750 7.000000 -21.593750q0.000000 -14.640625 -7.000000 -21.453125q-7.000000 -6.812500 -22.093750 -6.812500zM9.812500 -72.906250l20.265625 0.000000q21.187500 0.000000 31.093750 8.812500q9.921875 8.812500 9.921875 27.562500q0.000000 18.859375 -9.968750 27.703125q-9.953125 8.828125 -31.046875 8.828125l-20.265625 0.000000z"/>
<path id="c_d41d8cd98f00b204e9800998ecf8427e" d=""/>
<path id="c_a469f8ee191679fe73f3b765bd271597" d="M64.406250 -67.281250l0.000000 10.390625q-4.984375 -4.640625 -10.625000 -6.921875q-5.640625 -2.296875 -11.984375 -2.296875q-12.500000 0.000000 -19.140625 7.640625q-6.640625 7.640625 -6.640625 22.093750q0.000000 14.406250 6.640625 22.046875q6.640625 7.640625 19.140625 7.640625q6.343750 0.000000 11.984375 -2.296875q5.640625 -2.296875 10.625000 -6.937500l0.000000 10.312500q-5.171875 3.515625 -10.968750 5.281250q-5.781250 1.750000 -12.218750 1.750000q-16.562500 0.000000 -26.093750 -10.125000q-9.515625 -10.140625 -9.515625 -27.671875q0.000000 -17.578125 9.515625 -27.703125q9.531250 -10.140625 26.093750 -10.140625q6.531250 0.000000 12.312500 1.734375q5.796875 1.734375 10.875000 5.203125"/>
<path id="c_518d586bee075aa0153eaebfcb5ab11f" d="M19.671875 -64.796875l0.000000 27.390625l12.406250 0.000000q6.890625 0.000000 10.640625 -3.562500q3.765625 -3.562500 3.765625 -10.156250q0.000000 -6.546875 -3.765625 -10.109375q-3.750000 -3.562500 -10.640625 -3.562500zM9.812500 -72.906250l22.265625 0.000000q12.265625 0.000000 18.531250 5.546875q6.281250 5.546875 6.281250 16.234375q0.000000 10.796875 -6.281250 16.312500q-6.265625 5.515625 -18.531250 5.515625l-12.406250 0.000000l0.000000 29.296875l-9.859375 0.000000z"/>
<path id="c_680e57528fc97ec49605e10827a40086" d="M39.406250 -66.218750q-10.750000 0.000000 -17.078125 8.015625q-6.312500 8.000000 -6.312500 21.828125q0.000000 13.765625 6.312500 21.781250q6.328125 8.000000 17.078125 8.000000q10.734375 0.000000 17.015625 -8.000000q6.281250 -8.015625 6.281250 -21.781250q0.000000 -13.828125 -6.281250 -21.828125q-6.281250 -8.015625 -17.015625 -8.015625M39.406250 -74.218750q15.328125 0.000000 24.500000 10.281250q9.187500 10.281250 9.187500 27.562500q0.000000 17.234375 -9.187500 27.515625q-9.171875 10.281250 -24.500000 10.281250q-15.375000 0.000000 -24.593750 -10.250000q-9.203125 -10.265625 -9.203125 -27.546875q0.000000 -17.281250 9.203125 -27.562500q9.218750 -10.281250 24.593750 -10.281250"/>
<path id="c_9f267d35ece7e6f3f1d851c2e17a8dec" d="M5.515625 -54.687500l42.671875 0.000000l0.000000 8.203125l-33.781250 39.312500l33.781250 0.000000l0.000000 7.171875l-43.890625 0.000000l0.000000 -8.203125l33.796875 -39.312500l-32.578125 0.000000z"/>
</defs>
<g style="fill: #000000; opacity: 1.000000" transform="translate(384.877500,66.800625)scale(0.144000)">
<use xlink:href="#c_ff9441f72805bc441fcb0bfe0d774f13"/>
<use xlink:href="#c_0bce5afba2dc6b9024b26277c38ad8e8" x="77.001953"/>
<use xlink:href="#c_fe791a90f5471e2ab20a5ed41a7fa451" x="138.525391"/>
<use xlink:href="#c_8e0810ad13fe20a2a87a2619799b154d" x="201.904297"/>
<use xlink:href="#c_0bce5afba2dc6b9024b26277c38ad8e8" x="254.003906"/>
<use xlink:href="#c_d41d8cd98f00b204e9800998ecf8427e" x="315.527344"/>
<use xlink:href="#c_a469f8ee191679fe73f3b765bd271597" x="347.314453"/>
<use xlink:href="#c_5099edb83619131346ae654950954dea" x="417.138672"/>
<use xlink:href="#c_f05dd90d41f04bb96ef1ca503cc2044b" x="444.921875"/>
<use xlink:href="#c_8e0810ad13fe20a2a87a2619799b154d" x="506.103516"/>
<use xlink:href="#c_0bce5afba2dc6b9024b26277c38ad8e8" x="558.203125"/>
<use xlink:href="#c_d41d8cd98f00b204e9800998ecf8427e" x="619.726563"/>
<use xlink:href="#c_518d586bee075aa0153eaebfcb5ab11f" x="651.513672"/>
<use xlink:href="#c_680e57528fc97ec49605e10827a40086" x="711.816406"/>
<use xlink:href="#c_9f267d35ece7e6f3f1d851c2e17a8dec" x="790.527344"/>
</g>
</g>
<g id="line2d35">
<path style="fill: none; stroke: #bfbf00; stroke-width: 1.000000; stroke-linejoin: round; stroke-linecap: square;  opacity: 1.000000"  d="M348.877500 82.507500L369.037500 82.507500"/>
</g>
<g id="line2d36">
</g>
<g id="text17">
<defs>
<path id="c_01d93a582460e35a7945ca50d148ffeb" d="M34.281250 -27.484375q-10.890625 0.000000 -15.093750 2.484375q-4.203125 2.484375 -4.203125 8.500000q0.000000 4.781250 3.156250 7.593750q3.156250 2.796875 8.562500 2.796875q7.484375 0.000000 12.000000 -5.296875q4.515625 -5.296875 4.515625 -14.078125l0.000000 -2.000000zM52.203125 -31.203125l0.000000 31.203125l-8.984375 0.000000l0.000000 -8.296875q-3.078125 4.968750 -7.671875 7.343750q-4.593750 2.375000 -11.234375 2.375000q-8.390625 0.000000 -13.359375 -4.718750q-4.953125 -4.718750 -4.953125 -12.625000q0.000000 -9.218750 6.171875 -13.906250q6.187500 -4.687500 18.437500 -4.687500l12.609375 0.000000l0.000000 -0.890625q0.000000 -6.203125 -4.078125 -9.593750q-4.078125 -3.390625 -11.453125 -3.390625q-4.687500 0.000000 -9.140625 1.125000q-4.437500 1.125000 -8.531250 3.375000l0.000000 -8.312500q4.921875 -1.906250 9.562500 -2.843750q4.640625 -0.953125 9.031250 -0.953125q11.875000 0.000000 17.734375 6.156250q5.859375 6.140625 5.859375 18.640625"/>
</defs>
<g style="fill: #000000; opacity: 1.000000" transform="translate(384.877500,87.547500)scale(0.144000)">
<use xlink:href="#c_ff9441f72805bc441fcb0bfe0d774f13"/>
<use xlink:href="#c_0bce5afba2dc6b9024b26277c38ad8e8" x="77.001953"/>
<use xlink:href="#c_fe791a90f5471e2ab20a5ed41a7fa451" x="138.525391"/>
<use xlink:href="#c_8e0810ad13fe20a2a87a2619799b154d" x="201.904297"/>
<use xlink:href="#c_0bce5afba2dc6b9024b26277c38ad8e8" x="254.003906"/>
<use xlink:href="#c_d41d8cd98f00b204e9800998ecf8427e" x="315.527344"/>
<use xlink:href="#c_5d9b0d099c491f27a9f40b391fa98eef" x="347.314453"/>
<use xlink:href="#c_01d93a582460e35a7945ca50d148ffeb" x="395.708984"/>
<use xlink:href="#c_6ec8d5749226675394676a5d2a3b468b" x="456.988281"/>
<use xlink:href="#c_d41d8cd98f00b204e9800998ecf8427e" x="498.101562"/>
<use xlink:href="#c_518d586bee075aa0153eaebfcb5ab11f" x="529.888672"/>
<use xlink:href="#c_680e57528fc97ec49605e10827a40086" x="590.191406"/>
<use xlink:href="#c_9f267d35ece7e6f3f1d851c2e17a8dec" x="668.902344"/>
</g>
</g>
</g>
</g>
</g>
</svg>
