<?xml version="1.0" standalone="no"?>
<!DOCTYPE svg PUBLIC "-//W3C//DTD SVG 1.1//EN"
  "http://www.w3.org/Graphics/SVG/1.1/DTD/svg11.dtd">
<!-- Created with matplotlib (http://matplotlib.sourceforge.net/) -->
<svg width="576pt" height="432pt" viewBox="0 0 576 432"
   xmlns="http://www.w3.org/2000/svg"
   xmlns:xlink="http://www.w3.org/1999/xlink"
   version="1.1"
   id="svg1">
<g id="figure1">
<g id="patch1">
<path style="fill: #ffffff; stroke: #ffffff; stroke-width: 1.000000; stroke-linejoin: round; stroke-linecap: square;  opacity: 1.000000"  d="M0.000000 432.000000L576.000000 432.000000L576.000000 0.000000
L0.000000 0.000000L0.000000 432.000000"/>
</g>
<g id="axes1">
<g id="patch2">
<path style="fill: #ffffff; opacity: 1.000000"  d="M72.000000 388.800000L518.400000 388.800000L518.400000 43.200000
L72.000000 43.200000L72.000000 388.800000"/>
</g>
<g id="line2d1">
<defs>
  <clipPath id="p50431ccdcb28178602d99d9270004dde">
<rect x="72.000000" y="43.200000" width="446.400000" height="345.600000"/>
  </clipPath>
</defs><path style="fill: none; stroke: #0000ff; stroke-width: 1.000000; stroke-linejoin: round; stroke-linecap: square;  opacity: 1.000000" clip-path="url(#p50431ccdcb28178602d99d9270004dde)" d="M72.000000 321.005593L73.488000 320.029524L74.976000 319.404941
L76.464000 319.159549L79.440000 319.992549L80.928000 319.748172
L82.416000 317.618257L83.904000 313.040231L89.112000 292.749893
L90.600000 291.726986L92.088000 293.698200L93.576000 297.724520
L100.272000 318.860819L101.016000 319.885581L102.504000 320.538910
L105.480000 318.964407L106.968000 319.134845L108.456000 320.994808
L110.688000 326.337331L112.920000 331.488510L114.408000 332.745312
L115.896000 331.587023L117.384000 328.365277L121.848000 316.550172
L123.336000 315.302372L124.824000 316.353217L126.312000 319.450865
L130.776000 331.484356L131.520000 332.662381L134.496000 335.272101
L135.984000 336.342908L137.472000 336.746260L138.960000 334.983332
L140.448000 329.862486L141.936000 321.319559L144.168000 303.721769
L147.144000 273.497177L150.864000 232.165494L152.352000 221.560565
L153.096000 218.820364L154.584000 219.180927L155.328000 222.235025
L156.816000 233.200946L162.768000 290.089931L164.256000 296.306004
L165.000000 297.941209L166.488000 298.970262L167.976000 298.023928
L171.696000 292.934547L173.184000 290.498701L174.672000 286.834113
L176.160000 280.607098L177.648000 270.702626L179.880000 248.663956
L186.576000 171.792288L188.064000 162.618658L189.552000 158.116937
L191.040000 157.357892L193.272000 159.749734L196.992000 165.402960
L199.224000 170.469067L202.200000 177.955133L202.944000 179.234711
L204.432000 180.425638L205.920000 179.527295L207.408000 176.618774
L209.640000 169.849741L212.616000 161.271002L218.568000 148.076019
L226.752000 123.999078L228.984000 119.789374L230.472000 118.002795
L233.448000 115.588037L235.680000 112.729797L238.656000 106.775006
L241.632000 101.109576L243.864000 98.293524L245.352000 97.587543
L246.840000 98.518616L248.328000 101.592059L250.560000 109.457556
L252.792000 117.478436L254.280000 120.923346L255.024000 121.947363
L256.512000 122.935052L259.488000 123.279382L260.976000 123.190009
L262.464000 122.651678L266.928000 119.676801L269.904000 118.427673
L271.392000 116.386871L272.880000 112.622443L276.600000 101.145886
L277.344000 99.946783L278.832000 99.510553L280.320000 101.384198
L283.296000 108.154669L285.528000 112.544513L286.272000 113.600079
L287.760000 115.054633L289.248000 115.740216L292.224000 115.853229
L296.688000 115.851947L298.176000 115.049652L299.664000 112.907025
L301.152000 109.230011L304.128000 100.827777L304.872000 99.586578
L306.360000 99.043927L307.848000 100.879633L312.312000 109.341925
L316.032000 113.962115L318.264000 118.768616L321.984000 128.224091
L322.728000 129.404315L324.216000 130.542957L327.192000 130.401361
L328.680000 131.352887L330.168000 133.996820L331.656000 138.310272
L336.864000 156.103088L337.608000 157.451331L339.096000 158.492477
L340.584000 157.180042L342.072000 153.615161L346.536000 139.478979
L348.024000 138.816559L348.768000 139.835687L350.256000 144.389758
L352.488000 155.290668L355.464000 169.737524L356.952000 174.728806
L358.440000 178.089862L359.184000 179.297150L360.672000 181.034546
L362.160000 181.907721L363.648000 181.635663L365.880000 179.086679
L368.112000 176.381332L369.600000 176.049930L371.088000 177.105176
L376.296000 183.463449L378.528000 186.052322L380.016000 188.881100
L385.224000 201.576700L386.712000 202.588458L388.200000 202.602557
L389.688000 202.992206L391.920000 205.954184L393.408000 208.552286
L394.896000 210.008331L396.384000 209.471942L399.360000 204.695425
L400.848000 203.558295L402.336000 205.206802L403.824000 209.839819
L409.032000 231.285150L411.264000 236.045187L414.240000 241.754622
L416.472000 248.147987L420.192000 259.547301L420.936000 260.606754
L422.424000 260.201353L423.168000 258.659239L424.656000 253.474425
L427.632000 242.176497L428.376000 240.618407L429.864000 239.677281
L431.352000 241.164656L433.584000 245.694571L436.560000 251.519911
L438.048000 253.245744L442.512000 255.614877L444.744000 259.110068
L449.952000 271.553673L451.440000 272.677464L452.928000 272.346190
L455.904000 269.737962L458.880000 266.709114L461.112000 263.147813
L464.088000 257.860794L465.576000 256.855692L467.064000 257.822585
L468.552000 260.853516L470.784000 268.120976L473.760000 278.432103
L475.248000 282.025978L475.992000 283.176567L477.480000 284.083660
L478.968000 283.112718L480.456000 280.716067L480.456000 280.716067"/>
</g>
<g id="line2d2">
<path style="fill: none; stroke: #008000; stroke-width: 1.000000; stroke-linejoin: round; stroke-linecap: square;  opacity: 1.000000" clip-path="url(#p50431ccdcb28178602d99d9270004dde)" d="M72.000000 320.450161L73.488000 320.516751L74.976000 319.705037
L77.952000 317.301241L79.440000 316.915170L80.928000 317.303202
L83.904000 318.594594L89.856000 319.273660L91.344000 318.599805
L92.832000 316.267128L94.320000 312.123393L98.040000 299.840876
L98.784000 298.401742L100.272000 297.363271L101.760000 298.443422
L105.480000 303.160517L108.456000 304.446782L111.432000 305.878645
L112.920000 307.143114L115.896000 311.163282L117.384000 313.390382
L118.872000 315.037180L120.360000 315.687661L123.336000 315.050016
L126.312000 314.166045L128.544000 311.533966L131.520000 305.996746
L133.008000 305.407200L134.496000 307.306813L136.728000 311.512702
L138.216000 311.211017L138.960000 309.278780L140.448000 301.568085
L142.680000 282.783220L148.632000 226.611374L150.120000 216.677563
L151.608000 211.542645L153.096000 213.207513L153.840000 216.979962
L155.328000 230.315067L157.560000 260.660793L160.536000 300.921540
L162.024000 313.887560L163.512000 320.834181L164.256000 322.281942
L165.744000 321.914756L167.232000 318.226155L168.720000 312.146798
L170.952000 299.546979L173.928000 277.441869L178.392000 238.196082
L181.368000 206.639896L185.088000 166.196677L187.320000 149.408881
L188.808000 142.398834L190.296000 138.123248L191.784000 135.695087
L196.248000 130.781488L206.664000 113.722211L209.640000 107.811877
L211.128000 106.307666L212.616000 105.983881L217.080000 106.745563
L218.568000 106.624750L220.056000 107.007623L222.288000 109.655145
L225.264000 114.953705L226.752000 116.137115L228.240000 115.483942
L230.472000 111.354437L232.704000 104.369147L238.656000 83.125140
L240.144000 82.022205L241.632000 84.024023L243.120000 88.776141
L246.096000 102.416583L249.072000 115.144794L251.304000 121.568866
L252.048000 122.945691L253.536000 124.541125L255.024000 124.878168
L258.000000 124.576923L259.488000 125.289313L263.952000 129.458661
L265.440000 129.937390L269.904000 130.337787L274.368000 132.203503
L275.856000 132.079559L277.344000 131.305975L278.832000 129.923785
L281.064000 126.460583L283.296000 120.853949L286.272000 112.761639
L287.760000 110.333185L289.248000 109.298730L290.736000 109.160321
L292.224000 109.387646L293.712000 110.052502L295.200000 111.900476
L296.688000 115.640021L301.896000 133.255463L302.640000 134.480182
L305.616000 136.961609L307.104000 138.329919L309.336000 141.725134
L313.056000 148.622955L314.544000 149.979089L316.032000 149.736072
L318.264000 146.753009L321.240000 141.437439L322.728000 139.705243
L324.216000 139.191101L325.704000 140.122778L327.936000 144.013330
L330.168000 150.328876L336.864000 172.520892L337.608000 173.836441
L339.096000 175.217422L340.584000 175.077567L342.072000 173.769598
L346.536000 168.134619L348.024000 167.986002L349.512000 169.584842
L351.000000 172.679947L355.464000 183.546515L356.208000 184.744281
L357.696000 186.217703L360.672000 187.138669L362.160000 188.527716
L363.648000 191.435797L368.112000 202.116302L369.600000 203.793430
L372.576000 205.948068L374.808000 209.029926L377.040000 213.936639
L380.016000 220.666360L380.760000 221.849414L382.248000 223.419864
L386.712000 225.676099L389.688000 226.492474L392.664000 226.943463
L394.152000 227.844223L396.384000 230.525629L398.616000 234.743793
L403.080000 244.065276L404.568000 245.729329L406.056000 246.316306
L409.032000 246.296214L410.520000 246.875761L412.008000 248.287990
L414.984000 252.988087L422.424000 266.222438L423.912000 267.949338
L425.400000 268.593507L426.888000 268.118504L429.864000 265.420418
L434.328000 260.291711L435.816000 258.528955L437.304000 257.303966
L438.792000 257.019443L440.280000 257.827345L443.256000 261.639290
L446.232000 265.618245L449.208000 267.975270L452.184000 270.218156
L456.648000 273.936548L464.088000 278.907637L467.064000 283.055830
L469.296000 286.446236L472.272000 289.398727L473.760000 290.800713
L475.992000 294.159679L480.456000 304.048362L480.456000 304.048362"/>
</g>
<g id="line2d3">
<path style="fill: none; stroke: #ff0000; stroke-width: 1.000000; stroke-linejoin: round; stroke-linecap: square;  opacity: 1.000000" clip-path="url(#p50431ccdcb28178602d99d9270004dde)" d="M72.000000 302.385556L74.232000 308.867684L74.976000 310.138777
L76.464000 311.424037L79.440000 311.669203L82.416000 311.924104
L85.392000 313.122133L89.856000 315.697059L91.344000 315.365375
L93.576000 312.634840L96.552000 307.052541L98.040000 305.627958
L99.528000 306.049271L101.760000 309.316068L104.736000 315.565757
L107.712000 322.228851L108.456000 323.438303L109.944000 324.964982
L114.408000 326.956000L117.384000 328.921769L118.872000 328.551121
L119.616000 327.539829L121.104000 323.476905L124.080000 312.192512
L124.824000 310.672667L126.312000 310.762592L127.800000 314.233909
L130.032000 320.349588L130.776000 321.509217L132.264000 321.880024
L133.752000 319.982200L136.728000 314.176797L138.216000 313.803064
L138.960000 315.014331L139.704000 317.331454L141.192000 325.229964
L145.656000 356.103502L146.400000 358.758604L147.144000 360.143413
L148.632000 359.088478L150.120000 353.580624L151.608000 344.869329
L153.840000 327.378884L156.072000 303.074804L159.048000 258.484021
L162.024000 216.235593L163.512000 203.072800L165.000000 195.780331
L166.488000 192.845590L167.976000 192.404398L169.464000 193.075543
L171.696000 195.512256L173.184000 198.507816L175.416000 204.770966
L178.392000 214.877051L182.112000 230.796378L186.576000 249.583278
L190.296000 262.434819L195.504000 279.741506L197.736000 290.137555
L200.712000 308.116997L205.176000 337.093176L206.664000 342.781831
L208.152000 345.730257L211.128000 349.121558L212.616000 352.412114
L215.592000 360.921323L216.336000 362.076352L217.824000 361.696779
L219.312000 357.791716L223.032000 344.379398L224.520000 341.331594
L226.752000 338.660488L228.984000 335.588125L231.216000 330.540448
L234.192000 323.657287L236.424000 320.804939L237.912000 318.803456
L239.400000 315.062261L240.888000 308.674666L246.096000 279.523002
L246.840000 277.552881L248.328000 276.485424L249.816000 278.482896
L252.792000 284.689364L254.280000 285.221663L255.768000 282.654785
L257.256000 277.348723L260.976000 262.219638L261.720000 260.806924
L263.208000 261.027296L263.952000 262.739195L265.440000 269.039035
L267.672000 283.094435L270.648000 301.254271L272.136000 307.051028
L273.624000 310.261506L275.112000 311.589599L278.088000 312.271027
L279.576000 312.416381L281.064000 312.175196L284.040000 311.129738
L285.528000 311.791906L287.760000 315.432879L291.480000 323.920924
L292.968000 325.375919L294.456000 324.952341L295.944000 323.752221
L297.432000 323.780921L298.920000 326.523029L300.408000 331.822238
L303.384000 343.654704L304.872000 347.668378L307.104000 351.550456
L309.336000 354.329091L310.824000 355.045908L312.312000 353.909349
L313.800000 350.854536L316.776000 343.868781L318.264000 342.953540
L319.752000 344.970680L321.240000 349.736906L324.216000 361.117566
L324.960000 362.652910L326.448000 362.763670L327.936000 359.391994
L330.912000 350.872444L331.656000 349.840647L333.144000 349.454022
L336.120000 351.468535L337.608000 351.509221L339.096000 350.192736
L340.584000 347.673392L342.816000 342.094249L345.048000 333.884917
L349.512000 313.683320L351.000000 310.293515L352.488000 309.110577
L353.976000 308.726833L355.464000 307.635136L356.952000 305.308332
L359.184000 301.191361L360.672000 299.518279L363.648000 298.217920
L365.880000 295.859737L367.368000 293.096482L368.856000 289.345594
L371.088000 281.303474L375.552000 262.928709L376.296000 261.421056
L377.784000 260.363704L380.760000 261.946207L382.248000 261.145834
L383.736000 257.652626L385.968000 248.582492L387.456000 242.902684
L388.200000 241.030101L389.688000 239.967101L391.176000 242.026282
L393.408000 246.504378L394.896000 247.352934L396.384000 245.775316
L398.616000 240.752412L400.848000 234.099023L403.080000 224.338257
L406.800000 205.281729L408.288000 201.181842L409.032000 200.138232
L410.520000 199.058496L412.008000 197.466998L413.496000 193.744199
L414.984000 187.660794L418.704000 169.937558L420.192000 165.603616
L420.936000 164.336380L422.424000 163.139374L423.912000 162.551413
L425.400000 161.201028L426.888000 158.574701L434.328000 141.816412
L440.280000 124.287799L441.768000 123.218793L443.256000 124.094916
L444.744000 125.733289L446.232000 126.782263L447.720000 126.515570
L449.208000 125.083997L452.184000 120.522894L453.672000 116.973761
L455.160000 111.704388L458.880000 97.071002L459.624000 96.045081
L461.112000 97.358661L462.600000 102.419806L464.832000 111.763275
L466.320000 115.100134L467.808000 114.142181L469.296000 108.926697
L471.528000 96.152362L474.504000 79.565369L476.736000 71.383502
L480.456000 61.717236L480.456000 61.717236"/>
</g>
<g id="matplotlib.axis1">
<g id="xtick1">
<g id="line2d4">
<defs><path id="m30e32995789d870ad79a2e54c91cf9c6" d="M0.000000 0.000000L0.000000 -4.000000"/></defs>
<g ><use style="fill: none; stroke: #000000; stroke-width: 0.500000; stroke-linejoin: round; stroke-linecap: butt;  opacity: 1.000000" xlink:href="#m30e32995789d870ad79a2e54c91cf9c6" x="72.000000" y="388.800000"/>
</g></g>
<g id="line2d5">
<defs><path id="m9281cae24120827b11d5ea8a7ad3e96b" d="M0.000000 0.000000L0.000000 4.000000"/></defs>
<g ><use style="fill: none; stroke: #000000; stroke-width: 0.500000; stroke-linejoin: round; stroke-linecap: butt;  opacity: 1.000000" xlink:href="#m9281cae24120827b11d5ea8a7ad3e96b" x="72.000000" y="43.200000"/>
</g></g>
<g id="text1">
<defs>
<path id="c_7a2040fe3b94fcd41d0a72c84e93b115" d="M31.781250 -66.406250q-7.609375 0.000000 -11.453125 7.500000q-3.828125 7.484375 -3.828125 22.531250q0.000000 14.984375 3.828125 22.484375q3.843750 7.500000 11.453125 7.500000q7.671875 0.000000 11.500000 -7.500000q3.843750 -7.500000 3.843750 -22.484375q0.000000 -15.046875 -3.843750 -22.531250q-3.828125 -7.500000 -11.500000 -7.500000M31.781250 -74.218750q12.265625 0.000000 18.734375 9.703125q6.468750 9.687500 6.468750 28.140625q0.000000 18.406250 -6.468750 28.109375q-6.468750 9.687500 -18.734375 9.687500q-12.250000 0.000000 -18.718750 -9.687500q-6.468750 -9.703125 -6.468750 -28.109375q0.000000 -18.453125 6.468750 -28.140625q6.468750 -9.703125 18.718750 -9.703125"/>
</defs>
<g style="fill: #000000; opacity: 1.000000" transform="translate(68.976562,401.706250)scale(0.120000)">
<use xlink:href="#c_7a2040fe3b94fcd41d0a72c84e93b115"/>
</g>
</g>
</g>
<g id="xtick2">
<g id="line2d6">
<g ><use style="fill: none; stroke: #000000; stroke-width: 0.500000; stroke-linejoin: round; stroke-linecap: butt;  opacity: 1.000000" xlink:href="#m30e32995789d870ad79a2e54c91cf9c6" x="146.400000" y="388.800000"/>
</g></g>
<g id="line2d7">
<g ><use style="fill: none; stroke: #000000; stroke-width: 0.500000; stroke-linejoin: round; stroke-linecap: butt;  opacity: 1.000000" xlink:href="#m9281cae24120827b11d5ea8a7ad3e96b" x="146.400000" y="43.200000"/>
</g></g>
<g id="text2">
<defs>
<path id="c_42baa63129a918535c52adb20d687ea7" d="M12.406250 -8.296875l16.109375 0.000000l0.000000 -55.625000l-17.531250 3.515625l0.000000 -8.984375l17.437500 -3.515625l9.859375 0.000000l0.000000 64.609375l16.109375 0.000000l0.000000 8.296875l-41.984375 0.000000z"/>
</defs>
<g style="fill: #000000; opacity: 1.000000" transform="translate(135.993750,401.706250)scale(0.120000)">
<use xlink:href="#c_42baa63129a918535c52adb20d687ea7"/>
<use xlink:href="#c_7a2040fe3b94fcd41d0a72c84e93b115" x="63.623047"/>
<use xlink:href="#c_7a2040fe3b94fcd41d0a72c84e93b115" x="127.246094"/>
</g>
</g>
</g>
<g id="xtick3">
<g id="line2d8">
<g ><use style="fill: none; stroke: #000000; stroke-width: 0.500000; stroke-linejoin: round; stroke-linecap: butt;  opacity: 1.000000" xlink:href="#m30e32995789d870ad79a2e54c91cf9c6" x="220.800000" y="388.800000"/>
</g></g>
<g id="line2d9">
<g ><use style="fill: none; stroke: #000000; stroke-width: 0.500000; stroke-linejoin: round; stroke-linecap: butt;  opacity: 1.000000" xlink:href="#m9281cae24120827b11d5ea8a7ad3e96b" x="220.800000" y="43.200000"/>
</g></g>
<g id="text3">
<defs>
<path id="c_ed3f3ed3ebfbd18bcb9c012009a68ad1" d="M19.187500 -8.296875l34.421875 0.000000l0.000000 8.296875l-46.281250 0.000000l0.000000 -8.296875q5.609375 -5.812500 15.296875 -15.593750q9.703125 -9.796875 12.187500 -12.640625q4.734375 -5.312500 6.609375 -9.000000q1.890625 -3.687500 1.890625 -7.250000q0.000000 -5.812500 -4.078125 -9.468750q-4.078125 -3.671875 -10.625000 -3.671875q-4.640625 0.000000 -9.796875 1.609375q-5.140625 1.609375 -11.000000 4.890625l0.000000 -9.968750q5.953125 -2.390625 11.125000 -3.609375q5.187500 -1.218750 9.484375 -1.218750q11.328125 0.000000 18.062500 5.671875q6.734375 5.656250 6.734375 15.125000q0.000000 4.500000 -1.687500 8.531250q-1.671875 4.015625 -6.125000 9.484375q-1.218750 1.421875 -7.765625 8.187500q-6.531250 6.765625 -18.453125 18.921875"/>
</defs>
<g style="fill: #000000; opacity: 1.000000" transform="translate(210.175000,401.706250)scale(0.120000)">
<use xlink:href="#c_ed3f3ed3ebfbd18bcb9c012009a68ad1"/>
<use xlink:href="#c_7a2040fe3b94fcd41d0a72c84e93b115" x="63.623047"/>
<use xlink:href="#c_7a2040fe3b94fcd41d0a72c84e93b115" x="127.246094"/>
</g>
</g>
</g>
<g id="xtick4">
<g id="line2d10">
<g ><use style="fill: none; stroke: #000000; stroke-width: 0.500000; stroke-linejoin: round; stroke-linecap: butt;  opacity: 1.000000" xlink:href="#m30e32995789d870ad79a2e54c91cf9c6" x="295.200000" y="388.800000"/>
</g></g>
<g id="line2d11">
<g ><use style="fill: none; stroke: #000000; stroke-width: 0.500000; stroke-linejoin: round; stroke-linecap: butt;  opacity: 1.000000" xlink:href="#m9281cae24120827b11d5ea8a7ad3e96b" x="295.200000" y="43.200000"/>
</g></g>
<g id="text4">
<defs>
<path id="c_3dcfa38a02242cb63ec6726c6e70be7a" d="M40.578125 -39.312500q7.078125 1.515625 11.046875 6.312500q3.984375 4.781250 3.984375 11.812500q0.000000 10.781250 -7.421875 16.703125q-7.421875 5.906250 -21.093750 5.906250q-4.578125 0.000000 -9.437500 -0.906250q-4.859375 -0.906250 -10.031250 -2.718750l0.000000 -9.515625q4.093750 2.390625 8.968750 3.609375q4.890625 1.218750 10.218750 1.218750q9.265625 0.000000 14.125000 -3.656250q4.859375 -3.656250 4.859375 -10.640625q0.000000 -6.453125 -4.515625 -10.078125q-4.515625 -3.640625 -12.562500 -3.640625l-8.500000 0.000000l0.000000 -8.109375l8.890625 0.000000q7.265625 0.000000 11.125000 -2.906250q3.859375 -2.906250 3.859375 -8.375000q0.000000 -5.609375 -3.984375 -8.609375q-3.968750 -3.015625 -11.390625 -3.015625q-4.062500 0.000000 -8.703125 0.890625q-4.640625 0.875000 -10.203125 2.718750l0.000000 -8.781250q5.625000 -1.562500 10.531250 -2.343750q4.906250 -0.781250 9.250000 -0.781250q11.234375 0.000000 17.765625 5.109375q6.546875 5.093750 6.546875 13.781250q0.000000 6.062500 -3.468750 10.234375q-3.468750 4.171875 -9.859375 5.781250"/>
</defs>
<g style="fill: #000000; opacity: 1.000000" transform="translate(284.598437,401.706250)scale(0.120000)">
<use xlink:href="#c_3dcfa38a02242cb63ec6726c6e70be7a"/>
<use xlink:href="#c_7a2040fe3b94fcd41d0a72c84e93b115" x="63.623047"/>
<use xlink:href="#c_7a2040fe3b94fcd41d0a72c84e93b115" x="127.246094"/>
</g>
</g>
</g>
<g id="xtick5">
<g id="line2d12">
<g ><use style="fill: none; stroke: #000000; stroke-width: 0.500000; stroke-linejoin: round; stroke-linecap: butt;  opacity: 1.000000" xlink:href="#m30e32995789d870ad79a2e54c91cf9c6" x="369.600000" y="388.800000"/>
</g></g>
<g id="line2d13">
<g ><use style="fill: none; stroke: #000000; stroke-width: 0.500000; stroke-linejoin: round; stroke-linecap: butt;  opacity: 1.000000" xlink:href="#m9281cae24120827b11d5ea8a7ad3e96b" x="369.600000" y="43.200000"/>
</g></g>
<g id="text5">
<defs>
<path id="c_a0416418d96557a09b8c1332d34883ba" d="M37.796875 -64.312500l-24.906250 38.921875l24.906250 0.000000zM35.203125 -72.906250l12.406250 0.000000l0.000000 47.515625l10.406250 0.000000l0.000000 8.203125l-10.406250 0.000000l0.000000 17.187500l-9.812500 0.000000l0.000000 -17.187500l-32.906250 0.000000l0.000000 -9.515625z"/>
</defs>
<g style="fill: #000000; opacity: 1.000000" transform="translate(358.834375,401.706250)scale(0.120000)">
<use xlink:href="#c_a0416418d96557a09b8c1332d34883ba"/>
<use xlink:href="#c_7a2040fe3b94fcd41d0a72c84e93b115" x="63.623047"/>
<use xlink:href="#c_7a2040fe3b94fcd41d0a72c84e93b115" x="127.246094"/>
</g>
</g>
</g>
<g id="xtick6">
<g id="line2d14">
<g ><use style="fill: none; stroke: #000000; stroke-width: 0.500000; stroke-linejoin: round; stroke-linecap: butt;  opacity: 1.000000" xlink:href="#m30e32995789d870ad79a2e54c91cf9c6" x="444.000000" y="388.800000"/>
</g></g>
<g id="line2d15">
<g ><use style="fill: none; stroke: #000000; stroke-width: 0.500000; stroke-linejoin: round; stroke-linecap: butt;  opacity: 1.000000" xlink:href="#m9281cae24120827b11d5ea8a7ad3e96b" x="444.000000" y="43.200000"/>
</g></g>
<g id="text6">
<defs>
<path id="c_1260a2df50f305f3db244e29828f968e" d="M10.796875 -72.906250l38.718750 0.000000l0.000000 8.312500l-29.687500 0.000000l0.000000 17.859375q2.140625 -0.734375 4.281250 -1.093750q2.156250 -0.359375 4.312500 -0.359375q12.203125 0.000000 19.328125 6.687500q7.140625 6.687500 7.140625 18.109375q0.000000 11.765625 -7.328125 18.296875q-7.328125 6.515625 -20.656250 6.515625q-4.593750 0.000000 -9.359375 -0.781250q-4.750000 -0.781250 -9.828125 -2.343750l0.000000 -9.921875q4.390625 2.390625 9.078125 3.562500q4.687500 1.171875 9.906250 1.171875q8.453125 0.000000 13.375000 -4.437500q4.937500 -4.437500 4.937500 -12.062500q0.000000 -7.609375 -4.937500 -12.046875q-4.921875 -4.453125 -13.375000 -4.453125q-3.953125 0.000000 -7.890625 0.875000q-3.921875 0.875000 -8.015625 2.734375z"/>
</defs>
<g style="fill: #000000; opacity: 1.000000" transform="translate(433.398438,401.706250)scale(0.120000)">
<use xlink:href="#c_1260a2df50f305f3db244e29828f968e"/>
<use xlink:href="#c_7a2040fe3b94fcd41d0a72c84e93b115" x="63.623047"/>
<use xlink:href="#c_7a2040fe3b94fcd41d0a72c84e93b115" x="127.246094"/>
</g>
</g>
</g>
<g id="xtick7">
<g id="line2d16">
<g ><use style="fill: none; stroke: #000000; stroke-width: 0.500000; stroke-linejoin: round; stroke-linecap: butt;  opacity: 1.000000" xlink:href="#m30e32995789d870ad79a2e54c91cf9c6" x="518.400000" y="388.800000"/>
</g></g>
<g id="line2d17">
<g ><use style="fill: none; stroke: #000000; stroke-width: 0.500000; stroke-linejoin: round; stroke-linecap: butt;  opacity: 1.000000" xlink:href="#m9281cae24120827b11d5ea8a7ad3e96b" x="518.400000" y="43.200000"/>
</g></g>
<g id="text7">
<defs>
<path id="c_cc8d6d580d1b10c8632f7a42cd53db8a" d="M33.015625 -40.375000q-6.640625 0.000000 -10.531250 4.546875q-3.875000 4.531250 -3.875000 12.437500q0.000000 7.859375 3.875000 12.437500q3.890625 4.562500 10.531250 4.562500q6.640625 0.000000 10.515625 -4.562500q3.875000 -4.578125 3.875000 -12.437500q0.000000 -7.906250 -3.875000 -12.437500q-3.875000 -4.546875 -10.515625 -4.546875M52.593750 -71.296875l0.000000 8.984375q-3.718750 -1.750000 -7.500000 -2.671875q-3.781250 -0.937500 -7.500000 -0.937500q-9.765625 0.000000 -14.921875 6.593750q-5.140625 6.593750 -5.875000 19.921875q2.875000 -4.250000 7.218750 -6.515625q4.359375 -2.265625 9.578125 -2.265625q10.984375 0.000000 17.359375 6.671875q6.375000 6.656250 6.375000 18.125000q0.000000 11.234375 -6.640625 18.031250q-6.640625 6.781250 -17.671875 6.781250q-12.656250 0.000000 -19.343750 -9.687500q-6.687500 -9.703125 -6.687500 -28.109375q0.000000 -17.281250 8.203125 -27.562500q8.203125 -10.281250 22.015625 -10.281250q3.718750 0.000000 7.500000 0.734375q3.781250 0.734375 7.890625 2.187500"/>
</defs>
<g style="fill: #000000; opacity: 1.000000" transform="translate(507.759375,401.706250)scale(0.120000)">
<use xlink:href="#c_cc8d6d580d1b10c8632f7a42cd53db8a"/>
<use xlink:href="#c_7a2040fe3b94fcd41d0a72c84e93b115" x="63.623047"/>
<use xlink:href="#c_7a2040fe3b94fcd41d0a72c84e93b115" x="127.246094"/>
</g>
</g>
</g>
</g>
<g id="matplotlib.axis2">
<g id="ytick1">
<g id="line2d18">
<defs><path id="m3400efa6b1638b3fea9e19e898273957" d="M0.000000 0.000000L4.000000 0.000000"/></defs>
<g ><use style="fill: none; stroke: #000000; stroke-width: 0.500000; stroke-linejoin: round; stroke-linecap: butt;  opacity: 1.000000" xlink:href="#m3400efa6b1638b3fea9e19e898273957" x="72.000000" y="388.800000"/>
</g></g>
<g id="line2d19">
<defs><path id="m20b58b2501143cb5e0a5e8f1ef6f1643" d="M0.000000 0.000000L-4.000000 0.000000"/></defs>
<g ><use style="fill: none; stroke: #000000; stroke-width: 0.500000; stroke-linejoin: round; stroke-linecap: butt;  opacity: 1.000000" xlink:href="#m20b58b2501143cb5e0a5e8f1ef6f1643" x="518.400000" y="388.800000"/>
</g></g>
<g id="text8">
<defs>
<path id="c_6a8d56c819c37117ab4cf023bec22a5a" d="M10.593750 -35.500000l62.593750 0.000000l0.000000 8.296875l-62.593750 0.000000z"/>
</defs>
<g style="fill: #000000; opacity: 1.000000" transform="translate(52.765625,393.253125)scale(0.120000)">
<use xlink:href="#c_6a8d56c819c37117ab4cf023bec22a5a"/>
<use xlink:href="#c_ed3f3ed3ebfbd18bcb9c012009a68ad1" x="83.789062"/>
</g>
</g>
</g>
<g id="ytick2">
<g id="line2d20">
<g ><use style="fill: none; stroke: #000000; stroke-width: 0.500000; stroke-linejoin: round; stroke-linecap: butt;  opacity: 1.000000" xlink:href="#m3400efa6b1638b3fea9e19e898273957" x="72.000000" y="350.400000"/>
</g></g>
<g id="line2d21">
<g ><use style="fill: none; stroke: #000000; stroke-width: 0.500000; stroke-linejoin: round; stroke-linecap: butt;  opacity: 1.000000" xlink:href="#m20b58b2501143cb5e0a5e8f1ef6f1643" x="518.400000" y="350.400000"/>
</g></g>
<g id="text9">
<g style="fill: #000000; opacity: 1.000000" transform="translate(52.671875,354.775000)scale(0.120000)">
<use xlink:href="#c_6a8d56c819c37117ab4cf023bec22a5a"/>
<use xlink:href="#c_42baa63129a918535c52adb20d687ea7" x="83.789062"/>
</g>
</g>
</g>
<g id="ytick3">
<g id="line2d22">
<g ><use style="fill: none; stroke: #000000; stroke-width: 0.500000; stroke-linejoin: round; stroke-linecap: butt;  opacity: 1.000000" xlink:href="#m3400efa6b1638b3fea9e19e898273957" x="72.000000" y="312.000000"/>
</g></g>
<g id="line2d23">
<g ><use style="fill: none; stroke: #000000; stroke-width: 0.500000; stroke-linejoin: round; stroke-linecap: butt;  opacity: 1.000000" xlink:href="#m20b58b2501143cb5e0a5e8f1ef6f1643" x="518.400000" y="312.000000"/>
</g></g>
<g id="text10">
<g style="fill: #000000; opacity: 1.000000" transform="translate(61.953125,316.367188)scale(0.120000)">
<use xlink:href="#c_7a2040fe3b94fcd41d0a72c84e93b115"/>
</g>
</g>
</g>
<g id="ytick4">
<g id="line2d24">
<g ><use style="fill: none; stroke: #000000; stroke-width: 0.500000; stroke-linejoin: round; stroke-linecap: butt;  opacity: 1.000000" xlink:href="#m3400efa6b1638b3fea9e19e898273957" x="72.000000" y="273.600000"/>
</g></g>
<g id="line2d25">
<g ><use style="fill: none; stroke: #000000; stroke-width: 0.500000; stroke-linejoin: round; stroke-linecap: butt;  opacity: 1.000000" xlink:href="#m20b58b2501143cb5e0a5e8f1ef6f1643" x="518.400000" y="273.600000"/>
</g></g>
<g id="text11">
<g style="fill: #000000; opacity: 1.000000" transform="translate(62.781250,277.975000)scale(0.120000)">
<use xlink:href="#c_42baa63129a918535c52adb20d687ea7"/>
</g>
</g>
</g>
<g id="ytick5">
<g id="line2d26">
<g ><use style="fill: none; stroke: #000000; stroke-width: 0.500000; stroke-linejoin: round; stroke-linecap: butt;  opacity: 1.000000" xlink:href="#m3400efa6b1638b3fea9e19e898273957" x="72.000000" y="235.200000"/>
</g></g>
<g id="line2d27">
<g ><use style="fill: none; stroke: #000000; stroke-width: 0.500000; stroke-linejoin: round; stroke-linecap: butt;  opacity: 1.000000" xlink:href="#m20b58b2501143cb5e0a5e8f1ef6f1643" x="518.400000" y="235.200000"/>
</g></g>
<g id="text12">
<g style="fill: #000000; opacity: 1.000000" transform="translate(62.437500,239.653125)scale(0.120000)">
<use xlink:href="#c_ed3f3ed3ebfbd18bcb9c012009a68ad1"/>
</g>
</g>
</g>
<g id="ytick6">
<g id="line2d28">
<g ><use style="fill: none; stroke: #000000; stroke-width: 0.500000; stroke-linejoin: round; stroke-linecap: butt;  opacity: 1.000000" xlink:href="#m3400efa6b1638b3fea9e19e898273957" x="72.000000" y="196.800000"/>
</g></g>
<g id="line2d29">
<g ><use style="fill: none; stroke: #000000; stroke-width: 0.500000; stroke-linejoin: round; stroke-linecap: butt;  opacity: 1.000000" xlink:href="#m20b58b2501143cb5e0a5e8f1ef6f1643" x="518.400000" y="196.800000"/>
</g></g>
<g id="text13">
<g style="fill: #000000; opacity: 1.000000" transform="translate(62.250000,201.167188)scale(0.120000)">
<use xlink:href="#c_3dcfa38a02242cb63ec6726c6e70be7a"/>
</g>
</g>
</g>
<g id="ytick7">
<g id="line2d30">
<g ><use style="fill: none; stroke: #000000; stroke-width: 0.500000; stroke-linejoin: round; stroke-linecap: butt;  opacity: 1.000000" xlink:href="#m3400efa6b1638b3fea9e19e898273957" x="72.000000" y="158.400000"/>
</g></g>
<g id="line2d31">
<g ><use style="fill: none; stroke: #000000; stroke-width: 0.500000; stroke-linejoin: round; stroke-linecap: butt;  opacity: 1.000000" xlink:href="#m20b58b2501143cb5e0a5e8f1ef6f1643" x="518.400000" y="158.400000"/>
</g></g>
<g id="text14">
<g style="fill: #000000; opacity: 1.000000" transform="translate(61.625000,162.775000)scale(0.120000)">
<use xlink:href="#c_a0416418d96557a09b8c1332d34883ba"/>
</g>
</g>
</g>
<g id="ytick8">
<g id="line2d32">
<g ><use style="fill: none; stroke: #000000; stroke-width: 0.500000; stroke-linejoin: round; stroke-linecap: butt;  opacity: 1.000000" xlink:href="#m3400efa6b1638b3fea9e19e898273957" x="72.000000" y="120.000000"/>
</g></g>
<g id="line2d33">
<g ><use style="fill: none; stroke: #000000; stroke-width: 0.500000; stroke-linejoin: round; stroke-linecap: butt;  opacity: 1.000000" xlink:href="#m20b58b2501143cb5e0a5e8f1ef6f1643" x="518.400000" y="120.000000"/>
</g></g>
<g id="text15">
<g style="fill: #000000; opacity: 1.000000" transform="translate(62.328125,124.289062)scale(0.120000)">
<use xlink:href="#c_1260a2df50f305f3db244e29828f968e"/>
</g>
</g>
</g>
<g id="ytick9">
<g id="line2d34">
<g ><use style="fill: none; stroke: #000000; stroke-width: 0.500000; stroke-linejoin: round; stroke-linecap: butt;  opacity: 1.000000" xlink:href="#m3400efa6b1638b3fea9e19e898273957" x="72.000000" y="81.600000"/>
</g></g>
<g id="line2d35">
<g ><use style="fill: none; stroke: #000000; stroke-width: 0.500000; stroke-linejoin: round; stroke-linecap: butt;  opacity: 1.000000" xlink:href="#m20b58b2501143cb5e0a5e8f1ef6f1643" x="518.400000" y="81.600000"/>
</g></g>
<g id="text16">
<g style="fill: #000000; opacity: 1.000000" transform="translate(61.968750,85.967188)scale(0.120000)">
<use xlink:href="#c_cc8d6d580d1b10c8632f7a42cd53db8a"/>
</g>
</g>
</g>
<g id="ytick10">
<g id="line2d36">
<g ><use style="fill: none; stroke: #000000; stroke-width: 0.500000; stroke-linejoin: round; stroke-linecap: butt;  opacity: 1.000000" xlink:href="#m3400efa6b1638b3fea9e19e898273957" x="72.000000" y="43.200000"/>
</g></g>
<g id="line2d37">
<g ><use style="fill: none; stroke: #000000; stroke-width: 0.500000; stroke-linejoin: round; stroke-linecap: butt;  opacity: 1.000000" xlink:href="#m20b58b2501143cb5e0a5e8f1ef6f1643" x="518.400000" y="43.200000"/>
</g></g>
<g id="text17">
<defs>
<path id="c_956f18cfdaf972f35a6c2b4aaac2532b" d="M8.203125 -72.906250l46.875000 0.000000l0.000000 4.203125l-26.468750 68.703125l-10.296875 0.000000l24.906250 -64.593750l-35.015625 0.000000z"/>
</defs>
<g style="fill: #000000; opacity: 1.000000" transform="translate(62.375000,47.575000)scale(0.120000)">
<use xlink:href="#c_956f18cfdaf972f35a6c2b4aaac2532b"/>
</g>
</g>
</g>
</g>
<g id="patch3">
<path style="fill: none; stroke: #000000; stroke-width: 1.000000; stroke-linejoin: round; stroke-linecap: square;  opacity: 1.000000"  d="M72.000000 43.200000L518.400000 43.200000"/>
</g>
<g id="patch4">
<path style="fill: none; stroke: #000000; stroke-width: 1.000000; stroke-linejoin: round; stroke-linecap: square;  opacity: 1.000000"  d="M518.400000 388.800000L518.400000 43.200000"/>
</g>
<g id="patch5">
<path style="fill: none; stroke: #000000; stroke-width: 1.000000; stroke-linejoin: round; stroke-linecap: square;  opacity: 1.000000"  d="M72.000000 388.800000L518.400000 388.800000"/>
</g>
<g id="patch6">
<path style="fill: none; stroke: #000000; stroke-width: 1.000000; stroke-linejoin: round; stroke-linecap: square;  opacity: 1.000000"  d="M72.000000 388.800000L72.000000 43.200000"/>
</g>
</g>
</g>
</svg>
