<?xml version="1.0" standalone="no"?>
<!DOCTYPE svg PUBLIC "-//W3C//DTD SVG 1.1//EN"
  "http://www.w3.org/Graphics/SVG/1.1/DTD/svg11.dtd">
<!-- Created with matplotlib (http://matplotlib.sourceforge.net/) -->
<svg width="576pt" height="432pt" viewBox="0 0 576 432"
   xmlns="http://www.w3.org/2000/svg"
   xmlns:xlink="http://www.w3.org/1999/xlink"
   version="1.1"
   id="svg1">
<g id="figure1">
<g id="patch1">
<path style="fill: #ffffff; stroke: #ffffff; stroke-width: 1.000000; stroke-linejoin: round; stroke-linecap: square;  opacity: 1.000000"  d="M0.000000 432.000000L576.000000 432.000000L576.000000 0.000000
L0.000000 0.000000L0.000000 432.000000"/>
</g>
<g id="axes1">
<g id="patch2">
<path style="fill: #ffffff; opacity: 1.000000"  d="M72.000000 388.800000L518.400000 388.800000L518.400000 43.200000
L72.000000 43.200000L72.000000 388.800000"/>
</g>
<g id="line2d1">
<defs>
  <clipPath id="p50431ccdcb28178602d99d9270004dde">
<rect x="72.000000" y="43.200000" width="446.400000" height="345.600000"/>
  </clipPath>
</defs><path style="fill: none; stroke: #0000ff; stroke-width: 1.000000; stroke-linejoin: round; stroke-linecap: square;  opacity: 1.000000" clip-path="url(#p50431ccdcb28178602d99d9270004dde)" d="M72.000000 251.067779L75.720000 243.810134L77.208000 243.053764
L78.696000 245.576675L80.184000 251.431849L83.160000 265.589199
L84.648000 269.702003L85.392000 270.828899L91.344000 276.422880
L92.832000 276.066696L94.320000 273.650245L96.552000 267.188079
L102.504000 247.780338L103.248000 246.487305L104.736000 246.084427
L105.480000 247.196070L106.968000 252.122271L109.200000 264.362573
L111.432000 276.345005L112.176000 278.825176L112.920000 280.134504
L114.408000 279.007053L115.896000 273.848236L119.616000 257.935541
L121.848000 251.369858L123.336000 248.374024L124.824000 247.793131
L125.568000 248.929958L126.312000 251.189230L127.800000 258.808911
L130.776000 277.256858L131.520000 280.069238L132.264000 281.571789
L133.752000 280.645290L135.240000 275.783667L144.168000 238.896668
L144.912000 237.476242L147.888000 234.195345L149.376000 230.684955
L150.864000 224.520152L156.072000 198.676109L156.816000 196.946051
L158.304000 195.891203L159.792000 198.123140L161.280000 203.728711
L162.768000 212.796680L165.000000 232.706554L170.208000 286.075696
L171.696000 293.963545L173.184000 298.300399L175.416000 303.250162
L177.648000 310.575904L179.136000 315.367465L179.880000 316.950439
L181.368000 317.503630L182.112000 316.346265L183.600000 311.516486
L189.552000 286.343294L194.760000 274.049061L196.248000 270.665071
L197.736000 270.497431L198.480000 272.214922L199.968000 279.294206
L205.176000 312.127273L206.664000 316.380794L209.640000 322.918111
L211.128000 328.617564L214.104000 341.753465L215.592000 345.152417
L217.080000 345.401597L221.544000 339.744909L223.032000 339.462213
L224.520000 340.428292L228.240000 344.870031L229.728000 344.732535
L231.960000 340.507121L233.448000 337.000249L234.936000 335.877239
L236.424000 338.529912L240.144000 351.259284L240.888000 352.302055
L242.376000 351.770962L243.864000 348.764454L246.840000 342.072596
L248.328000 338.809378L249.816000 333.898278L252.048000 322.719755
L254.280000 311.949098L255.768000 307.889072L259.488000 301.604059
L260.976000 296.409545L263.952000 285.543939L264.696000 284.134334
L266.184000 283.208174L267.672000 283.293847L269.160000 282.022904
L270.648000 277.883036L272.136000 270.965370L275.856000 251.099531
L277.344000 247.136103L278.832000 247.711789L280.320000 252.341050
L282.552000 261.090696L283.296000 262.840186L284.784000 263.168073
L286.272000 259.901011L288.504000 253.920926L289.992000 252.760556
L291.480000 254.430464L294.456000 260.070079L295.944000 261.375527
L298.920000 262.777551L301.152000 265.838346L303.384000 269.275928
L306.360000 272.864320L307.848000 276.656148L310.080000 286.336249
L312.312000 296.205683L313.800000 300.072290L315.288000 301.390307
L318.264000 301.546046L319.752000 302.878843L322.728000 306.655937
L324.216000 307.722428L328.680000 309.972873L331.656000 312.981719
L335.376000 318.198369L337.608000 321.650153L339.096000 323.210339
L340.584000 323.229697L342.816000 320.081393L344.304000 317.404506
L345.792000 316.135373L347.280000 317.211361L348.768000 320.296847
L351.000000 325.174797L352.488000 325.662523L353.232000 324.599982
L354.720000 320.088793L358.440000 305.816703L359.184000 304.351105
L360.672000 303.476852L362.160000 304.550780L365.880000 309.455107
L367.368000 313.052854L368.856000 318.925897L374.064000 345.503662
L375.552000 348.508105L377.040000 348.471109L378.528000 345.945637
L380.016000 341.475358L384.480000 324.508397L385.968000 323.761171
L386.712000 325.283351L388.200000 331.630324L391.176000 347.114816
L391.920000 349.206630L393.408000 349.676954L394.152000 348.109672
L395.640000 342.371477L398.616000 329.954921L400.104000 327.113682
L401.592000 326.315734L403.080000 326.058675L406.056000 324.630747
L407.544000 324.532401L409.032000 325.947763L410.520000 329.001083
L415.728000 342.089678L417.960000 346.707885L419.448000 351.228272
L424.656000 370.690037L426.144000 373.344162L427.632000 374.473801
L429.120000 373.792878L429.864000 372.526883L431.352000 368.024932
L433.584000 359.684682L434.328000 358.035929L435.816000 358.214794
L437.304000 362.454720L438.792000 367.573446L439.536000 369.233549
L441.024000 369.258690L441.768000 367.561704L444.000000 358.659524
L445.488000 353.408982L446.232000 351.950197L447.720000 351.855615
L449.208000 354.703591L452.184000 361.528140L453.672000 363.153389
L455.160000 363.676293L456.648000 363.307523L458.136000 361.830013
L459.624000 358.888414L463.344000 349.311923L464.832000 348.383912
L467.808000 351.357389L469.296000 350.829602L470.784000 347.785335
L472.272000 344.263292L473.016000 343.183205L474.504000 343.406858
L475.992000 346.319144L477.480000 349.638742L478.968000 350.514823
L479.712000 349.496360L480.456000 347.514793L480.456000 347.514793"/>
</g>
<g id="line2d2">
<path style="fill: none; stroke: #008000; stroke-width: 1.000000; stroke-linejoin: round; stroke-linecap: square;  opacity: 1.000000" clip-path="url(#p50431ccdcb28178602d99d9270004dde)" d="M72.000000 266.577952L76.464000 267.897309L80.928000 271.343232
L82.416000 269.994373L83.904000 265.672274L86.136000 255.129700
L89.112000 240.652876L90.600000 236.105928L91.344000 234.906110
L92.832000 234.992396L93.576000 236.329109L95.064000 241.395486
L97.296000 252.911296L99.528000 264.354810L101.016000 269.312786
L101.760000 270.608069L103.248000 270.789505L105.480000 266.984169
L106.968000 264.312490L108.456000 263.585924L109.944000 265.590998
L112.176000 272.194086L113.664000 276.440254L114.408000 277.818028
L115.896000 278.316868L116.640000 277.315356L118.128000 273.001277
L122.592000 255.165189L123.336000 254.008636L124.824000 254.706282
L126.312000 259.192027L130.776000 278.164067L131.520000 279.219454
L133.008000 278.248521L134.496000 274.219315L136.728000 268.036370
L138.216000 267.428700L138.960000 268.617350L140.448000 273.613642
L144.168000 289.394171L144.912000 290.694944L146.400000 289.682534
L147.144000 287.275869L148.632000 279.162614L153.096000 249.438245
L154.584000 245.510044L156.072000 245.719361L157.560000 248.744557
L160.536000 255.917103L162.024000 257.191716L163.512000 256.157541
L165.000000 253.330094L169.464000 243.413606L174.672000 234.322234
L176.160000 230.097837L177.648000 223.878863L179.880000 210.271322
L184.344000 180.482533L186.576000 171.393414L188.064000 168.012924
L189.552000 166.571154L191.040000 166.489457L194.016000 167.055362
L195.504000 167.100465L196.992000 167.516366L198.480000 168.311058
L199.968000 168.415487L201.456000 166.224168L202.944000 160.864295
L205.176000 148.458492L208.152000 132.280544L209.640000 126.856896
L211.128000 123.499405L211.872000 122.499080L213.360000 121.436029
L214.848000 120.787313L217.080000 118.517346L219.312000 114.093014
L223.776000 103.155307L227.496000 93.075708L228.984000 90.657343
L230.472000 89.979325L231.960000 90.929522L235.680000 96.282607
L237.168000 97.456514L238.656000 97.044701L240.888000 93.440348
L244.608000 85.659061L246.096000 85.000191L247.584000 87.192221
L249.072000 92.406353L253.536000 112.464449L254.280000 114.157954
L255.768000 115.553859L257.256000 115.207244L264.696000 110.780080
L267.672000 107.930199L269.904000 104.285553L271.392000 100.419526
L273.624000 92.398020L278.088000 75.464106L280.320000 70.308291
L281.808000 68.088544L283.296000 66.691290L284.784000 66.324477
L286.272000 67.262448L289.992000 72.781224L291.480000 73.887225
L292.968000 73.718557L295.944000 71.369694L298.176000 68.408638
L300.408000 63.645097L304.128000 55.285030L306.360000 51.988225
L310.824000 46.717115L312.312000 46.200071L313.800000 47.320924
L315.288000 50.482082L317.520000 58.460030L320.496000 69.367085
L321.984000 72.389465L323.472000 73.575103L326.448000 74.166593
L328.680000 76.367347L330.912000 80.784654L335.376000 90.883977
L336.864000 93.112313L338.352000 94.680059L339.840000 95.523026
L341.328000 95.258829L343.560000 92.263681L345.792000 88.366189
L347.280000 87.691426L348.768000 89.734955L350.256000 94.492100
L352.488000 105.155197L356.208000 123.815369L357.696000 128.865787
L359.184000 131.936329L360.672000 133.137725L362.160000 132.575125
L364.392000 128.917172L366.624000 124.851342L368.112000 124.555051
L369.600000 127.078524L373.320000 136.937030L374.808000 138.034132
L377.784000 136.611962L379.272000 137.145815L380.760000 139.807408
L382.992000 146.774607L385.224000 153.382359L386.712000 155.853005
L392.664000 160.258725L394.152000 160.490932L395.640000 158.730067
L397.872000 153.215123L400.104000 148.211187L401.592000 147.442480
L403.080000 149.721264L404.568000 155.078057L407.544000 170.974165
L409.776000 181.441341L411.264000 186.070394L413.496000 190.484586
L417.216000 197.152163L419.448000 201.369666L420.936000 202.907481
L422.424000 202.047973L423.912000 198.225441L427.632000 184.251728
L428.376000 182.820592L429.864000 182.470248L432.096000 186.823595
L435.072000 194.227954L435.816000 195.466043L437.304000 196.872969
L438.792000 197.003796L441.768000 196.139704L443.256000 197.057946
L444.744000 199.418299L449.208000 208.265180L450.696000 209.808629
L452.184000 210.488660L453.672000 210.307618L455.160000 209.349758
L459.624000 205.530991L464.088000 201.875674L465.576000 201.711595
L467.064000 203.341026L468.552000 207.173471L470.784000 216.243644
L473.760000 229.044999L475.248000 232.628199L476.736000 233.145907
L478.224000 230.965024L480.456000 225.479676L480.456000 225.479676"/>
</g>
<g id="line2d3">
<path style="fill: none; stroke: #ff0000; stroke-width: 1.000000; stroke-linejoin: round; stroke-linecap: square;  opacity: 1.000000" clip-path="url(#p50431ccdcb28178602d99d9270004dde)" d="M72.000000 251.067779L75.720000 243.810134L77.208000 243.053764
L78.696000 245.576675L80.184000 251.431849L83.160000 265.589199
L84.648000 269.702003L85.392000 270.828899L91.344000 276.422880
L92.832000 276.066696L94.320000 273.650245L96.552000 267.188079
L102.504000 247.780338L103.248000 246.487305L104.736000 246.084427
L105.480000 247.196070L106.968000 252.122271L109.200000 264.362573
L111.432000 276.345005L112.176000 278.825176L112.920000 280.134504
L114.408000 279.007053L115.896000 273.848236L119.616000 257.935541
L121.848000 251.369858L123.336000 248.374024L124.824000 247.793131
L125.568000 248.929958L126.312000 251.189230L127.800000 258.808911
L130.776000 277.256858L131.520000 280.069238L132.264000 281.571789
L133.752000 280.645290L135.240000 275.783667L144.168000 238.896668
L144.912000 237.476242L147.888000 234.195345L149.376000 230.684955
L150.864000 224.520152L156.072000 198.676109L156.816000 196.946051
L158.304000 195.891203L159.792000 198.123140L161.280000 203.728711
L162.768000 212.796680L165.000000 232.706554L170.208000 286.075696
L171.696000 293.963545L173.184000 298.300399L175.416000 303.250162
L177.648000 310.575904L179.136000 315.367465L179.880000 316.950439
L181.368000 317.503630L182.112000 316.346265L183.600000 311.516486
L189.552000 286.343294L194.760000 274.049061L196.248000 270.665071
L197.736000 270.497431L198.480000 272.214922L199.968000 279.294206
L205.176000 312.127273L206.664000 316.380794L209.640000 322.918111
L211.128000 328.617564L214.104000 341.753465L215.592000 345.152417
L217.080000 345.401597L221.544000 339.744909L223.032000 339.462213
L224.520000 340.428292L228.240000 344.870031L229.728000 344.732535
L231.960000 340.507121L233.448000 337.000249L234.936000 335.877239
L236.424000 338.529912L240.144000 351.259284L240.888000 352.302055
L242.376000 351.770962L243.864000 348.764454L246.840000 342.072596
L248.328000 338.809378L249.816000 333.898278L252.048000 322.719755
L254.280000 311.949098L255.768000 307.889072L259.488000 301.604059
L260.976000 296.409545L263.952000 285.543939L264.696000 284.134334
L266.184000 283.208174L267.672000 283.293847L269.160000 282.022904
L270.648000 277.883036L272.136000 270.965370L275.856000 251.099531
L277.344000 247.136103L278.832000 247.711789L280.320000 252.341050
L282.552000 261.090696L283.296000 262.840186L284.784000 263.168073
L286.272000 259.901011L288.504000 253.920926L289.992000 252.760556
L291.480000 254.430464L294.456000 260.070079L295.944000 261.375527
L298.920000 262.777551L301.152000 265.838346L303.384000 269.275928
L306.360000 272.864320L307.848000 276.656148L310.080000 286.336249
L312.312000 296.205683L313.800000 300.072290L315.288000 301.390307
L318.264000 301.546046L319.752000 302.878843L322.728000 306.655937
L324.216000 307.722428L328.680000 309.972873L331.656000 312.981719
L335.376000 318.198369L337.608000 321.650153L339.096000 323.210339
L340.584000 323.229697L342.816000 320.081393L344.304000 317.404506
L345.792000 316.135373L347.280000 317.211361L348.768000 320.296847
L351.000000 325.174797L352.488000 325.662523L353.232000 324.599982
L354.720000 320.088793L358.440000 305.816703L359.184000 304.351105
L360.672000 303.476852L362.160000 304.550780L365.880000 309.455107
L367.368000 313.052854L368.856000 318.925897L374.064000 345.503662
L375.552000 348.508105L377.040000 348.471109L378.528000 345.945637
L380.016000 341.475358L384.480000 324.508397L385.968000 323.761171
L386.712000 325.283351L388.200000 331.630324L391.176000 347.114816
L391.920000 349.206630L393.408000 349.676954L394.152000 348.109672
L395.640000 342.371477L398.616000 329.954921L400.104000 327.113682
L401.592000 326.315734L403.080000 326.058675L406.056000 324.630747
L407.544000 324.532401L409.032000 325.947763L410.520000 329.001083
L415.728000 342.089678L417.960000 346.707885L419.448000 351.228272
L424.656000 370.690037L426.144000 373.344162L427.632000 374.473801
L429.120000 373.792878L429.864000 372.526883L431.352000 368.024932
L433.584000 359.684682L434.328000 358.035929L435.816000 358.214794
L437.304000 362.454720L438.792000 367.573446L439.536000 369.233549
L441.024000 369.258690L441.768000 367.561704L444.000000 358.659524
L445.488000 353.408982L446.232000 351.950197L447.720000 351.855615
L449.208000 354.703591L452.184000 361.528140L453.672000 363.153389
L455.160000 363.676293L456.648000 363.307523L458.136000 361.830013
L459.624000 358.888414L463.344000 349.311923L464.832000 348.383912
L467.808000 351.357389L469.296000 350.829602L470.784000 347.785335
L472.272000 344.263292L473.016000 343.183205L474.504000 343.406858
L475.992000 346.319144L477.480000 349.638742L478.968000 350.514823
L479.712000 349.496360L480.456000 347.514793L480.456000 347.514793"/>
</g>
<g id="line2d4">
<path style="fill: none; stroke: #00bfbf; stroke-width: 1.000000; stroke-linejoin: round; stroke-linecap: square;  opacity: 1.000000" clip-path="url(#p50431ccdcb28178602d99d9270004dde)" d="M72.000000 251.067779L75.720000 243.810134L77.208000 243.053764
L78.696000 245.576675L80.184000 251.431849L83.160000 265.589199
L84.648000 269.702003L85.392000 270.828899L91.344000 276.422880
L92.832000 276.066696L94.320000 273.650245L96.552000 267.188079
L102.504000 247.780338L103.248000 246.487305L104.736000 246.084427
L105.480000 247.196070L106.968000 252.122271L109.200000 264.362573
L111.432000 276.345005L112.176000 278.825176L112.920000 280.134504
L114.408000 279.007053L115.896000 273.848236L119.616000 257.935541
L121.848000 251.369858L123.336000 248.374024L124.824000 247.793131
L125.568000 248.929958L126.312000 251.189230L127.800000 258.808911
L130.776000 277.256858L131.520000 280.069238L132.264000 281.571789
L133.752000 280.645290L135.240000 275.783667L144.168000 238.896668
L144.912000 237.476242L147.888000 234.195345L149.376000 230.684955
L150.864000 224.520152L156.072000 198.676109L156.816000 196.946051
L158.304000 195.891203L159.792000 198.123140L161.280000 203.728711
L162.768000 212.796680L165.000000 232.706554L170.208000 286.075696
L171.696000 293.963545L173.184000 298.300399L175.416000 303.250162
L177.648000 310.575904L179.136000 315.367465L179.880000 316.950439
L181.368000 317.503630L182.112000 316.346265L183.600000 311.516486
L189.552000 286.343294L194.760000 274.049061L196.248000 270.665071
L197.736000 270.497431L198.480000 272.214922L199.968000 279.294206
L205.176000 312.127273L206.664000 316.380794L209.640000 322.918111
L211.128000 328.617564L214.104000 341.753465L215.592000 345.152417
L217.080000 345.401597L221.544000 339.744909L223.032000 339.462213
L224.520000 340.428292L228.240000 344.870031L229.728000 344.732535
L231.960000 340.507121L233.448000 337.000249L234.936000 335.877239
L236.424000 338.529912L240.144000 351.259284L240.888000 352.302055
L242.376000 351.770962L243.864000 348.764454L246.840000 342.072596
L248.328000 338.809378L249.816000 333.898278L252.048000 322.719755
L254.280000 311.949098L255.768000 307.889072L259.488000 301.604059
L260.976000 296.409545L263.952000 285.543939L264.696000 284.134334
L266.184000 283.208174L267.672000 283.293847L269.160000 282.022904
L270.648000 277.883036L272.136000 270.965370L275.856000 251.099531
L277.344000 247.136103L278.832000 247.711789L280.320000 252.341050
L282.552000 261.090696L283.296000 262.840186L284.784000 263.168073
L286.272000 259.901011L288.504000 253.920926L289.992000 252.760556
L291.480000 254.430464L294.456000 260.070079L295.944000 261.375527
L298.920000 262.777551L301.152000 265.838346L303.384000 269.275928
L306.360000 272.864320L307.848000 276.656148L310.080000 286.336249
L312.312000 296.205683L313.800000 300.072290L315.288000 301.390307
L318.264000 301.546046L319.752000 302.878843L322.728000 306.655937
L324.216000 307.722428L328.680000 309.972873L331.656000 312.981719
L335.376000 318.198369L337.608000 321.650153L339.096000 323.210339
L340.584000 323.229697L342.816000 320.081393L344.304000 317.404506
L345.792000 316.135373L347.280000 317.211361L348.768000 320.296847
L351.000000 325.174797L352.488000 325.662523L353.232000 324.599982
L354.720000 320.088793L358.440000 305.816703L359.184000 304.351105
L360.672000 303.476852L362.160000 304.550780L365.880000 309.455107
L367.368000 313.052854L368.856000 318.925897L374.064000 345.503662
L375.552000 348.508105L377.040000 348.471109L378.528000 345.945637
L380.016000 341.475358L384.480000 324.508397L385.968000 323.761171
L386.712000 325.283351L388.200000 331.630324L391.176000 347.114816
L391.920000 349.206630L393.408000 349.676954L394.152000 348.109672
L395.640000 342.371477L398.616000 329.954921L400.104000 327.113682
L401.592000 326.315734L403.080000 326.058675L406.056000 324.630747
L407.544000 324.532401L409.032000 325.947763L410.520000 329.001083
L415.728000 342.089678L417.960000 346.707885L419.448000 351.228272
L424.656000 370.690037L426.144000 373.344162L427.632000 374.473801
L429.120000 373.792878L429.864000 372.526883L431.352000 368.024932
L433.584000 359.684682L434.328000 358.035929L435.816000 358.214794
L437.304000 362.454720L438.792000 367.573446L439.536000 369.233549
L441.024000 369.258690L441.768000 367.561704L444.000000 358.659524
L445.488000 353.408982L446.232000 351.950197L447.720000 351.855615
L449.208000 354.703591L452.184000 361.528140L453.672000 363.153389
L455.160000 363.676293L456.648000 363.307523L458.136000 361.830013
L459.624000 358.888414L463.344000 349.311923L464.832000 348.383912
L467.808000 351.357389L469.296000 350.829602L470.784000 347.785335
L472.272000 344.263292L473.016000 343.183205L474.504000 343.406858
L475.992000 346.319144L477.480000 349.638742L478.968000 350.514823
L479.712000 349.496360L480.456000 347.514793L480.456000 347.514793"/>
</g>
<g id="line2d5">
<path style="fill: none; stroke: #bf00bf; stroke-width: 1.000000; stroke-linejoin: round; stroke-linecap: square;  opacity: 1.000000" clip-path="url(#p50431ccdcb28178602d99d9270004dde)" d="M72.000000 251.067779L75.720000 243.810134L77.208000 243.053764
L78.696000 245.576675L80.184000 251.431849L83.160000 265.589199
L84.648000 269.702003L85.392000 270.828899L91.344000 276.422880
L92.832000 276.066696L94.320000 273.650245L96.552000 267.188079
L102.504000 247.780338L103.248000 246.487305L104.736000 246.084427
L105.480000 247.196070L106.968000 252.122271L109.200000 264.362573
L111.432000 276.345005L112.176000 278.825176L112.920000 280.134504
L114.408000 279.007053L115.896000 273.848236L119.616000 257.935541
L121.848000 251.369858L123.336000 248.374024L124.824000 247.793131
L125.568000 248.929958L126.312000 251.189230L127.800000 258.808911
L130.776000 277.256858L131.520000 280.069238L132.264000 281.571789
L133.752000 280.645290L135.240000 275.783667L144.168000 238.896668
L144.912000 237.476242L147.888000 234.195345L149.376000 230.684955
L150.864000 224.520152L156.072000 198.676109L156.816000 196.946051
L158.304000 195.891203L159.792000 198.123140L161.280000 203.728711
L162.768000 212.796680L165.000000 232.706554L170.208000 286.075696
L171.696000 293.963545L173.184000 298.300399L175.416000 303.250162
L177.648000 310.575904L179.136000 315.367465L179.880000 316.950439
L181.368000 317.503630L182.112000 316.346265L183.600000 311.516486
L189.552000 286.343294L194.760000 274.049061L196.248000 270.665071
L197.736000 270.497431L198.480000 272.214922L199.968000 279.294206
L205.176000 312.127273L206.664000 316.380794L209.640000 322.918111
L211.128000 328.617564L214.104000 341.753465L215.592000 345.152417
L217.080000 345.401597L221.544000 339.744909L223.032000 339.462213
L224.520000 340.428292L228.240000 344.870031L229.728000 344.732535
L231.960000 340.507121L233.448000 337.000249L234.936000 335.877239
L236.424000 338.529912L240.144000 351.259284L240.888000 352.302055
L242.376000 351.770962L243.864000 348.764454L246.840000 342.072596
L248.328000 338.809378L249.816000 333.898278L252.048000 322.719755
L254.280000 311.949098L255.768000 307.889072L259.488000 301.604059
L260.976000 296.409545L263.952000 285.543939L264.696000 284.134334
L266.184000 283.208174L267.672000 283.293847L269.160000 282.022904
L270.648000 277.883036L272.136000 270.965370L275.856000 251.099531
L277.344000 247.136103L278.832000 247.711789L280.320000 252.341050
L282.552000 261.090696L283.296000 262.840186L284.784000 263.168073
L286.272000 259.901011L288.504000 253.920926L289.992000 252.760556
L291.480000 254.430464L294.456000 260.070079L295.944000 261.375527
L298.920000 262.777551L301.152000 265.838346L303.384000 269.275928
L306.360000 272.864320L307.848000 276.656148L310.080000 286.336249
L312.312000 296.205683L313.800000 300.072290L315.288000 301.390307
L318.264000 301.546046L319.752000 302.878843L322.728000 306.655937
L324.216000 307.722428L328.680000 309.972873L331.656000 312.981719
L335.376000 318.198369L337.608000 321.650153L339.096000 323.210339
L340.584000 323.229697L342.816000 320.081393L344.304000 317.404506
L345.792000 316.135373L347.280000 317.211361L348.768000 320.296847
L351.000000 325.174797L352.488000 325.662523L353.232000 324.599982
L354.720000 320.088793L358.440000 305.816703L359.184000 304.351105
L360.672000 303.476852L362.160000 304.550780L365.880000 309.455107
L367.368000 313.052854L368.856000 318.925897L374.064000 345.503662
L375.552000 348.508105L377.040000 348.471109L378.528000 345.945637
L380.016000 341.475358L384.480000 324.508397L385.968000 323.761171
L386.712000 325.283351L388.200000 331.630324L391.176000 347.114816
L391.920000 349.206630L393.408000 349.676954L394.152000 348.109672
L395.640000 342.371477L398.616000 329.954921L400.104000 327.113682
L401.592000 326.315734L403.080000 326.058675L406.056000 324.630747
L407.544000 324.532401L409.032000 325.947763L410.520000 329.001083
L415.728000 342.089678L417.960000 346.707885L419.448000 351.228272
L424.656000 370.690037L426.144000 373.344162L427.632000 374.473801
L429.120000 373.792878L429.864000 372.526883L431.352000 368.024932
L433.584000 359.684682L434.328000 358.035929L435.816000 358.214794
L437.304000 362.454720L438.792000 367.573446L439.536000 369.233549
L441.024000 369.258690L441.768000 367.561704L444.000000 358.659524
L445.488000 353.408982L446.232000 351.950197L447.720000 351.855615
L449.208000 354.703591L452.184000 361.528140L453.672000 363.153389
L455.160000 363.676293L456.648000 363.307523L458.136000 361.830013
L459.624000 358.888414L463.344000 349.311923L464.832000 348.383912
L467.808000 351.357389L469.296000 350.829602L470.784000 347.785335
L472.272000 344.263292L473.016000 343.183205L474.504000 343.406858
L475.992000 346.319144L477.480000 349.638742L478.968000 350.514823
L479.712000 349.496360L480.456000 347.514793L480.456000 347.514793"/>
</g>
<g id="line2d6">
<path style="fill: none; stroke: #bfbf00; stroke-width: 1.000000; stroke-linejoin: round; stroke-linecap: square;  opacity: 1.000000" clip-path="url(#p50431ccdcb28178602d99d9270004dde)" d="M72.000000 257.511533L72.744000 256.196301L74.232000 254.568601
L75.720000 253.973261L77.208000 254.348721L79.440000 256.896472
L81.672000 261.142482L84.648000 266.750150L86.136000 267.537181
L87.624000 265.646664L89.112000 260.965483L92.088000 249.847665
L92.832000 248.703281L94.320000 250.015842L95.808000 255.451298
L98.040000 265.278654L98.784000 267.370748L99.528000 268.384571
L101.016000 267.007492L104.736000 256.815843L106.224000 256.948738
L107.712000 259.546430L109.944000 263.703367L115.896000 270.104680
L118.872000 272.955539L123.336000 278.791379L124.824000 277.527962
L126.312000 273.238788L129.288000 263.093511L130.776000 262.309803
L131.520000 263.503464L133.008000 268.316464L135.240000 276.889964
L136.728000 279.889106L138.216000 279.324457L139.704000 275.780159
L143.424000 264.542927L147.144000 255.488576L148.632000 249.089614
L150.864000 234.668105L154.584000 208.147167L156.072000 202.777556
L157.560000 202.865726L158.304000 205.136497L159.792000 213.822374
L162.024000 233.902084L165.744000 268.120551L174.672000 333.897722
L177.648000 351.385929L181.368000 368.919985L182.856000 373.519772
L183.600000 374.870730L185.088000 375.787474L188.064000 374.978876
L189.552000 375.344546L191.040000 376.064669L192.528000 376.344975
L194.016000 375.768368L196.992000 372.661520L198.480000 371.004723
L199.968000 370.015356L201.456000 370.088700L204.432000 372.338738
L205.920000 372.505439L207.408000 370.589801L208.896000 366.334497
L213.360000 350.242778L214.104000 349.041752L215.592000 348.674939
L217.824000 351.827198L220.800000 357.419493L222.288000 358.875498
L223.776000 358.814441L226.008000 356.355526L228.240000 353.087941
L229.728000 351.589080L231.216000 351.060923L234.192000 351.450951
L235.680000 350.243921L237.168000 346.442504L238.656000 339.697401
L242.376000 319.695814L243.864000 315.471569L245.352000 314.248745
L246.840000 315.039111L248.328000 316.511842L249.816000 317.464290
L251.304000 316.945866L252.792000 314.470049L254.280000 310.221213
L260.232000 289.844357L260.976000 288.790736L262.464000 288.947191
L263.952000 291.865356L266.928000 299.772247L267.672000 300.912023
L269.160000 301.516511L270.648000 300.237741L272.880000 296.538203
L275.856000 291.481559L277.344000 289.977308L278.832000 289.662300
L280.320000 290.482155L281.808000 291.831066L283.296000 292.709914
L284.784000 292.165674L287.016000 288.195195L289.248000 283.349457
L290.736000 282.086242L292.224000 283.260885L293.712000 286.498168
L297.432000 297.848091L299.664000 306.292760L304.128000 325.488577
L305.616000 328.806692L307.104000 329.791857L308.592000 328.928676
L311.568000 325.429843L313.056000 324.921487L314.544000 325.817611
L318.264000 330.699269L321.984000 335.700470L323.472000 336.164590
L324.960000 334.968462L326.448000 332.876601L327.936000 331.628084
L329.424000 332.851084L330.912000 336.774465L333.888000 346.105076
L334.632000 347.286213L336.120000 347.784460L339.096000 346.030836
L340.584000 346.480520L342.072000 347.807665L343.560000 348.585095
L345.048000 347.273534L346.536000 343.295498L351.000000 327.222637
L352.488000 324.740810L356.952000 321.569847L358.440000 320.533554
L359.928000 320.081233L365.880000 320.025152L367.368000 321.221872
L368.856000 324.021341L370.344000 328.385909L374.808000 343.452789
L375.552000 344.493325L377.040000 343.934134L378.528000 340.225033
L381.504000 331.243319L382.248000 330.186350L383.736000 330.031360
L386.712000 333.310486L388.200000 334.099045L389.688000 333.917606
L394.152000 331.690289L397.128000 329.851126L398.616000 329.733875
L400.104000 330.369380L402.336000 332.998086L404.568000 337.819337
L406.800000 342.458484L408.288000 343.513320L409.776000 342.604842
L412.008000 339.062292L416.472000 331.172699L417.960000 329.888421
L419.448000 330.421095L420.936000 333.027054L425.400000 344.527705
L426.888000 345.331719L428.376000 344.262612L429.864000 342.678201
L431.352000 342.013017L434.328000 342.908034L435.816000 342.415632
L437.304000 341.485529L438.792000 341.425832L441.768000 343.776184
L443.256000 342.852385L444.744000 338.836368L448.464000 324.691752
L449.208000 323.242736L450.696000 322.669018L452.184000 324.626432
L454.416000 330.365755L458.880000 343.266324L460.368000 346.193972
L461.112000 347.248536L462.600000 348.687577L464.088000 349.424303
L465.576000 349.259374L467.064000 347.566034L468.552000 344.232418
L470.784000 338.524494L471.528000 337.245294L473.016000 336.521623
L474.504000 338.198895L477.480000 343.787663L478.968000 344.509434
L480.456000 343.172205L480.456000 343.172205"/>
</g>
<g id="line2d7">
<path style="fill: none; stroke: #000000; stroke-width: 1.000000; stroke-linejoin: round; stroke-linecap: square;  opacity: 1.000000" clip-path="url(#p50431ccdcb28178602d99d9270004dde)" d="M72.000000 254.307057L74.232000 246.265041L75.720000 243.372551
L77.208000 244.196792L78.696000 248.626128L80.928000 257.083320
L82.416000 260.190726L83.904000 260.390693L85.392000 259.450019
L86.880000 259.606091L89.112000 263.104156L90.600000 265.669303
L92.088000 266.537454L93.576000 265.376646L95.808000 262.058456
L97.296000 260.728336L98.784000 260.915292L101.016000 263.430131
L102.504000 265.275880L103.992000 266.101208L105.480000 265.548977
L109.944000 260.970144L111.432000 260.250160L112.920000 260.223253
L117.384000 261.897285L118.872000 260.221229L120.360000 256.295446
L124.080000 244.470039L125.568000 243.171684L127.056000 244.163734
L130.032000 247.632017L133.008000 249.422672L135.240000 252.081058
L135.984000 253.131460L137.472000 254.287744L138.960000 252.517737
L140.448000 246.748817L144.912000 222.675546L146.400000 219.829005
L147.888000 218.570742L148.632000 217.471325L149.376000 215.523362
L150.864000 208.378740L154.584000 184.480247L155.328000 182.743514
L156.816000 184.933948L158.304000 193.601497L167.232000 265.152178
L172.440000 319.805387L173.928000 329.119545L175.416000 335.430778
L177.648000 341.980846L194.016000 383.522463L195.504000 384.355677
L196.992000 382.260196L198.480000 377.799949L201.456000 368.265008
L202.200000 366.887559L203.688000 365.628608L205.176000 365.288811
L206.664000 364.046701L208.152000 360.598944L209.640000 354.848147
L214.104000 335.564782L215.592000 331.819936L217.080000 329.486692
L218.568000 328.511879L220.056000 329.433912L221.544000 332.796058
L226.752000 349.754943L228.240000 350.665199L229.728000 350.705316
L231.216000 351.994136L234.192000 358.321416L235.680000 357.718009
L236.424000 355.247538L237.912000 346.173332L240.888000 323.898064
L242.376000 318.256985L243.864000 317.574842L248.328000 323.264845
L249.816000 324.016361L251.304000 324.238474L252.792000 323.460868
L255.024000 319.583563L258.000000 313.053410L258.744000 312.030260
L261.720000 309.474105L263.952000 305.768465L266.928000 297.462077
L268.416000 293.815467L269.160000 292.507039L270.648000 290.950443
L273.624000 289.908277L276.600000 288.704360L278.832000 286.302461
L281.808000 280.898972L283.296000 279.703829L284.784000 281.333812
L286.272000 285.826621L289.248000 296.467429L290.736000 299.251737
L294.456000 302.655092L295.944000 305.816951L301.152000 319.430355
L302.640000 320.708814L307.104000 321.022614L317.520000 329.795024
L320.496000 333.356360L321.984000 335.455168L323.472000 336.915380
L324.960000 336.700595L327.192000 332.782838L328.680000 329.592517
L330.168000 328.562111L331.656000 331.346712L333.144000 337.657333
L335.376000 348.365712L336.864000 352.115590L338.352000 351.522060
L339.840000 347.370485L343.560000 333.850972L345.048000 330.649805
L345.792000 329.579173L347.280000 328.096024L350.256000 326.508663
L351.744000 326.492559L353.232000 327.250523L355.464000 329.887747
L358.440000 333.863548L359.928000 334.285685L362.904000 332.342388
L364.392000 332.541228L365.880000 334.853296L368.856000 341.911756
L370.344000 342.781997L371.832000 340.347352L373.320000 335.140997
L378.528000 313.119668L380.016000 309.771782L381.504000 309.377216
L382.248000 310.448502L383.736000 314.770490L387.456000 329.055156
L388.944000 332.065213L390.432000 332.839594L393.408000 332.173050
L394.896000 333.611576L396.384000 337.102324L399.360000 346.094405
L400.104000 347.517008L401.592000 348.065703L403.080000 345.358467
L405.312000 337.611087L406.800000 332.894337L407.544000 331.377137
L409.032000 330.452416L410.520000 332.000093L412.752000 335.713937
L414.240000 337.020885L417.216000 337.020833L418.704000 338.363561
L420.192000 341.839627L423.912000 352.951491L424.656000 354.123255
L426.144000 354.888573L427.632000 354.010072L431.352000 349.308658
L432.840000 348.420959L435.816000 348.201566L437.304000 346.488708
L438.792000 342.889628L441.024000 336.653515L442.512000 334.150281
L444.000000 333.304404L445.488000 333.421779L446.976000 334.236036
L448.464000 336.269760L449.952000 339.928542L453.672000 350.593832
L455.160000 351.687391L456.648000 350.075552L458.880000 344.768744
L461.856000 338.215416L464.832000 333.297565L466.320000 331.447335
L467.808000 330.341051L469.296000 330.226457L470.784000 331.114907
L472.272000 332.482154L473.760000 333.359636L475.248000 332.848658
L477.480000 329.573982L479.712000 325.863074L479.712000 325.863074"/>
</g>
<g id="line2d8">
<path style="fill: none; stroke: #0000ff; stroke-width: 1.000000; stroke-linejoin: round; stroke-linecap: square;  opacity: 1.000000" clip-path="url(#p50431ccdcb28178602d99d9270004dde)" d="M72.000000 261.361588L74.232000 265.245932L75.720000 265.399074
L76.464000 264.333118L77.952000 260.026567L83.160000 239.087704
L83.904000 237.629979L85.392000 237.427460L86.136000 238.956921
L87.624000 245.564745L92.088000 274.877077L92.832000 276.358331
L94.320000 274.390581L98.040000 261.281061L99.528000 262.259079
L102.504000 270.668706L103.992000 270.210538L104.736000 267.797327
L106.224000 259.641423L108.456000 247.162317L109.200000 245.119761
L110.688000 245.636770L112.176000 250.976611L114.408000 260.530432
L115.896000 263.763233L117.384000 263.936099L118.872000 262.687022
L120.360000 261.917354L121.848000 262.494426L124.824000 265.253617
L126.312000 265.330215L129.288000 263.787368L130.776000 265.126723
L132.264000 268.643195L133.752000 272.391232L135.240000 273.261384
L135.984000 271.869668L137.472000 265.197317L139.704000 248.520178
L143.424000 218.954510L145.656000 205.693077L147.888000 196.863452
L151.608000 183.755881L153.840000 175.854556L154.584000 174.412019
L156.072000 174.498042L156.816000 176.062667L158.304000 181.612450
L160.536000 193.742288L162.768000 210.502642L165.000000 235.012959
L170.208000 301.146114L172.440000 320.674011L174.672000 334.858755
L176.160000 341.091386L177.648000 344.314110L179.136000 344.888488
L180.624000 344.170770L182.112000 344.051216L183.600000 345.933967
L185.088000 349.883947L188.064000 358.338792L188.808000 359.369934
L190.296000 359.693097L191.784000 358.709251L193.272000 358.169300
L194.760000 359.101081L196.248000 360.997840L197.736000 362.343514
L199.224000 361.923287L204.432000 354.704703L207.408000 352.651472
L211.872000 348.399196L213.360000 347.666652L217.824000 347.021521
L220.056000 344.404439L222.288000 340.854442L223.776000 340.253898
L225.264000 342.271354L227.496000 348.802305L228.984000 352.725784
L230.472000 353.574643L231.216000 352.225384L231.960000 349.525899
L233.448000 340.377144L237.912000 307.277389L239.400000 302.847902
L240.888000 302.036274L245.352000 305.386450L246.840000 306.591894
L249.072000 309.687834L250.560000 312.167158L252.048000 313.376284
L253.536000 311.552092L255.024000 305.933976L260.232000 279.252814
L266.184000 261.747584L266.928000 260.538798L268.416000 260.219760
L271.392000 264.471519L272.880000 265.145833L274.368000 262.838684
L275.856000 257.812233L278.088000 249.830046L278.832000 248.390269
L280.320000 248.337369L282.552000 252.341597L284.040000 253.388963
L285.528000 251.134964L287.760000 245.149752L288.504000 244.049467
L289.992000 244.868912L291.480000 249.388012L294.456000 260.707503
L295.944000 264.202376L296.688000 265.305923L298.176000 266.595243
L299.664000 267.348315L301.152000 268.695616L302.640000 271.850862
L304.128000 277.450142L308.592000 297.484083L310.080000 300.353935
L314.544000 303.360430L323.472000 315.690798L325.704000 320.030780
L327.936000 324.601666L329.424000 325.892654L330.912000 324.844795
L333.144000 320.356256L334.632000 317.852598L336.120000 317.351251
L338.352000 319.986430L340.584000 323.674612L342.072000 325.053204
L343.560000 324.784877L345.792000 321.566685L347.280000 319.288848
L348.768000 318.822380L350.256000 320.949883L353.976000 330.815702
L355.464000 331.574670L356.952000 328.979881L360.672000 317.816786
L362.160000 317.259527L362.904000 318.299981L364.392000 322.107500
L366.624000 327.688373L368.112000 328.586310L369.600000 326.947568
L373.320000 320.413851L377.784000 315.204895L379.272000 314.435926
L380.760000 315.152356L382.992000 318.562128L388.200000 328.085457
L389.688000 329.915159L391.176000 330.818349L392.664000 330.180953
L394.896000 326.360044L396.384000 323.713695L397.872000 322.532022
L400.848000 323.135058L402.336000 322.377028L406.800000 316.620185
L409.776000 314.692944L411.264000 314.135052L412.752000 314.803079
L413.496000 315.941776L414.984000 320.134287L419.448000 336.395055
L420.936000 337.628159L422.424000 336.404150L423.912000 334.182215
L425.400000 332.613712L426.888000 332.864242L431.352000 338.815918
L432.840000 337.923672L435.816000 333.104806L437.304000 332.240611
L440.280000 333.631635L441.768000 332.622374L443.256000 329.192291
L448.464000 313.423864L452.928000 305.126743L453.672000 304.061740
L455.160000 302.891872L456.648000 303.556788L458.136000 306.391065
L460.368000 313.774341L463.344000 323.966675L466.320000 331.336850
L467.808000 334.183379L469.296000 335.582843L470.784000 334.594496
L472.272000 330.929493L476.736000 315.908780L477.480000 314.731228
L478.968000 314.081194L480.456000 315.079666L480.456000 315.079666"/>
</g>
<g id="line2d9">
<path style="fill: none; stroke: #008000; stroke-width: 1.000000; stroke-linejoin: round; stroke-linecap: square;  opacity: 1.000000" clip-path="url(#p50431ccdcb28178602d99d9270004dde)" d="M72.000000 254.809400L73.488000 254.471181L74.976000 255.719885
L76.464000 258.163582L81.672000 268.960096L83.160000 270.299353
L84.648000 269.842771L86.880000 265.768664L90.600000 255.915461
L91.344000 254.751621L92.832000 253.961720L94.320000 255.021275
L97.296000 258.754901L98.784000 259.043171L100.272000 257.533796
L103.248000 252.495088L104.736000 251.886432L106.224000 253.840951
L107.712000 258.103231L111.432000 270.592435L112.176000 271.903621
L113.664000 272.260721L114.408000 271.246462L115.896000 267.117227
L118.872000 254.554841L121.104000 246.270588L122.592000 242.880896
L124.080000 241.719083L125.568000 242.790382L127.056000 245.471350
L129.288000 249.868157L130.776000 251.404576L133.752000 251.536573
L135.240000 252.965671L136.728000 257.218643L138.216000 264.403691
L141.936000 284.533030L142.680000 286.536017L144.168000 286.367308
L144.912000 283.930601L146.400000 274.416671L148.632000 251.742490
L151.608000 221.112634L153.096000 212.107425L153.840000 209.976977
L155.328000 210.691636L156.072000 213.373689L157.560000 222.463687
L162.024000 255.547977L163.512000 261.289614L164.256000 262.795557
L165.744000 263.582487L167.232000 262.312578L168.720000 259.721477
L170.208000 255.862606L172.440000 247.262775L176.904000 224.486429
L182.112000 196.836586L185.088000 177.014522L193.272000 117.918316
L195.504000 108.606291L197.736000 102.618642L199.224000 100.125007
L200.712000 98.533953L202.200000 97.650395L203.688000 97.421041
L205.176000 97.978419L206.664000 99.607077L208.152000 102.580791
L210.384000 109.338052L213.360000 118.522836L214.848000 121.068876
L216.336000 121.780017L220.800000 120.248970L222.288000 121.330199
L226.752000 126.915336L228.240000 126.658153L230.472000 123.692607
L231.960000 121.399393L233.448000 119.978139L234.936000 119.589069
L236.424000 119.586072L237.912000 118.978112L240.144000 115.801834
L242.376000 111.494116L243.864000 110.137720L245.352000 111.244462
L246.840000 115.018472L249.072000 124.086055L252.048000 135.867573
L253.536000 138.923530L255.024000 139.292825L257.256000 136.094053
L258.744000 133.600459L260.232000 132.542012L261.720000 133.439052
L266.184000 139.319501L267.672000 138.404756L269.160000 135.377030
L271.392000 128.374358L275.112000 116.441125L278.832000 105.420650
L284.040000 86.767657L284.784000 85.716039L286.272000 85.606039
L289.248000 88.416451L290.736000 87.840771L292.224000 85.092208
L297.432000 72.417583L303.384000 61.445455L304.872000 60.574926
L306.360000 61.482040L307.848000 63.968239L312.312000 73.660755
L313.800000 75.324401L315.288000 75.833823L316.776000 75.435020
L319.752000 73.230352L327.192000 66.491311L328.680000 66.127052
L330.168000 66.407018L333.144000 67.762827L334.632000 68.011008
L336.120000 67.539983L340.584000 64.049586L342.072000 64.362428
L344.304000 67.671325L349.512000 78.697197L352.488000 82.238825
L353.976000 85.845980L355.464000 92.053290L360.672000 118.602679
L361.416000 120.103888L362.904000 120.661081L365.136000 117.463204
L367.368000 113.423051L368.856000 112.139576L370.344000 112.473255
L372.576000 115.655394L377.784000 126.838748L381.504000 135.973547
L391.176000 160.960597L393.408000 165.229455L396.384000 170.562332
L400.848000 181.623475L402.336000 182.850178L403.824000 180.837708
L405.312000 175.808300L407.544000 167.176579L408.288000 165.338055
L409.776000 164.758059L410.520000 166.124446L412.008000 171.497193
L414.984000 184.275154L416.472000 187.594274L417.960000 188.025614
L419.448000 186.172160L421.680000 180.984653L423.912000 175.694304
L424.656000 174.391862L426.144000 172.987974L427.632000 173.657335
L429.120000 176.411033L430.608000 180.881419L433.584000 192.781987
L436.560000 204.852654L438.048000 209.112597L438.792000 210.463272
L440.280000 211.412511L441.768000 209.977379L443.256000 206.397884
L447.720000 192.960135L449.208000 192.771260L449.952000 194.189717
L451.440000 199.956849L455.904000 223.845116L456.648000 225.834915
L457.392000 226.862931L458.880000 226.485615L460.368000 224.093382
L462.600000 219.995121L464.088000 218.354549L465.576000 217.955979
L467.064000 218.685516L470.040000 222.080742L471.528000 223.738744
L473.016000 224.258942L474.504000 222.796938L475.992000 219.123850
L480.456000 204.992848L480.456000 204.992848"/>
</g>
<g id="line2d10">
<path style="fill: none; stroke: #ff0000; stroke-width: 1.000000; stroke-linejoin: round; stroke-linecap: square;  opacity: 1.000000" clip-path="url(#p50431ccdcb28178602d99d9270004dde)" d="M72.000000 266.577952L76.464000 267.897309L80.928000 271.343232
L82.416000 269.994373L83.904000 265.672274L86.136000 255.129700
L89.112000 240.652876L90.600000 236.105928L91.344000 234.906110
L92.832000 234.992396L93.576000 236.329109L95.064000 241.395486
L97.296000 252.911296L99.528000 264.354810L101.016000 269.312786
L101.760000 270.608069L103.248000 270.789505L105.480000 266.984169
L106.968000 264.312490L108.456000 263.585924L109.944000 265.590998
L112.176000 272.194086L113.664000 276.440254L114.408000 277.818028
L115.896000 278.316868L116.640000 277.315356L118.128000 273.001277
L122.592000 255.165189L123.336000 254.008636L124.824000 254.706282
L126.312000 259.192027L130.776000 278.164067L131.520000 279.219454
L133.008000 278.248521L134.496000 274.219315L136.728000 268.036370
L138.216000 267.428700L138.960000 268.617350L140.448000 273.613642
L144.168000 289.394171L144.912000 290.694944L146.400000 289.682534
L147.144000 287.275869L148.632000 279.162614L153.096000 249.438245
L154.584000 245.510044L156.072000 245.719361L157.560000 248.744557
L160.536000 255.917103L162.024000 257.191716L163.512000 256.157541
L165.000000 253.330094L169.464000 243.413606L174.672000 234.322234
L176.160000 230.097837L177.648000 223.878863L179.880000 210.271322
L184.344000 180.482533L186.576000 171.393414L188.064000 168.012924
L189.552000 166.571154L191.040000 166.489457L194.016000 167.055362
L195.504000 167.100465L196.992000 167.516366L198.480000 168.311058
L199.968000 168.415487L201.456000 166.224168L202.944000 160.864295
L205.176000 148.458492L208.152000 132.280544L209.640000 126.856896
L211.128000 123.499405L211.872000 122.499080L213.360000 121.436029
L214.848000 120.787313L217.080000 118.517346L219.312000 114.093014
L223.776000 103.155307L227.496000 93.075708L228.984000 90.657343
L230.472000 89.979325L231.960000 90.929522L235.680000 96.282607
L237.168000 97.456514L238.656000 97.044701L240.888000 93.440348
L244.608000 85.659061L246.096000 85.000191L247.584000 87.192221
L249.072000 92.406353L253.536000 112.464449L254.280000 114.157954
L255.768000 115.553859L257.256000 115.207244L264.696000 110.780080
L267.672000 107.930199L269.904000 104.285553L271.392000 100.419526
L273.624000 92.398020L278.088000 75.464106L280.320000 70.308291
L281.808000 68.088544L283.296000 66.691290L284.784000 66.324477
L286.272000 67.262448L289.992000 72.781224L291.480000 73.887225
L292.968000 73.718557L295.944000 71.369694L298.176000 68.408638
L300.408000 63.645097L304.128000 55.285030L306.360000 51.988225
L310.824000 46.717115L312.312000 46.200071L313.800000 47.320924
L315.288000 50.482082L317.520000 58.460030L320.496000 69.367085
L321.984000 72.389465L323.472000 73.575103L326.448000 74.166593
L328.680000 76.367347L330.912000 80.784654L335.376000 90.883977
L336.864000 93.112313L338.352000 94.680059L339.840000 95.523026
L341.328000 95.258829L343.560000 92.263681L345.792000 88.366189
L347.280000 87.691426L348.768000 89.734955L350.256000 94.492100
L352.488000 105.155197L356.208000 123.815369L357.696000 128.865787
L359.184000 131.936329L360.672000 133.137725L362.160000 132.575125
L364.392000 128.917172L366.624000 124.851342L368.112000 124.555051
L369.600000 127.078524L373.320000 136.937030L374.808000 138.034132
L377.784000 136.611962L379.272000 137.145815L380.760000 139.807408
L382.992000 146.774607L385.224000 153.382359L386.712000 155.853005
L392.664000 160.258725L394.152000 160.490932L395.640000 158.730067
L397.872000 153.215123L400.104000 148.211187L401.592000 147.442480
L403.080000 149.721264L404.568000 155.078057L407.544000 170.974165
L409.776000 181.441341L411.264000 186.070394L413.496000 190.484586
L417.216000 197.152163L419.448000 201.369666L420.936000 202.907481
L422.424000 202.047973L423.912000 198.225441L427.632000 184.251728
L428.376000 182.820592L429.864000 182.470248L432.096000 186.823595
L435.072000 194.227954L435.816000 195.466043L437.304000 196.872969
L438.792000 197.003796L441.768000 196.139704L443.256000 197.057946
L444.744000 199.418299L449.208000 208.265180L450.696000 209.808629
L452.184000 210.488660L453.672000 210.307618L455.160000 209.349758
L459.624000 205.530991L464.088000 201.875674L465.576000 201.711595
L467.064000 203.341026L468.552000 207.173471L470.784000 216.243644
L473.760000 229.044999L475.248000 232.628199L476.736000 233.145907
L478.224000 230.965024L480.456000 225.479676L480.456000 225.479676"/>
</g>
<g id="line2d11">
<path style="fill: none; stroke: #00bfbf; stroke-width: 1.000000; stroke-linejoin: round; stroke-linecap: square;  opacity: 1.000000" clip-path="url(#p50431ccdcb28178602d99d9270004dde)" d="M72.000000 250.916609L75.720000 256.207469L77.952000 260.502871
L81.672000 269.985539L83.160000 271.093719L84.648000 269.341548
L86.136000 265.168455L90.600000 248.957122L91.344000 247.561583
L92.832000 247.530466L93.576000 248.993483L95.064000 254.240410
L97.296000 263.237226L98.784000 266.446293L100.272000 266.447118
L102.504000 262.490641L105.480000 256.110428L106.224000 254.908241
L107.712000 253.286898L109.200000 252.660825L112.176000 252.485790
L113.664000 252.886454L115.152000 254.655148L116.640000 258.219422
L119.616000 266.374610L121.104000 267.413122L122.592000 265.478104
L125.568000 258.912777L127.056000 258.248873L130.032000 261.107850
L131.520000 260.234503L132.264000 258.455300L133.752000 252.406391
L135.984000 242.301025L136.728000 240.734408L138.216000 243.161436
L138.960000 247.600423L140.448000 262.472525L144.912000 319.608457
L146.400000 330.280334L147.888000 335.150565L149.376000 335.583198
L152.352000 330.832835L153.840000 330.064695L155.328000 332.427025
L159.048000 343.612790L160.536000 342.687425L161.280000 340.057092
L162.768000 330.825558L167.976000 289.834588L170.208000 279.972011
L172.440000 273.487424L174.672000 269.149914L176.160000 267.911472
L177.648000 268.539834L179.136000 271.197247L180.624000 275.616714
L184.344000 287.951376L185.088000 289.217882L186.576000 290.003266
L188.064000 289.683700L189.552000 290.251269L191.784000 294.150528
L193.272000 296.922724L194.760000 297.769373L196.248000 296.091323
L198.480000 290.616362L205.920000 269.056234L209.640000 256.118744
L211.128000 253.365366L212.616000 253.779097L214.104000 257.432673
L217.080000 267.135466L218.568000 268.098169L219.312000 267.031633
L220.800000 262.459564L223.032000 254.066671L224.520000 250.920740
L226.008000 251.143265L227.496000 254.470793L231.960000 268.360645
L233.448000 269.682912L234.936000 269.312448L236.424000 268.484269
L237.912000 268.418891L239.400000 269.879421L240.888000 273.006244
L245.352000 284.294793L246.840000 285.493014L248.328000 285.705427
L249.816000 286.361275L252.048000 290.203306L255.024000 297.026437
L256.512000 297.891000L258.000000 296.299547L260.232000 291.030260
L263.208000 283.831359L263.952000 282.766032L265.440000 282.420743
L266.928000 285.076843L268.416000 290.574839L271.392000 303.508421
L272.880000 306.831191L274.368000 306.415918L275.112000 304.758560
L276.600000 298.873229L278.832000 285.590488L281.808000 267.310366
L283.296000 261.472772L284.040000 259.877774L285.528000 259.596556
L286.272000 260.886792L287.760000 265.897897L292.224000 285.633924
L293.712000 289.126318L294.456000 290.147768L295.944000 291.071832
L298.920000 290.848764L300.408000 291.305676L303.384000 293.616518
L304.872000 292.987813L306.360000 289.828619L309.336000 279.111158
L311.568000 272.569656L313.056000 270.020324L314.544000 269.068248
L316.032000 270.092186L317.520000 273.282169L320.496000 281.958462
L321.240000 283.182572L322.728000 283.407208L324.960000 279.556805
L326.448000 277.038325L327.936000 276.523173L331.656000 280.180268
L333.144000 278.597804L334.632000 273.956458L338.352000 259.683802
L339.096000 258.204914L340.584000 257.264499L342.072000 258.443715
L347.280000 265.566033L348.768000 265.883296L350.256000 264.962069
L353.232000 260.379744L353.976000 259.186490L355.464000 257.851185
L356.952000 259.138407L358.440000 263.850179L360.672000 275.522995
L362.904000 287.120869L364.392000 292.662502L365.880000 296.219572
L366.624000 297.340098L368.112000 298.420002L369.600000 298.091826
L374.064000 293.500863L375.552000 294.393421L377.040000 298.151492
L382.248000 317.225518L383.736000 318.595164L388.200000 318.702224
L389.688000 319.384681L391.176000 319.338704L392.664000 317.423189
L394.152000 313.453980L397.128000 304.727600L397.872000 303.675693
L399.360000 303.307644L400.848000 304.108403L402.336000 304.291516
L403.824000 302.909206L406.800000 298.205622L408.288000 297.501952
L409.776000 298.840121L413.496000 305.684059L414.984000 306.345211
L416.472000 304.564998L417.960000 300.554771L421.680000 288.662412
L422.424000 287.277061L423.912000 286.045814L425.400000 286.313111
L426.888000 286.946851L428.376000 286.927624L429.864000 285.933684
L432.840000 283.305915L434.328000 282.998369L438.792000 284.712234
L440.280000 284.022992L442.512000 281.163669L445.488000 276.144782
L446.976000 274.574483L448.464000 274.640711L450.696000 277.982999
L452.928000 282.011384L454.416000 283.156395L457.392000 283.566938
L460.368000 285.570767L461.856000 285.400598L464.088000 282.414964
L464.832000 281.218520L466.320000 279.566710L467.808000 279.461465
L469.296000 280.678903L472.272000 283.607467L473.760000 283.582076
L475.992000 280.765150L478.968000 275.474455L480.456000 274.919396
L480.456000 274.919396"/>
</g>
<g id="matplotlib.axis1">
<g id="xtick1">
<g id="line2d12">
<defs><path id="m30e32995789d870ad79a2e54c91cf9c6" d="M0.000000 0.000000L0.000000 -4.000000"/></defs>
<g ><use style="fill: none; stroke: #000000; stroke-width: 0.500000; stroke-linejoin: round; stroke-linecap: butt;  opacity: 1.000000" xlink:href="#m30e32995789d870ad79a2e54c91cf9c6" x="72.000000" y="388.800000"/>
</g></g>
<g id="line2d13">
<defs><path id="m9281cae24120827b11d5ea8a7ad3e96b" d="M0.000000 0.000000L0.000000 4.000000"/></defs>
<g ><use style="fill: none; stroke: #000000; stroke-width: 0.500000; stroke-linejoin: round; stroke-linecap: butt;  opacity: 1.000000" xlink:href="#m9281cae24120827b11d5ea8a7ad3e96b" x="72.000000" y="43.200000"/>
</g></g>
<g id="text1">
<defs>
<path id="c_7a2040fe3b94fcd41d0a72c84e93b115" d="M31.781250 -66.406250q-7.609375 0.000000 -11.453125 7.500000q-3.828125 7.484375 -3.828125 22.531250q0.000000 14.984375 3.828125 22.484375q3.843750 7.500000 11.453125 7.500000q7.671875 0.000000 11.500000 -7.500000q3.843750 -7.500000 3.843750 -22.484375q0.000000 -15.046875 -3.843750 -22.531250q-3.828125 -7.500000 -11.500000 -7.500000M31.781250 -74.218750q12.265625 0.000000 18.734375 9.703125q6.468750 9.687500 6.468750 28.140625q0.000000 18.406250 -6.468750 28.109375q-6.468750 9.687500 -18.734375 9.687500q-12.250000 0.000000 -18.718750 -9.687500q-6.468750 -9.703125 -6.468750 -28.109375q0.000000 -18.453125 6.468750 -28.140625q6.468750 -9.703125 18.718750 -9.703125"/>
</defs>
<g style="fill: #000000; opacity: 1.000000" transform="translate(68.976562,401.706250)scale(0.120000)">
<use xlink:href="#c_7a2040fe3b94fcd41d0a72c84e93b115"/>
</g>
</g>
</g>
<g id="xtick2">
<g id="line2d14">
<g ><use style="fill: none; stroke: #000000; stroke-width: 0.500000; stroke-linejoin: round; stroke-linecap: butt;  opacity: 1.000000" xlink:href="#m30e32995789d870ad79a2e54c91cf9c6" x="146.400000" y="388.800000"/>
</g></g>
<g id="line2d15">
<g ><use style="fill: none; stroke: #000000; stroke-width: 0.500000; stroke-linejoin: round; stroke-linecap: butt;  opacity: 1.000000" xlink:href="#m9281cae24120827b11d5ea8a7ad3e96b" x="146.400000" y="43.200000"/>
</g></g>
<g id="text2">
<defs>
<path id="c_42baa63129a918535c52adb20d687ea7" d="M12.406250 -8.296875l16.109375 0.000000l0.000000 -55.625000l-17.531250 3.515625l0.000000 -8.984375l17.437500 -3.515625l9.859375 0.000000l0.000000 64.609375l16.109375 0.000000l0.000000 8.296875l-41.984375 0.000000z"/>
</defs>
<g style="fill: #000000; opacity: 1.000000" transform="translate(135.993750,401.706250)scale(0.120000)">
<use xlink:href="#c_42baa63129a918535c52adb20d687ea7"/>
<use xlink:href="#c_7a2040fe3b94fcd41d0a72c84e93b115" x="63.623047"/>
<use xlink:href="#c_7a2040fe3b94fcd41d0a72c84e93b115" x="127.246094"/>
</g>
</g>
</g>
<g id="xtick3">
<g id="line2d16">
<g ><use style="fill: none; stroke: #000000; stroke-width: 0.500000; stroke-linejoin: round; stroke-linecap: butt;  opacity: 1.000000" xlink:href="#m30e32995789d870ad79a2e54c91cf9c6" x="220.800000" y="388.800000"/>
</g></g>
<g id="line2d17">
<g ><use style="fill: none; stroke: #000000; stroke-width: 0.500000; stroke-linejoin: round; stroke-linecap: butt;  opacity: 1.000000" xlink:href="#m9281cae24120827b11d5ea8a7ad3e96b" x="220.800000" y="43.200000"/>
</g></g>
<g id="text3">
<defs>
<path id="c_ed3f3ed3ebfbd18bcb9c012009a68ad1" d="M19.187500 -8.296875l34.421875 0.000000l0.000000 8.296875l-46.281250 0.000000l0.000000 -8.296875q5.609375 -5.812500 15.296875 -15.593750q9.703125 -9.796875 12.187500 -12.640625q4.734375 -5.312500 6.609375 -9.000000q1.890625 -3.687500 1.890625 -7.250000q0.000000 -5.812500 -4.078125 -9.468750q-4.078125 -3.671875 -10.625000 -3.671875q-4.640625 0.000000 -9.796875 1.609375q-5.140625 1.609375 -11.000000 4.890625l0.000000 -9.968750q5.953125 -2.390625 11.125000 -3.609375q5.187500 -1.218750 9.484375 -1.218750q11.328125 0.000000 18.062500 5.671875q6.734375 5.656250 6.734375 15.125000q0.000000 4.500000 -1.687500 8.531250q-1.671875 4.015625 -6.125000 9.484375q-1.218750 1.421875 -7.765625 8.187500q-6.531250 6.765625 -18.453125 18.921875"/>
</defs>
<g style="fill: #000000; opacity: 1.000000" transform="translate(210.175000,401.706250)scale(0.120000)">
<use xlink:href="#c_ed3f3ed3ebfbd18bcb9c012009a68ad1"/>
<use xlink:href="#c_7a2040fe3b94fcd41d0a72c84e93b115" x="63.623047"/>
<use xlink:href="#c_7a2040fe3b94fcd41d0a72c84e93b115" x="127.246094"/>
</g>
</g>
</g>
<g id="xtick4">
<g id="line2d18">
<g ><use style="fill: none; stroke: #000000; stroke-width: 0.500000; stroke-linejoin: round; stroke-linecap: butt;  opacity: 1.000000" xlink:href="#m30e32995789d870ad79a2e54c91cf9c6" x="295.200000" y="388.800000"/>
</g></g>
<g id="line2d19">
<g ><use style="fill: none; stroke: #000000; stroke-width: 0.500000; stroke-linejoin: round; stroke-linecap: butt;  opacity: 1.000000" xlink:href="#m9281cae24120827b11d5ea8a7ad3e96b" x="295.200000" y="43.200000"/>
</g></g>
<g id="text4">
<defs>
<path id="c_3dcfa38a02242cb63ec6726c6e70be7a" d="M40.578125 -39.312500q7.078125 1.515625 11.046875 6.312500q3.984375 4.781250 3.984375 11.812500q0.000000 10.781250 -7.421875 16.703125q-7.421875 5.906250 -21.093750 5.906250q-4.578125 0.000000 -9.437500 -0.906250q-4.859375 -0.906250 -10.031250 -2.718750l0.000000 -9.515625q4.093750 2.390625 8.968750 3.609375q4.890625 1.218750 10.218750 1.218750q9.265625 0.000000 14.125000 -3.656250q4.859375 -3.656250 4.859375 -10.640625q0.000000 -6.453125 -4.515625 -10.078125q-4.515625 -3.640625 -12.562500 -3.640625l-8.500000 0.000000l0.000000 -8.109375l8.890625 0.000000q7.265625 0.000000 11.125000 -2.906250q3.859375 -2.906250 3.859375 -8.375000q0.000000 -5.609375 -3.984375 -8.609375q-3.968750 -3.015625 -11.390625 -3.015625q-4.062500 0.000000 -8.703125 0.890625q-4.640625 0.875000 -10.203125 2.718750l0.000000 -8.781250q5.625000 -1.562500 10.531250 -2.343750q4.906250 -0.781250 9.250000 -0.781250q11.234375 0.000000 17.765625 5.109375q6.546875 5.093750 6.546875 13.781250q0.000000 6.062500 -3.468750 10.234375q-3.468750 4.171875 -9.859375 5.781250"/>
</defs>
<g style="fill: #000000; opacity: 1.000000" transform="translate(284.598437,401.706250)scale(0.120000)">
<use xlink:href="#c_3dcfa38a02242cb63ec6726c6e70be7a"/>
<use xlink:href="#c_7a2040fe3b94fcd41d0a72c84e93b115" x="63.623047"/>
<use xlink:href="#c_7a2040fe3b94fcd41d0a72c84e93b115" x="127.246094"/>
</g>
</g>
</g>
<g id="xtick5">
<g id="line2d20">
<g ><use style="fill: none; stroke: #000000; stroke-width: 0.500000; stroke-linejoin: round; stroke-linecap: butt;  opacity: 1.000000" xlink:href="#m30e32995789d870ad79a2e54c91cf9c6" x="369.600000" y="388.800000"/>
</g></g>
<g id="line2d21">
<g ><use style="fill: none; stroke: #000000; stroke-width: 0.500000; stroke-linejoin: round; stroke-linecap: butt;  opacity: 1.000000" xlink:href="#m9281cae24120827b11d5ea8a7ad3e96b" x="369.600000" y="43.200000"/>
</g></g>
<g id="text5">
<defs>
<path id="c_a0416418d96557a09b8c1332d34883ba" d="M37.796875 -64.312500l-24.906250 38.921875l24.906250 0.000000zM35.203125 -72.906250l12.406250 0.000000l0.000000 47.515625l10.406250 0.000000l0.000000 8.203125l-10.406250 0.000000l0.000000 17.187500l-9.812500 0.000000l0.000000 -17.187500l-32.906250 0.000000l0.000000 -9.515625z"/>
</defs>
<g style="fill: #000000; opacity: 1.000000" transform="translate(358.834375,401.706250)scale(0.120000)">
<use xlink:href="#c_a0416418d96557a09b8c1332d34883ba"/>
<use xlink:href="#c_7a2040fe3b94fcd41d0a72c84e93b115" x="63.623047"/>
<use xlink:href="#c_7a2040fe3b94fcd41d0a72c84e93b115" x="127.246094"/>
</g>
</g>
</g>
<g id="xtick6">
<g id="line2d22">
<g ><use style="fill: none; stroke: #000000; stroke-width: 0.500000; stroke-linejoin: round; stroke-linecap: butt;  opacity: 1.000000" xlink:href="#m30e32995789d870ad79a2e54c91cf9c6" x="444.000000" y="388.800000"/>
</g></g>
<g id="line2d23">
<g ><use style="fill: none; stroke: #000000; stroke-width: 0.500000; stroke-linejoin: round; stroke-linecap: butt;  opacity: 1.000000" xlink:href="#m9281cae24120827b11d5ea8a7ad3e96b" x="444.000000" y="43.200000"/>
</g></g>
<g id="text6">
<defs>
<path id="c_1260a2df50f305f3db244e29828f968e" d="M10.796875 -72.906250l38.718750 0.000000l0.000000 8.312500l-29.687500 0.000000l0.000000 17.859375q2.140625 -0.734375 4.281250 -1.093750q2.156250 -0.359375 4.312500 -0.359375q12.203125 0.000000 19.328125 6.687500q7.140625 6.687500 7.140625 18.109375q0.000000 11.765625 -7.328125 18.296875q-7.328125 6.515625 -20.656250 6.515625q-4.593750 0.000000 -9.359375 -0.781250q-4.750000 -0.781250 -9.828125 -2.343750l0.000000 -9.921875q4.390625 2.390625 9.078125 3.562500q4.687500 1.171875 9.906250 1.171875q8.453125 0.000000 13.375000 -4.437500q4.937500 -4.437500 4.937500 -12.062500q0.000000 -7.609375 -4.937500 -12.046875q-4.921875 -4.453125 -13.375000 -4.453125q-3.953125 0.000000 -7.890625 0.875000q-3.921875 0.875000 -8.015625 2.734375z"/>
</defs>
<g style="fill: #000000; opacity: 1.000000" transform="translate(433.398438,401.706250)scale(0.120000)">
<use xlink:href="#c_1260a2df50f305f3db244e29828f968e"/>
<use xlink:href="#c_7a2040fe3b94fcd41d0a72c84e93b115" x="63.623047"/>
<use xlink:href="#c_7a2040fe3b94fcd41d0a72c84e93b115" x="127.246094"/>
</g>
</g>
</g>
<g id="xtick7">
<g id="line2d24">
<g ><use style="fill: none; stroke: #000000; stroke-width: 0.500000; stroke-linejoin: round; stroke-linecap: butt;  opacity: 1.000000" xlink:href="#m30e32995789d870ad79a2e54c91cf9c6" x="518.400000" y="388.800000"/>
</g></g>
<g id="line2d25">
<g ><use style="fill: none; stroke: #000000; stroke-width: 0.500000; stroke-linejoin: round; stroke-linecap: butt;  opacity: 1.000000" xlink:href="#m9281cae24120827b11d5ea8a7ad3e96b" x="518.400000" y="43.200000"/>
</g></g>
<g id="text7">
<defs>
<path id="c_cc8d6d580d1b10c8632f7a42cd53db8a" d="M33.015625 -40.375000q-6.640625 0.000000 -10.531250 4.546875q-3.875000 4.531250 -3.875000 12.437500q0.000000 7.859375 3.875000 12.437500q3.890625 4.562500 10.531250 4.562500q6.640625 0.000000 10.515625 -4.562500q3.875000 -4.578125 3.875000 -12.437500q0.000000 -7.906250 -3.875000 -12.437500q-3.875000 -4.546875 -10.515625 -4.546875M52.593750 -71.296875l0.000000 8.984375q-3.718750 -1.750000 -7.500000 -2.671875q-3.781250 -0.937500 -7.500000 -0.937500q-9.765625 0.000000 -14.921875 6.593750q-5.140625 6.593750 -5.875000 19.921875q2.875000 -4.250000 7.218750 -6.515625q4.359375 -2.265625 9.578125 -2.265625q10.984375 0.000000 17.359375 6.671875q6.375000 6.656250 6.375000 18.125000q0.000000 11.234375 -6.640625 18.031250q-6.640625 6.781250 -17.671875 6.781250q-12.656250 0.000000 -19.343750 -9.687500q-6.687500 -9.703125 -6.687500 -28.109375q0.000000 -17.281250 8.203125 -27.562500q8.203125 -10.281250 22.015625 -10.281250q3.718750 0.000000 7.500000 0.734375q3.781250 0.734375 7.890625 2.187500"/>
</defs>
<g style="fill: #000000; opacity: 1.000000" transform="translate(507.759375,401.706250)scale(0.120000)">
<use xlink:href="#c_cc8d6d580d1b10c8632f7a42cd53db8a"/>
<use xlink:href="#c_7a2040fe3b94fcd41d0a72c84e93b115" x="63.623047"/>
<use xlink:href="#c_7a2040fe3b94fcd41d0a72c84e93b115" x="127.246094"/>
</g>
</g>
</g>
</g>
<g id="matplotlib.axis2">
<g id="ytick1">
<g id="line2d26">
<defs><path id="m3400efa6b1638b3fea9e19e898273957" d="M0.000000 0.000000L4.000000 0.000000"/></defs>
<g ><use style="fill: none; stroke: #000000; stroke-width: 0.500000; stroke-linejoin: round; stroke-linecap: butt;  opacity: 1.000000" xlink:href="#m3400efa6b1638b3fea9e19e898273957" x="72.000000" y="388.800000"/>
</g></g>
<g id="line2d27">
<defs><path id="m20b58b2501143cb5e0a5e8f1ef6f1643" d="M0.000000 0.000000L-4.000000 0.000000"/></defs>
<g ><use style="fill: none; stroke: #000000; stroke-width: 0.500000; stroke-linejoin: round; stroke-linecap: butt;  opacity: 1.000000" xlink:href="#m20b58b2501143cb5e0a5e8f1ef6f1643" x="518.400000" y="388.800000"/>
</g></g>
<g id="text8">
<defs>
<path id="c_6a8d56c819c37117ab4cf023bec22a5a" d="M10.593750 -35.500000l62.593750 0.000000l0.000000 8.296875l-62.593750 0.000000z"/>
</defs>
<g style="fill: #000000; opacity: 1.000000" transform="translate(52.531250,393.167188)scale(0.120000)">
<use xlink:href="#c_6a8d56c819c37117ab4cf023bec22a5a"/>
<use xlink:href="#c_3dcfa38a02242cb63ec6726c6e70be7a" x="83.789062"/>
</g>
</g>
</g>
<g id="ytick2">
<g id="line2d28">
<g ><use style="fill: none; stroke: #000000; stroke-width: 0.500000; stroke-linejoin: round; stroke-linecap: butt;  opacity: 1.000000" xlink:href="#m3400efa6b1638b3fea9e19e898273957" x="72.000000" y="345.600000"/>
</g></g>
<g id="line2d29">
<g ><use style="fill: none; stroke: #000000; stroke-width: 0.500000; stroke-linejoin: round; stroke-linecap: butt;  opacity: 1.000000" xlink:href="#m20b58b2501143cb5e0a5e8f1ef6f1643" x="518.400000" y="345.600000"/>
</g></g>
<g id="text9">
<g style="fill: #000000; opacity: 1.000000" transform="translate(52.765625,350.053125)scale(0.120000)">
<use xlink:href="#c_6a8d56c819c37117ab4cf023bec22a5a"/>
<use xlink:href="#c_ed3f3ed3ebfbd18bcb9c012009a68ad1" x="83.789062"/>
</g>
</g>
</g>
<g id="ytick3">
<g id="line2d30">
<g ><use style="fill: none; stroke: #000000; stroke-width: 0.500000; stroke-linejoin: round; stroke-linecap: butt;  opacity: 1.000000" xlink:href="#m3400efa6b1638b3fea9e19e898273957" x="72.000000" y="302.400000"/>
</g></g>
<g id="line2d31">
<g ><use style="fill: none; stroke: #000000; stroke-width: 0.500000; stroke-linejoin: round; stroke-linecap: butt;  opacity: 1.000000" xlink:href="#m20b58b2501143cb5e0a5e8f1ef6f1643" x="518.400000" y="302.400000"/>
</g></g>
<g id="text10">
<g style="fill: #000000; opacity: 1.000000" transform="translate(52.671875,306.775000)scale(0.120000)">
<use xlink:href="#c_6a8d56c819c37117ab4cf023bec22a5a"/>
<use xlink:href="#c_42baa63129a918535c52adb20d687ea7" x="83.789062"/>
</g>
</g>
</g>
<g id="ytick4">
<g id="line2d32">
<g ><use style="fill: none; stroke: #000000; stroke-width: 0.500000; stroke-linejoin: round; stroke-linecap: butt;  opacity: 1.000000" xlink:href="#m3400efa6b1638b3fea9e19e898273957" x="72.000000" y="259.200000"/>
</g></g>
<g id="line2d33">
<g ><use style="fill: none; stroke: #000000; stroke-width: 0.500000; stroke-linejoin: round; stroke-linecap: butt;  opacity: 1.000000" xlink:href="#m20b58b2501143cb5e0a5e8f1ef6f1643" x="518.400000" y="259.200000"/>
</g></g>
<g id="text11">
<g style="fill: #000000; opacity: 1.000000" transform="translate(61.953125,263.567187)scale(0.120000)">
<use xlink:href="#c_7a2040fe3b94fcd41d0a72c84e93b115"/>
</g>
</g>
</g>
<g id="ytick5">
<g id="line2d34">
<g ><use style="fill: none; stroke: #000000; stroke-width: 0.500000; stroke-linejoin: round; stroke-linecap: butt;  opacity: 1.000000" xlink:href="#m3400efa6b1638b3fea9e19e898273957" x="72.000000" y="216.000000"/>
</g></g>
<g id="line2d35">
<g ><use style="fill: none; stroke: #000000; stroke-width: 0.500000; stroke-linejoin: round; stroke-linecap: butt;  opacity: 1.000000" xlink:href="#m20b58b2501143cb5e0a5e8f1ef6f1643" x="518.400000" y="216.000000"/>
</g></g>
<g id="text12">
<g style="fill: #000000; opacity: 1.000000" transform="translate(62.781250,220.375000)scale(0.120000)">
<use xlink:href="#c_42baa63129a918535c52adb20d687ea7"/>
</g>
</g>
</g>
<g id="ytick6">
<g id="line2d36">
<g ><use style="fill: none; stroke: #000000; stroke-width: 0.500000; stroke-linejoin: round; stroke-linecap: butt;  opacity: 1.000000" xlink:href="#m3400efa6b1638b3fea9e19e898273957" x="72.000000" y="172.800000"/>
</g></g>
<g id="line2d37">
<g ><use style="fill: none; stroke: #000000; stroke-width: 0.500000; stroke-linejoin: round; stroke-linecap: butt;  opacity: 1.000000" xlink:href="#m20b58b2501143cb5e0a5e8f1ef6f1643" x="518.400000" y="172.800000"/>
</g></g>
<g id="text13">
<g style="fill: #000000; opacity: 1.000000" transform="translate(62.437500,177.253125)scale(0.120000)">
<use xlink:href="#c_ed3f3ed3ebfbd18bcb9c012009a68ad1"/>
</g>
</g>
</g>
<g id="ytick7">
<g id="line2d38">
<g ><use style="fill: none; stroke: #000000; stroke-width: 0.500000; stroke-linejoin: round; stroke-linecap: butt;  opacity: 1.000000" xlink:href="#m3400efa6b1638b3fea9e19e898273957" x="72.000000" y="129.600000"/>
</g></g>
<g id="line2d39">
<g ><use style="fill: none; stroke: #000000; stroke-width: 0.500000; stroke-linejoin: round; stroke-linecap: butt;  opacity: 1.000000" xlink:href="#m20b58b2501143cb5e0a5e8f1ef6f1643" x="518.400000" y="129.600000"/>
</g></g>
<g id="text14">
<g style="fill: #000000; opacity: 1.000000" transform="translate(62.250000,133.967187)scale(0.120000)">
<use xlink:href="#c_3dcfa38a02242cb63ec6726c6e70be7a"/>
</g>
</g>
</g>
<g id="ytick8">
<g id="line2d40">
<g ><use style="fill: none; stroke: #000000; stroke-width: 0.500000; stroke-linejoin: round; stroke-linecap: butt;  opacity: 1.000000" xlink:href="#m3400efa6b1638b3fea9e19e898273957" x="72.000000" y="86.400000"/>
</g></g>
<g id="line2d41">
<g ><use style="fill: none; stroke: #000000; stroke-width: 0.500000; stroke-linejoin: round; stroke-linecap: butt;  opacity: 1.000000" xlink:href="#m20b58b2501143cb5e0a5e8f1ef6f1643" x="518.400000" y="86.400000"/>
</g></g>
<g id="text15">
<g style="fill: #000000; opacity: 1.000000" transform="translate(61.625000,90.775000)scale(0.120000)">
<use xlink:href="#c_a0416418d96557a09b8c1332d34883ba"/>
</g>
</g>
</g>
<g id="ytick9">
<g id="line2d42">
<g ><use style="fill: none; stroke: #000000; stroke-width: 0.500000; stroke-linejoin: round; stroke-linecap: butt;  opacity: 1.000000" xlink:href="#m3400efa6b1638b3fea9e19e898273957" x="72.000000" y="43.200000"/>
</g></g>
<g id="line2d43">
<g ><use style="fill: none; stroke: #000000; stroke-width: 0.500000; stroke-linejoin: round; stroke-linecap: butt;  opacity: 1.000000" xlink:href="#m20b58b2501143cb5e0a5e8f1ef6f1643" x="518.400000" y="43.200000"/>
</g></g>
<g id="text16">
<g style="fill: #000000; opacity: 1.000000" transform="translate(62.328125,47.489062)scale(0.120000)">
<use xlink:href="#c_1260a2df50f305f3db244e29828f968e"/>
</g>
</g>
</g>
</g>
<g id="patch3">
<path style="fill: none; stroke: #000000; stroke-width: 1.000000; stroke-linejoin: round; stroke-linecap: square;  opacity: 1.000000"  d="M72.000000 43.200000L518.400000 43.200000"/>
</g>
<g id="patch4">
<path style="fill: none; stroke: #000000; stroke-width: 1.000000; stroke-linejoin: round; stroke-linecap: square;  opacity: 1.000000"  d="M518.400000 388.800000L518.400000 43.200000"/>
</g>
<g id="patch5">
<path style="fill: none; stroke: #000000; stroke-width: 1.000000; stroke-linejoin: round; stroke-linecap: square;  opacity: 1.000000"  d="M72.000000 388.800000L518.400000 388.800000"/>
</g>
<g id="patch6">
<path style="fill: none; stroke: #000000; stroke-width: 1.000000; stroke-linejoin: round; stroke-linecap: square;  opacity: 1.000000"  d="M72.000000 388.800000L72.000000 43.200000"/>
</g>
</g>
</g>
</svg>
