<?xml version="1.0" standalone="no"?>
<!DOCTYPE svg PUBLIC "-//W3C//DTD SVG 1.1//EN"
  "http://www.w3.org/Graphics/SVG/1.1/DTD/svg11.dtd">
<!-- Created with matplotlib (http://matplotlib.sourceforge.net/) -->
<svg width="576pt" height="432pt" viewBox="0 0 576 432"
   xmlns="http://www.w3.org/2000/svg"
   xmlns:xlink="http://www.w3.org/1999/xlink"
   version="1.1"
   id="svg1">
<filter id="colorAdd"><feComposite in="SourceGraphic" in2="BackgroundImage" operator="arithmetic" k2="1" k3="1"/></filter>
<g id="figure1">
<g id="patch1">
<path style="fill: #ffffff; stroke: #ffffff; stroke-width: 1.000000; stroke-linejoin: round; stroke-linecap: square;  opacity: 1.000000"  d="M0.000000 432.000000L576.000000 432.000000L576.000000 0.000000
L0.000000 0.000000z"/>
</g>
<g id="axes1">
<g id="patch2">
<path style="fill: #ffffff; opacity: 1.000000"  d="M72.000000 388.800000L518.400000 388.800000L518.400000 43.200000
L72.000000 43.200000z"/>
</g>
<g id="line2d1">
<defs>
  <clipPath id="p50431ccdcb28178602d99d9270004dde">
<rect x="72.000000" y="43.200000" width="446.400000" height="345.600000"/>
  </clipPath>
</defs><path style="fill: none; stroke: #0000ff; stroke-width: 1.000000; stroke-linejoin: round; stroke-linecap: square;  opacity: 1.000000" clip-path="url(#p50431ccdcb28178602d99d9270004dde)" d="M72.000000 274.265908L72.744000 272.178336L75.720000 262.291706
L76.464000 260.681732L77.208000 259.868016L77.952000 259.980051
L78.696000 261.051403L79.440000 263.010553L80.184000 265.686230
L83.160000 278.216060L83.904000 280.334706L84.648000 281.618847
L85.392000 281.990544L86.136000 281.502829L86.880000 280.300665
L88.368000 276.658644L89.856000 273.167724L90.600000 272.077253
L91.344000 271.568667L92.088000 271.711443L92.832000 272.441036
L93.576000 273.619464L95.808000 277.985125L96.552000 279.124993
L97.296000 279.904730L98.040000 280.278650L98.784000 280.246585
L99.528000 279.843792L100.272000 279.130641L101.760000 277.097966
L103.248000 274.917782L103.992000 274.050253L104.736000 273.477353
L105.480000 273.286566L106.224000 273.528791L106.968000 274.204143
L107.712000 275.253735L110.688000 280.321335L111.432000 280.959260
L112.176000 281.107323L112.920000 280.750212L113.664000 279.933352
L114.408000 278.746026L115.896000 275.715907L117.384000 272.576029
L118.128000 271.226946L118.872000 270.150443L119.616000 269.427412
L120.360000 269.118543L121.104000 269.252293L121.848000 269.813361
L122.592000 270.736179L125.568000 275.357819L126.312000 275.989921
L127.056000 276.200603L127.800000 275.974405L128.544000 275.355322
L130.032000 273.371695L130.776000 272.321808L131.520000 271.485947
L132.264000 271.067402L133.008000 271.261935L133.752000 272.237833
L134.496000 274.114101L135.240000 276.941211L135.984000 280.689839
L137.472000 290.450050L141.192000 317.749768L141.936000 321.814156
L142.680000 324.930185L143.424000 326.934160L144.168000 327.692404
L144.912000 327.109685L145.656000 325.138948L146.400000 321.789830
L147.144000 317.134131L147.888000 311.300642L149.376000 296.972266
L152.352000 266.246372L153.096000 260.180587L153.840000 255.400036
L154.584000 252.115537L155.328000 250.437209L156.072000 250.360442
L156.816000 251.771457L157.560000 254.438902L158.304000 258.044696
L161.280000 274.471577L162.024000 277.451028L162.768000 279.571399
L163.512000 280.787786L164.256000 281.140116L165.000000 280.733608
L165.744000 279.636620L166.488000 278.075123L167.976000 274.075349
L169.464000 269.291337L170.952000 263.632316L172.440000 256.944653
L175.416000 242.734373L176.904000 236.896484L178.392000 232.112979
L180.624000 225.244945L182.112000 219.690390L183.600000 212.993555
L185.832000 201.481078L188.064000 190.122208L189.552000 183.514160
L191.040000 177.850388L192.528000 173.183560L193.272000 171.305795
L194.016000 169.808405L194.760000 168.751126L195.504000 168.176056
L196.248000 168.091827L196.992000 168.462012L197.736000 169.199854
L199.968000 172.089798L200.712000 172.636917L201.456000 172.652985
L202.200000 171.993329L202.944000 170.577036L203.688000 168.403024
L204.432000 165.555624L205.920000 158.545358L207.408000 151.341220
L208.152000 148.231082L208.896000 145.651337L209.640000 143.672983
L210.384000 142.273993L211.128000 141.354218L212.616000 140.272385
L213.360000 139.712860L214.104000 138.898325L214.848000 137.704605
L215.592000 136.076761L217.080000 131.676581L219.312000 124.391849
L220.056000 122.558844L220.800000 121.310257L221.544000 120.739609
L222.288000 120.866089L223.032000 121.633392L223.776000 122.935355
L225.264000 126.432779L226.752000 129.974899L227.496000 131.418723
L228.240000 132.533771L228.984000 133.285712L229.728000 133.674820
L230.472000 133.728735L231.216000 133.492969L231.960000 133.019852
L233.448000 131.523276L234.936000 129.531317L236.424000 127.148007
L240.888000 119.423236L241.632000 118.579889L242.376000 117.998932
L243.120000 117.693292L243.864000 117.654547L244.608000 117.860358
L245.352000 118.284247L246.096000 118.904114L246.840000 119.707251
L248.328000 121.851938L249.816000 124.718573L252.792000 131.089627
L253.536000 132.226620L254.280000 132.951489L255.024000 133.202692
L255.768000 132.960883L256.512000 132.265128L257.256000 131.212299
L259.488000 127.418051L260.232000 126.547128L260.976000 126.129721
L261.720000 126.248538L262.464000 126.926147L263.208000 128.134525
L263.952000 129.768539L266.928000 137.329559L267.672000 138.596411
L268.416000 139.316995L269.160000 139.406964L269.904000 138.832306
L270.648000 137.612347L271.392000 135.818994L272.880000 131.021255
L275.112000 123.265219L276.600000 119.239526L278.088000 116.366547
L281.808000 110.281641L283.296000 107.683099L284.040000 106.625574
L284.784000 105.876068L285.528000 105.512201L286.272000 105.562756
L287.016000 105.999573L287.760000 106.740948L289.992000 109.476654
L290.736000 110.089709L291.480000 110.365979L292.224000 110.246906
L292.968000 109.717108L293.712000 108.802405L294.456000 107.564465
L295.944000 104.489850L297.432000 101.342450L298.176000 100.005890
L298.920000 98.943567L299.664000 98.215173L300.408000 97.850775
L301.152000 97.845099L301.896000 98.155170L303.384000 99.378809
L304.872000 100.618085L305.616000 100.936725L306.360000 100.923999
L307.104000 100.521259L307.848000 99.708435L308.592000 98.505450
L310.080000 95.198639L312.312000 89.706702L313.056000 88.246564
L313.800000 87.137750L314.544000 86.427045L315.288000 86.119336
L316.032000 86.179834L316.776000 86.537054L319.752000 88.674426
L320.496000 88.761200L321.240000 88.479108L321.984000 87.817273
L322.728000 86.795691L324.216000 84.005804L325.704000 81.006024
L326.448000 79.728113L327.192000 78.732147L327.936000 78.094666
L328.680000 77.870856L329.424000 78.097009L330.168000 78.787299
L330.912000 79.926672L331.656000 81.494952L332.400000 83.443414
L333.888000 88.208112L337.608000 101.103314L338.352000 103.106012
L339.096000 104.722137L339.840000 105.896979L340.584000 106.600781
L341.328000 106.831384L342.072000 106.613635L342.816000 105.995929
L343.560000 105.044769L345.048000 102.462103L347.280000 98.159857
L348.768000 95.905042L349.512000 95.150299L350.256000 94.702094
L351.000000 94.580566L351.744000 94.780518L352.488000 95.269189
L353.232000 95.989105L354.720000 97.824646L356.952000 100.580438
L358.440000 102.034534L359.928000 103.150818L363.648000 105.370862
L364.392000 106.069574L365.136000 106.989276L365.880000 108.167047
L367.368000 111.293445L369.600000 117.112390L371.832000 122.718585
L374.064000 128.102444L378.528000 139.643619L379.272000 140.907816
L380.016000 141.776312L380.760000 142.237225L381.504000 142.315109
L382.248000 142.060043L382.992000 141.534622L384.480000 139.914597
L387.456000 136.079416L388.200000 135.430518L388.944000 135.084659
L389.688000 135.109158L390.432000 135.529166L391.176000 136.315329
L392.664000 138.616406L394.152000 140.987787L394.896000 141.895102
L395.640000 142.531842L396.384000 142.912143L397.872000 143.183588
L399.360000 143.437427L400.104000 143.743652L400.848000 144.206351
L402.336000 145.513751L404.568000 147.936978L407.544000 151.562613
L409.776000 154.313306L411.264000 155.679794L412.008000 156.123074
L412.752000 156.401450L413.496000 156.528058L414.984000 156.399911
L417.216000 156.104956L417.960000 156.112354L419.448000 156.455127
L420.936000 157.129276L422.424000 158.073029L423.912000 159.393475
L424.656000 160.310083L425.400000 161.519321L426.144000 163.079718
L426.888000 165.047708L427.632000 167.384280L429.120000 173.048264
L431.352000 181.980954L432.840000 186.649860L433.584000 188.429297
L435.072000 191.082394L438.048000 195.433749L439.536000 198.124818
L441.024000 201.368028L443.256000 206.522255L444.000000 208.014619
L444.744000 209.243999L445.488000 210.090770L446.232000 210.537447
L446.976000 210.565956L447.720000 210.215121L448.464000 209.532216
L449.952000 207.549715L452.184000 204.352354L452.928000 203.514061
L453.672000 202.884654L454.416000 202.470140L455.160000 202.302567
L455.904000 202.391835L456.648000 202.733253L457.392000 203.313963
L458.880000 204.972752L464.832000 212.905298L466.320000 215.251369
L467.064000 216.245924L467.808000 216.884431L468.552000 217.027927
L469.296000 216.576219L470.040000 215.487662L470.784000 213.803856
L472.272000 209.150313L474.504000 201.729945L475.248000 199.831393
L475.992000 198.421587L476.736000 197.620619L477.480000 197.446683
L478.224000 197.903499L478.968000 198.943831L479.712000 200.503175
L480.456000 202.438637L480.456000 202.438637"/>
</g>
<g id="line2d2">
<path style="fill: none; stroke: #008000; stroke-width: 1.000000; stroke-linejoin: round; stroke-linecap: square;  opacity: 1.000000" clip-path="url(#p50431ccdcb28178602d99d9270004dde)" d="M72.000000 288.446003L74.232000 281.864446L74.976000 280.340976
L75.720000 279.516498L76.464000 279.439729L77.208000 279.946120
L78.696000 281.645554L79.440000 282.211889L80.184000 282.242507
L80.928000 281.613911L81.672000 280.402836L83.160000 276.709975
L84.648000 272.907004L85.392000 271.461175L86.136000 270.480798
L86.880000 269.965873L87.624000 269.847616L88.368000 270.023178
L89.856000 270.872226L91.344000 272.048887L92.832000 273.506943
L95.064000 275.922479L95.808000 276.572098L96.552000 277.039214
L97.296000 277.273531L98.040000 277.231286L98.784000 276.869439
L99.528000 276.143465L100.272000 275.011708L101.016000 273.445439
L101.760000 271.441355L103.248000 266.306691L105.480000 257.942813
L106.224000 255.955479L106.968000 254.863328L107.712000 254.911241
L108.456000 256.236960L109.200000 258.834098L109.944000 262.541740
L111.432000 272.008082L112.920000 281.467110L113.664000 285.236063
L114.408000 288.038973L115.152000 289.808207L115.896000 290.621019
L116.640000 290.668414L117.384000 290.199955L118.872000 288.622143
L121.104000 285.976071L121.848000 284.871784L122.592000 283.539578
L124.080000 280.134271L128.544000 268.278985L129.288000 267.055365
L130.032000 266.339978L130.776000 266.226783L131.520000 266.772528
L132.264000 267.974903L133.008000 269.751716L135.240000 276.298860
L135.984000 277.755390L136.728000 278.222040L137.472000 277.405376
L138.216000 275.147876L138.960000 271.466124L139.704000 266.563428
L142.680000 243.700557L143.424000 239.764753L144.168000 237.308434
L144.912000 236.415905L145.656000 236.961115L146.400000 238.626528
L148.632000 245.436477L149.376000 246.624355L150.120000 246.662460
L150.864000 245.437225L151.608000 243.023589L152.352000 239.659369
L155.328000 224.185693L156.072000 221.543898L156.816000 219.786717
L157.560000 218.930434L158.304000 218.931834L159.048000 219.729103
L159.792000 221.277750L160.536000 223.568669L161.280000 226.626059
L162.024000 230.488271L162.768000 235.178586L164.256000 246.890149
L168.720000 287.349926L170.208000 297.170464L170.952000 300.972173
L171.696000 304.105836L172.440000 306.681042L173.928000 310.718397
L177.648000 319.524733L178.392000 320.945554L179.136000 321.936049
L179.880000 322.320483L180.624000 321.963528L181.368000 320.801134
L182.112000 318.859026L182.856000 316.255605L186.576000 301.391416
L187.320000 299.669016L188.064000 298.691824L188.808000 298.473894
L189.552000 298.971941L190.296000 300.091740L191.040000 301.691467
L193.272000 307.328378L194.016000 308.699730L194.760000 309.470794
L195.504000 309.534471L196.248000 308.884019L196.992000 307.611353
L198.480000 303.916207L199.968000 300.091225L200.712000 298.578484
L201.456000 297.487617L202.200000 296.882684L202.944000 296.795080
L203.688000 297.231942L204.432000 298.181305L205.176000 299.612304
L205.920000 301.470449L207.408000 306.102173L209.640000 313.371414
L210.384000 315.370811L211.128000 317.037813L211.872000 318.376991
L212.616000 319.440518L214.104000 321.064023L216.336000 323.083708
L220.056000 326.107146L220.800000 327.278590L221.544000 328.971043
L222.288000 331.275613L223.032000 334.191724L224.520000 341.322652
L226.008000 348.394945L226.752000 351.131039L227.496000 352.993927
L228.240000 353.840881L228.984000 353.635794L229.728000 352.441946
L230.472000 350.400723L231.216000 347.703360L232.704000 341.184732
L234.192000 334.517651L234.936000 331.575659L235.680000 329.093678
L236.424000 327.189807L237.168000 325.947217L237.912000 325.404245
L238.656000 325.545557L239.400000 326.296971L240.144000 327.524707
L242.376000 331.970998L243.120000 332.868896L243.864000 333.077078
L244.608000 332.435820L245.352000 330.873898L246.096000 328.418362
L246.840000 325.190062L248.328000 317.264900L249.816000 309.182865
L250.560000 305.760658L251.304000 303.050796L252.048000 301.218327
L252.792000 300.375366L253.536000 300.578748L254.280000 301.817834
L255.024000 304.022461L255.768000 307.032367L258.744000 321.057019
L259.488000 323.169383L260.232000 324.063625L260.976000 323.584863
L261.720000 321.730028L262.464000 318.657820L263.952000 310.232227
L265.440000 301.771534L266.184000 298.566747L266.928000 296.345515
L267.672000 295.099059L268.416000 294.648901L269.160000 294.704640
L270.648000 295.076221L271.392000 294.916301L272.136000 294.379520
L272.880000 293.478497L274.368000 290.915042L279.576000 280.446736
L281.064000 276.783707L282.552000 272.516522L284.784000 265.913882
L285.528000 264.224757L286.272000 263.147754L287.016000 262.894495
L287.760000 263.608959L288.504000 265.320351L289.248000 267.914238
L292.224000 280.797663L292.968000 282.875902L293.712000 284.094421
L294.456000 284.523594L295.200000 284.382432L296.688000 283.690916
L297.432000 283.803432L298.176000 284.548101L298.920000 286.022587
L299.664000 288.193166L301.152000 293.952724L302.640000 299.952022
L303.384000 302.429821L304.128000 304.319556L304.872000 305.524093
L305.616000 306.023746L306.360000 305.882192L307.104000 305.246226
L308.592000 303.403761L309.336000 302.720373L310.080000 302.500916
L310.824000 302.874964L311.568000 303.856121L312.312000 305.341003
L315.288000 312.500180L317.520000 317.287083L318.264000 319.390599
L319.008000 321.964609L320.496000 328.397063L322.728000 338.951294
L324.216000 344.945370L325.704000 349.782317L326.448000 351.752335
L327.192000 353.351889L327.936000 354.489203L328.680000 355.071698
L329.424000 355.031113L330.168000 354.349805L330.912000 353.069577
L331.656000 351.297675L333.144000 346.897806L334.632000 342.419719
L336.120000 338.695793L337.608000 335.965686L338.352000 334.982446
L339.096000 334.266701L339.840000 333.826717L340.584000 333.655188
L341.328000 333.716414L342.816000 334.278685L344.304000 335.122055
L345.048000 335.735097L345.792000 336.655971L346.536000 338.074763
L347.280000 340.143690L348.024000 342.951100L348.768000 346.471005
L351.744000 362.825949L352.488000 365.686533L353.232000 367.465750
L353.976000 368.103799L354.720000 367.708282L355.464000 366.521970
L358.440000 360.132376L359.184000 359.202420L360.672000 358.060858
L361.416000 357.463449L362.160000 356.589651L362.904000 355.323807
L363.648000 353.650021L366.624000 345.788113L367.368000 344.644615
L368.112000 344.178035L368.856000 344.396054L369.600000 345.184923
L371.832000 348.720520L372.576000 349.558237L373.320000 350.054214
L374.064000 350.273524L375.552000 350.553653L376.296000 350.999231
L377.040000 351.825357L377.784000 353.047906L380.760000 359.055496
L381.504000 359.895822L382.248000 360.240390L382.992000 360.118121
L383.736000 359.634174L388.200000 355.295993L388.944000 354.187134
L389.688000 352.621454L390.432000 350.527560L391.920000 345.081967
L393.408000 339.600188L394.152000 337.621349L394.896000 336.448924
L395.640000 336.126768L396.384000 336.539406L398.616000 339.335216
L399.360000 339.699825L400.104000 339.413461L400.848000 338.464091
L401.592000 336.994688L403.080000 333.641203L403.824000 332.432913
L404.568000 331.919234L405.312000 332.256432L406.056000 333.446745
L406.800000 335.334668L409.032000 342.539218L409.776000 344.395683
L410.520000 345.573216L411.264000 345.974309L412.008000 345.635609
L412.752000 344.700169L414.984000 340.752205L415.728000 339.969699
L416.472000 339.807381L417.216000 340.366379L417.960000 341.650237
L418.704000 343.577605L420.192000 348.533066L421.680000 353.415463
L422.424000 355.359137L423.168000 356.859824L423.912000 357.941364
L424.656000 358.654807L425.400000 359.090094L426.144000 359.315231
L426.888000 359.372479L427.632000 359.256088L428.376000 358.969501
L429.120000 358.504312L429.864000 357.866464L431.352000 356.169781
L433.584000 353.444412L435.072000 352.032431L436.560000 351.069434
L438.048000 350.504727L438.792000 350.359570L439.536000 350.346533
L440.280000 350.520767L441.024000 350.939081L441.768000 351.609018
L443.256000 353.560062L444.744000 355.599088L445.488000 356.280881
L446.232000 356.620413L446.976000 356.593634L447.720000 356.265381
L449.952000 354.659628L450.696000 354.369974L451.440000 354.363583
L452.184000 354.646582L452.928000 355.166391L455.904000 357.842697
L457.392000 358.725833L458.880000 359.200113L459.624000 359.234271
L460.368000 359.035190L461.112000 358.533774L461.856000 357.653210
L462.600000 356.362564L463.344000 354.690308L464.832000 350.561600
L466.320000 346.383838L467.064000 344.720064L467.808000 343.511284
L468.552000 342.841772L469.296000 342.730998L470.040000 343.129793
L470.784000 343.969661L471.528000 345.158945L473.016000 348.218152
L475.248000 353.167767L475.992000 354.543723L476.736000 355.685284
L477.480000 356.527927L478.224000 357.054501L478.968000 357.293024
L479.712000 357.315839L480.456000 357.206937L480.456000 357.206937"/>
</g>
<g id="matplotlib.axis1">
<g id="xtick1">
<g id="line2d3">
<defs><path id="m30e32995789d870ad79a2e54c91cf9c6" d="M0.000000 0.000000L0.000000 -4.000000"/></defs>
<g ><use style="fill: none; stroke: #000000; stroke-width: 0.500000; stroke-linejoin: round; stroke-linecap: butt;  opacity: 1.000000" xlink:href="#m30e32995789d870ad79a2e54c91cf9c6" x="72.000000" y="388.800000"/>
</g></g>
<g id="line2d4">
<defs><path id="m9281cae24120827b11d5ea8a7ad3e96b" d="M0.000000 0.000000L0.000000 4.000000"/></defs>
<g ><use style="fill: none; stroke: #000000; stroke-width: 0.500000; stroke-linejoin: round; stroke-linecap: butt;  opacity: 1.000000" xlink:href="#m9281cae24120827b11d5ea8a7ad3e96b" x="72.000000" y="43.200000"/>
</g></g>
<g id="text1">
<defs>
<path id="c_7a2040fe3b94fcd41d0a72c84e93b115" d="M31.781250 -66.406250q-7.609375 0.000000 -11.453125 7.500000q-3.828125 7.484375 -3.828125 22.531250q0.000000 14.984375 3.828125 22.484375q3.843750 7.500000 11.453125 7.500000q7.671875 0.000000 11.500000 -7.500000q3.843750 -7.500000 3.843750 -22.484375q0.000000 -15.046875 -3.843750 -22.531250q-3.828125 -7.500000 -11.500000 -7.500000M31.781250 -74.218750q12.265625 0.000000 18.734375 9.703125q6.468750 9.687500 6.468750 28.140625q0.000000 18.406250 -6.468750 28.109375q-6.468750 9.687500 -18.734375 9.687500q-12.250000 0.000000 -18.718750 -9.687500q-6.468750 -9.703125 -6.468750 -28.109375q0.000000 -18.453125 6.468750 -28.140625q6.468750 -9.703125 18.718750 -9.703125"/>
</defs>
<g style="fill: #000000; opacity: 1.000000" transform="translate(68.976562,401.706250)scale(0.120000)">
<use xlink:href="#c_7a2040fe3b94fcd41d0a72c84e93b115"/>
</g>
</g>
</g>
<g id="xtick2">
<g id="line2d5">
<g ><use style="fill: none; stroke: #000000; stroke-width: 0.500000; stroke-linejoin: round; stroke-linecap: butt;  opacity: 1.000000" xlink:href="#m30e32995789d870ad79a2e54c91cf9c6" x="146.400000" y="388.800000"/>
</g></g>
<g id="line2d6">
<g ><use style="fill: none; stroke: #000000; stroke-width: 0.500000; stroke-linejoin: round; stroke-linecap: butt;  opacity: 1.000000" xlink:href="#m9281cae24120827b11d5ea8a7ad3e96b" x="146.400000" y="43.200000"/>
</g></g>
<g id="text2">
<defs>
<path id="c_42baa63129a918535c52adb20d687ea7" d="M12.406250 -8.296875l16.109375 0.000000l0.000000 -55.625000l-17.531250 3.515625l0.000000 -8.984375l17.437500 -3.515625l9.859375 0.000000l0.000000 64.609375l16.109375 0.000000l0.000000 8.296875l-41.984375 0.000000z"/>
</defs>
<g style="fill: #000000; opacity: 1.000000" transform="translate(135.993750,401.706250)scale(0.120000)">
<use xlink:href="#c_42baa63129a918535c52adb20d687ea7"/>
<use xlink:href="#c_7a2040fe3b94fcd41d0a72c84e93b115" x="63.623047"/>
<use xlink:href="#c_7a2040fe3b94fcd41d0a72c84e93b115" x="127.246094"/>
</g>
</g>
</g>
<g id="xtick3">
<g id="line2d7">
<g ><use style="fill: none; stroke: #000000; stroke-width: 0.500000; stroke-linejoin: round; stroke-linecap: butt;  opacity: 1.000000" xlink:href="#m30e32995789d870ad79a2e54c91cf9c6" x="220.800000" y="388.800000"/>
</g></g>
<g id="line2d8">
<g ><use style="fill: none; stroke: #000000; stroke-width: 0.500000; stroke-linejoin: round; stroke-linecap: butt;  opacity: 1.000000" xlink:href="#m9281cae24120827b11d5ea8a7ad3e96b" x="220.800000" y="43.200000"/>
</g></g>
<g id="text3">
<defs>
<path id="c_ed3f3ed3ebfbd18bcb9c012009a68ad1" d="M19.187500 -8.296875l34.421875 0.000000l0.000000 8.296875l-46.281250 0.000000l0.000000 -8.296875q5.609375 -5.812500 15.296875 -15.593750q9.703125 -9.796875 12.187500 -12.640625q4.734375 -5.312500 6.609375 -9.000000q1.890625 -3.687500 1.890625 -7.250000q0.000000 -5.812500 -4.078125 -9.468750q-4.078125 -3.671875 -10.625000 -3.671875q-4.640625 0.000000 -9.796875 1.609375q-5.140625 1.609375 -11.000000 4.890625l0.000000 -9.968750q5.953125 -2.390625 11.125000 -3.609375q5.187500 -1.218750 9.484375 -1.218750q11.328125 0.000000 18.062500 5.671875q6.734375 5.656250 6.734375 15.125000q0.000000 4.500000 -1.687500 8.531250q-1.671875 4.015625 -6.125000 9.484375q-1.218750 1.421875 -7.765625 8.187500q-6.531250 6.765625 -18.453125 18.921875"/>
</defs>
<g style="fill: #000000; opacity: 1.000000" transform="translate(210.175000,401.706250)scale(0.120000)">
<use xlink:href="#c_ed3f3ed3ebfbd18bcb9c012009a68ad1"/>
<use xlink:href="#c_7a2040fe3b94fcd41d0a72c84e93b115" x="63.623047"/>
<use xlink:href="#c_7a2040fe3b94fcd41d0a72c84e93b115" x="127.246094"/>
</g>
</g>
</g>
<g id="xtick4">
<g id="line2d9">
<g ><use style="fill: none; stroke: #000000; stroke-width: 0.500000; stroke-linejoin: round; stroke-linecap: butt;  opacity: 1.000000" xlink:href="#m30e32995789d870ad79a2e54c91cf9c6" x="295.200000" y="388.800000"/>
</g></g>
<g id="line2d10">
<g ><use style="fill: none; stroke: #000000; stroke-width: 0.500000; stroke-linejoin: round; stroke-linecap: butt;  opacity: 1.000000" xlink:href="#m9281cae24120827b11d5ea8a7ad3e96b" x="295.200000" y="43.200000"/>
</g></g>
<g id="text4">
<defs>
<path id="c_3dcfa38a02242cb63ec6726c6e70be7a" d="M40.578125 -39.312500q7.078125 1.515625 11.046875 6.312500q3.984375 4.781250 3.984375 11.812500q0.000000 10.781250 -7.421875 16.703125q-7.421875 5.906250 -21.093750 5.906250q-4.578125 0.000000 -9.437500 -0.906250q-4.859375 -0.906250 -10.031250 -2.718750l0.000000 -9.515625q4.093750 2.390625 8.968750 3.609375q4.890625 1.218750 10.218750 1.218750q9.265625 0.000000 14.125000 -3.656250q4.859375 -3.656250 4.859375 -10.640625q0.000000 -6.453125 -4.515625 -10.078125q-4.515625 -3.640625 -12.562500 -3.640625l-8.500000 0.000000l0.000000 -8.109375l8.890625 0.000000q7.265625 0.000000 11.125000 -2.906250q3.859375 -2.906250 3.859375 -8.375000q0.000000 -5.609375 -3.984375 -8.609375q-3.968750 -3.015625 -11.390625 -3.015625q-4.062500 0.000000 -8.703125 0.890625q-4.640625 0.875000 -10.203125 2.718750l0.000000 -8.781250q5.625000 -1.562500 10.531250 -2.343750q4.906250 -0.781250 9.250000 -0.781250q11.234375 0.000000 17.765625 5.109375q6.546875 5.093750 6.546875 13.781250q0.000000 6.062500 -3.468750 10.234375q-3.468750 4.171875 -9.859375 5.781250"/>
</defs>
<g style="fill: #000000; opacity: 1.000000" transform="translate(284.598437,401.706250)scale(0.120000)">
<use xlink:href="#c_3dcfa38a02242cb63ec6726c6e70be7a"/>
<use xlink:href="#c_7a2040fe3b94fcd41d0a72c84e93b115" x="63.623047"/>
<use xlink:href="#c_7a2040fe3b94fcd41d0a72c84e93b115" x="127.246094"/>
</g>
</g>
</g>
<g id="xtick5">
<g id="line2d11">
<g ><use style="fill: none; stroke: #000000; stroke-width: 0.500000; stroke-linejoin: round; stroke-linecap: butt;  opacity: 1.000000" xlink:href="#m30e32995789d870ad79a2e54c91cf9c6" x="369.600000" y="388.800000"/>
</g></g>
<g id="line2d12">
<g ><use style="fill: none; stroke: #000000; stroke-width: 0.500000; stroke-linejoin: round; stroke-linecap: butt;  opacity: 1.000000" xlink:href="#m9281cae24120827b11d5ea8a7ad3e96b" x="369.600000" y="43.200000"/>
</g></g>
<g id="text5">
<defs>
<path id="c_a0416418d96557a09b8c1332d34883ba" d="M37.796875 -64.312500l-24.906250 38.921875l24.906250 0.000000zM35.203125 -72.906250l12.406250 0.000000l0.000000 47.515625l10.406250 0.000000l0.000000 8.203125l-10.406250 0.000000l0.000000 17.187500l-9.812500 0.000000l0.000000 -17.187500l-32.906250 0.000000l0.000000 -9.515625z"/>
</defs>
<g style="fill: #000000; opacity: 1.000000" transform="translate(358.834375,401.706250)scale(0.120000)">
<use xlink:href="#c_a0416418d96557a09b8c1332d34883ba"/>
<use xlink:href="#c_7a2040fe3b94fcd41d0a72c84e93b115" x="63.623047"/>
<use xlink:href="#c_7a2040fe3b94fcd41d0a72c84e93b115" x="127.246094"/>
</g>
</g>
</g>
<g id="xtick6">
<g id="line2d13">
<g ><use style="fill: none; stroke: #000000; stroke-width: 0.500000; stroke-linejoin: round; stroke-linecap: butt;  opacity: 1.000000" xlink:href="#m30e32995789d870ad79a2e54c91cf9c6" x="444.000000" y="388.800000"/>
</g></g>
<g id="line2d14">
<g ><use style="fill: none; stroke: #000000; stroke-width: 0.500000; stroke-linejoin: round; stroke-linecap: butt;  opacity: 1.000000" xlink:href="#m9281cae24120827b11d5ea8a7ad3e96b" x="444.000000" y="43.200000"/>
</g></g>
<g id="text6">
<defs>
<path id="c_1260a2df50f305f3db244e29828f968e" d="M10.796875 -72.906250l38.718750 0.000000l0.000000 8.312500l-29.687500 0.000000l0.000000 17.859375q2.140625 -0.734375 4.281250 -1.093750q2.156250 -0.359375 4.312500 -0.359375q12.203125 0.000000 19.328125 6.687500q7.140625 6.687500 7.140625 18.109375q0.000000 11.765625 -7.328125 18.296875q-7.328125 6.515625 -20.656250 6.515625q-4.593750 0.000000 -9.359375 -0.781250q-4.750000 -0.781250 -9.828125 -2.343750l0.000000 -9.921875q4.390625 2.390625 9.078125 3.562500q4.687500 1.171875 9.906250 1.171875q8.453125 0.000000 13.375000 -4.437500q4.937500 -4.437500 4.937500 -12.062500q0.000000 -7.609375 -4.937500 -12.046875q-4.921875 -4.453125 -13.375000 -4.453125q-3.953125 0.000000 -7.890625 0.875000q-3.921875 0.875000 -8.015625 2.734375z"/>
</defs>
<g style="fill: #000000; opacity: 1.000000" transform="translate(433.398438,401.706250)scale(0.120000)">
<use xlink:href="#c_1260a2df50f305f3db244e29828f968e"/>
<use xlink:href="#c_7a2040fe3b94fcd41d0a72c84e93b115" x="63.623047"/>
<use xlink:href="#c_7a2040fe3b94fcd41d0a72c84e93b115" x="127.246094"/>
</g>
</g>
</g>
<g id="xtick7">
<g id="line2d15">
<g ><use style="fill: none; stroke: #000000; stroke-width: 0.500000; stroke-linejoin: round; stroke-linecap: butt;  opacity: 1.000000" xlink:href="#m30e32995789d870ad79a2e54c91cf9c6" x="518.400000" y="388.800000"/>
</g></g>
<g id="line2d16">
<g ><use style="fill: none; stroke: #000000; stroke-width: 0.500000; stroke-linejoin: round; stroke-linecap: butt;  opacity: 1.000000" xlink:href="#m9281cae24120827b11d5ea8a7ad3e96b" x="518.400000" y="43.200000"/>
</g></g>
<g id="text7">
<defs>
<path id="c_cc8d6d580d1b10c8632f7a42cd53db8a" d="M33.015625 -40.375000q-6.640625 0.000000 -10.531250 4.546875q-3.875000 4.531250 -3.875000 12.437500q0.000000 7.859375 3.875000 12.437500q3.890625 4.562500 10.531250 4.562500q6.640625 0.000000 10.515625 -4.562500q3.875000 -4.578125 3.875000 -12.437500q0.000000 -7.906250 -3.875000 -12.437500q-3.875000 -4.546875 -10.515625 -4.546875M52.593750 -71.296875l0.000000 8.984375q-3.718750 -1.750000 -7.500000 -2.671875q-3.781250 -0.937500 -7.500000 -0.937500q-9.765625 0.000000 -14.921875 6.593750q-5.140625 6.593750 -5.875000 19.921875q2.875000 -4.250000 7.218750 -6.515625q4.359375 -2.265625 9.578125 -2.265625q10.984375 0.000000 17.359375 6.671875q6.375000 6.656250 6.375000 18.125000q0.000000 11.234375 -6.640625 18.031250q-6.640625 6.781250 -17.671875 6.781250q-12.656250 0.000000 -19.343750 -9.687500q-6.687500 -9.703125 -6.687500 -28.109375q0.000000 -17.281250 8.203125 -27.562500q8.203125 -10.281250 22.015625 -10.281250q3.718750 0.000000 7.500000 0.734375q3.781250 0.734375 7.890625 2.187500"/>
</defs>
<g style="fill: #000000; opacity: 1.000000" transform="translate(507.759375,401.706250)scale(0.120000)">
<use xlink:href="#c_cc8d6d580d1b10c8632f7a42cd53db8a"/>
<use xlink:href="#c_7a2040fe3b94fcd41d0a72c84e93b115" x="63.623047"/>
<use xlink:href="#c_7a2040fe3b94fcd41d0a72c84e93b115" x="127.246094"/>
</g>
</g>
</g>
</g>
<g id="matplotlib.axis2">
<g id="ytick1">
<g id="line2d17">
<defs><path id="m3400efa6b1638b3fea9e19e898273957" d="M0.000000 0.000000L4.000000 0.000000"/></defs>
<g ><use style="fill: none; stroke: #000000; stroke-width: 0.500000; stroke-linejoin: round; stroke-linecap: butt;  opacity: 1.000000" xlink:href="#m3400efa6b1638b3fea9e19e898273957" x="72.000000" y="388.800000"/>
</g></g>
<g id="line2d18">
<defs><path id="m20b58b2501143cb5e0a5e8f1ef6f1643" d="M0.000000 0.000000L-4.000000 0.000000"/></defs>
<g ><use style="fill: none; stroke: #000000; stroke-width: 0.500000; stroke-linejoin: round; stroke-linecap: butt;  opacity: 1.000000" xlink:href="#m20b58b2501143cb5e0a5e8f1ef6f1643" x="518.400000" y="388.800000"/>
</g></g>
<g id="text8">
<defs>
<path id="c_6a8d56c819c37117ab4cf023bec22a5a" d="M10.593750 -35.500000l62.593750 0.000000l0.000000 8.296875l-62.593750 0.000000z"/>
</defs>
<g style="fill: #000000; opacity: 1.000000" transform="translate(52.531250,393.167188)scale(0.120000)">
<use xlink:href="#c_6a8d56c819c37117ab4cf023bec22a5a"/>
<use xlink:href="#c_3dcfa38a02242cb63ec6726c6e70be7a" x="83.789062"/>
</g>
</g>
</g>
<g id="ytick2">
<g id="line2d19">
<g ><use style="fill: none; stroke: #000000; stroke-width: 0.500000; stroke-linejoin: round; stroke-linecap: butt;  opacity: 1.000000" xlink:href="#m3400efa6b1638b3fea9e19e898273957" x="72.000000" y="350.400000"/>
</g></g>
<g id="line2d20">
<g ><use style="fill: none; stroke: #000000; stroke-width: 0.500000; stroke-linejoin: round; stroke-linecap: butt;  opacity: 1.000000" xlink:href="#m20b58b2501143cb5e0a5e8f1ef6f1643" x="518.400000" y="350.400000"/>
</g></g>
<g id="text9">
<g style="fill: #000000; opacity: 1.000000" transform="translate(52.765625,354.853125)scale(0.120000)">
<use xlink:href="#c_6a8d56c819c37117ab4cf023bec22a5a"/>
<use xlink:href="#c_ed3f3ed3ebfbd18bcb9c012009a68ad1" x="83.789062"/>
</g>
</g>
</g>
<g id="ytick3">
<g id="line2d21">
<g ><use style="fill: none; stroke: #000000; stroke-width: 0.500000; stroke-linejoin: round; stroke-linecap: butt;  opacity: 1.000000" xlink:href="#m3400efa6b1638b3fea9e19e898273957" x="72.000000" y="312.000000"/>
</g></g>
<g id="line2d22">
<g ><use style="fill: none; stroke: #000000; stroke-width: 0.500000; stroke-linejoin: round; stroke-linecap: butt;  opacity: 1.000000" xlink:href="#m20b58b2501143cb5e0a5e8f1ef6f1643" x="518.400000" y="312.000000"/>
</g></g>
<g id="text10">
<g style="fill: #000000; opacity: 1.000000" transform="translate(52.671875,316.375000)scale(0.120000)">
<use xlink:href="#c_6a8d56c819c37117ab4cf023bec22a5a"/>
<use xlink:href="#c_42baa63129a918535c52adb20d687ea7" x="83.789062"/>
</g>
</g>
</g>
<g id="ytick4">
<g id="line2d23">
<g ><use style="fill: none; stroke: #000000; stroke-width: 0.500000; stroke-linejoin: round; stroke-linecap: butt;  opacity: 1.000000" xlink:href="#m3400efa6b1638b3fea9e19e898273957" x="72.000000" y="273.600000"/>
</g></g>
<g id="line2d24">
<g ><use style="fill: none; stroke: #000000; stroke-width: 0.500000; stroke-linejoin: round; stroke-linecap: butt;  opacity: 1.000000" xlink:href="#m20b58b2501143cb5e0a5e8f1ef6f1643" x="518.400000" y="273.600000"/>
</g></g>
<g id="text11">
<g style="fill: #000000; opacity: 1.000000" transform="translate(61.953125,277.967188)scale(0.120000)">
<use xlink:href="#c_7a2040fe3b94fcd41d0a72c84e93b115"/>
</g>
</g>
</g>
<g id="ytick5">
<g id="line2d25">
<g ><use style="fill: none; stroke: #000000; stroke-width: 0.500000; stroke-linejoin: round; stroke-linecap: butt;  opacity: 1.000000" xlink:href="#m3400efa6b1638b3fea9e19e898273957" x="72.000000" y="235.200000"/>
</g></g>
<g id="line2d26">
<g ><use style="fill: none; stroke: #000000; stroke-width: 0.500000; stroke-linejoin: round; stroke-linecap: butt;  opacity: 1.000000" xlink:href="#m20b58b2501143cb5e0a5e8f1ef6f1643" x="518.400000" y="235.200000"/>
</g></g>
<g id="text12">
<g style="fill: #000000; opacity: 1.000000" transform="translate(62.781250,239.575000)scale(0.120000)">
<use xlink:href="#c_42baa63129a918535c52adb20d687ea7"/>
</g>
</g>
</g>
<g id="ytick6">
<g id="line2d27">
<g ><use style="fill: none; stroke: #000000; stroke-width: 0.500000; stroke-linejoin: round; stroke-linecap: butt;  opacity: 1.000000" xlink:href="#m3400efa6b1638b3fea9e19e898273957" x="72.000000" y="196.800000"/>
</g></g>
<g id="line2d28">
<g ><use style="fill: none; stroke: #000000; stroke-width: 0.500000; stroke-linejoin: round; stroke-linecap: butt;  opacity: 1.000000" xlink:href="#m20b58b2501143cb5e0a5e8f1ef6f1643" x="518.400000" y="196.800000"/>
</g></g>
<g id="text13">
<g style="fill: #000000; opacity: 1.000000" transform="translate(62.437500,201.253125)scale(0.120000)">
<use xlink:href="#c_ed3f3ed3ebfbd18bcb9c012009a68ad1"/>
</g>
</g>
</g>
<g id="ytick7">
<g id="line2d29">
<g ><use style="fill: none; stroke: #000000; stroke-width: 0.500000; stroke-linejoin: round; stroke-linecap: butt;  opacity: 1.000000" xlink:href="#m3400efa6b1638b3fea9e19e898273957" x="72.000000" y="158.400000"/>
</g></g>
<g id="line2d30">
<g ><use style="fill: none; stroke: #000000; stroke-width: 0.500000; stroke-linejoin: round; stroke-linecap: butt;  opacity: 1.000000" xlink:href="#m20b58b2501143cb5e0a5e8f1ef6f1643" x="518.400000" y="158.400000"/>
</g></g>
<g id="text14">
<g style="fill: #000000; opacity: 1.000000" transform="translate(62.250000,162.767188)scale(0.120000)">
<use xlink:href="#c_3dcfa38a02242cb63ec6726c6e70be7a"/>
</g>
</g>
</g>
<g id="ytick8">
<g id="line2d31">
<g ><use style="fill: none; stroke: #000000; stroke-width: 0.500000; stroke-linejoin: round; stroke-linecap: butt;  opacity: 1.000000" xlink:href="#m3400efa6b1638b3fea9e19e898273957" x="72.000000" y="120.000000"/>
</g></g>
<g id="line2d32">
<g ><use style="fill: none; stroke: #000000; stroke-width: 0.500000; stroke-linejoin: round; stroke-linecap: butt;  opacity: 1.000000" xlink:href="#m20b58b2501143cb5e0a5e8f1ef6f1643" x="518.400000" y="120.000000"/>
</g></g>
<g id="text15">
<g style="fill: #000000; opacity: 1.000000" transform="translate(61.625000,124.375000)scale(0.120000)">
<use xlink:href="#c_a0416418d96557a09b8c1332d34883ba"/>
</g>
</g>
</g>
<g id="ytick9">
<g id="line2d33">
<g ><use style="fill: none; stroke: #000000; stroke-width: 0.500000; stroke-linejoin: round; stroke-linecap: butt;  opacity: 1.000000" xlink:href="#m3400efa6b1638b3fea9e19e898273957" x="72.000000" y="81.600000"/>
</g></g>
<g id="line2d34">
<g ><use style="fill: none; stroke: #000000; stroke-width: 0.500000; stroke-linejoin: round; stroke-linecap: butt;  opacity: 1.000000" xlink:href="#m20b58b2501143cb5e0a5e8f1ef6f1643" x="518.400000" y="81.600000"/>
</g></g>
<g id="text16">
<g style="fill: #000000; opacity: 1.000000" transform="translate(62.328125,85.889063)scale(0.120000)">
<use xlink:href="#c_1260a2df50f305f3db244e29828f968e"/>
</g>
</g>
</g>
<g id="ytick10">
<g id="line2d35">
<g ><use style="fill: none; stroke: #000000; stroke-width: 0.500000; stroke-linejoin: round; stroke-linecap: butt;  opacity: 1.000000" xlink:href="#m3400efa6b1638b3fea9e19e898273957" x="72.000000" y="43.200000"/>
</g></g>
<g id="line2d36">
<g ><use style="fill: none; stroke: #000000; stroke-width: 0.500000; stroke-linejoin: round; stroke-linecap: butt;  opacity: 1.000000" xlink:href="#m20b58b2501143cb5e0a5e8f1ef6f1643" x="518.400000" y="43.200000"/>
</g></g>
<g id="text17">
<g style="fill: #000000; opacity: 1.000000" transform="translate(61.968750,47.567188)scale(0.120000)">
<use xlink:href="#c_cc8d6d580d1b10c8632f7a42cd53db8a"/>
</g>
</g>
</g>
</g>
<g id="patch3">
<path style="fill: none; stroke: #000000; stroke-width: 1.000000; stroke-linejoin: round; stroke-linecap: square;  opacity: 1.000000"  d="M72.000000 43.200000L518.400000 43.200000"/>
</g>
<g id="patch4">
<path style="fill: none; stroke: #000000; stroke-width: 1.000000; stroke-linejoin: round; stroke-linecap: square;  opacity: 1.000000"  d="M518.400000 388.800000L518.400000 43.200000"/>
</g>
<g id="patch5">
<path style="fill: none; stroke: #000000; stroke-width: 1.000000; stroke-linejoin: round; stroke-linecap: square;  opacity: 1.000000"  d="M72.000000 388.800000L518.400000 388.800000"/>
</g>
<g id="patch6">
<path style="fill: none; stroke: #000000; stroke-width: 1.000000; stroke-linejoin: round; stroke-linecap: square;  opacity: 1.000000"  d="M72.000000 388.800000L72.000000 43.200000"/>
</g>
</g>
</g>
</svg>
