<?xml version="1.0" standalone="no"?>
<!DOCTYPE svg PUBLIC "-//W3C//DTD SVG 1.1//EN"
  "http://www.w3.org/Graphics/SVG/1.1/DTD/svg11.dtd">
<!-- Created with matplotlib (http://matplotlib.sourceforge.net/) -->
<svg width="576pt" height="432pt" viewBox="0 0 576 432"
   xmlns="http://www.w3.org/2000/svg"
   xmlns:xlink="http://www.w3.org/1999/xlink"
   version="1.1"
   id="svg1">
<filter id="colorAdd"><feComposite in="SourceGraphic" in2="BackgroundImage" operator="arithmetic" k2="1" k3="1"/></filter>
<g id="figure1">
<g id="patch1">
<path style="fill: #ffffff; stroke: #ffffff; stroke-width: 1.000000; stroke-linejoin: round; stroke-linecap: square;  opacity: 1.000000"  d="M0.000000 432.000000L576.000000 432.000000L576.000000 0.000000
L0.000000 0.000000z"/>
</g>
<g id="axes1">
<g id="patch2">
<path style="fill: #ffffff; opacity: 1.000000"  d="M72.000000 388.800000L518.400000 388.800000L518.400000 43.200000
L72.000000 43.200000z"/>
</g>
<g id="line2d1">
<defs>
  <clipPath id="p50431ccdcb28178602d99d9270004dde">
<rect x="72.000000" y="43.200000" width="446.400000" height="345.600000"/>
  </clipPath>
</defs><path style="fill: none; stroke: #0000ff; stroke-width: 1.000000; stroke-linejoin: round; stroke-linecap: square;  opacity: 1.000000" clip-path="url(#p50431ccdcb28178602d99d9270004dde)" d="M72.000000 208.162805L74.232000 196.316004L74.976000 193.573757
L75.720000 192.089696L76.464000 191.951512L77.208000 192.863015
L78.696000 195.921996L79.440000 196.941400L80.184000 196.996512
L80.928000 195.865040L81.672000 193.685105L82.416000 190.611686
L84.648000 180.192606L85.392000 177.590115L86.136000 175.825436
L86.880000 174.898572L87.624000 174.685710L88.368000 175.001720
L89.112000 175.662216L90.600000 177.534117L92.088000 179.894133
L95.808000 186.789776L96.552000 187.630585L97.296000 188.052357
L98.040000 187.976315L98.784000 187.324990L99.528000 186.018237
L100.272000 183.981075L101.016000 181.161791L101.760000 177.554438
L103.248000 168.312043L105.480000 153.257063L106.224000 149.679862
L106.968000 147.713990L107.712000 147.800233L108.456000 150.186528
L109.200000 154.861376L109.944000 161.535132L111.432000 178.574547
L112.920000 195.600798L113.664000 202.384913L114.408000 207.430151
L115.152000 210.614772L115.896000 212.077833L116.640000 212.163146
L117.384000 211.319919L118.872000 208.479858L121.104000 203.716928
L121.848000 201.729211L122.592000 199.331241L124.080000 193.201689
L126.312000 181.930527L127.800000 174.778222L128.544000 171.862174
L129.288000 169.659658L130.032000 168.371960L130.776000 168.168210
L131.520000 169.150551L132.264000 171.314826L133.008000 174.513088
L135.240000 186.297948L135.984000 188.919703L136.728000 189.759673
L137.472000 188.289677L138.216000 184.226177L138.960000 177.599024
L139.704000 168.774170L142.680000 127.621003L143.424000 120.536555
L144.168000 116.115182L144.912000 114.508629L145.656000 115.490007
L146.400000 118.487751L148.632000 130.745658L149.376000 132.883840
L150.120000 132.952427L150.864000 130.747006L151.608000 126.402459
L152.352000 120.346864L155.328000 92.494248L156.072000 87.739016
L156.816000 84.576091L157.560000 83.034781L158.304000 83.037302
L159.048000 84.472386L159.792000 87.259949L160.536000 91.383604
L161.280000 96.886906L162.024000 103.838887L162.768000 112.281454
L164.256000 133.362268L168.720000 206.189867L170.208000 223.866836
L170.952000 230.709912L171.696000 236.350504L172.440000 240.985876
L173.928000 248.253114L177.648000 264.104519L178.392000 266.661996
L179.136000 268.444888L179.880000 269.136870L180.624000 268.494351
L181.368000 266.402041L182.112000 262.906246L182.856000 258.220088
L185.832000 235.764708L186.576000 231.464549L187.320000 228.364229
L188.064000 226.605282L188.808000 226.213009L189.552000 227.109493
L190.296000 229.125133L191.040000 232.004640L193.272000 242.151080
L194.016000 244.619514L194.760000 246.007429L195.504000 246.122048
L196.248000 244.951234L196.992000 242.660436L198.480000 236.009173
L199.968000 229.124206L200.712000 226.401270L201.456000 224.437710
L202.200000 223.348832L202.944000 223.191144L203.688000 223.977496
L204.432000 225.686349L205.176000 228.262147L205.920000 231.606808
L207.408000 239.943911L209.640000 253.028546L210.384000 256.627461
L211.128000 259.628063L211.872000 262.038584L212.616000 263.952933
L214.104000 266.875241L216.336000 270.510675L217.824000 272.532231
L219.312000 274.516164L220.056000 275.952862L220.800000 278.061463
L221.544000 281.107878L222.288000 285.256104L223.032000 290.505103
L224.520000 303.340773L226.008000 316.070901L226.752000 320.995871
L227.496000 324.349069L228.240000 325.873586L228.984000 325.504429
L229.728000 323.355504L230.472000 319.681302L231.216000 314.826048
L232.704000 303.092518L234.192000 291.091772L234.936000 285.796187
L235.680000 281.328621L236.424000 277.901653L237.168000 275.664990
L237.912000 274.687641L238.656000 274.942002L239.400000 276.294548
L240.144000 278.504473L242.376000 286.507796L243.120000 288.124014
L243.864000 288.498741L244.608000 287.344476L245.352000 284.533017
L246.096000 280.113052L246.840000 274.302112L248.328000 260.036820
L249.816000 245.489157L250.560000 239.329185L251.304000 234.451432
L252.048000 231.152988L252.792000 229.635659L253.536000 230.001747
L254.280000 232.232102L255.024000 236.200430L255.768000 241.618260
L258.744000 266.862634L259.488000 270.664890L260.232000 272.274524
L260.976000 271.412754L261.720000 268.074050L262.464000 262.544076
L263.952000 247.378008L265.440000 232.148761L266.184000 226.380144
L266.928000 222.381926L267.672000 220.138305L268.416000 219.328021
L269.160000 219.428352L269.904000 219.855101L270.648000 220.097197
L271.392000 219.809342L272.136000 218.843137L272.880000 217.221295
L274.368000 212.607076L279.576000 193.764124L281.064000 187.170673
L282.552000 179.489739L284.784000 167.604988L285.528000 164.564562
L286.272000 162.625957L287.016000 162.170091L287.760000 163.456126
L288.504000 166.536632L289.248000 171.205628L292.224000 194.395793
L292.968000 198.136624L293.712000 200.329958L294.456000 201.102469
L295.200000 200.848378L295.944000 200.139125L296.688000 199.603649
L297.432000 199.806178L298.176000 201.146583L298.920000 203.800656
L299.664000 207.707699L301.152000 218.074904L302.640000 228.873639
L303.384000 233.333678L304.128000 236.735202L304.872000 238.903367
L305.616000 239.802744L306.360000 239.547946L307.104000 238.403206
L308.592000 235.086770L309.336000 233.856671L310.080000 233.461649
L310.824000 234.134935L311.568000 235.901018L312.312000 238.573806
L315.288000 251.460324L317.520000 260.076750L318.264000 263.863078
L319.008000 268.496296L320.496000 280.074713L322.728000 299.072329
L324.216000 309.861667L325.704000 318.568170L326.448000 322.114202
L327.192000 324.993400L327.936000 327.040565L328.680000 328.089056
L329.424000 328.016003L330.168000 326.789648L330.912000 324.485239
L331.656000 321.295814L333.144000 313.376050L334.632000 305.315494
L336.120000 298.612428L336.864000 295.932986L337.608000 293.698235
L338.352000 291.928403L339.096000 290.640061L339.840000 289.848090
L340.584000 289.539338L341.328000 289.649545L342.072000 290.065636
L343.560000 291.358122L344.304000 292.179699L345.048000 293.283174
L345.792000 294.940747L346.536000 297.494574L347.280000 301.218643
L348.024000 306.271980L348.768000 312.607809L351.744000 342.046708
L352.488000 347.195759L353.232000 350.398350L353.976000 351.546839
L354.720000 350.834908L355.464000 348.699545L358.440000 337.198277
L359.184000 335.524356L359.928000 334.386019L361.416000 332.394208
L362.160000 330.821373L362.904000 328.542852L363.648000 325.530038
L366.624000 311.378604L367.368000 309.320307L368.112000 308.480463
L368.856000 308.872897L369.600000 310.292861L371.832000 316.656936
L372.576000 318.164826L373.320000 319.057586L374.064000 319.452344
L374.808000 319.631657L375.552000 319.956575L376.296000 320.758616
L377.040000 322.245643L377.784000 324.446232L380.760000 335.259893
L381.504000 336.772480L382.248000 337.392702L382.992000 337.172618
L383.736000 336.301512L387.456000 329.938187L388.200000 328.492787
L388.944000 326.496841L389.688000 323.678617L390.432000 319.909609
L391.920000 310.107541L393.408000 300.240338L394.152000 296.678427
L394.896000 294.568064L395.640000 293.988183L396.384000 294.730930
L397.128000 296.334220L397.872000 298.231471L398.616000 299.763388
L399.360000 300.419684L400.104000 299.904230L400.848000 298.195365
L401.592000 295.550439L403.080000 289.514166L403.824000 287.339244
L404.568000 286.414621L405.312000 287.021577L406.056000 289.164142
L406.800000 292.562402L409.032000 305.530593L409.776000 308.872230
L410.520000 310.991789L411.264000 311.713756L412.008000 311.104097
L412.752000 309.420305L414.984000 302.313969L415.728000 300.905458
L416.472000 300.613285L417.216000 301.619482L417.960000 303.930426
L418.704000 307.399688L420.192000 316.319518L421.680000 325.107834
L422.424000 328.606447L423.168000 331.307682L423.912000 333.254454
L424.656000 334.538652L425.400000 335.322169L426.144000 335.727416
L426.888000 335.830463L427.632000 335.620959L428.376000 335.105101
L429.120000 334.267762L429.864000 333.119636L431.352000 330.065607
L433.584000 325.159942L435.072000 322.618376L435.816000 321.644487
L436.560000 320.884980L437.304000 320.292773L438.048000 319.868509
L438.792000 319.607227L439.536000 319.583760L440.280000 319.897381
L441.024000 320.650345L441.768000 321.856232L442.512000 323.475342
L444.744000 329.038358L445.488000 330.265585L446.232000 330.876744
L446.976000 330.828541L447.720000 330.237686L449.952000 327.347331
L450.696000 326.825953L451.440000 326.814450L452.184000 327.323848
L452.928000 328.259504L455.904000 333.076855L456.648000 333.958953
L457.392000 334.666500L458.136000 335.181747L458.880000 335.520203
L459.624000 335.581688L460.368000 335.223342L461.112000 334.320793
L461.856000 332.735779L462.600000 330.412615L463.344000 327.402554
L464.832000 319.970880L466.320000 312.450908L467.064000 309.456115
L467.808000 307.280311L468.552000 306.075190L469.296000 305.875797
L470.040000 306.593627L470.784000 308.105390L471.528000 310.246100
L473.016000 315.752673L475.248000 324.661981L475.992000 327.138701
L476.736000 329.193512L477.480000 330.710268L478.224000 331.658102
L478.968000 332.087443L479.712000 332.128510L480.456000 331.932486
L480.456000 331.932486"/>
</g>
<g id="line2d2">
<path style="fill: none; stroke: #008000; stroke-width: 1.000000; stroke-linejoin: round; stroke-linecap: square;  opacity: 1.000000" clip-path="url(#p50431ccdcb28178602d99d9270004dde)" d="M72.000000 208.162805L74.232000 196.316004L74.976000 193.573757
L75.720000 192.089696L76.464000 191.951512L77.208000 192.863015
L78.696000 195.921996L79.440000 196.941400L80.184000 196.996512
L80.928000 195.865040L81.672000 193.685105L82.416000 190.611686
L84.648000 180.192606L85.392000 177.590115L86.136000 175.825436
L86.880000 174.898572L87.624000 174.685710L88.368000 175.001720
L89.112000 175.662216L90.600000 177.534117L92.088000 179.894133
L95.808000 186.789776L96.552000 187.630585L97.296000 188.052357
L98.040000 187.976315L98.784000 187.324990L99.528000 186.018237
L100.272000 183.981075L101.016000 181.161791L101.760000 177.554438
L103.248000 168.312043L105.480000 153.257063L106.224000 149.679862
L106.968000 147.713990L107.712000 147.800233L108.456000 150.186528
L109.200000 154.861376L109.944000 161.535132L111.432000 178.574547
L112.920000 195.600798L113.664000 202.384913L114.408000 207.430151
L115.152000 210.614772L115.896000 212.077833L116.640000 212.163146
L117.384000 211.319919L118.872000 208.479858L121.104000 203.716928
L121.848000 201.729211L122.592000 199.331241L124.080000 193.201689
L126.312000 181.930527L127.800000 174.778222L128.544000 171.862174
L129.288000 169.659658L130.032000 168.371960L130.776000 168.168210
L131.520000 169.150551L132.264000 171.314826L133.008000 174.513088
L135.240000 186.297948L135.984000 188.919703L136.728000 189.759673
L137.472000 188.289677L138.216000 184.226177L138.960000 177.599024
L139.704000 168.774170L142.680000 127.621003L143.424000 120.536555
L144.168000 116.115182L144.912000 114.508629L145.656000 115.490007
L146.400000 118.487751L148.632000 130.745658L149.376000 132.883840
L150.120000 132.952427L150.864000 130.747006L151.608000 126.402459
L152.352000 120.346864L155.328000 92.494248L156.072000 87.739016
L156.816000 84.576091L157.560000 83.034781L158.304000 83.037302
L159.048000 84.472386L159.792000 87.259949L160.536000 91.383604
L161.280000 96.886906L162.024000 103.838887L162.768000 112.281454
L164.256000 133.362268L168.720000 206.189867L170.208000 223.866836
L170.952000 230.709912L171.696000 236.350504L172.440000 240.985876
L173.928000 248.253114L177.648000 264.104519L178.392000 266.661996
L179.136000 268.444888L179.880000 269.136870L180.624000 268.494351
L181.368000 266.402041L182.112000 262.906246L182.856000 258.220088
L185.832000 235.764708L186.576000 231.464549L187.320000 228.364229
L188.064000 226.605282L188.808000 226.213009L189.552000 227.109493
L190.296000 229.125133L191.040000 232.004640L193.272000 242.151080
L194.016000 244.619514L194.760000 246.007429L195.504000 246.122048
L196.248000 244.951234L196.992000 242.660436L198.480000 236.009173
L199.968000 229.124206L200.712000 226.401270L201.456000 224.437710
L202.200000 223.348832L202.944000 223.191144L203.688000 223.977496
L204.432000 225.686349L205.176000 228.262147L205.920000 231.606808
L207.408000 239.943911L209.640000 253.028546L210.384000 256.627461
L211.128000 259.628063L211.872000 262.038584L212.616000 263.952933
L214.104000 266.875241L216.336000 270.510675L217.824000 272.532231
L219.312000 274.516164L220.056000 275.952862L220.800000 278.061463
L221.544000 281.107878L222.288000 285.256104L223.032000 290.505103
L224.520000 303.340773L226.008000 316.070901L226.752000 320.995871
L227.496000 324.349069L228.240000 325.873586L228.984000 325.504429
L229.728000 323.355504L230.472000 319.681302L231.216000 314.826048
L232.704000 303.092518L234.192000 291.091772L234.936000 285.796187
L235.680000 281.328621L236.424000 277.901653L237.168000 275.664990
L237.912000 274.687641L238.656000 274.942002L239.400000 276.294548
L240.144000 278.504473L242.376000 286.507796L243.120000 288.124014
L243.864000 288.498741L244.608000 287.344476L245.352000 284.533017
L246.096000 280.113052L246.840000 274.302112L248.328000 260.036820
L249.816000 245.489157L250.560000 239.329185L251.304000 234.451432
L252.048000 231.152988L252.792000 229.635659L253.536000 230.001747
L254.280000 232.232102L255.024000 236.200430L255.768000 241.618260
L258.744000 266.862634L259.488000 270.664890L260.232000 272.274524
L260.976000 271.412754L261.720000 268.074050L262.464000 262.544076
L263.952000 247.378008L265.440000 232.148761L266.184000 226.380144
L266.928000 222.381926L267.672000 220.138305L268.416000 219.328021
L269.160000 219.428352L269.904000 219.855101L270.648000 220.097197
L271.392000 219.809342L272.136000 218.843137L272.880000 217.221295
L274.368000 212.607076L279.576000 193.764124L281.064000 187.170673
L282.552000 179.489739L284.784000 167.604988L285.528000 164.564562
L286.272000 162.625957L287.016000 162.170091L287.760000 163.456126
L288.504000 166.536632L289.248000 171.205628L292.224000 194.395793
L292.968000 198.136624L293.712000 200.329958L294.456000 201.102469
L295.200000 200.848378L295.944000 200.139125L296.688000 199.603649
L297.432000 199.806178L298.176000 201.146583L298.920000 203.800656
L299.664000 207.707699L301.152000 218.074904L302.640000 228.873639
L303.384000 233.333678L304.128000 236.735202L304.872000 238.903367
L305.616000 239.802744L306.360000 239.547946L307.104000 238.403206
L308.592000 235.086770L309.336000 233.856671L310.080000 233.461649
L310.824000 234.134935L311.568000 235.901018L312.312000 238.573806
L315.288000 251.460324L317.520000 260.076750L318.264000 263.863078
L319.008000 268.496296L320.496000 280.074713L322.728000 299.072329
L324.216000 309.861667L325.704000 318.568170L326.448000 322.114202
L327.192000 324.993400L327.936000 327.040565L328.680000 328.089056
L329.424000 328.016003L330.168000 326.789648L330.912000 324.485239
L331.656000 321.295814L333.144000 313.376050L334.632000 305.315494
L336.120000 298.612428L336.864000 295.932986L337.608000 293.698235
L338.352000 291.928403L339.096000 290.640061L339.840000 289.848090
L340.584000 289.539338L341.328000 289.649545L342.072000 290.065636
L343.560000 291.358122L344.304000 292.179699L345.048000 293.283174
L345.792000 294.940747L346.536000 297.494574L347.280000 301.218643
L348.024000 306.271980L348.768000 312.607809L351.744000 342.046708
L352.488000 347.195759L353.232000 350.398350L353.976000 351.546839
L354.720000 350.834908L355.464000 348.699545L358.440000 337.198277
L359.184000 335.524356L359.928000 334.386019L361.416000 332.394208
L362.160000 330.821373L362.904000 328.542852L363.648000 325.530038
L366.624000 311.378604L367.368000 309.320307L368.112000 308.480463
L368.856000 308.872897L369.600000 310.292861L371.832000 316.656936
L372.576000 318.164826L373.320000 319.057586L374.064000 319.452344
L374.808000 319.631657L375.552000 319.956575L376.296000 320.758616
L377.040000 322.245643L377.784000 324.446232L380.760000 335.259893
L381.504000 336.772480L382.248000 337.392702L382.992000 337.172618
L383.736000 336.301512L387.456000 329.938187L388.200000 328.492787
L388.944000 326.496841L389.688000 323.678617L390.432000 319.909609
L391.920000 310.107541L393.408000 300.240338L394.152000 296.678427
L394.896000 294.568064L395.640000 293.988183L396.384000 294.730930
L397.128000 296.334220L397.872000 298.231471L398.616000 299.763388
L399.360000 300.419684L400.104000 299.904230L400.848000 298.195365
L401.592000 295.550439L403.080000 289.514166L403.824000 287.339244
L404.568000 286.414621L405.312000 287.021577L406.056000 289.164142
L406.800000 292.562402L409.032000 305.530593L409.776000 308.872230
L410.520000 310.991789L411.264000 311.713756L412.008000 311.104097
L412.752000 309.420305L414.984000 302.313969L415.728000 300.905458
L416.472000 300.613285L417.216000 301.619482L417.960000 303.930426
L418.704000 307.399688L420.192000 316.319518L421.680000 325.107834
L422.424000 328.606447L423.168000 331.307682L423.912000 333.254454
L424.656000 334.538652L425.400000 335.322169L426.144000 335.727416
L426.888000 335.830463L427.632000 335.620959L428.376000 335.105101
L429.120000 334.267762L429.864000 333.119636L431.352000 330.065607
L433.584000 325.159942L435.072000 322.618376L435.816000 321.644487
L436.560000 320.884980L437.304000 320.292773L438.048000 319.868509
L438.792000 319.607227L439.536000 319.583760L440.280000 319.897381
L441.024000 320.650345L441.768000 321.856232L442.512000 323.475342
L444.744000 329.038358L445.488000 330.265585L446.232000 330.876744
L446.976000 330.828541L447.720000 330.237686L449.952000 327.347331
L450.696000 326.825953L451.440000 326.814450L452.184000 327.323848
L452.928000 328.259504L455.904000 333.076855L456.648000 333.958953
L457.392000 334.666500L458.136000 335.181747L458.880000 335.520203
L459.624000 335.581688L460.368000 335.223342L461.112000 334.320793
L461.856000 332.735779L462.600000 330.412615L463.344000 327.402554
L464.832000 319.970880L466.320000 312.450908L467.064000 309.456115
L467.808000 307.280311L468.552000 306.075190L469.296000 305.875797
L470.040000 306.593627L470.784000 308.105390L471.528000 310.246100
L473.016000 315.752673L475.248000 324.661981L475.992000 327.138701
L476.736000 329.193512L477.480000 330.710268L478.224000 331.658102
L478.968000 332.087443L479.712000 332.128510L480.456000 331.932486
L480.456000 331.932486"/>
</g>
<g id="line2d3">
<path style="fill: none; stroke: #ff0000; stroke-width: 1.000000; stroke-linejoin: round; stroke-linecap: square;  opacity: 1.000000" clip-path="url(#p50431ccdcb28178602d99d9270004dde)" d="M72.000000 173.611291L72.744000 168.969212L73.488000 164.587002
L74.232000 160.744065L74.976000 157.800096L75.720000 156.116082
L76.464000 155.962174L77.208000 157.434868L77.952000 160.406404
L79.440000 169.241635L80.928000 178.053312L81.672000 181.176012
L82.416000 183.025162L83.160000 183.649966L83.904000 183.345108
L85.392000 181.840030L86.136000 181.588740L86.880000 182.089745
L87.624000 183.400166L88.368000 185.371898L89.856000 189.952583
L90.600000 191.790884L91.344000 192.914837L92.088000 193.179926
L92.832000 192.598559L93.576000 191.322634L96.552000 184.674979
L97.296000 183.885338L98.040000 183.723326L98.784000 184.184467
L99.528000 185.189565L101.016000 188.208210L102.504000 191.161408
L103.248000 192.092830L103.992000 192.481933L104.736000 192.298718
L105.480000 191.598363L106.224000 190.502321L109.200000 185.232386
L109.944000 184.272230L110.688000 183.563065L111.432000 183.120257
L112.176000 182.955882L112.920000 183.077205L113.664000 183.472911
L115.152000 184.826674L115.896000 185.502580L116.640000 185.894286
L117.384000 185.755656L118.128000 184.865126L118.872000 183.073966
L119.616000 180.347927L120.360000 176.792713L123.336000 160.541915
L124.080000 157.872062L124.824000 156.286715L125.568000 155.794695
L126.312000 156.247681L127.056000 157.381975L129.288000 161.831122
L130.032000 162.931227L130.776000 163.742226L132.264000 164.995123
L133.008000 165.796275L133.752000 166.908568L135.240000 170.049693
L135.984000 171.730337L136.728000 173.047013L137.472000 173.580390
L138.216000 172.920009L138.960000 170.748379L139.704000 166.920422
L140.448000 161.518107L141.936000 147.479942L143.424000 133.130538
L144.168000 127.349486L144.912000 123.000874L145.656000 120.121696
L146.400000 118.446408L147.888000 116.433186L148.632000 114.674120
L149.376000 111.557379L150.120000 106.716948L150.864000 100.125983
L152.352000 83.387063L153.840000 67.340520L154.584000 61.888395
L155.328000 59.109623L156.072000 59.345675L156.816000 62.614317
L157.560000 68.527702L158.304000 76.482394L163.512000 139.915561
L165.000000 157.390610L166.488000 178.627268L167.976000 204.211616
L170.952000 257.583205L172.440000 278.408620L173.184000 286.567971
L173.928000 293.311272L174.672000 298.839894L175.416000 303.409245
L176.904000 310.711176L185.832000 348.395729L189.552000 361.926052
L191.784000 371.952603L193.272000 378.164053L194.016000 380.355941
L194.760000 381.589464L195.504000 381.689083L196.248000 380.586736
L196.992000 378.336313L197.736000 375.113320L199.224000 366.954604
L200.712000 359.004534L201.456000 355.944012L202.200000 353.740095
L202.944000 352.389254L203.688000 351.725773L205.176000 351.182098
L205.920000 350.538541L206.664000 349.194721L207.408000 346.935663
L208.152000 343.678310L208.896000 339.471920L210.384000 328.953175
L212.616000 312.309712L214.104000 303.623652L214.848000 300.310318
L215.592000 297.631898L216.336000 295.510509L217.080000 293.898708
L217.824000 292.811416L218.568000 292.339006L219.312000 292.622454
L220.056000 293.814259L220.800000 296.008841L221.544000 299.193692
L223.032000 307.814889L224.520000 317.171533L225.264000 321.149031
L226.008000 324.247275L226.752000 326.327910L227.496000 327.431212
L228.240000 327.784318L229.728000 327.848505L230.472000 328.467953
L231.216000 329.910617L231.960000 332.231094L233.448000 337.948341
L234.192000 340.034266L234.936000 340.606664L235.680000 339.068815
L236.424000 335.116060L237.168000 328.813347L238.656000 311.204951
L240.144000 292.544596L240.888000 284.956902L241.632000 279.351832
L242.376000 275.931175L243.120000 274.561919L243.864000 274.839747
L244.608000 276.205905L246.840000 281.679609L247.584000 282.983838
L248.328000 283.943752L249.072000 284.641979L249.816000 285.146178
L250.560000 285.458134L251.304000 285.501558L252.048000 285.145560
L252.792000 284.257389L253.536000 282.754525L254.280000 280.646650
L255.768000 275.195926L257.256000 269.751555L258.000000 267.605456
L258.744000 265.968416L259.488000 264.774493L261.720000 261.878568
L262.464000 260.409282L263.208000 258.444498L263.952000 255.949544
L265.440000 249.624299L267.672000 239.501935L268.416000 236.824747
L269.160000 234.731262L269.904000 233.226133L270.648000 232.240708
L271.392000 231.621286L272.880000 230.891462L274.368000 230.220022
L275.856000 229.308105L276.600000 228.646976L277.344000 227.731446
L278.088000 226.467576L278.832000 224.803938L280.320000 220.487691
L281.808000 216.158356L282.552000 214.740273L283.296000 214.246127
L284.040000 214.917926L284.784000 216.854099L285.528000 219.981318
L287.016000 228.633990L288.504000 237.536426L289.248000 241.067887
L289.992000 243.718831L290.736000 245.522780L291.480000 246.676546
L292.968000 248.271571L293.712000 249.351196L294.456000 250.968148
L295.200000 253.198326L295.944000 256.027121L297.432000 262.935118
L298.920000 270.089953L299.664000 273.217917L300.408000 275.823976
L301.152000 277.808568L301.896000 279.138167L302.640000 279.854102
L303.384000 280.048667L305.616000 279.629907L306.360000 279.817353
L307.104000 280.356183L307.848000 281.222682L311.568000 286.527703
L313.800000 288.851921L315.288000 290.826016L317.520000 294.392038
L319.008000 297.000527L320.496000 300.090177L321.984000 303.448269
L322.728000 304.855378L323.472000 305.784608L324.216000 306.026123
L324.960000 305.440952L325.704000 304.003323L326.448000 301.827214
L328.680000 294.068026L329.424000 292.598806L330.168000 292.419377
L330.912000 293.824855L331.656000 296.874739L332.400000 301.391183
L335.376000 324.105139L336.120000 327.932139L336.864000 330.104943
L337.608000 330.491635L338.352000 329.155296L339.096000 326.378535
L339.840000 322.512775L342.816000 304.437467L343.560000 300.881555
L344.304000 298.000758L345.048000 295.759687L345.792000 294.046677
L346.536000 292.725920L348.024000 290.805038L349.512000 289.513589
L350.256000 289.133860L351.000000 288.983806L351.744000 289.108095
L352.488000 289.538457L353.232000 290.320837L353.976000 291.442448
L354.720000 292.867874L357.696000 299.710069L358.440000 300.901676
L359.184000 301.533582L359.928000 301.577097L360.672000 301.089501
L362.904000 298.467820L363.648000 298.237470L364.392000 298.785965
L365.136000 300.216261L365.880000 302.485273L368.856000 313.778809
L369.600000 315.098042L370.344000 315.171194L371.088000 313.882927
L371.832000 311.275764L372.576000 307.548325L374.064000 297.751053
L377.040000 276.312395L378.528000 267.711468L379.272000 264.526147
L380.016000 262.354850L380.760000 261.381201L381.504000 261.723546
L382.248000 263.437603L382.992000 266.392318L383.736000 270.352785
L387.456000 293.208250L388.200000 296.100895L388.944000 298.024341
L389.688000 299.023204L390.432000 299.263351L391.176000 298.967231
L391.920000 298.481861L392.664000 298.129315L393.408000 298.196881
L394.152000 298.937725L394.896000 300.498522L395.640000 302.913872
L396.384000 306.083719L399.360000 320.471049L400.104000 322.747213
L400.848000 323.851009L401.592000 323.625125L402.336000 322.058584
L403.080000 319.293548L403.824000 315.598714L406.056000 302.761964
L406.800000 299.350940L407.544000 296.923420L408.288000 295.601699
L409.032000 295.443866L409.776000 296.304738L410.520000 297.920149
L412.752000 303.862299L413.496000 305.198654L414.240000 305.953415
L414.984000 306.181079L416.472000 305.868496L417.216000 305.953333
L417.960000 306.609966L418.704000 308.101698L419.448000 310.482441
L420.192000 313.663403L423.168000 328.735333L423.912000 331.442386
L424.656000 333.317208L425.400000 334.332032L426.144000 334.541717
L426.888000 334.122231L427.632000 333.136115L429.120000 330.161056
L430.608000 326.919968L431.352000 325.613853L432.096000 324.689947
L432.840000 324.193535L433.584000 324.097855L435.072000 324.220941
L435.816000 323.842505L436.560000 322.872012L437.304000 321.101933
L438.048000 318.534741L439.536000 311.839989L441.024000 305.365625
L441.768000 302.997744L442.512000 301.360449L443.256000 300.403304
L444.000000 300.007046L444.744000 299.985960L445.488000 300.194846
L446.232000 300.668467L446.976000 301.497657L447.720000 302.804530
L448.464000 304.751615L449.208000 307.367562L450.696000 314.295038
L452.184000 321.965277L452.928000 325.220587L453.672000 327.670131
L454.416000 329.105956L455.160000 329.419825L455.904000 328.611852
L456.648000 326.840883L457.392000 324.319883L460.368000 312.662769
L461.856000 307.864666L464.088000 301.806953L465.576000 298.397486
L466.320000 297.035736L467.064000 295.991035L467.808000 295.265682
L468.552000 294.952538L469.296000 295.082331L470.040000 295.627827
L470.784000 296.503852L473.016000 299.599154L473.760000 300.095417
L474.504000 300.001978L475.248000 299.277853L475.992000 297.944431
L477.480000 294.038372L478.968000 289.874713L479.712000 288.100918
L480.456000 286.628228L480.456000 286.628228"/>
</g>
<g id="matplotlib.axis1">
<g id="xtick1">
<g id="line2d4">
<defs><path id="m30e32995789d870ad79a2e54c91cf9c6" d="M0.000000 0.000000L0.000000 -4.000000"/></defs>
<g ><use style="fill: none; stroke: #000000; stroke-width: 0.500000; stroke-linejoin: round; stroke-linecap: butt;  opacity: 1.000000" xlink:href="#m30e32995789d870ad79a2e54c91cf9c6" x="72.000000" y="388.800000"/>
</g></g>
<g id="line2d5">
<defs><path id="m9281cae24120827b11d5ea8a7ad3e96b" d="M0.000000 0.000000L0.000000 4.000000"/></defs>
<g ><use style="fill: none; stroke: #000000; stroke-width: 0.500000; stroke-linejoin: round; stroke-linecap: butt;  opacity: 1.000000" xlink:href="#m9281cae24120827b11d5ea8a7ad3e96b" x="72.000000" y="43.200000"/>
</g></g>
<g id="text1">
<defs>
<path id="c_7a2040fe3b94fcd41d0a72c84e93b115" d="M31.781250 -66.406250q-7.609375 0.000000 -11.453125 7.500000q-3.828125 7.484375 -3.828125 22.531250q0.000000 14.984375 3.828125 22.484375q3.843750 7.500000 11.453125 7.500000q7.671875 0.000000 11.500000 -7.500000q3.843750 -7.500000 3.843750 -22.484375q0.000000 -15.046875 -3.843750 -22.531250q-3.828125 -7.500000 -11.500000 -7.500000M31.781250 -74.218750q12.265625 0.000000 18.734375 9.703125q6.468750 9.687500 6.468750 28.140625q0.000000 18.406250 -6.468750 28.109375q-6.468750 9.687500 -18.734375 9.687500q-12.250000 0.000000 -18.718750 -9.687500q-6.468750 -9.703125 -6.468750 -28.109375q0.000000 -18.453125 6.468750 -28.140625q6.468750 -9.703125 18.718750 -9.703125"/>
</defs>
<g style="fill: #000000; opacity: 1.000000" transform="translate(68.976562,401.706250)scale(0.120000)">
<use xlink:href="#c_7a2040fe3b94fcd41d0a72c84e93b115"/>
</g>
</g>
</g>
<g id="xtick2">
<g id="line2d6">
<g ><use style="fill: none; stroke: #000000; stroke-width: 0.500000; stroke-linejoin: round; stroke-linecap: butt;  opacity: 1.000000" xlink:href="#m30e32995789d870ad79a2e54c91cf9c6" x="146.400000" y="388.800000"/>
</g></g>
<g id="line2d7">
<g ><use style="fill: none; stroke: #000000; stroke-width: 0.500000; stroke-linejoin: round; stroke-linecap: butt;  opacity: 1.000000" xlink:href="#m9281cae24120827b11d5ea8a7ad3e96b" x="146.400000" y="43.200000"/>
</g></g>
<g id="text2">
<defs>
<path id="c_42baa63129a918535c52adb20d687ea7" d="M12.406250 -8.296875l16.109375 0.000000l0.000000 -55.625000l-17.531250 3.515625l0.000000 -8.984375l17.437500 -3.515625l9.859375 0.000000l0.000000 64.609375l16.109375 0.000000l0.000000 8.296875l-41.984375 0.000000z"/>
</defs>
<g style="fill: #000000; opacity: 1.000000" transform="translate(135.993750,401.706250)scale(0.120000)">
<use xlink:href="#c_42baa63129a918535c52adb20d687ea7"/>
<use xlink:href="#c_7a2040fe3b94fcd41d0a72c84e93b115" x="63.623047"/>
<use xlink:href="#c_7a2040fe3b94fcd41d0a72c84e93b115" x="127.246094"/>
</g>
</g>
</g>
<g id="xtick3">
<g id="line2d8">
<g ><use style="fill: none; stroke: #000000; stroke-width: 0.500000; stroke-linejoin: round; stroke-linecap: butt;  opacity: 1.000000" xlink:href="#m30e32995789d870ad79a2e54c91cf9c6" x="220.800000" y="388.800000"/>
</g></g>
<g id="line2d9">
<g ><use style="fill: none; stroke: #000000; stroke-width: 0.500000; stroke-linejoin: round; stroke-linecap: butt;  opacity: 1.000000" xlink:href="#m9281cae24120827b11d5ea8a7ad3e96b" x="220.800000" y="43.200000"/>
</g></g>
<g id="text3">
<defs>
<path id="c_ed3f3ed3ebfbd18bcb9c012009a68ad1" d="M19.187500 -8.296875l34.421875 0.000000l0.000000 8.296875l-46.281250 0.000000l0.000000 -8.296875q5.609375 -5.812500 15.296875 -15.593750q9.703125 -9.796875 12.187500 -12.640625q4.734375 -5.312500 6.609375 -9.000000q1.890625 -3.687500 1.890625 -7.250000q0.000000 -5.812500 -4.078125 -9.468750q-4.078125 -3.671875 -10.625000 -3.671875q-4.640625 0.000000 -9.796875 1.609375q-5.140625 1.609375 -11.000000 4.890625l0.000000 -9.968750q5.953125 -2.390625 11.125000 -3.609375q5.187500 -1.218750 9.484375 -1.218750q11.328125 0.000000 18.062500 5.671875q6.734375 5.656250 6.734375 15.125000q0.000000 4.500000 -1.687500 8.531250q-1.671875 4.015625 -6.125000 9.484375q-1.218750 1.421875 -7.765625 8.187500q-6.531250 6.765625 -18.453125 18.921875"/>
</defs>
<g style="fill: #000000; opacity: 1.000000" transform="translate(210.175000,401.706250)scale(0.120000)">
<use xlink:href="#c_ed3f3ed3ebfbd18bcb9c012009a68ad1"/>
<use xlink:href="#c_7a2040fe3b94fcd41d0a72c84e93b115" x="63.623047"/>
<use xlink:href="#c_7a2040fe3b94fcd41d0a72c84e93b115" x="127.246094"/>
</g>
</g>
</g>
<g id="xtick4">
<g id="line2d10">
<g ><use style="fill: none; stroke: #000000; stroke-width: 0.500000; stroke-linejoin: round; stroke-linecap: butt;  opacity: 1.000000" xlink:href="#m30e32995789d870ad79a2e54c91cf9c6" x="295.200000" y="388.800000"/>
</g></g>
<g id="line2d11">
<g ><use style="fill: none; stroke: #000000; stroke-width: 0.500000; stroke-linejoin: round; stroke-linecap: butt;  opacity: 1.000000" xlink:href="#m9281cae24120827b11d5ea8a7ad3e96b" x="295.200000" y="43.200000"/>
</g></g>
<g id="text4">
<defs>
<path id="c_3dcfa38a02242cb63ec6726c6e70be7a" d="M40.578125 -39.312500q7.078125 1.515625 11.046875 6.312500q3.984375 4.781250 3.984375 11.812500q0.000000 10.781250 -7.421875 16.703125q-7.421875 5.906250 -21.093750 5.906250q-4.578125 0.000000 -9.437500 -0.906250q-4.859375 -0.906250 -10.031250 -2.718750l0.000000 -9.515625q4.093750 2.390625 8.968750 3.609375q4.890625 1.218750 10.218750 1.218750q9.265625 0.000000 14.125000 -3.656250q4.859375 -3.656250 4.859375 -10.640625q0.000000 -6.453125 -4.515625 -10.078125q-4.515625 -3.640625 -12.562500 -3.640625l-8.500000 0.000000l0.000000 -8.109375l8.890625 0.000000q7.265625 0.000000 11.125000 -2.906250q3.859375 -2.906250 3.859375 -8.375000q0.000000 -5.609375 -3.984375 -8.609375q-3.968750 -3.015625 -11.390625 -3.015625q-4.062500 0.000000 -8.703125 0.890625q-4.640625 0.875000 -10.203125 2.718750l0.000000 -8.781250q5.625000 -1.562500 10.531250 -2.343750q4.906250 -0.781250 9.250000 -0.781250q11.234375 0.000000 17.765625 5.109375q6.546875 5.093750 6.546875 13.781250q0.000000 6.062500 -3.468750 10.234375q-3.468750 4.171875 -9.859375 5.781250"/>
</defs>
<g style="fill: #000000; opacity: 1.000000" transform="translate(284.598437,401.706250)scale(0.120000)">
<use xlink:href="#c_3dcfa38a02242cb63ec6726c6e70be7a"/>
<use xlink:href="#c_7a2040fe3b94fcd41d0a72c84e93b115" x="63.623047"/>
<use xlink:href="#c_7a2040fe3b94fcd41d0a72c84e93b115" x="127.246094"/>
</g>
</g>
</g>
<g id="xtick5">
<g id="line2d12">
<g ><use style="fill: none; stroke: #000000; stroke-width: 0.500000; stroke-linejoin: round; stroke-linecap: butt;  opacity: 1.000000" xlink:href="#m30e32995789d870ad79a2e54c91cf9c6" x="369.600000" y="388.800000"/>
</g></g>
<g id="line2d13">
<g ><use style="fill: none; stroke: #000000; stroke-width: 0.500000; stroke-linejoin: round; stroke-linecap: butt;  opacity: 1.000000" xlink:href="#m9281cae24120827b11d5ea8a7ad3e96b" x="369.600000" y="43.200000"/>
</g></g>
<g id="text5">
<defs>
<path id="c_a0416418d96557a09b8c1332d34883ba" d="M37.796875 -64.312500l-24.906250 38.921875l24.906250 0.000000zM35.203125 -72.906250l12.406250 0.000000l0.000000 47.515625l10.406250 0.000000l0.000000 8.203125l-10.406250 0.000000l0.000000 17.187500l-9.812500 0.000000l0.000000 -17.187500l-32.906250 0.000000l0.000000 -9.515625z"/>
</defs>
<g style="fill: #000000; opacity: 1.000000" transform="translate(358.834375,401.706250)scale(0.120000)">
<use xlink:href="#c_a0416418d96557a09b8c1332d34883ba"/>
<use xlink:href="#c_7a2040fe3b94fcd41d0a72c84e93b115" x="63.623047"/>
<use xlink:href="#c_7a2040fe3b94fcd41d0a72c84e93b115" x="127.246094"/>
</g>
</g>
</g>
<g id="xtick6">
<g id="line2d14">
<g ><use style="fill: none; stroke: #000000; stroke-width: 0.500000; stroke-linejoin: round; stroke-linecap: butt;  opacity: 1.000000" xlink:href="#m30e32995789d870ad79a2e54c91cf9c6" x="444.000000" y="388.800000"/>
</g></g>
<g id="line2d15">
<g ><use style="fill: none; stroke: #000000; stroke-width: 0.500000; stroke-linejoin: round; stroke-linecap: butt;  opacity: 1.000000" xlink:href="#m9281cae24120827b11d5ea8a7ad3e96b" x="444.000000" y="43.200000"/>
</g></g>
<g id="text6">
<defs>
<path id="c_1260a2df50f305f3db244e29828f968e" d="M10.796875 -72.906250l38.718750 0.000000l0.000000 8.312500l-29.687500 0.000000l0.000000 17.859375q2.140625 -0.734375 4.281250 -1.093750q2.156250 -0.359375 4.312500 -0.359375q12.203125 0.000000 19.328125 6.687500q7.140625 6.687500 7.140625 18.109375q0.000000 11.765625 -7.328125 18.296875q-7.328125 6.515625 -20.656250 6.515625q-4.593750 0.000000 -9.359375 -0.781250q-4.750000 -0.781250 -9.828125 -2.343750l0.000000 -9.921875q4.390625 2.390625 9.078125 3.562500q4.687500 1.171875 9.906250 1.171875q8.453125 0.000000 13.375000 -4.437500q4.937500 -4.437500 4.937500 -12.062500q0.000000 -7.609375 -4.937500 -12.046875q-4.921875 -4.453125 -13.375000 -4.453125q-3.953125 0.000000 -7.890625 0.875000q-3.921875 0.875000 -8.015625 2.734375z"/>
</defs>
<g style="fill: #000000; opacity: 1.000000" transform="translate(433.398438,401.706250)scale(0.120000)">
<use xlink:href="#c_1260a2df50f305f3db244e29828f968e"/>
<use xlink:href="#c_7a2040fe3b94fcd41d0a72c84e93b115" x="63.623047"/>
<use xlink:href="#c_7a2040fe3b94fcd41d0a72c84e93b115" x="127.246094"/>
</g>
</g>
</g>
<g id="xtick7">
<g id="line2d16">
<g ><use style="fill: none; stroke: #000000; stroke-width: 0.500000; stroke-linejoin: round; stroke-linecap: butt;  opacity: 1.000000" xlink:href="#m30e32995789d870ad79a2e54c91cf9c6" x="518.400000" y="388.800000"/>
</g></g>
<g id="line2d17">
<g ><use style="fill: none; stroke: #000000; stroke-width: 0.500000; stroke-linejoin: round; stroke-linecap: butt;  opacity: 1.000000" xlink:href="#m9281cae24120827b11d5ea8a7ad3e96b" x="518.400000" y="43.200000"/>
</g></g>
<g id="text7">
<defs>
<path id="c_cc8d6d580d1b10c8632f7a42cd53db8a" d="M33.015625 -40.375000q-6.640625 0.000000 -10.531250 4.546875q-3.875000 4.531250 -3.875000 12.437500q0.000000 7.859375 3.875000 12.437500q3.890625 4.562500 10.531250 4.562500q6.640625 0.000000 10.515625 -4.562500q3.875000 -4.578125 3.875000 -12.437500q0.000000 -7.906250 -3.875000 -12.437500q-3.875000 -4.546875 -10.515625 -4.546875M52.593750 -71.296875l0.000000 8.984375q-3.718750 -1.750000 -7.500000 -2.671875q-3.781250 -0.937500 -7.500000 -0.937500q-9.765625 0.000000 -14.921875 6.593750q-5.140625 6.593750 -5.875000 19.921875q2.875000 -4.250000 7.218750 -6.515625q4.359375 -2.265625 9.578125 -2.265625q10.984375 0.000000 17.359375 6.671875q6.375000 6.656250 6.375000 18.125000q0.000000 11.234375 -6.640625 18.031250q-6.640625 6.781250 -17.671875 6.781250q-12.656250 0.000000 -19.343750 -9.687500q-6.687500 -9.703125 -6.687500 -28.109375q0.000000 -17.281250 8.203125 -27.562500q8.203125 -10.281250 22.015625 -10.281250q3.718750 0.000000 7.500000 0.734375q3.781250 0.734375 7.890625 2.187500"/>
</defs>
<g style="fill: #000000; opacity: 1.000000" transform="translate(507.759375,401.706250)scale(0.120000)">
<use xlink:href="#c_cc8d6d580d1b10c8632f7a42cd53db8a"/>
<use xlink:href="#c_7a2040fe3b94fcd41d0a72c84e93b115" x="63.623047"/>
<use xlink:href="#c_7a2040fe3b94fcd41d0a72c84e93b115" x="127.246094"/>
</g>
</g>
</g>
</g>
<g id="matplotlib.axis2">
<g id="ytick1">
<g id="line2d18">
<defs><path id="m3400efa6b1638b3fea9e19e898273957" d="M0.000000 0.000000L4.000000 0.000000"/></defs>
<g ><use style="fill: none; stroke: #000000; stroke-width: 0.500000; stroke-linejoin: round; stroke-linecap: butt;  opacity: 1.000000" xlink:href="#m3400efa6b1638b3fea9e19e898273957" x="72.000000" y="388.800000"/>
</g></g>
<g id="line2d19">
<defs><path id="m20b58b2501143cb5e0a5e8f1ef6f1643" d="M0.000000 0.000000L-4.000000 0.000000"/></defs>
<g ><use style="fill: none; stroke: #000000; stroke-width: 0.500000; stroke-linejoin: round; stroke-linecap: butt;  opacity: 1.000000" xlink:href="#m20b58b2501143cb5e0a5e8f1ef6f1643" x="518.400000" y="388.800000"/>
</g></g>
<g id="text8">
<defs>
<path id="c_6a8d56c819c37117ab4cf023bec22a5a" d="M10.593750 -35.500000l62.593750 0.000000l0.000000 8.296875l-62.593750 0.000000z"/>
</defs>
<g style="fill: #000000; opacity: 1.000000" transform="translate(52.531250,393.167187)scale(0.120000)">
<use xlink:href="#c_6a8d56c819c37117ab4cf023bec22a5a"/>
<use xlink:href="#c_3dcfa38a02242cb63ec6726c6e70be7a" x="83.789062"/>
</g>
</g>
</g>
<g id="ytick2">
<g id="line2d20">
<g ><use style="fill: none; stroke: #000000; stroke-width: 0.500000; stroke-linejoin: round; stroke-linecap: butt;  opacity: 1.000000" xlink:href="#m3400efa6b1638b3fea9e19e898273957" x="72.000000" y="319.680000"/>
</g></g>
<g id="line2d21">
<g ><use style="fill: none; stroke: #000000; stroke-width: 0.500000; stroke-linejoin: round; stroke-linecap: butt;  opacity: 1.000000" xlink:href="#m20b58b2501143cb5e0a5e8f1ef6f1643" x="518.400000" y="319.680000"/>
</g></g>
<g id="text9">
<g style="fill: #000000; opacity: 1.000000" transform="translate(52.765625,324.133125)scale(0.120000)">
<use xlink:href="#c_6a8d56c819c37117ab4cf023bec22a5a"/>
<use xlink:href="#c_ed3f3ed3ebfbd18bcb9c012009a68ad1" x="83.789062"/>
</g>
</g>
</g>
<g id="ytick3">
<g id="line2d22">
<g ><use style="fill: none; stroke: #000000; stroke-width: 0.500000; stroke-linejoin: round; stroke-linecap: butt;  opacity: 1.000000" xlink:href="#m3400efa6b1638b3fea9e19e898273957" x="72.000000" y="250.560000"/>
</g></g>
<g id="line2d23">
<g ><use style="fill: none; stroke: #000000; stroke-width: 0.500000; stroke-linejoin: round; stroke-linecap: butt;  opacity: 1.000000" xlink:href="#m20b58b2501143cb5e0a5e8f1ef6f1643" x="518.400000" y="250.560000"/>
</g></g>
<g id="text10">
<g style="fill: #000000; opacity: 1.000000" transform="translate(52.671875,254.935000)scale(0.120000)">
<use xlink:href="#c_6a8d56c819c37117ab4cf023bec22a5a"/>
<use xlink:href="#c_42baa63129a918535c52adb20d687ea7" x="83.789062"/>
</g>
</g>
</g>
<g id="ytick4">
<g id="line2d24">
<g ><use style="fill: none; stroke: #000000; stroke-width: 0.500000; stroke-linejoin: round; stroke-linecap: butt;  opacity: 1.000000" xlink:href="#m3400efa6b1638b3fea9e19e898273957" x="72.000000" y="181.440000"/>
</g></g>
<g id="line2d25">
<g ><use style="fill: none; stroke: #000000; stroke-width: 0.500000; stroke-linejoin: round; stroke-linecap: butt;  opacity: 1.000000" xlink:href="#m20b58b2501143cb5e0a5e8f1ef6f1643" x="518.400000" y="181.440000"/>
</g></g>
<g id="text11">
<g style="fill: #000000; opacity: 1.000000" transform="translate(61.953125,185.807187)scale(0.120000)">
<use xlink:href="#c_7a2040fe3b94fcd41d0a72c84e93b115"/>
</g>
</g>
</g>
<g id="ytick5">
<g id="line2d26">
<g ><use style="fill: none; stroke: #000000; stroke-width: 0.500000; stroke-linejoin: round; stroke-linecap: butt;  opacity: 1.000000" xlink:href="#m3400efa6b1638b3fea9e19e898273957" x="72.000000" y="112.320000"/>
</g></g>
<g id="line2d27">
<g ><use style="fill: none; stroke: #000000; stroke-width: 0.500000; stroke-linejoin: round; stroke-linecap: butt;  opacity: 1.000000" xlink:href="#m20b58b2501143cb5e0a5e8f1ef6f1643" x="518.400000" y="112.320000"/>
</g></g>
<g id="text12">
<g style="fill: #000000; opacity: 1.000000" transform="translate(62.781250,116.695000)scale(0.120000)">
<use xlink:href="#c_42baa63129a918535c52adb20d687ea7"/>
</g>
</g>
</g>
<g id="ytick6">
<g id="line2d28">
<g ><use style="fill: none; stroke: #000000; stroke-width: 0.500000; stroke-linejoin: round; stroke-linecap: butt;  opacity: 1.000000" xlink:href="#m3400efa6b1638b3fea9e19e898273957" x="72.000000" y="43.200000"/>
</g></g>
<g id="line2d29">
<g ><use style="fill: none; stroke: #000000; stroke-width: 0.500000; stroke-linejoin: round; stroke-linecap: butt;  opacity: 1.000000" xlink:href="#m20b58b2501143cb5e0a5e8f1ef6f1643" x="518.400000" y="43.200000"/>
</g></g>
<g id="text13">
<g style="fill: #000000; opacity: 1.000000" transform="translate(62.437500,47.653125)scale(0.120000)">
<use xlink:href="#c_ed3f3ed3ebfbd18bcb9c012009a68ad1"/>
</g>
</g>
</g>
</g>
<g id="patch3">
<path style="fill: none; stroke: #000000; stroke-width: 1.000000; stroke-linejoin: round; stroke-linecap: square;  opacity: 1.000000"  d="M72.000000 43.200000L518.400000 43.200000"/>
</g>
<g id="patch4">
<path style="fill: none; stroke: #000000; stroke-width: 1.000000; stroke-linejoin: round; stroke-linecap: square;  opacity: 1.000000"  d="M518.400000 388.800000L518.400000 43.200000"/>
</g>
<g id="patch5">
<path style="fill: none; stroke: #000000; stroke-width: 1.000000; stroke-linejoin: round; stroke-linecap: square;  opacity: 1.000000"  d="M72.000000 388.800000L518.400000 388.800000"/>
</g>
<g id="patch6">
<path style="fill: none; stroke: #000000; stroke-width: 1.000000; stroke-linejoin: round; stroke-linecap: square;  opacity: 1.000000"  d="M72.000000 388.800000L72.000000 43.200000"/>
</g>
</g>
</g>
</svg>
