<?xml version="1.0" standalone="no"?>
<!DOCTYPE svg PUBLIC "-//W3C//DTD SVG 1.1//EN"
  "http://www.w3.org/Graphics/SVG/1.1/DTD/svg11.dtd">
<!-- Created with matplotlib (http://matplotlib.sourceforge.net/) -->
<svg width="576pt" height="432pt" viewBox="0 0 576 432"
   xmlns="http://www.w3.org/2000/svg"
   xmlns:xlink="http://www.w3.org/1999/xlink"
   version="1.1"
   id="svg1">
<g id="figure1">
<g id="patch1">
<path style="fill: #ffffff; stroke: #ffffff; stroke-width: 1.000000; stroke-linejoin: round; stroke-linecap: square;  opacity: 1.000000"  d="M0.000000 432.000000L576.000000 432.000000L576.000000 0.000000
L0.000000 0.000000L0.000000 432.000000"/>
</g>
<g id="axes1">
<g id="patch2">
<path style="fill: #ffffff; opacity: 1.000000"  d="M72.000000 388.800000L518.400000 388.800000L518.400000 43.200000
L72.000000 43.200000L72.000000 388.800000"/>
</g>
<g id="line2d1">
<defs>
  <clipPath id="p50431ccdcb28178602d99d9270004dde">
<rect x="72.000000" y="43.200000" width="446.400000" height="345.600000"/>
  </clipPath>
</defs><path style="fill: none; stroke: #0000ff; stroke-width: 1.000000; stroke-linejoin: round; stroke-linecap: square;  opacity: 1.000000" clip-path="url(#p50431ccdcb28178602d99d9270004dde)" d="M72.000000 120.778497L73.488000 122.328604L74.976000 126.996225
L77.208000 138.587874L79.440000 150.055417L80.928000 155.095576
L83.160000 159.669226L85.392000 164.276062L87.624000 170.975932
L91.344000 183.848757L92.832000 186.926948L94.320000 188.245847
L95.808000 189.058967L97.296000 190.955205L101.016000 198.764797
L102.504000 199.782143L103.992000 199.810833L105.480000 200.793510
L106.224000 202.230478L107.712000 207.358749L110.688000 219.895561
L111.432000 221.215764L112.920000 219.975925L114.408000 214.640172
L115.896000 208.584453L116.640000 206.533569L118.128000 206.057111
L118.872000 207.744418L120.360000 213.806080L122.592000 223.328209
L124.080000 226.421739L127.056000 227.958426L128.544000 230.556552
L130.032000 235.175218L132.264000 244.553795L135.240000 260.909933
L137.472000 271.915762L138.960000 275.225534L140.448000 275.188826
L141.936000 274.002045L143.424000 274.305896L144.912000 277.088180
L147.144000 282.119503L148.632000 282.021017L149.376000 280.434753
L151.608000 272.128296L153.096000 267.536903L153.840000 266.431737
L155.328000 266.799075L156.816000 269.720498L161.280000 280.862591
L162.768000 280.150142L163.512000 278.126604L165.000000 271.141586
L167.232000 258.708896L168.720000 253.977077L170.208000 253.767468
L171.696000 256.801425L173.928000 261.959594L175.416000 262.911223
L176.904000 261.328306L179.880000 255.643535L181.368000 254.800218
L184.344000 257.034420L185.832000 256.286894L187.320000 252.621263
L190.296000 243.024601L191.784000 242.255894L192.528000 243.396218
L196.248000 253.072569L197.736000 252.219220L199.224000 248.045130
L200.712000 243.399669L201.456000 241.912142L202.944000 241.675595
L204.432000 244.351941L205.176000 245.876372L206.664000 246.881863
L207.408000 245.609028L208.896000 239.083278L211.872000 221.001881
L212.616000 218.695211L214.104000 219.047161L215.592000 224.911193
L217.824000 235.800512L218.568000 238.011168L219.312000 239.044227
L220.800000 237.742450L223.776000 230.133024L225.264000 229.652636
L226.008000 230.943990L227.496000 235.973886L229.728000 244.357565
L230.472000 245.879879L231.960000 246.011380L233.448000 243.245457
L235.680000 238.756474L237.168000 237.661947L240.144000 237.844849
L241.632000 237.198153L243.120000 235.686963L246.840000 230.005277
L251.304000 221.463204L252.792000 219.836106L254.280000 219.496083
L257.256000 220.525109L258.744000 219.964662L260.232000 217.675707
L262.464000 211.722259L264.696000 206.373394L265.440000 205.289146
L266.928000 204.164393L269.904000 203.758338L271.392000 202.515504
L272.136000 201.039183L273.624000 195.595778L275.112000 186.575716
L279.576000 153.599771L281.064000 147.505393L281.808000 145.793709
L283.296000 144.319601L284.784000 143.748306L286.272000 141.710133
L287.760000 136.698619L290.736000 122.955386L291.480000 121.028810
L292.968000 120.933384L294.456000 124.958623L295.944000 129.708348
L296.688000 131.071171L298.176000 130.110200L299.664000 124.340848
L301.896000 113.070014L302.640000 110.670383L303.384000 109.669548
L304.872000 112.543715L306.360000 121.039558L308.592000 136.353999
L310.080000 142.020022L311.568000 141.632249L313.056000 136.624378
L315.288000 128.216063L316.032000 126.836755L317.520000 127.221134
L319.008000 130.969399L321.984000 140.244488L322.728000 141.647217
L324.216000 142.592674L325.704000 140.916405L327.192000 136.962319
L330.168000 127.612625L330.912000 126.369608L332.400000 126.301784
L333.888000 128.913660L335.376000 132.031938L336.864000 132.940512
L338.352000 130.011804L339.840000 123.669304L342.072000 113.204358
L342.816000 110.985698L343.560000 109.837041L345.048000 110.799067
L346.536000 114.786363L348.768000 120.621329L350.256000 121.420224
L352.488000 118.240861L353.232000 116.953061L354.720000 115.827841
L356.208000 118.053536L357.696000 123.937384L362.904000 151.273605
L364.392000 155.619831L365.136000 156.946987L366.624000 158.070840
L369.600000 158.008058L371.088000 160.509749L372.576000 167.003424
L374.064000 177.566083L377.784000 207.290506L379.272000 214.557058
L382.992000 228.457755L385.224000 241.861808L388.200000 259.263219
L390.432000 268.385030L392.664000 274.537865L393.408000 275.875052
L394.896000 277.358289L396.384000 277.421550L399.360000 275.828271
L400.848000 275.483932L403.824000 275.650107L405.312000 276.011451
L406.800000 277.011777L411.264000 281.790417L414.240000 282.798437
L415.728000 284.955170L417.216000 289.425861L422.424000 309.868846
L423.912000 312.655425L427.632000 316.093068L429.120000 320.382195
L430.608000 327.919091L433.584000 344.443459L434.328000 346.760445
L435.072000 347.944022L436.560000 347.154655L438.048000 343.481551
L441.768000 332.820061L445.488000 324.855358L446.232000 323.708828
L447.720000 322.734200L449.208000 323.605811L450.696000 325.031050
L452.184000 324.988852L453.672000 322.341319L455.904000 314.995575
L457.392000 310.407529L458.136000 308.862423L459.624000 307.937140
L461.112000 309.790743L462.600000 312.724907L464.088000 313.872065
L465.576000 311.135058L469.296000 298.158344L470.784000 301.219718
L472.272000 312.708365L474.504000 340.663568L476.736000 367.589143
L478.224000 379.322768L479.712000 386.211237L480.456000 388.638007
L480.456000 388.638007"/>
</g>
<g id="line2d2">
<path style="fill: none; stroke: #008000; stroke-width: 1.000000; stroke-linejoin: round; stroke-linecap: square;  opacity: 1.000000" clip-path="url(#p50431ccdcb28178602d99d9270004dde)" d="M72.000000 196.191524L77.208000 175.448975L79.440000 168.308995
L80.928000 165.042775L82.416000 163.671427L83.904000 164.124799
L86.880000 167.235109L88.368000 167.820184L89.856000 167.143813
L91.344000 165.882286L92.832000 165.338380L94.320000 166.595917
L95.808000 169.728329L98.040000 175.294251L98.784000 176.528610
L100.272000 177.198614L102.504000 174.490534L103.248000 173.456438
L104.736000 172.951267L106.224000 175.586722L108.456000 183.562030
L110.688000 190.871981L114.408000 199.829331L115.152000 200.895219
L116.640000 200.475924L117.384000 198.601624L118.872000 191.588919
L122.592000 169.018720L124.080000 164.187289L124.824000 163.011847
L126.312000 162.547830L127.800000 163.711556L130.032000 167.269569
L135.240000 178.459907L136.728000 179.822582L138.216000 179.296038
L139.704000 176.807200L142.680000 169.923727L144.168000 168.676779
L145.656000 169.508371L147.144000 170.869977L148.632000 170.715287
L149.376000 169.654018L150.864000 165.537498L155.328000 149.255623
L156.072000 148.217338L157.560000 148.849028L159.048000 152.650349
L163.512000 167.406470L164.256000 168.741793L165.744000 170.111759
L167.232000 170.176923L170.208000 169.527651L171.696000 169.441731
L173.184000 168.688070L174.672000 166.213504L176.160000 161.603353
L179.136000 150.490105L180.624000 147.677712L182.112000 147.761472
L185.832000 152.132842L187.320000 151.543977L188.064000 150.281871
L189.552000 145.751962L194.760000 124.969706L198.480000 117.507194
L199.968000 111.454802L203.688000 93.555153L205.176000 89.796145
L206.664000 89.286296L208.896000 93.141147L210.384000 96.154556
L211.872000 97.108008L213.360000 94.966746L214.848000 90.231966
L217.824000 79.633994L219.312000 76.853533L220.800000 77.012962
L221.544000 78.396014L223.032000 83.953187L225.264000 97.849627
L227.496000 111.587215L228.240000 114.327723L228.984000 115.655636
L230.472000 113.847058L231.960000 107.272029L234.936000 91.871222
L236.424000 88.178930L237.912000 87.690138L242.376000 91.202917
L243.120000 92.361091L244.608000 96.728233L246.840000 108.197131
L248.328000 115.853456L249.816000 120.212828L251.304000 120.486975
L253.536000 117.095696L255.024000 115.730334L256.512000 116.321000
L259.488000 120.526170L260.976000 121.694782L262.464000 121.115657
L266.184000 115.285300L267.672000 114.710805L269.904000 117.282975
L270.648000 118.388801L272.136000 119.625154L273.624000 118.904562
L277.344000 114.135701L278.832000 114.154029L281.064000 116.787844
L282.552000 119.118095L284.040000 120.581047L285.528000 120.135498
L287.016000 117.588150L289.992000 110.869960L290.736000 109.812703
L295.200000 105.656549L298.920000 99.551103L301.896000 95.723638
L304.872000 90.355598L306.360000 89.724135L307.848000 92.196831
L310.080000 100.233972L311.568000 105.192827L312.312000 106.491328
L313.800000 105.384493L314.544000 102.805391L316.032000 94.306211
L319.008000 74.655097L320.496000 69.603741L321.984000 69.130615
L323.472000 71.614136L324.960000 74.488572L326.448000 75.813173
L327.936000 74.928873L329.424000 72.210313L331.656000 67.350304
L333.144000 66.284864L334.632000 68.852647L336.120000 75.049636
L339.096000 89.527066L340.584000 92.768901L342.072000 92.514896
L343.560000 90.245103L345.048000 87.788552L346.536000 86.387671
L348.024000 86.343753L349.512000 86.967940L351.000000 87.071143
L352.488000 86.011228L353.976000 84.396537L355.464000 83.722906
L356.952000 85.342933L358.440000 89.607089L362.904000 106.236102
L363.648000 107.676956L365.136000 108.883254L366.624000 108.318986
L369.600000 104.683430L371.088000 102.842192L372.576000 101.714104
L374.064000 101.599937L375.552000 102.453034L378.528000 106.093529
L382.248000 112.191806L383.736000 115.808122L385.968000 123.930416
L388.200000 132.410977L388.944000 134.136354L390.432000 134.687201
L391.176000 133.470296L392.664000 129.002016L394.152000 124.321912
L394.896000 122.917978L396.384000 123.234631L397.872000 127.364820
L400.104000 134.982998L400.848000 136.430137L402.336000 136.614640
L403.080000 135.409232L404.568000 131.101014L408.288000 118.345882
L409.032000 116.922239L410.520000 115.880601L413.496000 116.995490
L414.984000 116.191559L417.960000 111.840777L419.448000 110.555217
L420.936000 111.039879L423.168000 115.301069L425.400000 122.534129
L428.376000 134.766535L433.584000 158.799779L434.328000 160.463771
L435.816000 161.648796L440.280000 160.002387L441.768000 158.941120
L443.256000 155.997883L445.488000 148.377176L446.976000 143.470047
L448.464000 140.678439L449.952000 140.416227L452.928000 142.495633
L454.416000 141.966211L456.648000 138.706470L458.880000 134.841336
L460.368000 133.545384L461.856000 134.249949L463.344000 136.753748
L464.832000 139.546280L466.320000 140.857030L467.808000 140.019370
L469.296000 137.663372L473.016000 130.065198L475.248000 123.560529
L478.224000 113.996892L478.968000 112.508552L480.456000 111.069650
L480.456000 111.069650"/>
</g>
<g id="line2d3">
<path style="fill: none; stroke: #ff0000; stroke-width: 1.000000; stroke-linejoin: round; stroke-linecap: square;  opacity: 1.000000" clip-path="url(#p50431ccdcb28178602d99d9270004dde)" d="M72.000000 173.116403L73.488000 174.659467L74.976000 176.108351
L76.464000 177.047798L77.952000 176.973327L82.416000 175.169357
L88.368000 175.583734L89.856000 174.956846L92.832000 172.631333
L95.808000 170.443451L98.784000 169.412604L104.736000 168.371106
L110.688000 168.191564L115.152000 167.280277L125.568000 167.195840
L128.544000 168.781906L131.520000 171.888936L134.496000 175.327209
L135.984000 175.995603L137.472000 175.382457L139.704000 172.124700
L142.680000 165.430861L145.656000 157.295825L148.632000 146.611844
L151.608000 136.052352L153.096000 132.680635L154.584000 131.191976
L156.072000 131.653221L158.304000 135.681360L160.536000 142.638615
L164.256000 154.952455L165.744000 158.090891L167.232000 159.469471
L168.720000 158.948915L170.952000 154.950372L173.184000 148.354324
L176.904000 134.866153L180.624000 118.760557L185.832000 95.307207
L188.064000 88.026892L189.552000 84.942719L191.040000 83.353127
L192.528000 83.126998L194.016000 84.038046L196.992000 87.816752
L199.224000 90.643155L200.712000 91.884143L202.200000 92.500868
L203.688000 92.557773L205.176000 92.128148L206.664000 91.238183
L209.640000 88.276494L214.104000 83.300681L217.080000 80.182010
L220.056000 75.676434L222.288000 72.133353L223.776000 70.616128
L225.264000 70.141240L226.752000 70.614346L231.216000 73.740392
L234.192000 74.455932L237.168000 74.394886L240.144000 73.524727
L246.096000 70.584806L249.072000 70.375198L253.536000 70.370264
L256.512000 69.388086L262.464000 65.939526L263.952000 65.834984
L266.928000 66.889847L269.904000 68.127920L271.392000 68.241103
L274.368000 67.304718L277.344000 65.522049L280.320000 62.965410
L283.296000 60.073836L284.784000 59.092905L290.736000 56.935018
L293.712000 53.809981L296.688000 50.794553L299.664000 49.286927
L304.128000 48.196943L308.592000 46.515777L310.080000 46.463269
L311.568000 46.858777L313.056000 47.771669L314.544000 49.253443
L319.752000 56.012867L321.240000 57.053320L324.216000 57.695609
L327.192000 57.400461L331.656000 56.104998L333.144000 56.087952
L334.632000 56.526605L337.608000 58.592814L340.584000 61.801062
L345.048000 67.850529L346.536000 69.198366L349.512000 70.698330
L352.488000 72.237844L358.440000 76.143895L361.416000 79.878591
L364.392000 83.727026L365.880000 84.587658L367.368000 84.528445
L368.856000 83.752868L373.320000 80.445033L374.808000 80.304133
L376.296000 81.183932L378.528000 84.183848L381.504000 88.888161
L384.480000 91.817303L388.944000 95.009309L394.896000 101.489231
L396.384000 102.298770L397.872000 102.421934L400.848000 101.156762
L402.336000 100.401579L403.824000 100.259268L405.312000 101.354243
L406.800000 104.031064L409.032000 110.276194L411.264000 116.418028
L412.752000 119.041455L414.240000 120.296080L415.728000 120.560952
L421.680000 119.469155L423.168000 119.748853L426.144000 121.402488
L429.120000 123.519716L430.608000 124.127722L432.096000 124.253934
L438.048000 123.432885L441.024000 124.504433L442.512000 125.491462
L444.744000 128.060867L446.976000 132.119555L449.952000 137.792347
L450.696000 138.862852L452.184000 140.360380L453.672000 141.000896
L455.160000 140.881240L458.136000 139.288314L462.600000 136.281144
L464.088000 135.914161L465.576000 136.572828L467.808000 139.803656
L471.528000 146.698794L473.016000 147.865053L474.504000 147.749488
L475.992000 146.671760L480.456000 141.982549L480.456000 141.982549"/>
</g>
<g id="matplotlib.axis1">
<g id="xtick1">
<g id="line2d4">
<defs><path id="m30e32995789d870ad79a2e54c91cf9c6" d="M0.000000 0.000000L0.000000 -4.000000"/></defs>
<g ><use style="fill: none; stroke: #000000; stroke-width: 0.500000; stroke-linejoin: round; stroke-linecap: butt;  opacity: 1.000000" xlink:href="#m30e32995789d870ad79a2e54c91cf9c6" x="72.000000" y="388.800000"/>
</g></g>
<g id="line2d5">
<defs><path id="m9281cae24120827b11d5ea8a7ad3e96b" d="M0.000000 0.000000L0.000000 4.000000"/></defs>
<g ><use style="fill: none; stroke: #000000; stroke-width: 0.500000; stroke-linejoin: round; stroke-linecap: butt;  opacity: 1.000000" xlink:href="#m9281cae24120827b11d5ea8a7ad3e96b" x="72.000000" y="43.200000"/>
</g></g>
<g id="text1">
<defs>
<path id="c_7a2040fe3b94fcd41d0a72c84e93b115" d="M31.781250 -66.406250q-7.609375 0.000000 -11.453125 7.500000q-3.828125 7.484375 -3.828125 22.531250q0.000000 14.984375 3.828125 22.484375q3.843750 7.500000 11.453125 7.500000q7.671875 0.000000 11.500000 -7.500000q3.843750 -7.500000 3.843750 -22.484375q0.000000 -15.046875 -3.843750 -22.531250q-3.828125 -7.500000 -11.500000 -7.500000M31.781250 -74.218750q12.265625 0.000000 18.734375 9.703125q6.468750 9.687500 6.468750 28.140625q0.000000 18.406250 -6.468750 28.109375q-6.468750 9.687500 -18.734375 9.687500q-12.250000 0.000000 -18.718750 -9.687500q-6.468750 -9.703125 -6.468750 -28.109375q0.000000 -18.453125 6.468750 -28.140625q6.468750 -9.703125 18.718750 -9.703125"/>
</defs>
<g style="fill: #000000; opacity: 1.000000" transform="translate(68.976562,401.706250)scale(0.120000)">
<use xlink:href="#c_7a2040fe3b94fcd41d0a72c84e93b115"/>
</g>
</g>
</g>
<g id="xtick2">
<g id="line2d6">
<g ><use style="fill: none; stroke: #000000; stroke-width: 0.500000; stroke-linejoin: round; stroke-linecap: butt;  opacity: 1.000000" xlink:href="#m30e32995789d870ad79a2e54c91cf9c6" x="146.400000" y="388.800000"/>
</g></g>
<g id="line2d7">
<g ><use style="fill: none; stroke: #000000; stroke-width: 0.500000; stroke-linejoin: round; stroke-linecap: butt;  opacity: 1.000000" xlink:href="#m9281cae24120827b11d5ea8a7ad3e96b" x="146.400000" y="43.200000"/>
</g></g>
<g id="text2">
<defs>
<path id="c_42baa63129a918535c52adb20d687ea7" d="M12.406250 -8.296875l16.109375 0.000000l0.000000 -55.625000l-17.531250 3.515625l0.000000 -8.984375l17.437500 -3.515625l9.859375 0.000000l0.000000 64.609375l16.109375 0.000000l0.000000 8.296875l-41.984375 0.000000z"/>
</defs>
<g style="fill: #000000; opacity: 1.000000" transform="translate(135.993750,401.706250)scale(0.120000)">
<use xlink:href="#c_42baa63129a918535c52adb20d687ea7"/>
<use xlink:href="#c_7a2040fe3b94fcd41d0a72c84e93b115" x="63.623047"/>
<use xlink:href="#c_7a2040fe3b94fcd41d0a72c84e93b115" x="127.246094"/>
</g>
</g>
</g>
<g id="xtick3">
<g id="line2d8">
<g ><use style="fill: none; stroke: #000000; stroke-width: 0.500000; stroke-linejoin: round; stroke-linecap: butt;  opacity: 1.000000" xlink:href="#m30e32995789d870ad79a2e54c91cf9c6" x="220.800000" y="388.800000"/>
</g></g>
<g id="line2d9">
<g ><use style="fill: none; stroke: #000000; stroke-width: 0.500000; stroke-linejoin: round; stroke-linecap: butt;  opacity: 1.000000" xlink:href="#m9281cae24120827b11d5ea8a7ad3e96b" x="220.800000" y="43.200000"/>
</g></g>
<g id="text3">
<defs>
<path id="c_ed3f3ed3ebfbd18bcb9c012009a68ad1" d="M19.187500 -8.296875l34.421875 0.000000l0.000000 8.296875l-46.281250 0.000000l0.000000 -8.296875q5.609375 -5.812500 15.296875 -15.593750q9.703125 -9.796875 12.187500 -12.640625q4.734375 -5.312500 6.609375 -9.000000q1.890625 -3.687500 1.890625 -7.250000q0.000000 -5.812500 -4.078125 -9.468750q-4.078125 -3.671875 -10.625000 -3.671875q-4.640625 0.000000 -9.796875 1.609375q-5.140625 1.609375 -11.000000 4.890625l0.000000 -9.968750q5.953125 -2.390625 11.125000 -3.609375q5.187500 -1.218750 9.484375 -1.218750q11.328125 0.000000 18.062500 5.671875q6.734375 5.656250 6.734375 15.125000q0.000000 4.500000 -1.687500 8.531250q-1.671875 4.015625 -6.125000 9.484375q-1.218750 1.421875 -7.765625 8.187500q-6.531250 6.765625 -18.453125 18.921875"/>
</defs>
<g style="fill: #000000; opacity: 1.000000" transform="translate(210.175000,401.706250)scale(0.120000)">
<use xlink:href="#c_ed3f3ed3ebfbd18bcb9c012009a68ad1"/>
<use xlink:href="#c_7a2040fe3b94fcd41d0a72c84e93b115" x="63.623047"/>
<use xlink:href="#c_7a2040fe3b94fcd41d0a72c84e93b115" x="127.246094"/>
</g>
</g>
</g>
<g id="xtick4">
<g id="line2d10">
<g ><use style="fill: none; stroke: #000000; stroke-width: 0.500000; stroke-linejoin: round; stroke-linecap: butt;  opacity: 1.000000" xlink:href="#m30e32995789d870ad79a2e54c91cf9c6" x="295.200000" y="388.800000"/>
</g></g>
<g id="line2d11">
<g ><use style="fill: none; stroke: #000000; stroke-width: 0.500000; stroke-linejoin: round; stroke-linecap: butt;  opacity: 1.000000" xlink:href="#m9281cae24120827b11d5ea8a7ad3e96b" x="295.200000" y="43.200000"/>
</g></g>
<g id="text4">
<defs>
<path id="c_3dcfa38a02242cb63ec6726c6e70be7a" d="M40.578125 -39.312500q7.078125 1.515625 11.046875 6.312500q3.984375 4.781250 3.984375 11.812500q0.000000 10.781250 -7.421875 16.703125q-7.421875 5.906250 -21.093750 5.906250q-4.578125 0.000000 -9.437500 -0.906250q-4.859375 -0.906250 -10.031250 -2.718750l0.000000 -9.515625q4.093750 2.390625 8.968750 3.609375q4.890625 1.218750 10.218750 1.218750q9.265625 0.000000 14.125000 -3.656250q4.859375 -3.656250 4.859375 -10.640625q0.000000 -6.453125 -4.515625 -10.078125q-4.515625 -3.640625 -12.562500 -3.640625l-8.500000 0.000000l0.000000 -8.109375l8.890625 0.000000q7.265625 0.000000 11.125000 -2.906250q3.859375 -2.906250 3.859375 -8.375000q0.000000 -5.609375 -3.984375 -8.609375q-3.968750 -3.015625 -11.390625 -3.015625q-4.062500 0.000000 -8.703125 0.890625q-4.640625 0.875000 -10.203125 2.718750l0.000000 -8.781250q5.625000 -1.562500 10.531250 -2.343750q4.906250 -0.781250 9.250000 -0.781250q11.234375 0.000000 17.765625 5.109375q6.546875 5.093750 6.546875 13.781250q0.000000 6.062500 -3.468750 10.234375q-3.468750 4.171875 -9.859375 5.781250"/>
</defs>
<g style="fill: #000000; opacity: 1.000000" transform="translate(284.598437,401.706250)scale(0.120000)">
<use xlink:href="#c_3dcfa38a02242cb63ec6726c6e70be7a"/>
<use xlink:href="#c_7a2040fe3b94fcd41d0a72c84e93b115" x="63.623047"/>
<use xlink:href="#c_7a2040fe3b94fcd41d0a72c84e93b115" x="127.246094"/>
</g>
</g>
</g>
<g id="xtick5">
<g id="line2d12">
<g ><use style="fill: none; stroke: #000000; stroke-width: 0.500000; stroke-linejoin: round; stroke-linecap: butt;  opacity: 1.000000" xlink:href="#m30e32995789d870ad79a2e54c91cf9c6" x="369.600000" y="388.800000"/>
</g></g>
<g id="line2d13">
<g ><use style="fill: none; stroke: #000000; stroke-width: 0.500000; stroke-linejoin: round; stroke-linecap: butt;  opacity: 1.000000" xlink:href="#m9281cae24120827b11d5ea8a7ad3e96b" x="369.600000" y="43.200000"/>
</g></g>
<g id="text5">
<defs>
<path id="c_a0416418d96557a09b8c1332d34883ba" d="M37.796875 -64.312500l-24.906250 38.921875l24.906250 0.000000zM35.203125 -72.906250l12.406250 0.000000l0.000000 47.515625l10.406250 0.000000l0.000000 8.203125l-10.406250 0.000000l0.000000 17.187500l-9.812500 0.000000l0.000000 -17.187500l-32.906250 0.000000l0.000000 -9.515625z"/>
</defs>
<g style="fill: #000000; opacity: 1.000000" transform="translate(358.834375,401.706250)scale(0.120000)">
<use xlink:href="#c_a0416418d96557a09b8c1332d34883ba"/>
<use xlink:href="#c_7a2040fe3b94fcd41d0a72c84e93b115" x="63.623047"/>
<use xlink:href="#c_7a2040fe3b94fcd41d0a72c84e93b115" x="127.246094"/>
</g>
</g>
</g>
<g id="xtick6">
<g id="line2d14">
<g ><use style="fill: none; stroke: #000000; stroke-width: 0.500000; stroke-linejoin: round; stroke-linecap: butt;  opacity: 1.000000" xlink:href="#m30e32995789d870ad79a2e54c91cf9c6" x="444.000000" y="388.800000"/>
</g></g>
<g id="line2d15">
<g ><use style="fill: none; stroke: #000000; stroke-width: 0.500000; stroke-linejoin: round; stroke-linecap: butt;  opacity: 1.000000" xlink:href="#m9281cae24120827b11d5ea8a7ad3e96b" x="444.000000" y="43.200000"/>
</g></g>
<g id="text6">
<defs>
<path id="c_1260a2df50f305f3db244e29828f968e" d="M10.796875 -72.906250l38.718750 0.000000l0.000000 8.312500l-29.687500 0.000000l0.000000 17.859375q2.140625 -0.734375 4.281250 -1.093750q2.156250 -0.359375 4.312500 -0.359375q12.203125 0.000000 19.328125 6.687500q7.140625 6.687500 7.140625 18.109375q0.000000 11.765625 -7.328125 18.296875q-7.328125 6.515625 -20.656250 6.515625q-4.593750 0.000000 -9.359375 -0.781250q-4.750000 -0.781250 -9.828125 -2.343750l0.000000 -9.921875q4.390625 2.390625 9.078125 3.562500q4.687500 1.171875 9.906250 1.171875q8.453125 0.000000 13.375000 -4.437500q4.937500 -4.437500 4.937500 -12.062500q0.000000 -7.609375 -4.937500 -12.046875q-4.921875 -4.453125 -13.375000 -4.453125q-3.953125 0.000000 -7.890625 0.875000q-3.921875 0.875000 -8.015625 2.734375z"/>
</defs>
<g style="fill: #000000; opacity: 1.000000" transform="translate(433.398438,401.706250)scale(0.120000)">
<use xlink:href="#c_1260a2df50f305f3db244e29828f968e"/>
<use xlink:href="#c_7a2040fe3b94fcd41d0a72c84e93b115" x="63.623047"/>
<use xlink:href="#c_7a2040fe3b94fcd41d0a72c84e93b115" x="127.246094"/>
</g>
</g>
</g>
<g id="xtick7">
<g id="line2d16">
<g ><use style="fill: none; stroke: #000000; stroke-width: 0.500000; stroke-linejoin: round; stroke-linecap: butt;  opacity: 1.000000" xlink:href="#m30e32995789d870ad79a2e54c91cf9c6" x="518.400000" y="388.800000"/>
</g></g>
<g id="line2d17">
<g ><use style="fill: none; stroke: #000000; stroke-width: 0.500000; stroke-linejoin: round; stroke-linecap: butt;  opacity: 1.000000" xlink:href="#m9281cae24120827b11d5ea8a7ad3e96b" x="518.400000" y="43.200000"/>
</g></g>
<g id="text7">
<defs>
<path id="c_cc8d6d580d1b10c8632f7a42cd53db8a" d="M33.015625 -40.375000q-6.640625 0.000000 -10.531250 4.546875q-3.875000 4.531250 -3.875000 12.437500q0.000000 7.859375 3.875000 12.437500q3.890625 4.562500 10.531250 4.562500q6.640625 0.000000 10.515625 -4.562500q3.875000 -4.578125 3.875000 -12.437500q0.000000 -7.906250 -3.875000 -12.437500q-3.875000 -4.546875 -10.515625 -4.546875M52.593750 -71.296875l0.000000 8.984375q-3.718750 -1.750000 -7.500000 -2.671875q-3.781250 -0.937500 -7.500000 -0.937500q-9.765625 0.000000 -14.921875 6.593750q-5.140625 6.593750 -5.875000 19.921875q2.875000 -4.250000 7.218750 -6.515625q4.359375 -2.265625 9.578125 -2.265625q10.984375 0.000000 17.359375 6.671875q6.375000 6.656250 6.375000 18.125000q0.000000 11.234375 -6.640625 18.031250q-6.640625 6.781250 -17.671875 6.781250q-12.656250 0.000000 -19.343750 -9.687500q-6.687500 -9.703125 -6.687500 -28.109375q0.000000 -17.281250 8.203125 -27.562500q8.203125 -10.281250 22.015625 -10.281250q3.718750 0.000000 7.500000 0.734375q3.781250 0.734375 7.890625 2.187500"/>
</defs>
<g style="fill: #000000; opacity: 1.000000" transform="translate(507.759375,401.706250)scale(0.120000)">
<use xlink:href="#c_cc8d6d580d1b10c8632f7a42cd53db8a"/>
<use xlink:href="#c_7a2040fe3b94fcd41d0a72c84e93b115" x="63.623047"/>
<use xlink:href="#c_7a2040fe3b94fcd41d0a72c84e93b115" x="127.246094"/>
</g>
</g>
</g>
</g>
<g id="matplotlib.axis2">
<g id="ytick1">
<g id="line2d18">
<defs><path id="m3400efa6b1638b3fea9e19e898273957" d="M0.000000 0.000000L4.000000 0.000000"/></defs>
<g ><use style="fill: none; stroke: #000000; stroke-width: 0.500000; stroke-linejoin: round; stroke-linecap: butt;  opacity: 1.000000" xlink:href="#m3400efa6b1638b3fea9e19e898273957" x="72.000000" y="388.800000"/>
</g></g>
<g id="line2d19">
<defs><path id="m20b58b2501143cb5e0a5e8f1ef6f1643" d="M0.000000 0.000000L-4.000000 0.000000"/></defs>
<g ><use style="fill: none; stroke: #000000; stroke-width: 0.500000; stroke-linejoin: round; stroke-linecap: butt;  opacity: 1.000000" xlink:href="#m20b58b2501143cb5e0a5e8f1ef6f1643" x="518.400000" y="388.800000"/>
</g></g>
<g id="text8">
<defs>
<path id="c_6a8d56c819c37117ab4cf023bec22a5a" d="M10.593750 -35.500000l62.593750 0.000000l0.000000 8.296875l-62.593750 0.000000z"/>
</defs>
<g style="fill: #000000; opacity: 1.000000" transform="translate(44.718750,393.167188)scale(0.120000)">
<use xlink:href="#c_6a8d56c819c37117ab4cf023bec22a5a"/>
<use xlink:href="#c_42baa63129a918535c52adb20d687ea7" x="83.789062"/>
<use xlink:href="#c_7a2040fe3b94fcd41d0a72c84e93b115" x="147.412109"/>
</g>
</g>
</g>
<g id="ytick2">
<g id="line2d20">
<g ><use style="fill: none; stroke: #000000; stroke-width: 0.500000; stroke-linejoin: round; stroke-linecap: butt;  opacity: 1.000000" xlink:href="#m3400efa6b1638b3fea9e19e898273957" x="72.000000" y="345.600000"/>
</g></g>
<g id="line2d21">
<g ><use style="fill: none; stroke: #000000; stroke-width: 0.500000; stroke-linejoin: round; stroke-linecap: butt;  opacity: 1.000000" xlink:href="#m20b58b2501143cb5e0a5e8f1ef6f1643" x="518.400000" y="345.600000"/>
</g></g>
<g id="text9">
<defs>
<path id="c_bef35738d52871942e50b9de9b122bab" d="M31.781250 -34.625000q-7.031250 0.000000 -11.062500 3.765625q-4.015625 3.765625 -4.015625 10.343750q0.000000 6.593750 4.015625 10.359375q4.031250 3.765625 11.062500 3.765625q7.031250 0.000000 11.078125 -3.781250q4.062500 -3.796875 4.062500 -10.343750q0.000000 -6.578125 -4.031250 -10.343750q-4.015625 -3.765625 -11.109375 -3.765625M21.921875 -38.812500q-6.343750 -1.562500 -9.890625 -5.906250q-3.531250 -4.359375 -3.531250 -10.609375q0.000000 -8.734375 6.218750 -13.812500q6.234375 -5.078125 17.062500 -5.078125q10.890625 0.000000 17.093750 5.078125q6.203125 5.078125 6.203125 13.812500q0.000000 6.250000 -3.546875 10.609375q-3.531250 4.343750 -9.828125 5.906250q7.125000 1.656250 11.093750 6.500000q3.984375 4.828125 3.984375 11.796875q0.000000 10.609375 -6.468750 16.281250q-6.468750 5.656250 -18.531250 5.656250q-12.046875 0.000000 -18.531250 -5.656250q-6.468750 -5.671875 -6.468750 -16.281250q0.000000 -6.968750 4.000000 -11.796875q4.015625 -4.843750 11.140625 -6.500000M18.312500 -54.390625q0.000000 5.656250 3.531250 8.828125q3.546875 3.171875 9.937500 3.171875q6.359375 0.000000 9.937500 -3.171875q3.593750 -3.171875 3.593750 -8.828125q0.000000 -5.671875 -3.593750 -8.843750q-3.578125 -3.171875 -9.937500 -3.171875q-6.390625 0.000000 -9.937500 3.171875q-3.531250 3.171875 -3.531250 8.843750"/>
</defs>
<g style="fill: #000000; opacity: 1.000000" transform="translate(52.390625,349.967188)scale(0.120000)">
<use xlink:href="#c_6a8d56c819c37117ab4cf023bec22a5a"/>
<use xlink:href="#c_bef35738d52871942e50b9de9b122bab" x="83.789062"/>
</g>
</g>
</g>
<g id="ytick3">
<g id="line2d22">
<g ><use style="fill: none; stroke: #000000; stroke-width: 0.500000; stroke-linejoin: round; stroke-linecap: butt;  opacity: 1.000000" xlink:href="#m3400efa6b1638b3fea9e19e898273957" x="72.000000" y="302.400000"/>
</g></g>
<g id="line2d23">
<g ><use style="fill: none; stroke: #000000; stroke-width: 0.500000; stroke-linejoin: round; stroke-linecap: butt;  opacity: 1.000000" xlink:href="#m20b58b2501143cb5e0a5e8f1ef6f1643" x="518.400000" y="302.400000"/>
</g></g>
<g id="text10">
<g style="fill: #000000; opacity: 1.000000" transform="translate(52.328125,306.767188)scale(0.120000)">
<use xlink:href="#c_6a8d56c819c37117ab4cf023bec22a5a"/>
<use xlink:href="#c_cc8d6d580d1b10c8632f7a42cd53db8a" x="83.789062"/>
</g>
</g>
</g>
<g id="ytick4">
<g id="line2d24">
<g ><use style="fill: none; stroke: #000000; stroke-width: 0.500000; stroke-linejoin: round; stroke-linecap: butt;  opacity: 1.000000" xlink:href="#m3400efa6b1638b3fea9e19e898273957" x="72.000000" y="259.200000"/>
</g></g>
<g id="line2d25">
<g ><use style="fill: none; stroke: #000000; stroke-width: 0.500000; stroke-linejoin: round; stroke-linecap: butt;  opacity: 1.000000" xlink:href="#m20b58b2501143cb5e0a5e8f1ef6f1643" x="518.400000" y="259.200000"/>
</g></g>
<g id="text11">
<g style="fill: #000000; opacity: 1.000000" transform="translate(52.234375,263.575000)scale(0.120000)">
<use xlink:href="#c_6a8d56c819c37117ab4cf023bec22a5a"/>
<use xlink:href="#c_a0416418d96557a09b8c1332d34883ba" x="83.789062"/>
</g>
</g>
</g>
<g id="ytick5">
<g id="line2d26">
<g ><use style="fill: none; stroke: #000000; stroke-width: 0.500000; stroke-linejoin: round; stroke-linecap: butt;  opacity: 1.000000" xlink:href="#m3400efa6b1638b3fea9e19e898273957" x="72.000000" y="216.000000"/>
</g></g>
<g id="line2d27">
<g ><use style="fill: none; stroke: #000000; stroke-width: 0.500000; stroke-linejoin: round; stroke-linecap: butt;  opacity: 1.000000" xlink:href="#m20b58b2501143cb5e0a5e8f1ef6f1643" x="518.400000" y="216.000000"/>
</g></g>
<g id="text12">
<g style="fill: #000000; opacity: 1.000000" transform="translate(52.765625,220.453125)scale(0.120000)">
<use xlink:href="#c_6a8d56c819c37117ab4cf023bec22a5a"/>
<use xlink:href="#c_ed3f3ed3ebfbd18bcb9c012009a68ad1" x="83.789062"/>
</g>
</g>
</g>
<g id="ytick6">
<g id="line2d28">
<g ><use style="fill: none; stroke: #000000; stroke-width: 0.500000; stroke-linejoin: round; stroke-linecap: butt;  opacity: 1.000000" xlink:href="#m3400efa6b1638b3fea9e19e898273957" x="72.000000" y="172.800000"/>
</g></g>
<g id="line2d29">
<g ><use style="fill: none; stroke: #000000; stroke-width: 0.500000; stroke-linejoin: round; stroke-linecap: butt;  opacity: 1.000000" xlink:href="#m20b58b2501143cb5e0a5e8f1ef6f1643" x="518.400000" y="172.800000"/>
</g></g>
<g id="text13">
<g style="fill: #000000; opacity: 1.000000" transform="translate(61.953125,177.167188)scale(0.120000)">
<use xlink:href="#c_7a2040fe3b94fcd41d0a72c84e93b115"/>
</g>
</g>
</g>
<g id="ytick7">
<g id="line2d30">
<g ><use style="fill: none; stroke: #000000; stroke-width: 0.500000; stroke-linejoin: round; stroke-linecap: butt;  opacity: 1.000000" xlink:href="#m3400efa6b1638b3fea9e19e898273957" x="72.000000" y="129.600000"/>
</g></g>
<g id="line2d31">
<g ><use style="fill: none; stroke: #000000; stroke-width: 0.500000; stroke-linejoin: round; stroke-linecap: butt;  opacity: 1.000000" xlink:href="#m20b58b2501143cb5e0a5e8f1ef6f1643" x="518.400000" y="129.600000"/>
</g></g>
<g id="text14">
<g style="fill: #000000; opacity: 1.000000" transform="translate(62.437500,134.053125)scale(0.120000)">
<use xlink:href="#c_ed3f3ed3ebfbd18bcb9c012009a68ad1"/>
</g>
</g>
</g>
<g id="ytick8">
<g id="line2d32">
<g ><use style="fill: none; stroke: #000000; stroke-width: 0.500000; stroke-linejoin: round; stroke-linecap: butt;  opacity: 1.000000" xlink:href="#m3400efa6b1638b3fea9e19e898273957" x="72.000000" y="86.400000"/>
</g></g>
<g id="line2d33">
<g ><use style="fill: none; stroke: #000000; stroke-width: 0.500000; stroke-linejoin: round; stroke-linecap: butt;  opacity: 1.000000" xlink:href="#m20b58b2501143cb5e0a5e8f1ef6f1643" x="518.400000" y="86.400000"/>
</g></g>
<g id="text15">
<g style="fill: #000000; opacity: 1.000000" transform="translate(61.625000,90.775000)scale(0.120000)">
<use xlink:href="#c_a0416418d96557a09b8c1332d34883ba"/>
</g>
</g>
</g>
<g id="ytick9">
<g id="line2d34">
<g ><use style="fill: none; stroke: #000000; stroke-width: 0.500000; stroke-linejoin: round; stroke-linecap: butt;  opacity: 1.000000" xlink:href="#m3400efa6b1638b3fea9e19e898273957" x="72.000000" y="43.200000"/>
</g></g>
<g id="line2d35">
<g ><use style="fill: none; stroke: #000000; stroke-width: 0.500000; stroke-linejoin: round; stroke-linecap: butt;  opacity: 1.000000" xlink:href="#m20b58b2501143cb5e0a5e8f1ef6f1643" x="518.400000" y="43.200000"/>
</g></g>
<g id="text16">
<g style="fill: #000000; opacity: 1.000000" transform="translate(61.968750,47.567187)scale(0.120000)">
<use xlink:href="#c_cc8d6d580d1b10c8632f7a42cd53db8a"/>
</g>
</g>
</g>
</g>
<g id="patch3">
<path style="fill: none; stroke: #000000; stroke-width: 1.000000; stroke-linejoin: round; stroke-linecap: square;  opacity: 1.000000"  d="M72.000000 43.200000L518.400000 43.200000"/>
</g>
<g id="patch4">
<path style="fill: none; stroke: #000000; stroke-width: 1.000000; stroke-linejoin: round; stroke-linecap: square;  opacity: 1.000000"  d="M518.400000 388.800000L518.400000 43.200000"/>
</g>
<g id="patch5">
<path style="fill: none; stroke: #000000; stroke-width: 1.000000; stroke-linejoin: round; stroke-linecap: square;  opacity: 1.000000"  d="M72.000000 388.800000L518.400000 388.800000"/>
</g>
<g id="patch6">
<path style="fill: none; stroke: #000000; stroke-width: 1.000000; stroke-linejoin: round; stroke-linecap: square;  opacity: 1.000000"  d="M72.000000 388.800000L72.000000 43.200000"/>
</g>
</g>
</g>
</svg>
