<?xml version="1.0" standalone="no"?>
<!DOCTYPE svg PUBLIC "-//W3C//DTD SVG 1.1//EN"
  "http://www.w3.org/Graphics/SVG/1.1/DTD/svg11.dtd">
<!-- Created with matplotlib (http://matplotlib.sourceforge.net/) -->
<svg width="576pt" height="432pt" viewBox="0 0 576 432"
   xmlns="http://www.w3.org/2000/svg"
   xmlns:xlink="http://www.w3.org/1999/xlink"
   version="1.1"
   id="svg1">
<g id="figure1">
<g id="patch1">
<path style="fill: #ffffff; stroke: #ffffff; stroke-width: 1.000000; stroke-linejoin: round; stroke-linecap: square;  opacity: 1.000000"  d="M0.000000 432.000000L576.000000 432.000000L576.000000 0.000000
L0.000000 0.000000L0.000000 432.000000"/>
</g>
<g id="axes1">
<g id="patch2">
<path style="fill: #ffffff; opacity: 1.000000"  d="M72.000000 388.800000L518.400000 388.800000L518.400000 43.200000
L72.000000 43.200000L72.000000 388.800000"/>
</g>
<g id="line2d1">
<defs>
  <clipPath id="p50431ccdcb28178602d99d9270004dde">
<rect x="72.000000" y="43.200000" width="446.400000" height="345.600000"/>
  </clipPath>
</defs><path style="fill: none; stroke: #0000ff; stroke-width: 1.000000; stroke-linejoin: round; stroke-linecap: square;  opacity: 1.000000" clip-path="url(#p50431ccdcb28178602d99d9270004dde)" d="M72.000000 280.354195L73.488000 279.622143L74.976000 279.153706
L76.464000 278.969661L80.928000 279.411129L82.416000 277.813692
L83.904000 274.380174L89.112000 259.162420L90.600000 258.395239
L92.088000 259.873650L93.576000 262.893390L100.272000 278.745615
L101.760000 279.924681L103.248000 279.821383L106.224000 278.745069
L107.712000 279.484167L109.944000 282.869330L112.920000 288.216383
L114.408000 289.158984L115.896000 288.290267L117.384000 285.873958
L121.848000 277.012629L123.336000 276.076779L124.824000 276.864912
L126.312000 279.188149L130.776000 288.213267L132.264000 289.752036
L136.728000 292.135283L138.216000 291.773738L139.704000 289.256393
L141.192000 284.085043L143.424000 272.180001L146.400000 250.902586
L151.608000 209.168715L153.096000 203.715273L154.584000 203.985695
L155.328000 206.276269L156.816000 214.500710L162.768000 257.167449
L164.256000 261.829503L165.000000 263.055907L166.488000 263.827696
L167.976000 263.117946L172.440000 258.447600L174.672000 254.725584
L176.160000 250.055324L177.648000 242.626970L179.880000 226.097967
L186.576000 168.444216L188.064000 161.563994L189.552000 158.187703
L191.040000 157.618419L192.528000 158.651491L196.992000 163.652220
L199.224000 167.451801L202.200000 173.066350L203.688000 174.658701
L205.176000 174.782826L206.664000 173.325256L208.152000 170.527711
L212.616000 160.553252L218.568000 150.657014L227.496000 131.393628
L229.728000 128.701689L235.680000 124.147348L242.376000 114.600174
L243.864000 113.320143L245.352000 112.790657L246.840000 113.488962
L249.072000 117.522963L253.536000 129.180212L254.280000 130.292509
L255.768000 131.537782L258.744000 132.034996L261.720000 131.842639
L264.696000 130.368700L267.672000 129.174294L269.160000 128.791475
L270.648000 127.809531L272.880000 124.066832L276.600000 115.459415
L278.088000 114.151492L279.576000 114.756331L281.808000 118.061609
L284.784000 123.052945L286.272000 124.800060L287.760000 125.890974
L289.248000 126.405162L293.712000 126.480295L296.688000 126.488960
L298.176000 125.887239L300.408000 123.029311L304.128000 115.220833
L305.616000 113.836336L307.104000 114.390170L313.800000 122.860355
L315.288000 124.207155L317.520000 127.311589L321.984000 135.768068
L323.472000 137.226448L324.960000 137.559595L326.448000 137.389746
L327.936000 137.617410L329.424000 138.937129L330.912000 141.574809
L333.144000 147.418767L336.120000 155.297667L337.608000 157.688498
L339.096000 158.469358L340.584000 157.485031L342.072000 154.811371
L346.536000 144.209235L348.024000 143.712419L349.512000 145.895979
L351.000000 150.349178L356.208000 168.940688L357.696000 172.041730
L358.440000 173.167397L359.928000 174.801153L361.416000 175.794468
L362.904000 176.048932L364.392000 175.363145L367.368000 172.405096
L368.856000 171.621462L370.344000 171.921142L373.320000 174.631318
L376.296000 177.197587L377.784000 178.378651L380.016000 181.260825
L384.480000 189.928084L385.968000 191.308001L390.432000 192.350741
L394.152000 196.727680L395.640000 197.098256L397.128000 195.981585
L400.104000 192.483263L401.592000 192.585450L403.080000 194.995933
L404.568000 199.375063L408.288000 211.388866L410.520000 215.619077
L414.240000 220.915966L416.472000 225.710991L420.192000 234.260476
L421.680000 235.242344L423.168000 233.594429L424.656000 229.705819
L427.632000 221.232373L428.376000 220.063805L429.864000 219.357961
L431.352000 220.473492L433.584000 223.870928L435.816000 227.332305
L437.304000 228.975564L438.792000 229.932494L441.768000 230.884727
L443.256000 231.942930L445.488000 235.265663L449.208000 242.378699
L450.696000 243.841154L452.184000 244.096611L453.672000 243.462607
L458.136000 240.280657L459.624000 238.867328L464.088000 232.995596
L465.576000 232.241769L467.064000 232.966938L469.296000 236.855968
L475.248000 251.119484L476.736000 252.505754L478.224000 252.462317
L479.712000 251.135851L479.712000 251.135851"/>
</g>
<g id="line2d2">
<path style="fill: none; stroke: #008000; stroke-width: 1.000000; stroke-linejoin: round; stroke-linecap: square;  opacity: 1.000000" clip-path="url(#p50431ccdcb28178602d99d9270004dde)" d="M72.000000 267.433931L73.488000 268.315339L77.952000 272.387993
L80.928000 273.958376L86.880000 279.185037L88.368000 279.749853
L89.856000 279.543146L91.344000 278.497067L94.320000 274.420173
L97.296000 269.894257L98.784000 268.474343L100.272000 268.198730
L101.760000 269.221247L106.224000 275.149593L107.712000 275.797801
L109.200000 275.486915L116.640000 271.049657L121.104000 267.430334
L122.592000 267.238008L127.056000 268.528691L131.520000 267.290813
L133.008000 268.598688L135.240000 272.746858L136.728000 275.182076
L138.216000 275.401616L138.960000 274.309056L140.448000 269.582872
L141.936000 262.027255L144.912000 242.489390L151.608000 196.105573
L152.352000 193.467432L153.096000 192.189942L154.584000 194.281107
L156.072000 202.454386L158.304000 221.922822L160.536000 240.560321
L162.024000 248.138366L162.768000 250.129633L164.256000 250.999479
L165.744000 249.014682L168.720000 242.037749L171.696000 233.796441
L173.928000 225.999244L176.160000 216.208716L178.392000 203.636165
L181.368000 182.088048L186.576000 142.711606L188.808000 131.035240
L191.040000 123.487798L192.528000 120.670752L194.016000 119.704738
L195.504000 120.496550L197.736000 123.926331L200.712000 128.814450
L202.200000 130.229366L203.688000 130.838956L205.176000 130.720042
L206.664000 129.887279L208.896000 127.323935L213.360000 120.900380
L216.336000 117.156226L217.824000 113.845427L220.056000 106.274583
L223.032000 95.560153L224.520000 92.230197L226.008000 90.749776
L227.496000 90.710307L230.472000 91.918680L231.960000 91.968118
L234.936000 91.711464L236.424000 92.684633L240.144000 97.346764
L241.632000 97.942346L246.096000 96.520097L247.584000 97.562700
L249.816000 101.085411L252.792000 106.312061L254.280000 108.056456
L257.256000 109.923610L263.208000 112.578154L264.696000 112.638950
L272.136000 111.508168L276.600000 111.251610L278.088000 110.755701
L279.576000 109.589900L281.808000 106.381686L285.528000 100.069162
L287.016000 98.745337L288.504000 98.415898L291.480000 98.932874
L292.968000 98.796176L300.408000 95.997093L304.872000 93.197502
L306.360000 92.843083L307.848000 93.120872L309.336000 93.984618
L312.312000 97.013356L314.544000 100.558891L319.008000 108.760831
L320.496000 110.113261L321.984000 110.481290L327.936000 109.478210
L330.912000 108.284834L333.888000 107.090511L335.376000 107.271648
L336.864000 108.196504L339.096000 110.952246L341.328000 115.406859
L345.792000 126.084814L346.536000 127.231032L348.024000 128.570485
L349.512000 128.749864L353.976000 127.704639L355.464000 128.135303
L356.952000 129.062137L359.928000 132.054744L362.904000 134.974608
L367.368000 138.039684L370.344000 141.900746L372.576000 144.812755
L374.064000 145.941847L377.040000 147.018040L379.272000 149.229671
L381.504000 153.691905L384.480000 160.247399L385.224000 161.457509
L386.712000 163.125968L388.200000 163.929055L394.152000 165.077209
L395.640000 166.121535L398.616000 169.600685L400.104000 171.373528
L401.592000 172.610040L404.568000 173.855766L406.056000 175.173672
L407.544000 177.870554L409.776000 184.257793L412.008000 190.758547
L413.496000 193.656610L414.984000 195.212700L416.472000 195.764234
L419.448000 195.417444L420.936000 195.108522L422.424000 195.141151
L423.912000 195.899503L426.144000 198.688204L428.376000 202.254305
L429.864000 203.669426L431.352000 203.733950L432.840000 202.449257
L437.304000 196.491344L438.792000 195.848486L440.280000 196.069489
L441.768000 196.991503L444.000000 199.548701L446.232000 203.676615
L450.696000 212.892057L452.184000 215.214299L453.672000 217.042541
L455.160000 218.071929L456.648000 218.008194L458.136000 216.894757
L461.112000 213.561729L462.600000 212.574614L464.088000 212.812660
L465.576000 214.633843L467.064000 217.936292L470.784000 227.289451
L471.528000 228.352186L473.016000 229.179443L474.504000 228.584636
L478.968000 224.843229L480.456000 224.416856L480.456000 224.416856"/>
</g>
<g id="line2d3">
<path style="fill: none; stroke: #ff0000; stroke-width: 1.000000; stroke-linejoin: round; stroke-linecap: square;  opacity: 1.000000" clip-path="url(#p50431ccdcb28178602d99d9270004dde)" d="M72.000000 282.007894L75.720000 262.520461L76.464000 260.723467
L77.952000 261.622708L80.928000 268.769628L82.416000 268.872762
L83.904000 266.918980L86.880000 264.853130L89.856000 264.416347
L91.344000 265.332164L92.832000 268.313957L95.808000 278.681835
L98.040000 285.780066L99.528000 288.537794L101.016000 289.413611
L102.504000 288.396831L103.992000 285.833112L106.224000 281.396000
L107.712000 279.952098L109.200000 280.102303L110.688000 280.641578
L112.176000 280.018391L115.152000 275.493999L116.640000 274.868884
L118.128000 276.768698L120.360000 281.439407L121.848000 282.862950
L123.336000 282.344267L124.824000 281.313824L126.312000 281.282383
L127.800000 282.034334L129.288000 281.497488L130.032000 280.026518
L131.520000 274.203480L135.240000 255.405674L135.984000 254.354810
L137.472000 257.588541L138.960000 267.727609L144.168000 315.134943
L147.888000 337.759998L150.120000 359.080664L152.352000 378.891506
L153.096000 382.518787L153.840000 383.891858L154.584000 382.741486
L155.328000 378.996075L156.816000 364.565053L160.536000 317.801648
L162.024000 309.607920L163.512000 309.614777L165.000000 314.188886
L166.488000 318.874916L167.232000 320.261620L168.720000 320.370711
L170.208000 317.612981L172.440000 312.077674L173.184000 310.919431
L174.672000 311.099678L175.416000 312.806326L176.904000 319.869384
L179.136000 337.749431L182.112000 362.249883L183.600000 370.342371
L185.088000 374.991051L186.576000 375.744280L187.320000 374.526226
L188.808000 369.393468L191.040000 360.003845L191.784000 358.057823
L193.272000 357.359058L194.016000 358.513378L196.992000 365.923890
L198.480000 365.738434L199.224000 363.656470L200.712000 355.443455
L205.176000 323.395144L205.920000 321.161802L206.664000 320.100035
L208.152000 320.399015L214.104000 327.016272L216.336000 330.442984
L217.824000 331.931243L219.312000 331.976397L220.800000 330.390860
L223.032000 325.766509L225.264000 320.909831L226.008000 319.690596
L227.496000 317.934345L228.984000 316.819738L230.472000 316.378808
L231.960000 317.288610L233.448000 320.180098L235.680000 327.567079
L237.912000 335.285651L239.400000 338.609427L240.888000 339.240550
L241.632000 338.209731L243.120000 333.561340L246.096000 321.134577
L246.840000 319.832776L248.328000 321.660733L249.816000 328.929243
L252.792000 346.090093L253.536000 347.983704L255.024000 347.467847
L256.512000 342.530132L258.744000 333.980935L259.488000 332.493317
L260.976000 332.740098L262.464000 336.406483L264.696000 342.657037
L265.440000 343.746922L266.928000 343.869935L270.648000 339.564173
L272.136000 339.601980L273.624000 341.389497L275.112000 345.303252
L276.600000 352.018604L281.064000 377.816068L281.808000 379.004988
L283.296000 376.336066L284.784000 368.075940L287.760000 349.400164
L288.504000 347.240513L289.992000 348.217706L291.480000 355.893565
L294.456000 376.854662L295.200000 379.728905L295.944000 380.872101
L297.432000 378.317299L300.408000 366.813137L301.152000 365.732776
L302.640000 367.533689L304.128000 373.386717L306.360000 382.538844
L307.104000 384.082141L308.592000 383.815263L310.080000 379.685557
L313.800000 365.749674L315.288000 362.884783L316.776000 361.660398
L318.264000 360.995403L319.752000 359.761439L321.240000 357.179610
L322.728000 353.064812L327.936000 336.501288L329.424000 336.651766
L330.912000 340.123226L333.144000 346.962538L333.888000 348.296876
L335.376000 348.342510L336.864000 345.475257L339.096000 340.433219
L341.328000 337.638359L343.560000 334.080430L347.280000 325.730982
L348.768000 324.391436L353.232000 323.196312L354.720000 322.749739
L357.696000 322.614126L359.184000 320.930993L360.672000 316.442762
L365.136000 296.521866L366.624000 296.696518L368.112000 300.859634
L370.344000 308.001057L371.088000 309.408234L372.576000 310.230591
L375.552000 308.160537L377.040000 307.077244L378.528000 305.215315
L380.016000 301.705525L383.736000 291.280420L384.480000 290.196905
L385.968000 289.056639L390.432000 287.414519L391.920000 287.993263
L394.896000 290.341746L396.384000 289.241555L397.872000 284.813561
L402.336000 264.804361L403.824000 264.374144L404.568000 265.878693
L406.056000 271.159134L408.288000 279.772409L409.776000 282.867353
L411.264000 282.393947L412.008000 280.671899L413.496000 274.623191
L417.960000 251.406062L418.704000 249.570212L420.192000 249.156640
L420.936000 250.619887L422.424000 256.192062L424.656000 265.676091
L425.400000 267.300393L426.888000 266.565337L428.376000 261.392706
L430.608000 252.112129L432.096000 248.275803L432.840000 247.153749
L434.328000 246.250630L435.816000 247.719368L437.304000 252.423149
L441.024000 268.438817L442.512000 267.785191L443.256000 265.028257
L445.488000 251.062463L446.976000 242.498169L448.464000 238.016416
L449.952000 237.104180L451.440000 237.462238L452.928000 237.145149
L458.880000 232.730080L461.856000 229.050285L463.344000 228.428685
L464.832000 228.939395L467.808000 230.678651L469.296000 230.830702
L470.784000 229.554949L472.272000 226.518911L475.248000 219.531497
L476.736000 219.235934L477.480000 220.393103L478.968000 225.131046
L480.456000 231.565495L480.456000 231.565495"/>
</g>
<g id="matplotlib.axis1">
<g id="xtick1">
<g id="line2d4">
<defs><path id="m30e32995789d870ad79a2e54c91cf9c6" d="M0.000000 0.000000L0.000000 -4.000000"/></defs>
<g ><use style="fill: none; stroke: #000000; stroke-width: 0.500000; stroke-linejoin: round; stroke-linecap: butt;  opacity: 1.000000" xlink:href="#m30e32995789d870ad79a2e54c91cf9c6" x="72.000000" y="388.800000"/>
</g></g>
<g id="line2d5">
<defs><path id="m9281cae24120827b11d5ea8a7ad3e96b" d="M0.000000 0.000000L0.000000 4.000000"/></defs>
<g ><use style="fill: none; stroke: #000000; stroke-width: 0.500000; stroke-linejoin: round; stroke-linecap: butt;  opacity: 1.000000" xlink:href="#m9281cae24120827b11d5ea8a7ad3e96b" x="72.000000" y="43.200000"/>
</g></g>
<g id="text1">
<defs>
<path id="c_7a2040fe3b94fcd41d0a72c84e93b115" d="M31.781250 -66.406250q-7.609375 0.000000 -11.453125 7.500000q-3.828125 7.484375 -3.828125 22.531250q0.000000 14.984375 3.828125 22.484375q3.843750 7.500000 11.453125 7.500000q7.671875 0.000000 11.500000 -7.500000q3.843750 -7.500000 3.843750 -22.484375q0.000000 -15.046875 -3.843750 -22.531250q-3.828125 -7.500000 -11.500000 -7.500000M31.781250 -74.218750q12.265625 0.000000 18.734375 9.703125q6.468750 9.687500 6.468750 28.140625q0.000000 18.406250 -6.468750 28.109375q-6.468750 9.687500 -18.734375 9.687500q-12.250000 0.000000 -18.718750 -9.687500q-6.468750 -9.703125 -6.468750 -28.109375q0.000000 -18.453125 6.468750 -28.140625q6.468750 -9.703125 18.718750 -9.703125"/>
</defs>
<g style="fill: #000000; opacity: 1.000000" transform="translate(68.976562,401.706250)scale(0.120000)">
<use xlink:href="#c_7a2040fe3b94fcd41d0a72c84e93b115"/>
</g>
</g>
</g>
<g id="xtick2">
<g id="line2d6">
<g ><use style="fill: none; stroke: #000000; stroke-width: 0.500000; stroke-linejoin: round; stroke-linecap: butt;  opacity: 1.000000" xlink:href="#m30e32995789d870ad79a2e54c91cf9c6" x="146.400000" y="388.800000"/>
</g></g>
<g id="line2d7">
<g ><use style="fill: none; stroke: #000000; stroke-width: 0.500000; stroke-linejoin: round; stroke-linecap: butt;  opacity: 1.000000" xlink:href="#m9281cae24120827b11d5ea8a7ad3e96b" x="146.400000" y="43.200000"/>
</g></g>
<g id="text2">
<defs>
<path id="c_42baa63129a918535c52adb20d687ea7" d="M12.406250 -8.296875l16.109375 0.000000l0.000000 -55.625000l-17.531250 3.515625l0.000000 -8.984375l17.437500 -3.515625l9.859375 0.000000l0.000000 64.609375l16.109375 0.000000l0.000000 8.296875l-41.984375 0.000000z"/>
</defs>
<g style="fill: #000000; opacity: 1.000000" transform="translate(135.993750,401.706250)scale(0.120000)">
<use xlink:href="#c_42baa63129a918535c52adb20d687ea7"/>
<use xlink:href="#c_7a2040fe3b94fcd41d0a72c84e93b115" x="63.623047"/>
<use xlink:href="#c_7a2040fe3b94fcd41d0a72c84e93b115" x="127.246094"/>
</g>
</g>
</g>
<g id="xtick3">
<g id="line2d8">
<g ><use style="fill: none; stroke: #000000; stroke-width: 0.500000; stroke-linejoin: round; stroke-linecap: butt;  opacity: 1.000000" xlink:href="#m30e32995789d870ad79a2e54c91cf9c6" x="220.800000" y="388.800000"/>
</g></g>
<g id="line2d9">
<g ><use style="fill: none; stroke: #000000; stroke-width: 0.500000; stroke-linejoin: round; stroke-linecap: butt;  opacity: 1.000000" xlink:href="#m9281cae24120827b11d5ea8a7ad3e96b" x="220.800000" y="43.200000"/>
</g></g>
<g id="text3">
<defs>
<path id="c_ed3f3ed3ebfbd18bcb9c012009a68ad1" d="M19.187500 -8.296875l34.421875 0.000000l0.000000 8.296875l-46.281250 0.000000l0.000000 -8.296875q5.609375 -5.812500 15.296875 -15.593750q9.703125 -9.796875 12.187500 -12.640625q4.734375 -5.312500 6.609375 -9.000000q1.890625 -3.687500 1.890625 -7.250000q0.000000 -5.812500 -4.078125 -9.468750q-4.078125 -3.671875 -10.625000 -3.671875q-4.640625 0.000000 -9.796875 1.609375q-5.140625 1.609375 -11.000000 4.890625l0.000000 -9.968750q5.953125 -2.390625 11.125000 -3.609375q5.187500 -1.218750 9.484375 -1.218750q11.328125 0.000000 18.062500 5.671875q6.734375 5.656250 6.734375 15.125000q0.000000 4.500000 -1.687500 8.531250q-1.671875 4.015625 -6.125000 9.484375q-1.218750 1.421875 -7.765625 8.187500q-6.531250 6.765625 -18.453125 18.921875"/>
</defs>
<g style="fill: #000000; opacity: 1.000000" transform="translate(210.175000,401.706250)scale(0.120000)">
<use xlink:href="#c_ed3f3ed3ebfbd18bcb9c012009a68ad1"/>
<use xlink:href="#c_7a2040fe3b94fcd41d0a72c84e93b115" x="63.623047"/>
<use xlink:href="#c_7a2040fe3b94fcd41d0a72c84e93b115" x="127.246094"/>
</g>
</g>
</g>
<g id="xtick4">
<g id="line2d10">
<g ><use style="fill: none; stroke: #000000; stroke-width: 0.500000; stroke-linejoin: round; stroke-linecap: butt;  opacity: 1.000000" xlink:href="#m30e32995789d870ad79a2e54c91cf9c6" x="295.200000" y="388.800000"/>
</g></g>
<g id="line2d11">
<g ><use style="fill: none; stroke: #000000; stroke-width: 0.500000; stroke-linejoin: round; stroke-linecap: butt;  opacity: 1.000000" xlink:href="#m9281cae24120827b11d5ea8a7ad3e96b" x="295.200000" y="43.200000"/>
</g></g>
<g id="text4">
<defs>
<path id="c_3dcfa38a02242cb63ec6726c6e70be7a" d="M40.578125 -39.312500q7.078125 1.515625 11.046875 6.312500q3.984375 4.781250 3.984375 11.812500q0.000000 10.781250 -7.421875 16.703125q-7.421875 5.906250 -21.093750 5.906250q-4.578125 0.000000 -9.437500 -0.906250q-4.859375 -0.906250 -10.031250 -2.718750l0.000000 -9.515625q4.093750 2.390625 8.968750 3.609375q4.890625 1.218750 10.218750 1.218750q9.265625 0.000000 14.125000 -3.656250q4.859375 -3.656250 4.859375 -10.640625q0.000000 -6.453125 -4.515625 -10.078125q-4.515625 -3.640625 -12.562500 -3.640625l-8.500000 0.000000l0.000000 -8.109375l8.890625 0.000000q7.265625 0.000000 11.125000 -2.906250q3.859375 -2.906250 3.859375 -8.375000q0.000000 -5.609375 -3.984375 -8.609375q-3.968750 -3.015625 -11.390625 -3.015625q-4.062500 0.000000 -8.703125 0.890625q-4.640625 0.875000 -10.203125 2.718750l0.000000 -8.781250q5.625000 -1.562500 10.531250 -2.343750q4.906250 -0.781250 9.250000 -0.781250q11.234375 0.000000 17.765625 5.109375q6.546875 5.093750 6.546875 13.781250q0.000000 6.062500 -3.468750 10.234375q-3.468750 4.171875 -9.859375 5.781250"/>
</defs>
<g style="fill: #000000; opacity: 1.000000" transform="translate(284.598437,401.706250)scale(0.120000)">
<use xlink:href="#c_3dcfa38a02242cb63ec6726c6e70be7a"/>
<use xlink:href="#c_7a2040fe3b94fcd41d0a72c84e93b115" x="63.623047"/>
<use xlink:href="#c_7a2040fe3b94fcd41d0a72c84e93b115" x="127.246094"/>
</g>
</g>
</g>
<g id="xtick5">
<g id="line2d12">
<g ><use style="fill: none; stroke: #000000; stroke-width: 0.500000; stroke-linejoin: round; stroke-linecap: butt;  opacity: 1.000000" xlink:href="#m30e32995789d870ad79a2e54c91cf9c6" x="369.600000" y="388.800000"/>
</g></g>
<g id="line2d13">
<g ><use style="fill: none; stroke: #000000; stroke-width: 0.500000; stroke-linejoin: round; stroke-linecap: butt;  opacity: 1.000000" xlink:href="#m9281cae24120827b11d5ea8a7ad3e96b" x="369.600000" y="43.200000"/>
</g></g>
<g id="text5">
<defs>
<path id="c_a0416418d96557a09b8c1332d34883ba" d="M37.796875 -64.312500l-24.906250 38.921875l24.906250 0.000000zM35.203125 -72.906250l12.406250 0.000000l0.000000 47.515625l10.406250 0.000000l0.000000 8.203125l-10.406250 0.000000l0.000000 17.187500l-9.812500 0.000000l0.000000 -17.187500l-32.906250 0.000000l0.000000 -9.515625z"/>
</defs>
<g style="fill: #000000; opacity: 1.000000" transform="translate(358.834375,401.706250)scale(0.120000)">
<use xlink:href="#c_a0416418d96557a09b8c1332d34883ba"/>
<use xlink:href="#c_7a2040fe3b94fcd41d0a72c84e93b115" x="63.623047"/>
<use xlink:href="#c_7a2040fe3b94fcd41d0a72c84e93b115" x="127.246094"/>
</g>
</g>
</g>
<g id="xtick6">
<g id="line2d14">
<g ><use style="fill: none; stroke: #000000; stroke-width: 0.500000; stroke-linejoin: round; stroke-linecap: butt;  opacity: 1.000000" xlink:href="#m30e32995789d870ad79a2e54c91cf9c6" x="444.000000" y="388.800000"/>
</g></g>
<g id="line2d15">
<g ><use style="fill: none; stroke: #000000; stroke-width: 0.500000; stroke-linejoin: round; stroke-linecap: butt;  opacity: 1.000000" xlink:href="#m9281cae24120827b11d5ea8a7ad3e96b" x="444.000000" y="43.200000"/>
</g></g>
<g id="text6">
<defs>
<path id="c_1260a2df50f305f3db244e29828f968e" d="M10.796875 -72.906250l38.718750 0.000000l0.000000 8.312500l-29.687500 0.000000l0.000000 17.859375q2.140625 -0.734375 4.281250 -1.093750q2.156250 -0.359375 4.312500 -0.359375q12.203125 0.000000 19.328125 6.687500q7.140625 6.687500 7.140625 18.109375q0.000000 11.765625 -7.328125 18.296875q-7.328125 6.515625 -20.656250 6.515625q-4.593750 0.000000 -9.359375 -0.781250q-4.750000 -0.781250 -9.828125 -2.343750l0.000000 -9.921875q4.390625 2.390625 9.078125 3.562500q4.687500 1.171875 9.906250 1.171875q8.453125 0.000000 13.375000 -4.437500q4.937500 -4.437500 4.937500 -12.062500q0.000000 -7.609375 -4.937500 -12.046875q-4.921875 -4.453125 -13.375000 -4.453125q-3.953125 0.000000 -7.890625 0.875000q-3.921875 0.875000 -8.015625 2.734375z"/>
</defs>
<g style="fill: #000000; opacity: 1.000000" transform="translate(433.398438,401.706250)scale(0.120000)">
<use xlink:href="#c_1260a2df50f305f3db244e29828f968e"/>
<use xlink:href="#c_7a2040fe3b94fcd41d0a72c84e93b115" x="63.623047"/>
<use xlink:href="#c_7a2040fe3b94fcd41d0a72c84e93b115" x="127.246094"/>
</g>
</g>
</g>
<g id="xtick7">
<g id="line2d16">
<g ><use style="fill: none; stroke: #000000; stroke-width: 0.500000; stroke-linejoin: round; stroke-linecap: butt;  opacity: 1.000000" xlink:href="#m30e32995789d870ad79a2e54c91cf9c6" x="518.400000" y="388.800000"/>
</g></g>
<g id="line2d17">
<g ><use style="fill: none; stroke: #000000; stroke-width: 0.500000; stroke-linejoin: round; stroke-linecap: butt;  opacity: 1.000000" xlink:href="#m9281cae24120827b11d5ea8a7ad3e96b" x="518.400000" y="43.200000"/>
</g></g>
<g id="text7">
<defs>
<path id="c_cc8d6d580d1b10c8632f7a42cd53db8a" d="M33.015625 -40.375000q-6.640625 0.000000 -10.531250 4.546875q-3.875000 4.531250 -3.875000 12.437500q0.000000 7.859375 3.875000 12.437500q3.890625 4.562500 10.531250 4.562500q6.640625 0.000000 10.515625 -4.562500q3.875000 -4.578125 3.875000 -12.437500q0.000000 -7.906250 -3.875000 -12.437500q-3.875000 -4.546875 -10.515625 -4.546875M52.593750 -71.296875l0.000000 8.984375q-3.718750 -1.750000 -7.500000 -2.671875q-3.781250 -0.937500 -7.500000 -0.937500q-9.765625 0.000000 -14.921875 6.593750q-5.140625 6.593750 -5.875000 19.921875q2.875000 -4.250000 7.218750 -6.515625q4.359375 -2.265625 9.578125 -2.265625q10.984375 0.000000 17.359375 6.671875q6.375000 6.656250 6.375000 18.125000q0.000000 11.234375 -6.640625 18.031250q-6.640625 6.781250 -17.671875 6.781250q-12.656250 0.000000 -19.343750 -9.687500q-6.687500 -9.703125 -6.687500 -28.109375q0.000000 -17.281250 8.203125 -27.562500q8.203125 -10.281250 22.015625 -10.281250q3.718750 0.000000 7.500000 0.734375q3.781250 0.734375 7.890625 2.187500"/>
</defs>
<g style="fill: #000000; opacity: 1.000000" transform="translate(507.759375,401.706250)scale(0.120000)">
<use xlink:href="#c_cc8d6d580d1b10c8632f7a42cd53db8a"/>
<use xlink:href="#c_7a2040fe3b94fcd41d0a72c84e93b115" x="63.623047"/>
<use xlink:href="#c_7a2040fe3b94fcd41d0a72c84e93b115" x="127.246094"/>
</g>
</g>
</g>
</g>
<g id="matplotlib.axis2">
<g id="ytick1">
<g id="line2d18">
<defs><path id="m3400efa6b1638b3fea9e19e898273957" d="M0.000000 0.000000L4.000000 0.000000"/></defs>
<g ><use style="fill: none; stroke: #000000; stroke-width: 0.500000; stroke-linejoin: round; stroke-linecap: butt;  opacity: 1.000000" xlink:href="#m3400efa6b1638b3fea9e19e898273957" x="72.000000" y="388.800000"/>
</g></g>
<g id="line2d19">
<defs><path id="m20b58b2501143cb5e0a5e8f1ef6f1643" d="M0.000000 0.000000L-4.000000 0.000000"/></defs>
<g ><use style="fill: none; stroke: #000000; stroke-width: 0.500000; stroke-linejoin: round; stroke-linecap: butt;  opacity: 1.000000" xlink:href="#m20b58b2501143cb5e0a5e8f1ef6f1643" x="518.400000" y="388.800000"/>
</g></g>
<g id="text8">
<defs>
<path id="c_6a8d56c819c37117ab4cf023bec22a5a" d="M10.593750 -35.500000l62.593750 0.000000l0.000000 8.296875l-62.593750 0.000000z"/>
</defs>
<g style="fill: #000000; opacity: 1.000000" transform="translate(52.234375,393.175000)scale(0.120000)">
<use xlink:href="#c_6a8d56c819c37117ab4cf023bec22a5a"/>
<use xlink:href="#c_a0416418d96557a09b8c1332d34883ba" x="83.789062"/>
</g>
</g>
</g>
<g id="ytick2">
<g id="line2d20">
<g ><use style="fill: none; stroke: #000000; stroke-width: 0.500000; stroke-linejoin: round; stroke-linecap: butt;  opacity: 1.000000" xlink:href="#m3400efa6b1638b3fea9e19e898273957" x="72.000000" y="331.200000"/>
</g></g>
<g id="line2d21">
<g ><use style="fill: none; stroke: #000000; stroke-width: 0.500000; stroke-linejoin: round; stroke-linecap: butt;  opacity: 1.000000" xlink:href="#m20b58b2501143cb5e0a5e8f1ef6f1643" x="518.400000" y="331.200000"/>
</g></g>
<g id="text9">
<g style="fill: #000000; opacity: 1.000000" transform="translate(52.765625,335.653125)scale(0.120000)">
<use xlink:href="#c_6a8d56c819c37117ab4cf023bec22a5a"/>
<use xlink:href="#c_ed3f3ed3ebfbd18bcb9c012009a68ad1" x="83.789062"/>
</g>
</g>
</g>
<g id="ytick3">
<g id="line2d22">
<g ><use style="fill: none; stroke: #000000; stroke-width: 0.500000; stroke-linejoin: round; stroke-linecap: butt;  opacity: 1.000000" xlink:href="#m3400efa6b1638b3fea9e19e898273957" x="72.000000" y="273.600000"/>
</g></g>
<g id="line2d23">
<g ><use style="fill: none; stroke: #000000; stroke-width: 0.500000; stroke-linejoin: round; stroke-linecap: butt;  opacity: 1.000000" xlink:href="#m20b58b2501143cb5e0a5e8f1ef6f1643" x="518.400000" y="273.600000"/>
</g></g>
<g id="text10">
<g style="fill: #000000; opacity: 1.000000" transform="translate(61.953125,277.967188)scale(0.120000)">
<use xlink:href="#c_7a2040fe3b94fcd41d0a72c84e93b115"/>
</g>
</g>
</g>
<g id="ytick4">
<g id="line2d24">
<g ><use style="fill: none; stroke: #000000; stroke-width: 0.500000; stroke-linejoin: round; stroke-linecap: butt;  opacity: 1.000000" xlink:href="#m3400efa6b1638b3fea9e19e898273957" x="72.000000" y="216.000000"/>
</g></g>
<g id="line2d25">
<g ><use style="fill: none; stroke: #000000; stroke-width: 0.500000; stroke-linejoin: round; stroke-linecap: butt;  opacity: 1.000000" xlink:href="#m20b58b2501143cb5e0a5e8f1ef6f1643" x="518.400000" y="216.000000"/>
</g></g>
<g id="text11">
<g style="fill: #000000; opacity: 1.000000" transform="translate(62.437500,220.453125)scale(0.120000)">
<use xlink:href="#c_ed3f3ed3ebfbd18bcb9c012009a68ad1"/>
</g>
</g>
</g>
<g id="ytick5">
<g id="line2d26">
<g ><use style="fill: none; stroke: #000000; stroke-width: 0.500000; stroke-linejoin: round; stroke-linecap: butt;  opacity: 1.000000" xlink:href="#m3400efa6b1638b3fea9e19e898273957" x="72.000000" y="158.400000"/>
</g></g>
<g id="line2d27">
<g ><use style="fill: none; stroke: #000000; stroke-width: 0.500000; stroke-linejoin: round; stroke-linecap: butt;  opacity: 1.000000" xlink:href="#m20b58b2501143cb5e0a5e8f1ef6f1643" x="518.400000" y="158.400000"/>
</g></g>
<g id="text12">
<g style="fill: #000000; opacity: 1.000000" transform="translate(61.625000,162.775000)scale(0.120000)">
<use xlink:href="#c_a0416418d96557a09b8c1332d34883ba"/>
</g>
</g>
</g>
<g id="ytick6">
<g id="line2d28">
<g ><use style="fill: none; stroke: #000000; stroke-width: 0.500000; stroke-linejoin: round; stroke-linecap: butt;  opacity: 1.000000" xlink:href="#m3400efa6b1638b3fea9e19e898273957" x="72.000000" y="100.800000"/>
</g></g>
<g id="line2d29">
<g ><use style="fill: none; stroke: #000000; stroke-width: 0.500000; stroke-linejoin: round; stroke-linecap: butt;  opacity: 1.000000" xlink:href="#m20b58b2501143cb5e0a5e8f1ef6f1643" x="518.400000" y="100.800000"/>
</g></g>
<g id="text13">
<g style="fill: #000000; opacity: 1.000000" transform="translate(61.968750,105.167188)scale(0.120000)">
<use xlink:href="#c_cc8d6d580d1b10c8632f7a42cd53db8a"/>
</g>
</g>
</g>
<g id="ytick7">
<g id="line2d30">
<g ><use style="fill: none; stroke: #000000; stroke-width: 0.500000; stroke-linejoin: round; stroke-linecap: butt;  opacity: 1.000000" xlink:href="#m3400efa6b1638b3fea9e19e898273957" x="72.000000" y="43.200000"/>
</g></g>
<g id="line2d31">
<g ><use style="fill: none; stroke: #000000; stroke-width: 0.500000; stroke-linejoin: round; stroke-linecap: butt;  opacity: 1.000000" xlink:href="#m20b58b2501143cb5e0a5e8f1ef6f1643" x="518.400000" y="43.200000"/>
</g></g>
<g id="text14">
<defs>
<path id="c_bef35738d52871942e50b9de9b122bab" d="M31.781250 -34.625000q-7.031250 0.000000 -11.062500 3.765625q-4.015625 3.765625 -4.015625 10.343750q0.000000 6.593750 4.015625 10.359375q4.031250 3.765625 11.062500 3.765625q7.031250 0.000000 11.078125 -3.781250q4.062500 -3.796875 4.062500 -10.343750q0.000000 -6.578125 -4.031250 -10.343750q-4.015625 -3.765625 -11.109375 -3.765625M21.921875 -38.812500q-6.343750 -1.562500 -9.890625 -5.906250q-3.531250 -4.359375 -3.531250 -10.609375q0.000000 -8.734375 6.218750 -13.812500q6.234375 -5.078125 17.062500 -5.078125q10.890625 0.000000 17.093750 5.078125q6.203125 5.078125 6.203125 13.812500q0.000000 6.250000 -3.546875 10.609375q-3.531250 4.343750 -9.828125 5.906250q7.125000 1.656250 11.093750 6.500000q3.984375 4.828125 3.984375 11.796875q0.000000 10.609375 -6.468750 16.281250q-6.468750 5.656250 -18.531250 5.656250q-12.046875 0.000000 -18.531250 -5.656250q-6.468750 -5.671875 -6.468750 -16.281250q0.000000 -6.968750 4.000000 -11.796875q4.015625 -4.843750 11.140625 -6.500000M18.312500 -54.390625q0.000000 5.656250 3.531250 8.828125q3.546875 3.171875 9.937500 3.171875q6.359375 0.000000 9.937500 -3.171875q3.593750 -3.171875 3.593750 -8.828125q0.000000 -5.671875 -3.593750 -8.843750q-3.578125 -3.171875 -9.937500 -3.171875q-6.390625 0.000000 -9.937500 3.171875q-3.531250 3.171875 -3.531250 8.843750"/>
</defs>
<g style="fill: #000000; opacity: 1.000000" transform="translate(62.000000,47.567188)scale(0.120000)">
<use xlink:href="#c_bef35738d52871942e50b9de9b122bab"/>
</g>
</g>
</g>
</g>
<g id="patch3">
<path style="fill: none; stroke: #000000; stroke-width: 1.000000; stroke-linejoin: round; stroke-linecap: square;  opacity: 1.000000"  d="M72.000000 43.200000L518.400000 43.200000"/>
</g>
<g id="patch4">
<path style="fill: none; stroke: #000000; stroke-width: 1.000000; stroke-linejoin: round; stroke-linecap: square;  opacity: 1.000000"  d="M518.400000 388.800000L518.400000 43.200000"/>
</g>
<g id="patch5">
<path style="fill: none; stroke: #000000; stroke-width: 1.000000; stroke-linejoin: round; stroke-linecap: square;  opacity: 1.000000"  d="M72.000000 388.800000L518.400000 388.800000"/>
</g>
<g id="patch6">
<path style="fill: none; stroke: #000000; stroke-width: 1.000000; stroke-linejoin: round; stroke-linecap: square;  opacity: 1.000000"  d="M72.000000 388.800000L72.000000 43.200000"/>
</g>
</g>
</g>
</svg>
