<?xml version="1.0" standalone="no"?>
<!DOCTYPE svg PUBLIC "-//W3C//DTD SVG 1.1//EN"
  "http://www.w3.org/Graphics/SVG/1.1/DTD/svg11.dtd">
<!-- Created with matplotlib (http://matplotlib.sourceforge.net/) -->
<svg width="576pt" height="432pt" viewBox="0 0 576 432"
   xmlns="http://www.w3.org/2000/svg"
   xmlns:xlink="http://www.w3.org/1999/xlink"
   version="1.1"
   id="svg1">
<g id="figure1">
<g id="patch1">
<path style="fill: #ffffff; stroke: #ffffff; stroke-width: 1.000000; stroke-linejoin: round; stroke-linecap: square;  opacity: 1.000000"  d="M0.000000 432.000000L576.000000 432.000000L576.000000 0.000000
L0.000000 0.000000L0.000000 432.000000"/>
</g>
<g id="axes1">
<g id="patch2">
<path style="fill: #ffffff; opacity: 1.000000"  d="M72.000000 388.800000L518.400000 388.800000L518.400000 43.200000
L72.000000 43.200000L72.000000 388.800000"/>
</g>
<g id="line2d1">
<defs>
  <clipPath id="p50431ccdcb28178602d99d9270004dde">
<rect x="72.000000" y="43.200000" width="446.400000" height="345.600000"/>
  </clipPath>
</defs><path style="fill: none; stroke: #0000ff; stroke-width: 1.000000; stroke-linejoin: round; stroke-linecap: square;  opacity: 1.000000" clip-path="url(#p50431ccdcb28178602d99d9270004dde)" d="M109.200000 312.531292L110.688000 311.433214L112.176000 310.730558
L113.664000 310.454492L116.640000 311.391617L118.128000 311.116693
L119.616000 308.720539L121.104000 303.570260L126.312000 280.743630
L127.056000 279.711264L128.544000 280.330494L130.032000 283.853561
L132.264000 292.084666L135.984000 306.320217L137.472000 310.118422
L138.216000 311.271278L139.704000 312.006273L142.680000 310.234958
L144.168000 310.426700L145.656000 312.519159L147.888000 318.529497
L150.120000 324.324574L150.864000 325.359942L152.352000 325.422144
L153.840000 322.857571L156.072000 315.929496L158.304000 309.084410
L159.792000 306.504737L161.280000 306.383541L162.768000 308.797610
L165.000000 315.627617L167.232000 322.605876L168.720000 325.645179
L171.696000 328.581113L173.184000 329.785772L174.672000 330.239543
L176.160000 328.256249L177.648000 322.495296L179.136000 312.884503
L181.368000 293.086990L184.344000 259.084324L188.064000 212.586180
L189.552000 200.655636L190.296000 197.572910L191.784000 197.978542
L192.528000 201.414403L194.016000 213.751064L199.968000 277.751173
L201.456000 284.744254L202.200000 286.583860L203.688000 287.741544
L205.176000 286.676919L208.896000 280.951365L210.384000 278.211038
L211.872000 274.088377L213.360000 267.082986L214.848000 255.940454
L217.080000 231.146950L223.776000 144.666324L225.264000 134.345991
L226.752000 129.281554L228.240000 128.427628L230.472000 131.118451
L234.192000 137.478330L236.424000 143.177701L239.400000 151.599525
L240.144000 153.039050L241.632000 154.378843L243.120000 153.368207
L244.608000 150.096121L246.840000 142.480958L249.816000 132.829877
L255.768000 117.985522L263.952000 90.898963L266.184000 86.163046
L268.416000 83.418015L271.392000 80.574005L272.880000 78.221022
L275.856000 71.521882L278.832000 65.148273L280.320000 62.832946
L281.808000 61.402444L283.296000 61.431592L284.784000 63.652018
L286.272000 68.284444L290.736000 85.770319L292.224000 88.590784
L293.712000 89.701934L296.688000 90.089305L298.176000 89.988760
L299.664000 89.383138L304.128000 86.036401L305.616000 85.517503
L307.104000 84.631133L308.592000 82.335230L310.080000 78.100248
L313.800000 65.189122L314.544000 63.840131L316.032000 63.349372
L317.520000 65.457223L320.496000 73.074003L322.728000 78.012577
L323.472000 79.200089L324.960000 80.836462L326.448000 81.607743
L329.424000 81.734882L333.888000 81.733440L335.376000 80.830859
L336.864000 78.420403L338.352000 74.283762L341.328000 64.831249
L342.072000 63.434901L343.560000 62.824418L345.048000 64.889587
L349.512000 74.409666L353.232000 79.607380L355.464000 85.014693
L359.184000 95.652102L359.928000 96.979855L361.416000 98.260826
L364.392000 98.101531L365.880000 99.171998L367.368000 102.146423
L368.856000 106.999056L374.064000 127.015974L374.808000 128.532747
L376.296000 129.704037L377.784000 128.227547L379.272000 124.217056
L383.736000 108.313852L385.224000 107.568629L385.968000 108.715148
L387.456000 113.838478L389.688000 126.102001L392.664000 142.354715
L394.152000 147.969906L395.640000 151.751095L397.128000 154.201729
L398.616000 155.691702L400.104000 156.073398L401.592000 155.044717
L404.568000 150.607645L406.056000 149.432193L407.544000 149.881713
L409.776000 152.780630L412.008000 156.072502L415.728000 160.708863
L417.216000 163.891238L422.424000 178.173787L423.912000 179.312016
L425.400000 179.327877L426.888000 179.766232L429.120000 183.098457
L431.352000 187.091520L432.840000 187.647384L434.328000 185.972377
L436.560000 181.682354L438.048000 180.403082L439.536000 182.257653
L441.024000 187.469797L446.232000 211.595794L448.464000 216.950836
L451.440000 223.373950L453.672000 230.566486L457.392000 243.390713
L458.136000 244.582598L459.624000 244.126523L460.368000 242.391644
L461.856000 236.558728L464.832000 223.848559L465.576000 222.095708
L467.064000 221.036941L468.552000 222.710238L470.784000 227.806392
L473.760000 234.359900L474.504000 235.463346L475.992000 236.898741
L478.968000 238.327091L480.456000 239.914395L481.944000 242.898826
L487.152000 256.897882L488.640000 258.162147L490.128000 257.789464
L493.104000 254.855208L496.080000 251.447753L498.312000 247.441290
L501.288000 241.493393L502.776000 240.362653L504.264000 241.450408
L505.752000 244.860205L507.984000 253.036098L510.960000 264.636116
L512.448000 268.679225L513.192000 269.973638L514.680000 270.994118
L516.168000 269.901808L517.656000 267.205575L517.656000 267.205575"/>
</g>
<g id="line2d2">
<path style="fill: none; stroke: #008000; stroke-width: 1.000000; stroke-linejoin: round; stroke-linecap: square;  opacity: 1.000000" clip-path="url(#p50431ccdcb28178602d99d9270004dde)" d="M109.200000 309.777952L113.664000 311.097309L118.128000 314.543232
L119.616000 313.194373L121.104000 308.872274L123.336000 298.329700
L126.312000 283.852876L127.800000 279.305928L128.544000 278.106110
L130.032000 278.192396L130.776000 279.529109L132.264000 284.595486
L134.496000 296.111296L136.728000 307.554810L138.216000 312.512786
L138.960000 313.808069L140.448000 313.989505L142.680000 310.184169
L144.168000 307.512490L145.656000 306.785924L147.144000 308.790998
L149.376000 315.394086L150.864000 319.640254L151.608000 321.018028
L153.096000 321.516868L153.840000 320.515356L155.328000 316.201277
L159.792000 298.365189L160.536000 297.208636L162.024000 297.906282
L163.512000 302.392027L167.976000 321.364067L168.720000 322.419454
L170.208000 321.448521L171.696000 317.419315L173.928000 311.236370
L175.416000 310.628700L176.160000 311.817350L177.648000 316.813642
L181.368000 332.594171L182.112000 333.894944L183.600000 332.882534
L184.344000 330.475869L185.832000 322.362614L190.296000 292.638245
L191.784000 288.710044L193.272000 288.919361L194.760000 291.944557
L197.736000 299.117103L199.224000 300.391716L200.712000 299.357541
L202.200000 296.530094L206.664000 286.613606L211.872000 277.522234
L213.360000 273.297837L214.848000 267.078863L217.080000 253.471322
L221.544000 223.682533L223.776000 214.593414L225.264000 211.212924
L226.752000 209.771154L228.240000 209.689457L231.216000 210.255362
L232.704000 210.300465L234.192000 210.716366L235.680000 211.511058
L237.168000 211.615487L238.656000 209.424168L240.144000 204.064295
L242.376000 191.658492L245.352000 175.480544L246.840000 170.056896
L248.328000 166.699405L249.072000 165.699080L250.560000 164.636029
L252.048000 163.987313L254.280000 161.717346L256.512000 157.293014
L260.976000 146.355307L264.696000 136.275708L266.184000 133.857343
L267.672000 133.179325L269.160000 134.129522L272.880000 139.482607
L274.368000 140.656514L275.856000 140.244701L278.088000 136.640348
L281.808000 128.859061L283.296000 128.200191L284.784000 130.392221
L286.272000 135.606353L290.736000 155.664449L291.480000 157.357954
L292.968000 158.753859L294.456000 158.407244L301.896000 153.980080
L304.872000 151.130199L307.104000 147.485553L308.592000 143.619526
L310.824000 135.598020L315.288000 118.664106L317.520000 113.508291
L319.008000 111.288544L320.496000 109.891290L321.984000 109.524477
L323.472000 110.462448L327.192000 115.981224L328.680000 117.087225
L330.168000 116.918557L333.144000 114.569694L335.376000 111.608638
L337.608000 106.845097L341.328000 98.485030L343.560000 95.188225
L348.024000 89.917115L349.512000 89.400071L351.000000 90.520924
L352.488000 93.682082L354.720000 101.660030L357.696000 112.567085
L359.184000 115.589465L360.672000 116.775103L363.648000 117.366593
L365.880000 119.567347L368.112000 123.984654L372.576000 134.083977
L374.064000 136.312313L375.552000 137.880059L377.040000 138.723026
L378.528000 138.458829L380.760000 135.463681L382.992000 131.566189
L384.480000 130.891426L385.968000 132.934955L387.456000 137.692100
L389.688000 148.355197L393.408000 167.015369L394.896000 172.065787
L396.384000 175.136329L397.872000 176.337725L399.360000 175.775125
L401.592000 172.117172L403.824000 168.051342L405.312000 167.755051
L406.800000 170.278524L410.520000 180.137030L412.008000 181.234132
L414.984000 179.811962L416.472000 180.345815L417.960000 183.007408
L420.192000 189.974607L422.424000 196.582359L423.912000 199.053005
L429.864000 203.458725L431.352000 203.690932L432.840000 201.930067
L435.072000 196.415123L437.304000 191.411187L438.792000 190.642480
L440.280000 192.921264L441.768000 198.278057L444.744000 214.174165
L446.976000 224.641341L448.464000 229.270394L450.696000 233.684586
L454.416000 240.352163L456.648000 244.569666L458.136000 246.107481
L459.624000 245.247973L461.112000 241.425441L464.832000 227.451728
L465.576000 226.020592L467.064000 225.670248L469.296000 230.023595
L472.272000 237.427954L473.016000 238.666043L474.504000 240.072969
L475.992000 240.203796L478.968000 239.339704L480.456000 240.257946
L481.944000 242.618299L486.408000 251.465180L487.896000 253.008629
L489.384000 253.688660L490.872000 253.507618L492.360000 252.549758
L496.824000 248.730991L501.288000 245.075674L502.776000 244.911595
L504.264000 246.541026L505.752000 250.373471L507.984000 259.443644
L510.960000 272.244999L512.448000 275.828199L513.936000 276.345907
L515.424000 274.165024L517.656000 268.679676L517.656000 268.679676"/>
</g>
<g id="line2d3">
<path style="fill: none; stroke: #ff0000; stroke-width: 1.000000; stroke-linejoin: round; stroke-linecap: square;  opacity: 1.000000" clip-path="url(#p50431ccdcb28178602d99d9270004dde)" d="M109.200000 322.188313L110.688000 322.059934L112.176000 320.178806
L114.408000 314.766112L121.848000 294.602439L123.336000 291.887026
L124.824000 290.727652L126.312000 291.541341L127.800000 294.005132
L130.776000 299.413489L132.264000 300.506710L133.752000 300.511051
L135.240000 299.887890L136.728000 298.812986L139.704000 295.906788
L141.192000 295.984733L141.936000 297.034112L143.424000 301.458544
L147.888000 320.020134L148.632000 321.457079L150.120000 322.104665
L152.352000 319.368033L154.584000 315.912689L159.048000 309.846979
L161.280000 307.026751L162.768000 306.652181L164.256000 307.780810
L165.744000 310.162279L167.232000 313.868707L168.720000 319.740136
L170.208000 328.912565L173.928000 357.873097L174.672000 359.531397
L175.416000 357.750628L176.160000 351.913330L177.648000 327.494664
L179.880000 267.236649L183.600000 164.776352L185.832000 120.932673
L187.320000 99.812762L188.808000 87.036417L189.552000 84.439455
L191.040000 87.559724L192.528000 101.349969L194.016000 123.794584
L201.456000 254.511430L202.944000 268.126933L204.432000 276.415067
L205.920000 280.449219L207.408000 281.640939L208.896000 281.141993
L210.384000 279.148647L211.872000 274.601808L213.360000 265.606410
L214.848000 250.603736L217.080000 217.483041L221.544000 145.034208
L223.032000 128.698984L224.520000 118.544671L225.264000 115.833094
L226.008000 114.614786L227.496000 116.118725L228.984000 121.645452
L231.216000 133.988798L234.936000 158.415546L237.168000 177.240997
L244.608000 247.388494L246.096000 252.566804L246.840000 253.813137
L248.328000 254.623444L249.816000 254.272045L251.304000 253.072951
L252.792000 250.360194L254.280000 245.356212L256.512000 233.905890
L259.488000 218.060750L261.720000 210.145238L265.440000 199.312423
L269.160000 186.654072L270.648000 183.765609L275.112000 178.216098
L279.576000 170.369275L281.064000 168.877634L282.552000 168.155162
L284.040000 168.146356L287.016000 168.806576L288.504000 167.926386
L289.992000 165.565153L293.712000 157.611099L295.200000 156.237338
L296.688000 156.322887L299.664000 157.667809L301.152000 156.993015
L303.384000 153.617346L307.104000 147.061515L311.568000 139.743921
L313.056000 139.242398L314.544000 141.822438L316.032000 147.614155
L321.240000 173.035193L322.728000 177.295296L324.216000 179.945786
L325.704000 180.963384L327.192000 180.326339L330.168000 176.038210
L330.912000 174.956414L332.400000 173.389276L333.888000 172.783675
L336.864000 173.064558L338.352000 172.592245L339.840000 171.460743
L341.328000 170.783003L342.816000 172.201115L344.304000 176.405775
L348.024000 189.329229L351.744000 196.131191L353.232000 201.843838
L357.696000 223.118291L358.440000 224.728852L359.928000 225.134361
L361.416000 222.524653L363.648000 217.481460L365.136000 216.441063
L366.624000 218.213046L368.112000 222.210817L375.552000 246.549842
L376.296000 247.807531L377.784000 248.326182L378.528000 247.312565
L380.016000 242.591839L383.736000 226.570775L385.224000 226.115061
L385.968000 228.000134L387.456000 235.270176L391.176000 257.479083
L392.664000 262.049701L393.408000 263.182563L396.384000 265.193738
L397.872000 267.970056L400.848000 275.127259L402.336000 275.106029
L403.080000 273.767423L405.312000 266.723859L406.800000 262.326757
L407.544000 260.916331L409.032000 260.218268L410.520000 262.277388
L414.984000 273.044380L416.472000 274.495891L425.400000 277.711087
L426.888000 279.854608L428.376000 284.474636L432.840000 302.110869
L434.328000 302.444434L435.072000 301.015283L436.560000 295.915696
L438.792000 288.129978L439.536000 286.944144L441.024000 287.526299
L442.512000 291.245648L444.744000 297.592906L446.232000 300.387068
L449.952000 305.725437L452.184000 310.845599L455.160000 319.982132
L458.136000 329.113517L458.880000 330.566581L460.368000 331.655213
L461.856000 330.497980L463.344000 328.425902L464.832000 327.145878
L466.320000 327.311479L467.808000 328.158448L469.296000 328.390994
L470.784000 327.400420L472.272000 325.805254L473.760000 324.698767
L475.248000 324.732305L476.736000 325.748168L479.712000 329.225117
L481.200000 332.199364L482.688000 336.781270L486.408000 350.222796
L487.152000 351.609479L488.640000 352.313740L491.616000 350.537930
L493.104000 350.950000L494.592000 351.761981L496.080000 351.073591
L497.568000 347.690393L501.288000 334.913273L502.032000 333.593894
L503.520000 333.265322L505.752000 337.239019L514.680000 358.868298
L516.168000 359.293763L516.912000 358.275361L517.656000 356.507740
L517.656000 356.507740"/>
</g>
<g id="matplotlib.axis1">
<g id="xtick1">
<g id="line2d4">
<defs><path id="m30e32995789d870ad79a2e54c91cf9c6" d="M0.000000 0.000000L0.000000 -4.000000"/></defs>
<g ><use style="fill: none; stroke: #000000; stroke-width: 0.500000; stroke-linejoin: round; stroke-linecap: butt;  opacity: 1.000000" xlink:href="#m30e32995789d870ad79a2e54c91cf9c6" x="72.000000" y="388.800000"/>
</g></g>
<g id="line2d5">
<defs><path id="m9281cae24120827b11d5ea8a7ad3e96b" d="M0.000000 0.000000L0.000000 4.000000"/></defs>
<g ><use style="fill: none; stroke: #000000; stroke-width: 0.500000; stroke-linejoin: round; stroke-linecap: butt;  opacity: 1.000000" xlink:href="#m9281cae24120827b11d5ea8a7ad3e96b" x="72.000000" y="43.200000"/>
</g></g>
<g id="text1">
<defs>
<path id="c_6a8d56c819c37117ab4cf023bec22a5a" d="M10.593750 -35.500000l62.593750 0.000000l0.000000 8.296875l-62.593750 0.000000z"/>
<path id="c_ed3f3ed3ebfbd18bcb9c012009a68ad1" d="M19.187500 -8.296875l34.421875 0.000000l0.000000 8.296875l-46.281250 0.000000l0.000000 -8.296875q5.609375 -5.812500 15.296875 -15.593750q9.703125 -9.796875 12.187500 -12.640625q4.734375 -5.312500 6.609375 -9.000000q1.890625 -3.687500 1.890625 -7.250000q0.000000 -5.812500 -4.078125 -9.468750q-4.078125 -3.671875 -10.625000 -3.671875q-4.640625 0.000000 -9.796875 1.609375q-5.140625 1.609375 -11.000000 4.890625l0.000000 -9.968750q5.953125 -2.390625 11.125000 -3.609375q5.187500 -1.218750 9.484375 -1.218750q11.328125 0.000000 18.062500 5.671875q6.734375 5.656250 6.734375 15.125000q0.000000 4.500000 -1.687500 8.531250q-1.671875 4.015625 -6.125000 9.484375q-1.218750 1.421875 -7.765625 8.187500q-6.531250 6.765625 -18.453125 18.921875"/>
<path id="c_7a2040fe3b94fcd41d0a72c84e93b115" d="M31.781250 -66.406250q-7.609375 0.000000 -11.453125 7.500000q-3.828125 7.484375 -3.828125 22.531250q0.000000 14.984375 3.828125 22.484375q3.843750 7.500000 11.453125 7.500000q7.671875 0.000000 11.500000 -7.500000q3.843750 -7.500000 3.843750 -22.484375q0.000000 -15.046875 -3.843750 -22.531250q-3.828125 -7.500000 -11.500000 -7.500000M31.781250 -74.218750q12.265625 0.000000 18.734375 9.703125q6.468750 9.687500 6.468750 28.140625q0.000000 18.406250 -6.468750 28.109375q-6.468750 9.687500 -18.734375 9.687500q-12.250000 0.000000 -18.718750 -9.687500q-6.468750 -9.703125 -6.468750 -28.109375q0.000000 -18.453125 6.468750 -28.140625q6.468750 -9.703125 18.718750 -9.703125"/>
</defs>
<g style="fill: #000000; opacity: 1.000000" transform="translate(56.539062,401.706250)scale(0.120000)">
<use xlink:href="#c_6a8d56c819c37117ab4cf023bec22a5a"/>
<use xlink:href="#c_ed3f3ed3ebfbd18bcb9c012009a68ad1" x="83.789062"/>
<use xlink:href="#c_7a2040fe3b94fcd41d0a72c84e93b115" x="147.412109"/>
<use xlink:href="#c_7a2040fe3b94fcd41d0a72c84e93b115" x="211.035156"/>
</g>
</g>
</g>
<g id="xtick2">
<g id="line2d6">
<g ><use style="fill: none; stroke: #000000; stroke-width: 0.500000; stroke-linejoin: round; stroke-linecap: butt;  opacity: 1.000000" xlink:href="#m30e32995789d870ad79a2e54c91cf9c6" x="146.400000" y="388.800000"/>
</g></g>
<g id="line2d7">
<g ><use style="fill: none; stroke: #000000; stroke-width: 0.500000; stroke-linejoin: round; stroke-linecap: butt;  opacity: 1.000000" xlink:href="#m9281cae24120827b11d5ea8a7ad3e96b" x="146.400000" y="43.200000"/>
</g></g>
<g id="text2">
<g style="fill: #000000; opacity: 1.000000" transform="translate(143.376563,401.706250)scale(0.120000)">
<use xlink:href="#c_7a2040fe3b94fcd41d0a72c84e93b115"/>
</g>
</g>
</g>
<g id="xtick3">
<g id="line2d8">
<g ><use style="fill: none; stroke: #000000; stroke-width: 0.500000; stroke-linejoin: round; stroke-linecap: butt;  opacity: 1.000000" xlink:href="#m30e32995789d870ad79a2e54c91cf9c6" x="220.800000" y="388.800000"/>
</g></g>
<g id="line2d9">
<g ><use style="fill: none; stroke: #000000; stroke-width: 0.500000; stroke-linejoin: round; stroke-linecap: butt;  opacity: 1.000000" xlink:href="#m9281cae24120827b11d5ea8a7ad3e96b" x="220.800000" y="43.200000"/>
</g></g>
<g id="text3">
<g style="fill: #000000; opacity: 1.000000" transform="translate(210.175000,401.706250)scale(0.120000)">
<use xlink:href="#c_ed3f3ed3ebfbd18bcb9c012009a68ad1"/>
<use xlink:href="#c_7a2040fe3b94fcd41d0a72c84e93b115" x="63.623047"/>
<use xlink:href="#c_7a2040fe3b94fcd41d0a72c84e93b115" x="127.246094"/>
</g>
</g>
</g>
<g id="xtick4">
<g id="line2d10">
<g ><use style="fill: none; stroke: #000000; stroke-width: 0.500000; stroke-linejoin: round; stroke-linecap: butt;  opacity: 1.000000" xlink:href="#m30e32995789d870ad79a2e54c91cf9c6" x="295.200000" y="388.800000"/>
</g></g>
<g id="line2d11">
<g ><use style="fill: none; stroke: #000000; stroke-width: 0.500000; stroke-linejoin: round; stroke-linecap: butt;  opacity: 1.000000" xlink:href="#m9281cae24120827b11d5ea8a7ad3e96b" x="295.200000" y="43.200000"/>
</g></g>
<g id="text4">
<defs>
<path id="c_a0416418d96557a09b8c1332d34883ba" d="M37.796875 -64.312500l-24.906250 38.921875l24.906250 0.000000zM35.203125 -72.906250l12.406250 0.000000l0.000000 47.515625l10.406250 0.000000l0.000000 8.203125l-10.406250 0.000000l0.000000 17.187500l-9.812500 0.000000l0.000000 -17.187500l-32.906250 0.000000l0.000000 -9.515625z"/>
</defs>
<g style="fill: #000000; opacity: 1.000000" transform="translate(284.434375,401.706250)scale(0.120000)">
<use xlink:href="#c_a0416418d96557a09b8c1332d34883ba"/>
<use xlink:href="#c_7a2040fe3b94fcd41d0a72c84e93b115" x="63.623047"/>
<use xlink:href="#c_7a2040fe3b94fcd41d0a72c84e93b115" x="127.246094"/>
</g>
</g>
</g>
<g id="xtick5">
<g id="line2d12">
<g ><use style="fill: none; stroke: #000000; stroke-width: 0.500000; stroke-linejoin: round; stroke-linecap: butt;  opacity: 1.000000" xlink:href="#m30e32995789d870ad79a2e54c91cf9c6" x="369.600000" y="388.800000"/>
</g></g>
<g id="line2d13">
<g ><use style="fill: none; stroke: #000000; stroke-width: 0.500000; stroke-linejoin: round; stroke-linecap: butt;  opacity: 1.000000" xlink:href="#m9281cae24120827b11d5ea8a7ad3e96b" x="369.600000" y="43.200000"/>
</g></g>
<g id="text5">
<defs>
<path id="c_cc8d6d580d1b10c8632f7a42cd53db8a" d="M33.015625 -40.375000q-6.640625 0.000000 -10.531250 4.546875q-3.875000 4.531250 -3.875000 12.437500q0.000000 7.859375 3.875000 12.437500q3.890625 4.562500 10.531250 4.562500q6.640625 0.000000 10.515625 -4.562500q3.875000 -4.578125 3.875000 -12.437500q0.000000 -7.906250 -3.875000 -12.437500q-3.875000 -4.546875 -10.515625 -4.546875M52.593750 -71.296875l0.000000 8.984375q-3.718750 -1.750000 -7.500000 -2.671875q-3.781250 -0.937500 -7.500000 -0.937500q-9.765625 0.000000 -14.921875 6.593750q-5.140625 6.593750 -5.875000 19.921875q2.875000 -4.250000 7.218750 -6.515625q4.359375 -2.265625 9.578125 -2.265625q10.984375 0.000000 17.359375 6.671875q6.375000 6.656250 6.375000 18.125000q0.000000 11.234375 -6.640625 18.031250q-6.640625 6.781250 -17.671875 6.781250q-12.656250 0.000000 -19.343750 -9.687500q-6.687500 -9.703125 -6.687500 -28.109375q0.000000 -17.281250 8.203125 -27.562500q8.203125 -10.281250 22.015625 -10.281250q3.718750 0.000000 7.500000 0.734375q3.781250 0.734375 7.890625 2.187500"/>
</defs>
<g style="fill: #000000; opacity: 1.000000" transform="translate(358.959375,401.706250)scale(0.120000)">
<use xlink:href="#c_cc8d6d580d1b10c8632f7a42cd53db8a"/>
<use xlink:href="#c_7a2040fe3b94fcd41d0a72c84e93b115" x="63.623047"/>
<use xlink:href="#c_7a2040fe3b94fcd41d0a72c84e93b115" x="127.246094"/>
</g>
</g>
</g>
<g id="xtick6">
<g id="line2d14">
<g ><use style="fill: none; stroke: #000000; stroke-width: 0.500000; stroke-linejoin: round; stroke-linecap: butt;  opacity: 1.000000" xlink:href="#m30e32995789d870ad79a2e54c91cf9c6" x="444.000000" y="388.800000"/>
</g></g>
<g id="line2d15">
<g ><use style="fill: none; stroke: #000000; stroke-width: 0.500000; stroke-linejoin: round; stroke-linecap: butt;  opacity: 1.000000" xlink:href="#m9281cae24120827b11d5ea8a7ad3e96b" x="444.000000" y="43.200000"/>
</g></g>
<g id="text6">
<defs>
<path id="c_bef35738d52871942e50b9de9b122bab" d="M31.781250 -34.625000q-7.031250 0.000000 -11.062500 3.765625q-4.015625 3.765625 -4.015625 10.343750q0.000000 6.593750 4.015625 10.359375q4.031250 3.765625 11.062500 3.765625q7.031250 0.000000 11.078125 -3.781250q4.062500 -3.796875 4.062500 -10.343750q0.000000 -6.578125 -4.031250 -10.343750q-4.015625 -3.765625 -11.109375 -3.765625M21.921875 -38.812500q-6.343750 -1.562500 -9.890625 -5.906250q-3.531250 -4.359375 -3.531250 -10.609375q0.000000 -8.734375 6.218750 -13.812500q6.234375 -5.078125 17.062500 -5.078125q10.890625 0.000000 17.093750 5.078125q6.203125 5.078125 6.203125 13.812500q0.000000 6.250000 -3.546875 10.609375q-3.531250 4.343750 -9.828125 5.906250q7.125000 1.656250 11.093750 6.500000q3.984375 4.828125 3.984375 11.796875q0.000000 10.609375 -6.468750 16.281250q-6.468750 5.656250 -18.531250 5.656250q-12.046875 0.000000 -18.531250 -5.656250q-6.468750 -5.671875 -6.468750 -16.281250q0.000000 -6.968750 4.000000 -11.796875q4.015625 -4.843750 11.140625 -6.500000M18.312500 -54.390625q0.000000 5.656250 3.531250 8.828125q3.546875 3.171875 9.937500 3.171875q6.359375 0.000000 9.937500 -3.171875q3.593750 -3.171875 3.593750 -8.828125q0.000000 -5.671875 -3.593750 -8.843750q-3.578125 -3.171875 -9.937500 -3.171875q-6.390625 0.000000 -9.937500 3.171875q-3.531250 3.171875 -3.531250 8.843750"/>
</defs>
<g style="fill: #000000; opacity: 1.000000" transform="translate(433.343750,401.706250)scale(0.120000)">
<use xlink:href="#c_bef35738d52871942e50b9de9b122bab"/>
<use xlink:href="#c_7a2040fe3b94fcd41d0a72c84e93b115" x="63.623047"/>
<use xlink:href="#c_7a2040fe3b94fcd41d0a72c84e93b115" x="127.246094"/>
</g>
</g>
</g>
<g id="xtick7">
<g id="line2d16">
<g ><use style="fill: none; stroke: #000000; stroke-width: 0.500000; stroke-linejoin: round; stroke-linecap: butt;  opacity: 1.000000" xlink:href="#m30e32995789d870ad79a2e54c91cf9c6" x="518.400000" y="388.800000"/>
</g></g>
<g id="line2d17">
<g ><use style="fill: none; stroke: #000000; stroke-width: 0.500000; stroke-linejoin: round; stroke-linecap: butt;  opacity: 1.000000" xlink:href="#m9281cae24120827b11d5ea8a7ad3e96b" x="518.400000" y="43.200000"/>
</g></g>
<g id="text7">
<defs>
<path id="c_42baa63129a918535c52adb20d687ea7" d="M12.406250 -8.296875l16.109375 0.000000l0.000000 -55.625000l-17.531250 3.515625l0.000000 -8.984375l17.437500 -3.515625l9.859375 0.000000l0.000000 64.609375l16.109375 0.000000l0.000000 8.296875l-41.984375 0.000000z"/>
</defs>
<g style="fill: #000000; opacity: 1.000000" transform="translate(504.173437,401.706250)scale(0.120000)">
<use xlink:href="#c_42baa63129a918535c52adb20d687ea7"/>
<use xlink:href="#c_7a2040fe3b94fcd41d0a72c84e93b115" x="63.623047"/>
<use xlink:href="#c_7a2040fe3b94fcd41d0a72c84e93b115" x="127.246094"/>
<use xlink:href="#c_7a2040fe3b94fcd41d0a72c84e93b115" x="190.869141"/>
</g>
</g>
</g>
</g>
<g id="matplotlib.axis2">
<g id="ytick1">
<g id="line2d18">
<defs><path id="m3400efa6b1638b3fea9e19e898273957" d="M0.000000 0.000000L4.000000 0.000000"/></defs>
<g ><use style="fill: none; stroke: #000000; stroke-width: 0.500000; stroke-linejoin: round; stroke-linecap: butt;  opacity: 1.000000" xlink:href="#m3400efa6b1638b3fea9e19e898273957" x="72.000000" y="388.800000"/>
</g></g>
<g id="line2d19">
<defs><path id="m20b58b2501143cb5e0a5e8f1ef6f1643" d="M0.000000 0.000000L-4.000000 0.000000"/></defs>
<g ><use style="fill: none; stroke: #000000; stroke-width: 0.500000; stroke-linejoin: round; stroke-linecap: butt;  opacity: 1.000000" xlink:href="#m20b58b2501143cb5e0a5e8f1ef6f1643" x="518.400000" y="388.800000"/>
</g></g>
<g id="text8">
<g style="fill: #000000; opacity: 1.000000" transform="translate(52.765625,393.253125)scale(0.120000)">
<use xlink:href="#c_6a8d56c819c37117ab4cf023bec22a5a"/>
<use xlink:href="#c_ed3f3ed3ebfbd18bcb9c012009a68ad1" x="83.789062"/>
</g>
</g>
</g>
<g id="ytick2">
<g id="line2d20">
<g ><use style="fill: none; stroke: #000000; stroke-width: 0.500000; stroke-linejoin: round; stroke-linecap: butt;  opacity: 1.000000" xlink:href="#m3400efa6b1638b3fea9e19e898273957" x="72.000000" y="345.600000"/>
</g></g>
<g id="line2d21">
<g ><use style="fill: none; stroke: #000000; stroke-width: 0.500000; stroke-linejoin: round; stroke-linecap: butt;  opacity: 1.000000" xlink:href="#m20b58b2501143cb5e0a5e8f1ef6f1643" x="518.400000" y="345.600000"/>
</g></g>
<g id="text9">
<g style="fill: #000000; opacity: 1.000000" transform="translate(52.671875,349.975000)scale(0.120000)">
<use xlink:href="#c_6a8d56c819c37117ab4cf023bec22a5a"/>
<use xlink:href="#c_42baa63129a918535c52adb20d687ea7" x="83.789062"/>
</g>
</g>
</g>
<g id="ytick3">
<g id="line2d22">
<g ><use style="fill: none; stroke: #000000; stroke-width: 0.500000; stroke-linejoin: round; stroke-linecap: butt;  opacity: 1.000000" xlink:href="#m3400efa6b1638b3fea9e19e898273957" x="72.000000" y="302.400000"/>
</g></g>
<g id="line2d23">
<g ><use style="fill: none; stroke: #000000; stroke-width: 0.500000; stroke-linejoin: round; stroke-linecap: butt;  opacity: 1.000000" xlink:href="#m20b58b2501143cb5e0a5e8f1ef6f1643" x="518.400000" y="302.400000"/>
</g></g>
<g id="text10">
<g style="fill: #000000; opacity: 1.000000" transform="translate(61.953125,306.767187)scale(0.120000)">
<use xlink:href="#c_7a2040fe3b94fcd41d0a72c84e93b115"/>
</g>
</g>
</g>
<g id="ytick4">
<g id="line2d24">
<g ><use style="fill: none; stroke: #000000; stroke-width: 0.500000; stroke-linejoin: round; stroke-linecap: butt;  opacity: 1.000000" xlink:href="#m3400efa6b1638b3fea9e19e898273957" x="72.000000" y="259.200000"/>
</g></g>
<g id="line2d25">
<g ><use style="fill: none; stroke: #000000; stroke-width: 0.500000; stroke-linejoin: round; stroke-linecap: butt;  opacity: 1.000000" xlink:href="#m20b58b2501143cb5e0a5e8f1ef6f1643" x="518.400000" y="259.200000"/>
</g></g>
<g id="text11">
<g style="fill: #000000; opacity: 1.000000" transform="translate(62.781250,263.575000)scale(0.120000)">
<use xlink:href="#c_42baa63129a918535c52adb20d687ea7"/>
</g>
</g>
</g>
<g id="ytick5">
<g id="line2d26">
<g ><use style="fill: none; stroke: #000000; stroke-width: 0.500000; stroke-linejoin: round; stroke-linecap: butt;  opacity: 1.000000" xlink:href="#m3400efa6b1638b3fea9e19e898273957" x="72.000000" y="216.000000"/>
</g></g>
<g id="line2d27">
<g ><use style="fill: none; stroke: #000000; stroke-width: 0.500000; stroke-linejoin: round; stroke-linecap: butt;  opacity: 1.000000" xlink:href="#m20b58b2501143cb5e0a5e8f1ef6f1643" x="518.400000" y="216.000000"/>
</g></g>
<g id="text12">
<g style="fill: #000000; opacity: 1.000000" transform="translate(62.437500,220.453125)scale(0.120000)">
<use xlink:href="#c_ed3f3ed3ebfbd18bcb9c012009a68ad1"/>
</g>
</g>
</g>
<g id="ytick6">
<g id="line2d28">
<g ><use style="fill: none; stroke: #000000; stroke-width: 0.500000; stroke-linejoin: round; stroke-linecap: butt;  opacity: 1.000000" xlink:href="#m3400efa6b1638b3fea9e19e898273957" x="72.000000" y="172.800000"/>
</g></g>
<g id="line2d29">
<g ><use style="fill: none; stroke: #000000; stroke-width: 0.500000; stroke-linejoin: round; stroke-linecap: butt;  opacity: 1.000000" xlink:href="#m20b58b2501143cb5e0a5e8f1ef6f1643" x="518.400000" y="172.800000"/>
</g></g>
<g id="text13">
<defs>
<path id="c_3dcfa38a02242cb63ec6726c6e70be7a" d="M40.578125 -39.312500q7.078125 1.515625 11.046875 6.312500q3.984375 4.781250 3.984375 11.812500q0.000000 10.781250 -7.421875 16.703125q-7.421875 5.906250 -21.093750 5.906250q-4.578125 0.000000 -9.437500 -0.906250q-4.859375 -0.906250 -10.031250 -2.718750l0.000000 -9.515625q4.093750 2.390625 8.968750 3.609375q4.890625 1.218750 10.218750 1.218750q9.265625 0.000000 14.125000 -3.656250q4.859375 -3.656250 4.859375 -10.640625q0.000000 -6.453125 -4.515625 -10.078125q-4.515625 -3.640625 -12.562500 -3.640625l-8.500000 0.000000l0.000000 -8.109375l8.890625 0.000000q7.265625 0.000000 11.125000 -2.906250q3.859375 -2.906250 3.859375 -8.375000q0.000000 -5.609375 -3.984375 -8.609375q-3.968750 -3.015625 -11.390625 -3.015625q-4.062500 0.000000 -8.703125 0.890625q-4.640625 0.875000 -10.203125 2.718750l0.000000 -8.781250q5.625000 -1.562500 10.531250 -2.343750q4.906250 -0.781250 9.250000 -0.781250q11.234375 0.000000 17.765625 5.109375q6.546875 5.093750 6.546875 13.781250q0.000000 6.062500 -3.468750 10.234375q-3.468750 4.171875 -9.859375 5.781250"/>
</defs>
<g style="fill: #000000; opacity: 1.000000" transform="translate(62.250000,177.167187)scale(0.120000)">
<use xlink:href="#c_3dcfa38a02242cb63ec6726c6e70be7a"/>
</g>
</g>
</g>
<g id="ytick7">
<g id="line2d30">
<g ><use style="fill: none; stroke: #000000; stroke-width: 0.500000; stroke-linejoin: round; stroke-linecap: butt;  opacity: 1.000000" xlink:href="#m3400efa6b1638b3fea9e19e898273957" x="72.000000" y="129.600000"/>
</g></g>
<g id="line2d31">
<g ><use style="fill: none; stroke: #000000; stroke-width: 0.500000; stroke-linejoin: round; stroke-linecap: butt;  opacity: 1.000000" xlink:href="#m20b58b2501143cb5e0a5e8f1ef6f1643" x="518.400000" y="129.600000"/>
</g></g>
<g id="text14">
<g style="fill: #000000; opacity: 1.000000" transform="translate(61.625000,133.975000)scale(0.120000)">
<use xlink:href="#c_a0416418d96557a09b8c1332d34883ba"/>
</g>
</g>
</g>
<g id="ytick8">
<g id="line2d32">
<g ><use style="fill: none; stroke: #000000; stroke-width: 0.500000; stroke-linejoin: round; stroke-linecap: butt;  opacity: 1.000000" xlink:href="#m3400efa6b1638b3fea9e19e898273957" x="72.000000" y="86.400000"/>
</g></g>
<g id="line2d33">
<g ><use style="fill: none; stroke: #000000; stroke-width: 0.500000; stroke-linejoin: round; stroke-linecap: butt;  opacity: 1.000000" xlink:href="#m20b58b2501143cb5e0a5e8f1ef6f1643" x="518.400000" y="86.400000"/>
</g></g>
<g id="text15">
<defs>
<path id="c_1260a2df50f305f3db244e29828f968e" d="M10.796875 -72.906250l38.718750 0.000000l0.000000 8.312500l-29.687500 0.000000l0.000000 17.859375q2.140625 -0.734375 4.281250 -1.093750q2.156250 -0.359375 4.312500 -0.359375q12.203125 0.000000 19.328125 6.687500q7.140625 6.687500 7.140625 18.109375q0.000000 11.765625 -7.328125 18.296875q-7.328125 6.515625 -20.656250 6.515625q-4.593750 0.000000 -9.359375 -0.781250q-4.750000 -0.781250 -9.828125 -2.343750l0.000000 -9.921875q4.390625 2.390625 9.078125 3.562500q4.687500 1.171875 9.906250 1.171875q8.453125 0.000000 13.375000 -4.437500q4.937500 -4.437500 4.937500 -12.062500q0.000000 -7.609375 -4.937500 -12.046875q-4.921875 -4.453125 -13.375000 -4.453125q-3.953125 0.000000 -7.890625 0.875000q-3.921875 0.875000 -8.015625 2.734375z"/>
</defs>
<g style="fill: #000000; opacity: 1.000000" transform="translate(62.328125,90.689062)scale(0.120000)">
<use xlink:href="#c_1260a2df50f305f3db244e29828f968e"/>
</g>
</g>
</g>
<g id="ytick9">
<g id="line2d34">
<g ><use style="fill: none; stroke: #000000; stroke-width: 0.500000; stroke-linejoin: round; stroke-linecap: butt;  opacity: 1.000000" xlink:href="#m3400efa6b1638b3fea9e19e898273957" x="72.000000" y="43.200000"/>
</g></g>
<g id="line2d35">
<g ><use style="fill: none; stroke: #000000; stroke-width: 0.500000; stroke-linejoin: round; stroke-linecap: butt;  opacity: 1.000000" xlink:href="#m20b58b2501143cb5e0a5e8f1ef6f1643" x="518.400000" y="43.200000"/>
</g></g>
<g id="text16">
<g style="fill: #000000; opacity: 1.000000" transform="translate(61.968750,47.567187)scale(0.120000)">
<use xlink:href="#c_cc8d6d580d1b10c8632f7a42cd53db8a"/>
</g>
</g>
</g>
</g>
<g id="patch3">
<path style="fill: none; stroke: #000000; stroke-width: 1.000000; stroke-linejoin: round; stroke-linecap: square;  opacity: 1.000000"  d="M72.000000 43.200000L518.400000 43.200000"/>
</g>
<g id="patch4">
<path style="fill: none; stroke: #000000; stroke-width: 1.000000; stroke-linejoin: round; stroke-linecap: square;  opacity: 1.000000"  d="M518.400000 388.800000L518.400000 43.200000"/>
</g>
<g id="patch5">
<path style="fill: none; stroke: #000000; stroke-width: 1.000000; stroke-linejoin: round; stroke-linecap: square;  opacity: 1.000000"  d="M72.000000 388.800000L518.400000 388.800000"/>
</g>
<g id="patch6">
<path style="fill: none; stroke: #000000; stroke-width: 1.000000; stroke-linejoin: round; stroke-linecap: square;  opacity: 1.000000"  d="M72.000000 388.800000L72.000000 43.200000"/>
</g>
</g>
</g>
</svg>
