<?xml version="1.0" standalone="no"?>
<!DOCTYPE svg PUBLIC "-//W3C//DTD SVG 1.1//EN"
  "http://www.w3.org/Graphics/SVG/1.1/DTD/svg11.dtd">
<!-- Created with matplotlib (http://matplotlib.sourceforge.net/) -->
<svg width="576pt" height="432pt" viewBox="0 0 576 432"
   xmlns="http://www.w3.org/2000/svg"
   xmlns:xlink="http://www.w3.org/1999/xlink"
   version="1.1"
   id="svg1">
<g id="figure1">
<g id="patch1">
<path style="fill: #ffffff; stroke: #ffffff; stroke-width: 1.000000; stroke-linejoin: round; stroke-linecap: square;  opacity: 1.000000"  d="M0.000000 432.000000L576.000000 432.000000L576.000000 0.000000
L0.000000 0.000000L0.000000 432.000000"/>
</g>
<g id="axes1">
<g id="patch2">
<path style="fill: #ffffff; opacity: 1.000000"  d="M72.000000 388.800000L518.400000 388.800000L518.400000 43.200000
L72.000000 43.200000L72.000000 388.800000"/>
</g>
<g id="line2d1">
<defs>
  <clipPath id="p50431ccdcb28178602d99d9270004dde">
<rect x="72.000000" y="43.200000" width="446.400000" height="345.600000"/>
  </clipPath>
</defs><path style="fill: none; stroke: #0000ff; stroke-width: 1.000000; stroke-linejoin: round; stroke-linecap: square;  opacity: 1.000000" clip-path="url(#p50431ccdcb28178602d99d9270004dde)" d="M109.200000 291.189611L110.688000 291.075497L112.176000 289.403383
L114.408000 284.592099L121.848000 266.668834L123.336000 264.255135
L124.824000 263.224579L126.312000 263.947858L129.288000 268.847900
L130.032000 270.020456L131.520000 271.575861L133.008000 272.012311
L134.496000 271.695576L135.984000 270.941521L140.448000 267.609674
L141.936000 268.830322L143.424000 272.763150L147.888000 289.262342
L148.632000 290.539626L150.120000 291.115258L152.352000 288.682696
L155.328000 284.754264L159.048000 280.219537L160.536000 278.356373
L162.024000 277.374057L163.512000 277.726554L165.744000 280.499804
L167.232000 283.794406L168.720000 289.013454L170.208000 297.166724
L173.928000 322.909419L174.672000 324.383464L175.416000 322.800558
L176.160000 317.611848L177.648000 295.906368L179.880000 242.343688
L183.600000 151.267868L185.832000 112.295709L187.320000 93.522455
L188.808000 82.165704L189.552000 79.857294L191.040000 82.630865
L192.528000 94.888861L194.016000 114.839630L201.456000 231.032382
L202.944000 243.135052L204.432000 250.502282L205.920000 254.088194
L207.408000 255.147502L208.896000 254.703994L210.384000 252.932130
L211.872000 248.890496L213.360000 240.894587L214.848000 227.558876
L217.080000 198.118259L221.544000 133.719296L223.032000 119.199097
L224.520000 110.173041L225.264000 107.762750L226.008000 106.679810
L227.496000 108.016644L228.984000 112.929291L231.216000 123.901154
L234.936000 145.613818L237.168000 162.347552L244.608000 224.700883
L246.096000 229.303825L246.840000 230.411678L248.328000 231.131950
L249.816000 230.819595L251.304000 229.753734L252.792000 227.342395
L254.280000 222.894411L256.512000 212.716347L259.488000 198.631778
L261.720000 191.595767L265.440000 181.966599L269.160000 170.714731
L270.648000 168.147208L275.112000 163.214310L278.832000 157.162619
L280.320000 155.489474L281.808000 154.508560L283.296000 154.195139
L287.760000 154.619284L289.248000 153.176230L291.480000 148.961105
L293.712000 144.898755L295.200000 143.677634L296.688000 143.753677
L299.664000 144.949164L301.152000 144.349347L303.384000 141.348752
L307.104000 135.521347L312.312000 128.507272L313.800000 129.337344
L315.288000 133.125568L317.520000 142.945441L320.496000 156.143216
L322.728000 162.395819L324.216000 164.751810L325.704000 165.656342
L327.192000 165.090079L333.144000 158.550925L334.632000 158.385342
L337.608000 158.519449L340.584000 156.762845L342.072000 156.930569
L343.560000 159.453781L345.792000 166.785599L347.280000 171.422287
L348.768000 174.338214L351.000000 177.479425L352.488000 181.382831
L354.720000 191.085855L356.952000 200.905527L358.440000 204.558980
L359.928000 204.919432L362.160000 200.968643L363.648000 198.116853
L365.136000 197.192056L366.624000 198.767152L368.112000 202.320726
L375.552000 223.955415L376.296000 225.073361L377.784000 225.534384
L379.272000 222.910789L380.760000 217.398495L382.992000 208.121347
L383.736000 206.196245L385.224000 205.791165L385.968000 207.466786
L387.456000 213.929045L391.176000 233.670296L392.664000 237.733067
L393.408000 238.740056L396.384000 240.527767L397.872000 242.995605
L400.848000 249.357564L402.336000 249.338692L403.824000 246.346820
L406.800000 237.979340L407.544000 236.725628L409.032000 236.105127
L410.520000 237.935456L414.984000 247.506116L416.472000 248.796348
L425.400000 251.654299L426.888000 253.559651L428.376000 257.666343
L432.840000 273.342994L434.328000 273.639497L435.072000 272.369140
L436.560000 267.836175L438.792000 260.915536L439.536000 259.861462
L441.024000 260.378933L442.512000 263.685021L444.744000 269.327027
L446.232000 271.810727L449.952000 276.555944L452.184000 281.107199
L455.160000 289.228562L458.136000 297.345348L458.880000 298.636961
L460.368000 299.604634L461.856000 298.575982L463.344000 296.734135
L464.832000 295.596336L466.320000 295.743537L467.808000 296.496398
L469.296000 296.703106L470.784000 295.822595L473.760000 293.421126
L475.248000 293.450938L476.736000 294.353927L479.712000 297.444548
L481.200000 300.088323L482.688000 304.161129L486.408000 316.109152
L487.152000 317.341759L488.640000 317.967769L491.616000 316.389272
L493.104000 316.755556L494.592000 317.477316L496.080000 316.865414
L497.568000 313.858127L501.288000 302.500687L502.032000 301.327906
L503.520000 301.035841L505.752000 304.568017L514.680000 323.794043
L516.168000 324.172234L517.656000 321.695769L517.656000 321.695769"/>
</g>
<g id="line2d2">
<path style="fill: none; stroke: #008000; stroke-width: 1.000000; stroke-linejoin: round; stroke-linecap: square;  opacity: 1.000000" clip-path="url(#p50431ccdcb28178602d99d9270004dde)" d="M109.200000 282.605593L110.688000 281.629524L112.176000 281.004941
L113.664000 280.759549L116.640000 281.592549L118.128000 281.348172
L119.616000 279.218257L121.104000 274.640231L126.312000 254.349893
L127.800000 253.326986L129.288000 255.298200L130.776000 259.324520
L137.472000 280.460819L138.216000 281.485581L139.704000 282.138910
L142.680000 280.564407L144.168000 280.734845L145.656000 282.594808
L147.888000 287.937331L150.120000 293.088510L151.608000 294.345312
L153.096000 293.187023L154.584000 289.965277L159.048000 278.150172
L160.536000 276.902372L162.024000 277.953217L163.512000 281.050865
L167.976000 293.084356L168.720000 294.262381L171.696000 296.872101
L173.184000 297.942908L174.672000 298.346260L176.160000 296.583332
L177.648000 291.462486L179.136000 282.919559L181.368000 265.321769
L184.344000 235.097177L188.064000 193.765494L189.552000 183.160565
L190.296000 180.420364L191.784000 180.780927L192.528000 183.835025
L194.016000 194.800946L199.968000 251.689931L201.456000 257.906004
L202.200000 259.541209L203.688000 260.570262L205.176000 259.623928
L208.896000 254.534547L210.384000 252.098701L211.872000 248.434113
L213.360000 242.207098L214.848000 232.302626L217.080000 210.263956
L223.776000 133.392288L225.264000 124.218658L226.752000 119.716937
L228.240000 118.957892L230.472000 121.349734L234.192000 127.002960
L236.424000 132.069067L239.400000 139.555133L240.144000 140.834711
L241.632000 142.025638L243.120000 141.127295L244.608000 138.218774
L246.840000 131.449741L249.816000 122.871002L255.768000 109.676019
L263.952000 85.599078L266.184000 81.389374L267.672000 79.602795
L270.648000 77.188037L272.880000 74.329797L275.856000 68.375006
L278.832000 62.709576L281.064000 59.893524L282.552000 59.187543
L284.040000 60.118616L285.528000 63.192059L287.760000 71.057556
L289.992000 79.078436L291.480000 82.523346L292.224000 83.547363
L293.712000 84.535052L296.688000 84.879382L298.176000 84.790009
L299.664000 84.251678L304.128000 81.276801L307.104000 80.027673
L308.592000 77.986871L310.080000 74.222443L313.800000 62.745886
L314.544000 61.546783L316.032000 61.110553L317.520000 62.984198
L320.496000 69.754669L322.728000 74.144513L323.472000 75.200079
L324.960000 76.654633L326.448000 77.340216L329.424000 77.453229
L333.888000 77.451947L335.376000 76.649652L336.864000 74.507025
L338.352000 70.830011L341.328000 62.427777L342.072000 61.186578
L343.560000 60.643927L345.048000 62.479633L349.512000 70.941925
L353.232000 75.562115L355.464000 80.368616L359.184000 89.824091
L359.928000 91.004315L361.416000 92.142957L364.392000 92.001361
L365.880000 92.952887L367.368000 95.596820L368.856000 99.910272
L374.064000 117.703088L374.808000 119.051331L376.296000 120.092477
L377.784000 118.780042L379.272000 115.215161L383.736000 101.078979
L385.224000 100.416559L385.968000 101.435687L387.456000 105.989758
L389.688000 116.890668L392.664000 131.337524L394.152000 136.328806
L395.640000 139.689862L396.384000 140.897150L397.872000 142.634546
L399.360000 143.507721L400.848000 143.235663L403.080000 140.686679
L405.312000 137.981332L406.800000 137.649930L408.288000 138.705176
L413.496000 145.063449L415.728000 147.652322L417.216000 150.481100
L422.424000 163.176700L423.912000 164.188458L425.400000 164.202557
L426.888000 164.592206L429.120000 167.554184L430.608000 170.152286
L432.096000 171.608331L433.584000 171.071942L436.560000 166.295425
L438.048000 165.158295L439.536000 166.806802L441.024000 171.439819
L446.232000 192.885150L448.464000 197.645187L451.440000 203.354622
L453.672000 209.747987L457.392000 221.147301L458.136000 222.206754
L459.624000 221.801353L460.368000 220.259239L461.856000 215.074425
L464.832000 203.776497L465.576000 202.218407L467.064000 201.277281
L468.552000 202.764656L470.784000 207.294571L473.760000 213.119911
L475.248000 214.845744L479.712000 217.214877L481.944000 220.710068
L487.152000 233.153673L488.640000 234.277464L490.128000 233.946190
L493.104000 231.337962L496.080000 228.309114L498.312000 224.747813
L501.288000 219.460794L502.776000 218.455692L504.264000 219.422585
L505.752000 222.453516L507.984000 229.720976L510.960000 240.032103
L512.448000 243.625978L513.192000 244.776567L514.680000 245.683660
L516.168000 244.712718L517.656000 242.316067L517.656000 242.316067"/>
</g>
<g id="line2d3">
<path style="fill: none; stroke: #ff0000; stroke-width: 1.000000; stroke-linejoin: round; stroke-linecap: square;  opacity: 1.000000" clip-path="url(#p50431ccdcb28178602d99d9270004dde)" d="M109.200000 280.158180L113.664000 281.330942L118.128000 284.393984
L119.616000 283.194998L121.104000 279.353132L123.336000 269.981956
L126.312000 257.113668L127.800000 253.071936L128.544000 252.005431
L130.032000 252.082130L130.776000 253.270319L132.264000 257.773765
L134.496000 268.010041L136.728000 278.182053L138.216000 282.589143
L138.960000 283.740506L140.448000 283.901783L142.680000 280.519262
L144.168000 278.144435L145.656000 277.498599L147.144000 279.280887
L149.376000 285.150299L150.864000 288.924670L151.608000 290.149358
L153.096000 290.592771L154.584000 288.096643L156.072000 283.163152
L159.048000 271.828423L160.536000 268.985454L162.024000 269.605584
L163.512000 273.592913L167.976000 290.456948L169.464000 291.400045
L170.952000 288.961709L173.928000 281.454551L175.416000 280.914400
L176.160000 281.970978L177.648000 286.412127L181.368000 300.439263
L182.112000 301.595506L183.600000 300.695586L184.344000 298.556328
L185.832000 291.344546L190.296000 264.922885L191.784000 261.431150
L193.272000 261.617210L194.760000 264.306273L197.736000 270.681870
L199.224000 271.814858L200.712000 270.895592L202.200000 268.382306
L206.664000 259.567649L211.872000 251.486430L213.360000 247.731411
L214.848000 242.203434L217.080000 230.107841L221.544000 203.628918
L223.776000 195.549701L225.264000 192.544821L226.752000 191.263248
L228.240000 191.190628L231.216000 191.693655L234.192000 192.103436
L235.680000 192.809830L237.168000 192.902655L238.656000 190.954816
L240.144000 186.190485L242.376000 175.163104L245.352000 160.782706
L246.840000 155.961685L248.328000 152.977249L249.816000 151.509723
L252.792000 150.122296L255.024000 147.402164L258.000000 141.550507
L261.720000 133.032083L264.696000 125.933963L265.440000 124.678903
L266.928000 123.284592L268.416000 123.446841L269.904000 124.847800
L273.624000 129.456821L275.112000 129.839008L276.600000 128.705081
L278.088000 126.258087L281.808000 119.341388L283.296000 118.755725
L284.784000 120.704196L286.272000 125.338980L290.736000 143.168399
L291.480000 144.673737L292.968000 145.914542L294.456000 145.606439
L301.896000 141.671182L304.872000 139.137955L307.104000 135.898270
L308.592000 132.461801L310.824000 125.331573L315.288000 110.279205
L317.520000 105.696259L319.752000 103.005194L321.240000 102.184607
L322.728000 102.422131L324.960000 104.841907L326.448000 107.000867
L327.936000 108.534888L329.424000 108.926770L330.912000 108.346747
L333.888000 105.911627L336.120000 102.771039L342.072000 91.262933
L346.536000 86.054681L348.024000 84.726324L349.512000 84.266730
L351.000000 85.263043L352.488000 88.072961L354.720000 95.164471
L357.696000 104.859631L359.184000 107.546191L360.672000 108.600092
L363.648000 109.125861L365.136000 110.192725L367.368000 113.533136
L373.320000 125.054636L374.808000 126.733640L376.296000 127.831000
L377.784000 128.141574L379.272000 127.277994L383.736000 121.175537
L385.224000 121.736591L386.712000 124.804715L388.200000 130.038821
L394.896000 157.747366L396.384000 160.476736L397.872000 161.544644
L399.360000 161.044556L401.592000 157.793042L403.080000 155.125681
L404.568000 153.736185L406.056000 154.746698L407.544000 157.989450
L409.776000 163.672256L410.520000 164.921805L412.008000 165.897006
L414.984000 164.632855L416.472000 165.107391L417.960000 167.473251
L420.192000 173.666318L422.424000 179.539874L423.168000 180.829898
L424.656000 182.324689L427.632000 183.887686L430.608000 185.941113
L432.096000 185.305865L433.584000 182.884433L437.304000 174.943277
L438.792000 174.259982L440.280000 176.285568L441.768000 181.047162
L444.744000 195.177036L446.976000 204.481192L448.464000 208.595906
L450.696000 212.519632L454.416000 218.446367L456.648000 222.195259
L458.136000 223.562206L459.624000 222.798198L461.112000 219.400392
L464.832000 206.979314L465.576000 205.707193L467.064000 205.395776
L469.296000 209.265417L472.272000 215.847070L473.016000 216.947594
L474.504000 218.198195L475.992000 218.314485L478.968000 217.546404
L480.456000 218.362619L482.688000 221.852870L485.664000 227.337025
L487.152000 229.108983L488.640000 230.093637L490.128000 230.316092
L491.616000 229.786977L502.032000 222.407332L503.520000 222.983995
L505.008000 225.410152L506.496000 229.728250L511.704000 248.711284
L512.448000 249.980621L513.936000 250.440807L515.424000 248.502244
L517.656000 243.626379L517.656000 243.626379"/>
</g>
<g id="line2d4">
<path style="fill: none; stroke: #00bfbf; stroke-width: 1.000000; stroke-linejoin: round; stroke-linecap: square;  opacity: 1.000000" clip-path="url(#p50431ccdcb28178602d99d9270004dde)" d="M109.200000 283.577012L112.176000 272.802289L113.664000 267.899982
L115.152000 265.156329L116.640000 265.091633L118.872000 268.762985
L122.592000 276.246281L125.568000 280.328158L128.544000 283.356055
L130.032000 283.560181L131.520000 282.230792L133.008000 279.346735
L135.984000 270.872332L138.216000 264.946848L138.960000 263.584505
L140.448000 262.555354L141.936000 264.585141L143.424000 269.851461
L147.888000 289.984674L148.632000 291.442736L150.120000 291.553583
L151.608000 288.496884L155.328000 277.843923L157.560000 273.981567
L159.792000 271.298205L161.280000 270.975190L162.768000 273.302515
L164.256000 278.784630L167.976000 295.892281L169.464000 298.926766
L170.952000 299.641454L172.440000 299.492747L173.928000 298.993634
L175.416000 296.829291L176.160000 294.426519L177.648000 285.989783
L179.136000 272.876889L190.296000 159.367255L192.528000 145.797867
L194.016000 141.009869L195.504000 141.272635L196.248000 143.777133
L197.736000 154.155276L199.224000 171.433566L202.200000 218.019978
L205.176000 260.644494L207.408000 281.883889L208.896000 290.995151
L210.384000 296.429210L211.128000 297.730831L212.616000 297.284869
L213.360000 295.484065L214.848000 288.896016L217.080000 273.560480
L224.520000 217.771477L226.008000 210.387941L227.496000 206.112094
L228.984000 204.920393L230.472000 206.166147L231.960000 209.068877
L233.448000 213.424146L234.936000 219.572768L237.168000 233.063676
L240.144000 257.966321L244.608000 296.232580L246.840000 308.631091
L248.328000 313.856291L249.816000 317.056815L251.304000 318.408041
L252.792000 317.923599L255.024000 314.076494L258.744000 305.107768
L259.488000 304.001875L260.976000 302.873609L263.952000 302.662745
L265.440000 301.676475L266.928000 299.230650L269.160000 293.145998
L271.392000 286.719234L272.880000 284.005975L274.368000 283.027292
L277.344000 283.485812L278.832000 282.990127L281.064000 280.432850
L286.272000 272.238378L287.760000 267.869620L289.992000 257.762797
L294.456000 235.490570L296.688000 228.258586L299.664000 221.595863
L301.896000 217.568912L302.640000 216.558513L304.128000 215.344670
L307.104000 215.092017L308.592000 214.093987L310.080000 211.178865
L312.312000 203.455458L314.544000 195.681454L315.288000 194.059479
L316.776000 192.988568L318.264000 194.608511L320.496000 199.726341
L322.728000 204.717114L324.216000 207.005745L325.704000 208.318350
L327.192000 208.790909L330.168000 208.772923L331.656000 209.303947
L333.888000 211.734654L339.096000 219.706705L340.584000 220.985765
L342.072000 222.761829L343.560000 226.121526L345.792000 234.458235
L348.768000 245.788314L351.000000 251.085487L354.720000 257.335667
L358.440000 262.511417L361.416000 265.200795L362.904000 266.385250
L365.136000 269.351208L367.368000 274.180229L372.576000 287.816465
L375.552000 296.204670L376.296000 297.461357L377.784000 297.806408
L378.528000 296.759498L380.016000 292.608759L382.248000 284.935303
L382.992000 283.184858L384.480000 282.221604L385.968000 284.897098
L388.200000 293.119666L390.432000 300.336056L391.176000 301.636214
L392.664000 302.409203L397.128000 299.736763L398.616000 300.907578
L400.848000 304.732793L404.568000 311.290405L408.288000 317.656627
L410.520000 323.033560L412.752000 328.641747L413.496000 329.981529
L414.984000 331.209970L416.472000 330.431520L420.936000 324.243022
L422.424000 324.479260L423.912000 326.807671L426.144000 333.217012
L428.376000 339.900668L429.120000 341.414584L430.608000 342.571779
L432.096000 340.894093L433.584000 336.610263L438.048000 319.840050
L438.792000 318.559286L440.280000 318.234682L442.512000 321.387914
L444.000000 323.728116L446.976000 327.601863L448.464000 330.807820
L450.696000 338.370767L454.416000 351.525705L456.648000 356.561810
L457.392000 357.769308L458.880000 359.498145L460.368000 360.329919
L466.320000 361.584293L467.808000 360.367438L470.040000 356.134964
L470.784000 354.776569L472.272000 353.375812L473.760000 354.009677
L475.248000 355.491586L476.736000 355.892734L478.224000 354.124612
L481.200000 347.818044L482.688000 347.121158L484.176000 349.308655
L488.640000 360.461673L490.128000 362.037158L491.616000 362.702701
L493.104000 362.831845L494.592000 362.140768L496.080000 359.875113
L497.568000 355.763535L500.544000 346.518141L501.288000 345.230301
L502.776000 344.587711L505.752000 347.234445L507.240000 347.390163
L510.216000 344.923608L511.704000 345.084306L513.936000 348.617331
L515.424000 351.320837L516.912000 352.077200L516.912000 352.077200"/>
</g>
<g id="line2d5">
<path style="fill: none; stroke: #bf00bf; stroke-width: 1.000000; stroke-linejoin: round; stroke-linecap: square;  opacity: 1.000000" clip-path="url(#p50431ccdcb28178602d99d9270004dde)" d="M109.200000 268.534650L118.128000 286.015362L119.616000 287.457931
L121.104000 287.207363L125.568000 281.964891L128.544000 279.510497
L130.032000 276.998487L131.520000 272.656708L135.984000 255.655408
L136.728000 254.562417L138.216000 255.305292L139.704000 259.199039
L142.680000 268.246128L143.424000 269.612429L147.888000 274.454775
L150.120000 279.456008L152.352000 284.168187L153.840000 285.258600
L155.328000 284.416491L158.304000 280.835504L162.768000 278.151567
L164.256000 275.268671L169.464000 261.988773L170.952000 261.370560
L173.184000 263.569587L173.928000 264.571009L175.416000 265.324471
L176.904000 262.301467L178.392000 254.111957L180.624000 234.736954
L184.344000 202.664145L187.320000 175.540073L191.040000 139.357086
L192.528000 132.467267L194.016000 133.090521L194.760000 136.203204
L196.248000 146.956403L199.968000 184.423654L208.896000 271.393913
L210.384000 277.604398L211.128000 278.979759L212.616000 278.799475
L214.104000 275.583308L215.592000 270.139312L217.824000 258.795510
L220.800000 239.480690L224.520000 215.031033L226.752000 205.028618
L228.240000 200.698022L229.728000 198.158501L231.216000 197.952805
L231.960000 198.966367L233.448000 203.437784L235.680000 214.843712
L239.400000 234.949013L243.120000 250.768858L245.352000 258.078422
L247.584000 263.060015L255.024000 275.827536L258.000000 279.115548
L259.488000 279.650856L260.976000 278.762585L262.464000 276.307426
L267.672000 265.110446L269.160000 263.489445L272.136000 261.600716
L275.112000 260.049821L276.600000 258.877687L279.576000 254.995980
L283.296000 249.410470L284.784000 247.724595L286.272000 246.786390
L287.760000 246.748796L290.736000 247.765359L292.224000 247.011674
L293.712000 244.235225L295.200000 239.271998L298.920000 224.936018
L299.664000 223.358592L301.152000 222.058406L304.128000 222.268826
L305.616000 221.029184L307.104000 218.316714L309.336000 212.305559
L313.800000 199.386525L316.032000 195.415750L321.984000 188.435751
L323.472000 188.746317L324.216000 189.822885L325.704000 193.883743
L330.168000 210.082626L331.656000 212.836070L336.120000 218.108702
L339.096000 222.985538L340.584000 224.687654L343.560000 226.161026
L345.048000 226.992993L347.280000 229.757895L348.768000 232.902626
L351.000000 239.414690L356.208000 256.168141L359.928000 265.058675
L365.880000 277.903192L367.368000 280.115921L368.856000 281.582170
L370.344000 282.290294L373.320000 282.781052L374.808000 283.483529
L379.272000 286.368991L380.760000 286.495287L382.248000 285.849709
L384.480000 283.256673L387.456000 278.593561L388.944000 277.264787
L390.432000 277.182980L391.920000 278.166215L394.896000 280.838660
L396.384000 281.005070L397.872000 279.516275L399.360000 276.426845
L401.592000 271.406543L403.080000 270.752382L403.824000 271.864107
L405.312000 277.046216L409.776000 299.038188L411.264000 302.002917
L412.752000 302.231239L415.728000 300.139824L417.216000 301.045624
L418.704000 304.379008L422.424000 315.323250L423.912000 315.686028
L424.656000 314.680774L426.888000 309.306441L428.376000 306.213542
L429.864000 304.737584L431.352000 304.757412L432.840000 305.952301
L434.328000 308.311308L435.816000 311.879370L441.024000 326.539137
L442.512000 327.930844L444.000000 327.057468L445.488000 324.258105
L448.464000 317.726083L449.952000 316.599596L451.440000 317.683292
L452.928000 320.528755L456.648000 328.774535L457.392000 329.807048
L458.880000 331.093227L461.856000 332.664015L464.832000 335.076297
L466.320000 335.097757L467.808000 333.213538L469.296000 329.469475
L473.760000 316.254781L474.504000 315.091205L475.992000 314.577296
L477.480000 316.345331L479.712000 321.915569L481.944000 327.273528
L482.688000 328.362126L484.176000 329.208334L485.664000 328.618419
L487.152000 327.581992L488.640000 327.078699L490.128000 327.516531
L491.616000 328.402286L493.104000 328.754695L494.592000 327.966673
L498.312000 323.294911L499.800000 322.462193L501.288000 323.068556
L503.520000 326.482581L507.984000 335.650548L508.728000 336.707401
L510.216000 337.982693L511.704000 337.879811L513.192000 336.262399
L515.424000 331.811105L517.656000 327.682956L517.656000 327.682956"/>
</g>
<g id="line2d6">
<path style="fill: none; stroke: #bfbf00; stroke-width: 1.000000; stroke-linejoin: round; stroke-linecap: square;  opacity: 1.000000" clip-path="url(#p50431ccdcb28178602d99d9270004dde)" d="M109.200000 290.479898L112.176000 282.250429L112.920000 281.159863
L114.408000 280.821453L117.384000 282.787023L118.872000 282.132714
L120.360000 279.458750L121.848000 274.937307L126.312000 258.623670
L127.056000 257.284047L128.544000 257.225884L129.288000 258.566795
L130.776000 263.465266L134.496000 277.779015L135.240000 279.335962
L136.728000 280.360788L138.216000 278.696720L139.704000 275.051654
L142.680000 267.110795L143.424000 266.006828L144.912000 265.685148
L146.400000 267.913124L151.608000 280.405711L153.096000 281.373712
L156.072000 282.122963L157.560000 282.934599L159.048000 283.330741
L160.536000 282.313678L162.024000 279.298852L163.512000 274.388309
L167.232000 260.665110L167.976000 259.227283L169.464000 258.966640
L170.208000 260.226926L171.696000 265.037087L173.928000 273.450483
L174.672000 274.895430L176.160000 273.453912L176.904000 270.233937
L178.392000 259.340891L183.600000 213.646440L185.832000 197.464865
L188.064000 175.414005L191.040000 143.017960L192.528000 133.173248
L193.272000 130.988315L194.760000 132.375211L195.504000 135.762936
L196.992000 147.140991L199.224000 173.308438L206.664000 274.015349
L208.152000 283.945017L209.640000 289.400235L210.384000 290.586674
L211.872000 290.183679L212.616000 288.670300L214.104000 283.123713
L215.592000 274.417168L217.824000 256.410785L222.288000 217.428149
L223.776000 209.797989L224.520000 207.705345L226.008000 206.799870
L227.496000 209.181894L233.448000 223.726822L235.680000 227.886447
L237.168000 231.768279L238.656000 237.287482L240.888000 248.360335
L246.840000 279.323975L249.072000 287.764126L251.304000 293.402003
L252.048000 294.626349L253.536000 296.080273L255.024000 296.349511
L258.000000 295.603063L259.488000 295.989876L262.464000 298.163722
L263.952000 298.185612L265.440000 296.670371L267.672000 292.281014
L272.880000 279.722121L277.344000 267.203477L278.088000 266.006430
L279.576000 264.797799L282.552000 264.423212L284.040000 263.029403
L285.528000 259.640183L287.760000 251.257610L289.992000 242.966531
L291.480000 240.027116L292.968000 239.625652L295.944000 241.990283
L297.432000 242.342773L300.408000 241.725858L301.896000 242.196185
L304.872000 244.078896L306.360000 243.151806L307.848000 239.476156
L309.336000 233.208641L313.800000 212.358824L316.032000 206.066162
L318.264000 201.916951L319.752000 199.803896L321.240000 198.169075
L322.728000 197.342935L324.216000 197.936430L326.448000 202.264572
L329.424000 210.482007L330.168000 211.841565L331.656000 213.318370
L333.144000 214.182051L334.632000 216.438808L336.120000 221.604881
L338.352000 234.130330L340.584000 246.687154L342.072000 252.059074
L342.816000 253.603617L344.304000 254.732933L347.280000 253.380027
L348.768000 253.600541L350.256000 255.809544L351.744000 260.260199
L353.976000 270.211865L357.696000 287.879130L359.184000 291.540994
L360.672000 292.139668L363.648000 289.153724L365.136000 288.875777
L368.112000 291.095543L369.600000 291.295631L371.088000 290.215195
L374.064000 286.961350L375.552000 285.966896L377.040000 285.521310
L378.528000 285.676960L380.016000 286.598986L382.248000 289.397003
L384.480000 293.607836L386.712000 299.500777L390.432000 310.204138
L391.920000 312.575491L393.408000 313.691570L396.384000 314.330708
L397.872000 313.928128L400.104000 311.234763L402.336000 307.193779
L403.824000 306.008265L405.312000 307.425716L406.800000 311.241216
L409.776000 320.227515L411.264000 323.153737L415.728000 329.943260
L418.704000 335.665842L420.192000 337.340822L421.680000 337.719502
L423.168000 336.797269L425.400000 333.106993L429.864000 323.383965
L431.352000 322.789005L432.840000 324.368065L435.072000 328.449170
L436.560000 329.865578L438.048000 329.093440L441.024000 324.332675
L442.512000 323.588109L444.000000 325.157195L445.488000 328.586746
L448.464000 336.299524L449.952000 338.717995L454.416000 342.935143
L457.392000 346.635887L458.880000 347.308003L463.344000 346.392989
L465.576000 348.707455L469.296000 353.963809L472.272000 356.451416
L473.760000 356.931464L478.224000 357.107098L481.200000 358.808514
L482.688000 359.157861L488.640000 358.126163L490.128000 358.162811
L491.616000 357.601016L493.104000 356.170514L496.824000 350.586887
L499.056000 346.483553L503.520000 336.869705L505.008000 335.276147
L506.496000 335.450235L507.984000 337.558754L509.472000 341.348470
L513.192000 351.989868L513.936000 353.216345L515.424000 354.383972
L516.912000 354.503073L516.912000 354.503073"/>
</g>
<g id="matplotlib.axis1">
<g id="xtick1">
<g id="line2d7">
<defs><path id="m30e32995789d870ad79a2e54c91cf9c6" d="M0.000000 0.000000L0.000000 -4.000000"/></defs>
<g ><use style="fill: none; stroke: #000000; stroke-width: 0.500000; stroke-linejoin: round; stroke-linecap: butt;  opacity: 1.000000" xlink:href="#m30e32995789d870ad79a2e54c91cf9c6" x="72.000000" y="388.800000"/>
</g></g>
<g id="line2d8">
<defs><path id="m9281cae24120827b11d5ea8a7ad3e96b" d="M0.000000 0.000000L0.000000 4.000000"/></defs>
<g ><use style="fill: none; stroke: #000000; stroke-width: 0.500000; stroke-linejoin: round; stroke-linecap: butt;  opacity: 1.000000" xlink:href="#m9281cae24120827b11d5ea8a7ad3e96b" x="72.000000" y="43.200000"/>
</g></g>
<g id="text1">
<defs>
<path id="c_6a8d56c819c37117ab4cf023bec22a5a" d="M10.593750 -35.500000l62.593750 0.000000l0.000000 8.296875l-62.593750 0.000000z"/>
<path id="c_ed3f3ed3ebfbd18bcb9c012009a68ad1" d="M19.187500 -8.296875l34.421875 0.000000l0.000000 8.296875l-46.281250 0.000000l0.000000 -8.296875q5.609375 -5.812500 15.296875 -15.593750q9.703125 -9.796875 12.187500 -12.640625q4.734375 -5.312500 6.609375 -9.000000q1.890625 -3.687500 1.890625 -7.250000q0.000000 -5.812500 -4.078125 -9.468750q-4.078125 -3.671875 -10.625000 -3.671875q-4.640625 0.000000 -9.796875 1.609375q-5.140625 1.609375 -11.000000 4.890625l0.000000 -9.968750q5.953125 -2.390625 11.125000 -3.609375q5.187500 -1.218750 9.484375 -1.218750q11.328125 0.000000 18.062500 5.671875q6.734375 5.656250 6.734375 15.125000q0.000000 4.500000 -1.687500 8.531250q-1.671875 4.015625 -6.125000 9.484375q-1.218750 1.421875 -7.765625 8.187500q-6.531250 6.765625 -18.453125 18.921875"/>
<path id="c_7a2040fe3b94fcd41d0a72c84e93b115" d="M31.781250 -66.406250q-7.609375 0.000000 -11.453125 7.500000q-3.828125 7.484375 -3.828125 22.531250q0.000000 14.984375 3.828125 22.484375q3.843750 7.500000 11.453125 7.500000q7.671875 0.000000 11.500000 -7.500000q3.843750 -7.500000 3.843750 -22.484375q0.000000 -15.046875 -3.843750 -22.531250q-3.828125 -7.500000 -11.500000 -7.500000M31.781250 -74.218750q12.265625 0.000000 18.734375 9.703125q6.468750 9.687500 6.468750 28.140625q0.000000 18.406250 -6.468750 28.109375q-6.468750 9.687500 -18.734375 9.687500q-12.250000 0.000000 -18.718750 -9.687500q-6.468750 -9.703125 -6.468750 -28.109375q0.000000 -18.453125 6.468750 -28.140625q6.468750 -9.703125 18.718750 -9.703125"/>
</defs>
<g style="fill: #000000; opacity: 1.000000" transform="translate(56.539062,401.706250)scale(0.120000)">
<use xlink:href="#c_6a8d56c819c37117ab4cf023bec22a5a"/>
<use xlink:href="#c_ed3f3ed3ebfbd18bcb9c012009a68ad1" x="83.789062"/>
<use xlink:href="#c_7a2040fe3b94fcd41d0a72c84e93b115" x="147.412109"/>
<use xlink:href="#c_7a2040fe3b94fcd41d0a72c84e93b115" x="211.035156"/>
</g>
</g>
</g>
<g id="xtick2">
<g id="line2d9">
<g ><use style="fill: none; stroke: #000000; stroke-width: 0.500000; stroke-linejoin: round; stroke-linecap: butt;  opacity: 1.000000" xlink:href="#m30e32995789d870ad79a2e54c91cf9c6" x="146.400000" y="388.800000"/>
</g></g>
<g id="line2d10">
<g ><use style="fill: none; stroke: #000000; stroke-width: 0.500000; stroke-linejoin: round; stroke-linecap: butt;  opacity: 1.000000" xlink:href="#m9281cae24120827b11d5ea8a7ad3e96b" x="146.400000" y="43.200000"/>
</g></g>
<g id="text2">
<g style="fill: #000000; opacity: 1.000000" transform="translate(143.376563,401.706250)scale(0.120000)">
<use xlink:href="#c_7a2040fe3b94fcd41d0a72c84e93b115"/>
</g>
</g>
</g>
<g id="xtick3">
<g id="line2d11">
<g ><use style="fill: none; stroke: #000000; stroke-width: 0.500000; stroke-linejoin: round; stroke-linecap: butt;  opacity: 1.000000" xlink:href="#m30e32995789d870ad79a2e54c91cf9c6" x="220.800000" y="388.800000"/>
</g></g>
<g id="line2d12">
<g ><use style="fill: none; stroke: #000000; stroke-width: 0.500000; stroke-linejoin: round; stroke-linecap: butt;  opacity: 1.000000" xlink:href="#m9281cae24120827b11d5ea8a7ad3e96b" x="220.800000" y="43.200000"/>
</g></g>
<g id="text3">
<g style="fill: #000000; opacity: 1.000000" transform="translate(210.175000,401.706250)scale(0.120000)">
<use xlink:href="#c_ed3f3ed3ebfbd18bcb9c012009a68ad1"/>
<use xlink:href="#c_7a2040fe3b94fcd41d0a72c84e93b115" x="63.623047"/>
<use xlink:href="#c_7a2040fe3b94fcd41d0a72c84e93b115" x="127.246094"/>
</g>
</g>
</g>
<g id="xtick4">
<g id="line2d13">
<g ><use style="fill: none; stroke: #000000; stroke-width: 0.500000; stroke-linejoin: round; stroke-linecap: butt;  opacity: 1.000000" xlink:href="#m30e32995789d870ad79a2e54c91cf9c6" x="295.200000" y="388.800000"/>
</g></g>
<g id="line2d14">
<g ><use style="fill: none; stroke: #000000; stroke-width: 0.500000; stroke-linejoin: round; stroke-linecap: butt;  opacity: 1.000000" xlink:href="#m9281cae24120827b11d5ea8a7ad3e96b" x="295.200000" y="43.200000"/>
</g></g>
<g id="text4">
<defs>
<path id="c_a0416418d96557a09b8c1332d34883ba" d="M37.796875 -64.312500l-24.906250 38.921875l24.906250 0.000000zM35.203125 -72.906250l12.406250 0.000000l0.000000 47.515625l10.406250 0.000000l0.000000 8.203125l-10.406250 0.000000l0.000000 17.187500l-9.812500 0.000000l0.000000 -17.187500l-32.906250 0.000000l0.000000 -9.515625z"/>
</defs>
<g style="fill: #000000; opacity: 1.000000" transform="translate(284.434375,401.706250)scale(0.120000)">
<use xlink:href="#c_a0416418d96557a09b8c1332d34883ba"/>
<use xlink:href="#c_7a2040fe3b94fcd41d0a72c84e93b115" x="63.623047"/>
<use xlink:href="#c_7a2040fe3b94fcd41d0a72c84e93b115" x="127.246094"/>
</g>
</g>
</g>
<g id="xtick5">
<g id="line2d15">
<g ><use style="fill: none; stroke: #000000; stroke-width: 0.500000; stroke-linejoin: round; stroke-linecap: butt;  opacity: 1.000000" xlink:href="#m30e32995789d870ad79a2e54c91cf9c6" x="369.600000" y="388.800000"/>
</g></g>
<g id="line2d16">
<g ><use style="fill: none; stroke: #000000; stroke-width: 0.500000; stroke-linejoin: round; stroke-linecap: butt;  opacity: 1.000000" xlink:href="#m9281cae24120827b11d5ea8a7ad3e96b" x="369.600000" y="43.200000"/>
</g></g>
<g id="text5">
<defs>
<path id="c_cc8d6d580d1b10c8632f7a42cd53db8a" d="M33.015625 -40.375000q-6.640625 0.000000 -10.531250 4.546875q-3.875000 4.531250 -3.875000 12.437500q0.000000 7.859375 3.875000 12.437500q3.890625 4.562500 10.531250 4.562500q6.640625 0.000000 10.515625 -4.562500q3.875000 -4.578125 3.875000 -12.437500q0.000000 -7.906250 -3.875000 -12.437500q-3.875000 -4.546875 -10.515625 -4.546875M52.593750 -71.296875l0.000000 8.984375q-3.718750 -1.750000 -7.500000 -2.671875q-3.781250 -0.937500 -7.500000 -0.937500q-9.765625 0.000000 -14.921875 6.593750q-5.140625 6.593750 -5.875000 19.921875q2.875000 -4.250000 7.218750 -6.515625q4.359375 -2.265625 9.578125 -2.265625q10.984375 0.000000 17.359375 6.671875q6.375000 6.656250 6.375000 18.125000q0.000000 11.234375 -6.640625 18.031250q-6.640625 6.781250 -17.671875 6.781250q-12.656250 0.000000 -19.343750 -9.687500q-6.687500 -9.703125 -6.687500 -28.109375q0.000000 -17.281250 8.203125 -27.562500q8.203125 -10.281250 22.015625 -10.281250q3.718750 0.000000 7.500000 0.734375q3.781250 0.734375 7.890625 2.187500"/>
</defs>
<g style="fill: #000000; opacity: 1.000000" transform="translate(358.959375,401.706250)scale(0.120000)">
<use xlink:href="#c_cc8d6d580d1b10c8632f7a42cd53db8a"/>
<use xlink:href="#c_7a2040fe3b94fcd41d0a72c84e93b115" x="63.623047"/>
<use xlink:href="#c_7a2040fe3b94fcd41d0a72c84e93b115" x="127.246094"/>
</g>
</g>
</g>
<g id="xtick6">
<g id="line2d17">
<g ><use style="fill: none; stroke: #000000; stroke-width: 0.500000; stroke-linejoin: round; stroke-linecap: butt;  opacity: 1.000000" xlink:href="#m30e32995789d870ad79a2e54c91cf9c6" x="444.000000" y="388.800000"/>
</g></g>
<g id="line2d18">
<g ><use style="fill: none; stroke: #000000; stroke-width: 0.500000; stroke-linejoin: round; stroke-linecap: butt;  opacity: 1.000000" xlink:href="#m9281cae24120827b11d5ea8a7ad3e96b" x="444.000000" y="43.200000"/>
</g></g>
<g id="text6">
<defs>
<path id="c_bef35738d52871942e50b9de9b122bab" d="M31.781250 -34.625000q-7.031250 0.000000 -11.062500 3.765625q-4.015625 3.765625 -4.015625 10.343750q0.000000 6.593750 4.015625 10.359375q4.031250 3.765625 11.062500 3.765625q7.031250 0.000000 11.078125 -3.781250q4.062500 -3.796875 4.062500 -10.343750q0.000000 -6.578125 -4.031250 -10.343750q-4.015625 -3.765625 -11.109375 -3.765625M21.921875 -38.812500q-6.343750 -1.562500 -9.890625 -5.906250q-3.531250 -4.359375 -3.531250 -10.609375q0.000000 -8.734375 6.218750 -13.812500q6.234375 -5.078125 17.062500 -5.078125q10.890625 0.000000 17.093750 5.078125q6.203125 5.078125 6.203125 13.812500q0.000000 6.250000 -3.546875 10.609375q-3.531250 4.343750 -9.828125 5.906250q7.125000 1.656250 11.093750 6.500000q3.984375 4.828125 3.984375 11.796875q0.000000 10.609375 -6.468750 16.281250q-6.468750 5.656250 -18.531250 5.656250q-12.046875 0.000000 -18.531250 -5.656250q-6.468750 -5.671875 -6.468750 -16.281250q0.000000 -6.968750 4.000000 -11.796875q4.015625 -4.843750 11.140625 -6.500000M18.312500 -54.390625q0.000000 5.656250 3.531250 8.828125q3.546875 3.171875 9.937500 3.171875q6.359375 0.000000 9.937500 -3.171875q3.593750 -3.171875 3.593750 -8.828125q0.000000 -5.671875 -3.593750 -8.843750q-3.578125 -3.171875 -9.937500 -3.171875q-6.390625 0.000000 -9.937500 3.171875q-3.531250 3.171875 -3.531250 8.843750"/>
</defs>
<g style="fill: #000000; opacity: 1.000000" transform="translate(433.343750,401.706250)scale(0.120000)">
<use xlink:href="#c_bef35738d52871942e50b9de9b122bab"/>
<use xlink:href="#c_7a2040fe3b94fcd41d0a72c84e93b115" x="63.623047"/>
<use xlink:href="#c_7a2040fe3b94fcd41d0a72c84e93b115" x="127.246094"/>
</g>
</g>
</g>
<g id="xtick7">
<g id="line2d19">
<g ><use style="fill: none; stroke: #000000; stroke-width: 0.500000; stroke-linejoin: round; stroke-linecap: butt;  opacity: 1.000000" xlink:href="#m30e32995789d870ad79a2e54c91cf9c6" x="518.400000" y="388.800000"/>
</g></g>
<g id="line2d20">
<g ><use style="fill: none; stroke: #000000; stroke-width: 0.500000; stroke-linejoin: round; stroke-linecap: butt;  opacity: 1.000000" xlink:href="#m9281cae24120827b11d5ea8a7ad3e96b" x="518.400000" y="43.200000"/>
</g></g>
<g id="text7">
<defs>
<path id="c_42baa63129a918535c52adb20d687ea7" d="M12.406250 -8.296875l16.109375 0.000000l0.000000 -55.625000l-17.531250 3.515625l0.000000 -8.984375l17.437500 -3.515625l9.859375 0.000000l0.000000 64.609375l16.109375 0.000000l0.000000 8.296875l-41.984375 0.000000z"/>
</defs>
<g style="fill: #000000; opacity: 1.000000" transform="translate(504.173437,401.706250)scale(0.120000)">
<use xlink:href="#c_42baa63129a918535c52adb20d687ea7"/>
<use xlink:href="#c_7a2040fe3b94fcd41d0a72c84e93b115" x="63.623047"/>
<use xlink:href="#c_7a2040fe3b94fcd41d0a72c84e93b115" x="127.246094"/>
<use xlink:href="#c_7a2040fe3b94fcd41d0a72c84e93b115" x="190.869141"/>
</g>
</g>
</g>
<g id="text8">
<defs>
<path id="c_0f8c41144cfbf448378cb6fd1cc8e549" d="M18.312500 -70.218750l0.000000 15.531250l18.500000 0.000000l0.000000 6.984375l-18.500000 0.000000l0.000000 29.687500q0.000000 6.687500 1.828125 8.593750q1.828125 1.906250 7.453125 1.906250l9.218750 0.000000l0.000000 7.515625l-9.218750 0.000000q-10.406250 0.000000 -14.359375 -3.875000q-3.953125 -3.890625 -3.953125 -14.140625l0.000000 -29.687500l-6.593750 0.000000l0.000000 -6.984375l6.593750 0.000000l0.000000 -15.531250z"/>
<path id="c_6a63bda47b2f3da1cec6aadd80692cfe" d="M9.421875 -54.687500l8.984375 0.000000l0.000000 54.687500l-8.984375 0.000000zM9.421875 -75.984375l8.984375 0.000000l0.000000 11.390625l-8.984375 0.000000z"/>
<path id="c_4653c6dfde66c7610eae0911760d3490" d="M52.000000 -44.187500q3.375000 -6.062500 8.062500 -8.937500q4.687500 -2.875000 11.031250 -2.875000q8.546875 0.000000 13.187500 5.984375q4.640625 5.968750 4.640625 17.000000l0.000000 33.015625l-9.031250 0.000000l0.000000 -32.718750q0.000000 -7.859375 -2.796875 -11.656250q-2.781250 -3.812500 -8.484375 -3.812500q-6.984375 0.000000 -11.046875 4.640625q-4.046875 4.625000 -4.046875 12.640625l0.000000 30.906250l-9.031250 0.000000l0.000000 -32.718750q0.000000 -7.906250 -2.781250 -11.687500q-2.781250 -3.781250 -8.593750 -3.781250q-6.890625 0.000000 -10.953125 4.656250q-4.046875 4.656250 -4.046875 12.625000l0.000000 30.906250l-9.031250 0.000000l0.000000 -54.687500l9.031250 0.000000l0.000000 8.500000q3.078125 -5.031250 7.375000 -7.421875q4.296875 -2.390625 10.203125 -2.390625q5.968750 0.000000 10.140625 3.031250q4.171875 3.015625 6.171875 8.781250"/>
<path id="c_0bce5afba2dc6b9024b26277c38ad8e8" d="M56.203125 -29.593750l0.000000 4.390625l-41.312500 0.000000q0.593750 9.281250 5.593750 14.140625q5.000000 4.859375 13.937500 4.859375q5.171875 0.000000 10.031250 -1.265625q4.859375 -1.265625 9.656250 -3.812500l0.000000 8.500000q-4.843750 2.046875 -9.921875 3.125000q-5.078125 1.078125 -10.296875 1.078125q-13.093750 0.000000 -20.734375 -7.609375q-7.640625 -7.625000 -7.640625 -20.625000q0.000000 -13.421875 7.250000 -21.296875q7.250000 -7.890625 19.562500 -7.890625q11.031250 0.000000 17.453125 7.109375q6.421875 7.093750 6.421875 19.296875M47.218750 -32.234375q-0.093750 -7.359375 -4.125000 -11.750000q-4.031250 -4.406250 -10.671875 -4.406250q-7.515625 0.000000 -12.031250 4.250000q-4.515625 4.250000 -5.203125 11.968750z"/>
</defs>
<g style="fill: #000000; opacity: 1.000000" transform="translate(282.129687,416.003125)scale(0.120000)">
<use xlink:href="#c_0f8c41144cfbf448378cb6fd1cc8e549"/>
<use xlink:href="#c_6a63bda47b2f3da1cec6aadd80692cfe" x="39.208984"/>
<use xlink:href="#c_4653c6dfde66c7610eae0911760d3490" x="66.992188"/>
<use xlink:href="#c_0bce5afba2dc6b9024b26277c38ad8e8" x="164.404297"/>
</g>
</g>
</g>
<g id="matplotlib.axis2">
<g id="ytick1">
<g id="line2d21">
<defs><path id="m3400efa6b1638b3fea9e19e898273957" d="M0.000000 0.000000L4.000000 0.000000"/></defs>
<g ><use style="fill: none; stroke: #000000; stroke-width: 0.500000; stroke-linejoin: round; stroke-linecap: butt;  opacity: 1.000000" xlink:href="#m3400efa6b1638b3fea9e19e898273957" x="72.000000" y="388.800000"/>
</g></g>
<g id="line2d22">
<defs><path id="m20b58b2501143cb5e0a5e8f1ef6f1643" d="M0.000000 0.000000L-4.000000 0.000000"/></defs>
<g ><use style="fill: none; stroke: #000000; stroke-width: 0.500000; stroke-linejoin: round; stroke-linecap: butt;  opacity: 1.000000" xlink:href="#m20b58b2501143cb5e0a5e8f1ef6f1643" x="518.400000" y="388.800000"/>
</g></g>
<g id="text9">
<defs>
<path id="c_3dcfa38a02242cb63ec6726c6e70be7a" d="M40.578125 -39.312500q7.078125 1.515625 11.046875 6.312500q3.984375 4.781250 3.984375 11.812500q0.000000 10.781250 -7.421875 16.703125q-7.421875 5.906250 -21.093750 5.906250q-4.578125 0.000000 -9.437500 -0.906250q-4.859375 -0.906250 -10.031250 -2.718750l0.000000 -9.515625q4.093750 2.390625 8.968750 3.609375q4.890625 1.218750 10.218750 1.218750q9.265625 0.000000 14.125000 -3.656250q4.859375 -3.656250 4.859375 -10.640625q0.000000 -6.453125 -4.515625 -10.078125q-4.515625 -3.640625 -12.562500 -3.640625l-8.500000 0.000000l0.000000 -8.109375l8.890625 0.000000q7.265625 0.000000 11.125000 -2.906250q3.859375 -2.906250 3.859375 -8.375000q0.000000 -5.609375 -3.984375 -8.609375q-3.968750 -3.015625 -11.390625 -3.015625q-4.062500 0.000000 -8.703125 0.890625q-4.640625 0.875000 -10.203125 2.718750l0.000000 -8.781250q5.625000 -1.562500 10.531250 -2.343750q4.906250 -0.781250 9.250000 -0.781250q11.234375 0.000000 17.765625 5.109375q6.546875 5.093750 6.546875 13.781250q0.000000 6.062500 -3.468750 10.234375q-3.468750 4.171875 -9.859375 5.781250"/>
</defs>
<g style="fill: #000000; opacity: 1.000000" transform="translate(52.531250,393.167188)scale(0.120000)">
<use xlink:href="#c_6a8d56c819c37117ab4cf023bec22a5a"/>
<use xlink:href="#c_3dcfa38a02242cb63ec6726c6e70be7a" x="83.789062"/>
</g>
</g>
</g>
<g id="ytick2">
<g id="line2d23">
<g ><use style="fill: none; stroke: #000000; stroke-width: 0.500000; stroke-linejoin: round; stroke-linecap: butt;  opacity: 1.000000" xlink:href="#m3400efa6b1638b3fea9e19e898273957" x="72.000000" y="350.400000"/>
</g></g>
<g id="line2d24">
<g ><use style="fill: none; stroke: #000000; stroke-width: 0.500000; stroke-linejoin: round; stroke-linecap: butt;  opacity: 1.000000" xlink:href="#m20b58b2501143cb5e0a5e8f1ef6f1643" x="518.400000" y="350.400000"/>
</g></g>
<g id="text10">
<g style="fill: #000000; opacity: 1.000000" transform="translate(52.765625,354.853125)scale(0.120000)">
<use xlink:href="#c_6a8d56c819c37117ab4cf023bec22a5a"/>
<use xlink:href="#c_ed3f3ed3ebfbd18bcb9c012009a68ad1" x="83.789062"/>
</g>
</g>
</g>
<g id="ytick3">
<g id="line2d25">
<g ><use style="fill: none; stroke: #000000; stroke-width: 0.500000; stroke-linejoin: round; stroke-linecap: butt;  opacity: 1.000000" xlink:href="#m3400efa6b1638b3fea9e19e898273957" x="72.000000" y="312.000000"/>
</g></g>
<g id="line2d26">
<g ><use style="fill: none; stroke: #000000; stroke-width: 0.500000; stroke-linejoin: round; stroke-linecap: butt;  opacity: 1.000000" xlink:href="#m20b58b2501143cb5e0a5e8f1ef6f1643" x="518.400000" y="312.000000"/>
</g></g>
<g id="text11">
<g style="fill: #000000; opacity: 1.000000" transform="translate(52.671875,316.375000)scale(0.120000)">
<use xlink:href="#c_6a8d56c819c37117ab4cf023bec22a5a"/>
<use xlink:href="#c_42baa63129a918535c52adb20d687ea7" x="83.789062"/>
</g>
</g>
</g>
<g id="ytick4">
<g id="line2d27">
<g ><use style="fill: none; stroke: #000000; stroke-width: 0.500000; stroke-linejoin: round; stroke-linecap: butt;  opacity: 1.000000" xlink:href="#m3400efa6b1638b3fea9e19e898273957" x="72.000000" y="273.600000"/>
</g></g>
<g id="line2d28">
<g ><use style="fill: none; stroke: #000000; stroke-width: 0.500000; stroke-linejoin: round; stroke-linecap: butt;  opacity: 1.000000" xlink:href="#m20b58b2501143cb5e0a5e8f1ef6f1643" x="518.400000" y="273.600000"/>
</g></g>
<g id="text12">
<g style="fill: #000000; opacity: 1.000000" transform="translate(61.953125,277.967188)scale(0.120000)">
<use xlink:href="#c_7a2040fe3b94fcd41d0a72c84e93b115"/>
</g>
</g>
</g>
<g id="ytick5">
<g id="line2d29">
<g ><use style="fill: none; stroke: #000000; stroke-width: 0.500000; stroke-linejoin: round; stroke-linecap: butt;  opacity: 1.000000" xlink:href="#m3400efa6b1638b3fea9e19e898273957" x="72.000000" y="235.200000"/>
</g></g>
<g id="line2d30">
<g ><use style="fill: none; stroke: #000000; stroke-width: 0.500000; stroke-linejoin: round; stroke-linecap: butt;  opacity: 1.000000" xlink:href="#m20b58b2501143cb5e0a5e8f1ef6f1643" x="518.400000" y="235.200000"/>
</g></g>
<g id="text13">
<g style="fill: #000000; opacity: 1.000000" transform="translate(62.781250,239.575000)scale(0.120000)">
<use xlink:href="#c_42baa63129a918535c52adb20d687ea7"/>
</g>
</g>
</g>
<g id="ytick6">
<g id="line2d31">
<g ><use style="fill: none; stroke: #000000; stroke-width: 0.500000; stroke-linejoin: round; stroke-linecap: butt;  opacity: 1.000000" xlink:href="#m3400efa6b1638b3fea9e19e898273957" x="72.000000" y="196.800000"/>
</g></g>
<g id="line2d32">
<g ><use style="fill: none; stroke: #000000; stroke-width: 0.500000; stroke-linejoin: round; stroke-linecap: butt;  opacity: 1.000000" xlink:href="#m20b58b2501143cb5e0a5e8f1ef6f1643" x="518.400000" y="196.800000"/>
</g></g>
<g id="text14">
<g style="fill: #000000; opacity: 1.000000" transform="translate(62.437500,201.253125)scale(0.120000)">
<use xlink:href="#c_ed3f3ed3ebfbd18bcb9c012009a68ad1"/>
</g>
</g>
</g>
<g id="ytick7">
<g id="line2d33">
<g ><use style="fill: none; stroke: #000000; stroke-width: 0.500000; stroke-linejoin: round; stroke-linecap: butt;  opacity: 1.000000" xlink:href="#m3400efa6b1638b3fea9e19e898273957" x="72.000000" y="158.400000"/>
</g></g>
<g id="line2d34">
<g ><use style="fill: none; stroke: #000000; stroke-width: 0.500000; stroke-linejoin: round; stroke-linecap: butt;  opacity: 1.000000" xlink:href="#m20b58b2501143cb5e0a5e8f1ef6f1643" x="518.400000" y="158.400000"/>
</g></g>
<g id="text15">
<g style="fill: #000000; opacity: 1.000000" transform="translate(62.250000,162.767188)scale(0.120000)">
<use xlink:href="#c_3dcfa38a02242cb63ec6726c6e70be7a"/>
</g>
</g>
</g>
<g id="ytick8">
<g id="line2d35">
<g ><use style="fill: none; stroke: #000000; stroke-width: 0.500000; stroke-linejoin: round; stroke-linecap: butt;  opacity: 1.000000" xlink:href="#m3400efa6b1638b3fea9e19e898273957" x="72.000000" y="120.000000"/>
</g></g>
<g id="line2d36">
<g ><use style="fill: none; stroke: #000000; stroke-width: 0.500000; stroke-linejoin: round; stroke-linecap: butt;  opacity: 1.000000" xlink:href="#m20b58b2501143cb5e0a5e8f1ef6f1643" x="518.400000" y="120.000000"/>
</g></g>
<g id="text16">
<g style="fill: #000000; opacity: 1.000000" transform="translate(61.625000,124.375000)scale(0.120000)">
<use xlink:href="#c_a0416418d96557a09b8c1332d34883ba"/>
</g>
</g>
</g>
<g id="ytick9">
<g id="line2d37">
<g ><use style="fill: none; stroke: #000000; stroke-width: 0.500000; stroke-linejoin: round; stroke-linecap: butt;  opacity: 1.000000" xlink:href="#m3400efa6b1638b3fea9e19e898273957" x="72.000000" y="81.600000"/>
</g></g>
<g id="line2d38">
<g ><use style="fill: none; stroke: #000000; stroke-width: 0.500000; stroke-linejoin: round; stroke-linecap: butt;  opacity: 1.000000" xlink:href="#m20b58b2501143cb5e0a5e8f1ef6f1643" x="518.400000" y="81.600000"/>
</g></g>
<g id="text17">
<defs>
<path id="c_1260a2df50f305f3db244e29828f968e" d="M10.796875 -72.906250l38.718750 0.000000l0.000000 8.312500l-29.687500 0.000000l0.000000 17.859375q2.140625 -0.734375 4.281250 -1.093750q2.156250 -0.359375 4.312500 -0.359375q12.203125 0.000000 19.328125 6.687500q7.140625 6.687500 7.140625 18.109375q0.000000 11.765625 -7.328125 18.296875q-7.328125 6.515625 -20.656250 6.515625q-4.593750 0.000000 -9.359375 -0.781250q-4.750000 -0.781250 -9.828125 -2.343750l0.000000 -9.921875q4.390625 2.390625 9.078125 3.562500q4.687500 1.171875 9.906250 1.171875q8.453125 0.000000 13.375000 -4.437500q4.937500 -4.437500 4.937500 -12.062500q0.000000 -7.609375 -4.937500 -12.046875q-4.921875 -4.453125 -13.375000 -4.453125q-3.953125 0.000000 -7.890625 0.875000q-3.921875 0.875000 -8.015625 2.734375z"/>
</defs>
<g style="fill: #000000; opacity: 1.000000" transform="translate(62.328125,85.889063)scale(0.120000)">
<use xlink:href="#c_1260a2df50f305f3db244e29828f968e"/>
</g>
</g>
</g>
<g id="ytick10">
<g id="line2d39">
<g ><use style="fill: none; stroke: #000000; stroke-width: 0.500000; stroke-linejoin: round; stroke-linecap: butt;  opacity: 1.000000" xlink:href="#m3400efa6b1638b3fea9e19e898273957" x="72.000000" y="43.200000"/>
</g></g>
<g id="line2d40">
<g ><use style="fill: none; stroke: #000000; stroke-width: 0.500000; stroke-linejoin: round; stroke-linecap: butt;  opacity: 1.000000" xlink:href="#m20b58b2501143cb5e0a5e8f1ef6f1643" x="518.400000" y="43.200000"/>
</g></g>
<g id="text18">
<g style="fill: #000000; opacity: 1.000000" transform="translate(61.968750,47.567188)scale(0.120000)">
<use xlink:href="#c_cc8d6d580d1b10c8632f7a42cd53db8a"/>
</g>
</g>
</g>
<g id="text19">
<defs>
<path id="c_6023715d605f81e6eb43b7f9d77e7c51" d="M34.187500 -63.187500l-13.390625 36.281250l26.812500 0.000000zM28.609375 -72.906250l11.187500 0.000000l27.781250 72.906250l-10.250000 0.000000l-6.640625 -18.703125l-32.859375 0.000000l-6.640625 18.703125l-10.406250 0.000000z"/>
<path id="c_f15a64fcd463ef4629c48bab42cde24c" d="M18.109375 -8.203125l0.000000 29.000000l-9.031250 0.000000l0.000000 -75.484375l9.031250 0.000000l0.000000 8.296875q2.843750 -4.875000 7.156250 -7.234375q4.328125 -2.375000 10.328125 -2.375000q9.968750 0.000000 16.187500 7.906250q6.234375 7.906250 6.234375 20.796875q0.000000 12.890625 -6.234375 20.812500q-6.218750 7.906250 -16.187500 7.906250q-6.000000 0.000000 -10.328125 -2.375000q-4.312500 -2.375000 -7.156250 -7.250000M48.687500 -27.296875q0.000000 -9.906250 -4.078125 -15.546875q-4.078125 -5.640625 -11.203125 -5.640625q-7.140625 0.000000 -11.218750 5.640625q-4.078125 5.640625 -4.078125 15.546875q0.000000 9.906250 4.078125 15.546875q4.078125 5.640625 11.218750 5.640625q7.125000 0.000000 11.203125 -5.640625q4.078125 -5.640625 4.078125 -15.546875"/>
<path id="c_5099edb83619131346ae654950954dea" d="M9.421875 -75.984375l8.984375 0.000000l0.000000 75.984375l-8.984375 0.000000z"/>
<path id="c_3b515ad41f960e225ec85275856806ca" d="M8.500000 -21.578125l0.000000 -33.109375l8.984375 0.000000l0.000000 32.765625q0.000000 7.765625 3.015625 11.656250q3.031250 3.875000 9.093750 3.875000q7.265625 0.000000 11.484375 -4.640625q4.234375 -4.640625 4.234375 -12.656250l0.000000 -31.000000l8.984375 0.000000l0.000000 54.687500l-8.984375 0.000000l0.000000 -8.406250q-3.265625 4.984375 -7.593750 7.406250q-4.312500 2.421875 -10.031250 2.421875q-9.421875 0.000000 -14.312500 -5.859375q-4.875000 -5.859375 -4.875000 -17.140625M31.109375 -56.000000z"/>
</defs>
<g style="fill: #000000; opacity: 1.000000" transform="translate(47.531250,242.421875)rotate(-90.0)scale(0.120000)">
<use xlink:href="#c_6023715d605f81e6eb43b7f9d77e7c51"/>
<use xlink:href="#c_4653c6dfde66c7610eae0911760d3490" x="68.408203"/>
<use xlink:href="#c_f15a64fcd463ef4629c48bab42cde24c" x="165.820312"/>
<use xlink:href="#c_5099edb83619131346ae654950954dea" x="229.296875"/>
<use xlink:href="#c_6a63bda47b2f3da1cec6aadd80692cfe" x="257.080078"/>
<use xlink:href="#c_0f8c41144cfbf448378cb6fd1cc8e549" x="284.863281"/>
<use xlink:href="#c_3b515ad41f960e225ec85275856806ca" x="324.072266"/>
<use xlink:href="#c_0f8c41144cfbf448378cb6fd1cc8e549" x="387.451172"/>
<use xlink:href="#c_0bce5afba2dc6b9024b26277c38ad8e8" x="426.660156"/>
</g>
</g>
</g>
<g id="patch3">
<path style="fill: none; stroke: #000000; stroke-width: 1.000000; stroke-linejoin: round; stroke-linecap: square;  opacity: 1.000000"  d="M72.000000 43.200000L518.400000 43.200000"/>
</g>
<g id="patch4">
<path style="fill: none; stroke: #000000; stroke-width: 1.000000; stroke-linejoin: round; stroke-linecap: square;  opacity: 1.000000"  d="M518.400000 388.800000L518.400000 43.200000"/>
</g>
<g id="patch5">
<path style="fill: none; stroke: #000000; stroke-width: 1.000000; stroke-linejoin: round; stroke-linecap: square;  opacity: 1.000000"  d="M72.000000 388.800000L518.400000 388.800000"/>
</g>
<g id="patch6">
<path style="fill: none; stroke: #000000; stroke-width: 1.000000; stroke-linejoin: round; stroke-linecap: square;  opacity: 1.000000"  d="M72.000000 388.800000L72.000000 43.200000"/>
</g>
</g>
</g>
</svg>
