<?xml version="1.0" standalone="no"?>
<!DOCTYPE svg PUBLIC "-//W3C//DTD SVG 1.1//EN"
  "http://www.w3.org/Graphics/SVG/1.1/DTD/svg11.dtd">
<!-- Created with matplotlib (http://matplotlib.sourceforge.net/) -->
<svg width="576pt" height="432pt" viewBox="0 0 576 432"
   xmlns="http://www.w3.org/2000/svg"
   xmlns:xlink="http://www.w3.org/1999/xlink"
   version="1.1"
   id="svg1">
<g id="figure1">
<g id="patch1">
<path style="fill: #ffffff; stroke: #ffffff; stroke-width: 1.000000; stroke-linejoin: round; stroke-linecap: square;  opacity: 1.000000"  d="M0.000000 432.000000L576.000000 432.000000L576.000000 0.000000
L0.000000 0.000000L0.000000 432.000000"/>
</g>
<g id="axes1">
<g id="patch2">
<path style="fill: #ffffff; opacity: 1.000000"  d="M72.000000 388.800000L518.400000 388.800000L518.400000 43.200000
L72.000000 43.200000L72.000000 388.800000"/>
</g>
<g id="line2d1">
<defs>
  <clipPath id="p50431ccdcb28178602d99d9270004dde">
<rect x="72.000000" y="43.200000" width="446.400000" height="345.600000"/>
  </clipPath>
</defs><path style="fill: none; stroke: #0000ff; stroke-width: 1.000000; stroke-linejoin: round; stroke-linecap: square;  opacity: 1.000000" clip-path="url(#p50431ccdcb28178602d99d9270004dde)" d="M109.200000 253.513301L112.176000 239.660086L113.664000 233.357120
L115.152000 229.829566L116.640000 229.746385L118.128000 232.475359
L123.336000 245.531923L127.056000 251.594240L128.544000 253.229214
L130.032000 253.491661L131.520000 251.782447L133.008000 248.074373
L135.984000 237.178713L138.216000 229.560233L139.704000 226.723663
L141.192000 227.247321L141.936000 229.095181L143.424000 235.866164
L147.888000 261.751724L148.632000 263.626375L150.120000 263.768892
L150.864000 262.203068L152.352000 256.984884L155.328000 246.142187
L157.560000 241.176301L159.048000 238.675630L160.536000 237.194747
L162.024000 238.296433L162.768000 240.303234L164.256000 247.351667
L167.976000 269.347218L169.464000 273.248699L170.952000 274.167584
L172.440000 273.976390L173.928000 273.334672L175.416000 270.551945
L176.160000 267.462667L177.648000 256.615436L179.136000 239.756000
L190.296000 93.815042L192.528000 76.368686L194.016000 70.212689
L195.504000 70.550531L196.248000 73.770600L197.736000 87.113927
L199.224000 109.328871L202.200000 169.225686L205.176000 224.028635
L207.408000 251.336429L208.896000 263.050909L210.384000 270.037556
L211.128000 271.711069L212.616000 271.137688L213.360000 268.822370
L214.848000 260.352021L217.080000 240.634903L224.520000 168.906184
L226.008000 159.413067L227.496000 153.915550L228.240000 152.694225
L229.728000 152.860956L231.216000 155.617810L232.704000 160.269671
L234.192000 166.937644L235.680000 176.241842L237.912000 195.798291
L241.632000 238.260032L244.608000 269.784745L246.840000 285.725688
L248.328000 292.443803L249.816000 296.558762L250.560000 297.721961
L252.048000 298.278191L253.536000 296.504985L255.024000 292.726921
L258.744000 281.195702L259.488000 279.773840L260.976000 278.323212
L263.952000 278.052101L265.440000 276.784039L266.928000 273.639408
L269.160000 265.816284L271.392000 257.553301L272.880000 254.064825
L274.368000 252.806518L277.344000 253.396044L278.832000 252.758735
L281.064000 249.470807L286.272000 238.935058L287.760000 233.318083
L289.992000 220.323596L294.456000 191.687876L296.688000 182.389611
L299.664000 173.823253L301.896000 168.645744L302.640000 167.346659
L304.128000 165.786004L307.104000 165.461164L308.592000 164.177983
L310.080000 160.429969L312.312000 150.499875L314.544000 140.504727
L316.032000 137.254077L317.520000 137.716303L319.008000 141.067937
L323.472000 153.750472L324.216000 155.064529L325.704000 156.752165
L327.192000 157.359740L330.168000 157.336616L331.656000 158.019361
L333.888000 161.144555L338.352000 170.398638L342.072000 175.322351
L343.560000 179.641961L345.792000 190.360588L348.768000 204.927832
L351.000000 211.738483L354.720000 219.774429L358.440000 226.428964
L360.672000 229.174106L363.648000 232.407724L365.136000 235.222981
L367.368000 241.431722L372.576000 258.964027L375.552000 269.748861
L376.296000 271.364602L377.784000 271.808239L378.528000 270.462211
L380.016000 265.125547L382.248000 255.259675L383.736000 251.794145
L385.224000 252.948703L386.712000 258.322215L390.432000 275.060643
L391.176000 276.732276L392.664000 277.726119L394.152000 276.494309
L395.640000 274.786021L397.128000 274.290124L398.616000 275.795458
L400.848000 280.713592L404.568000 289.144806L408.288000 297.329949
L410.520000 304.243149L412.752000 311.453674L414.240000 314.300801
L415.728000 314.548717L417.960000 310.967559L420.192000 306.568476
L421.680000 305.617915L423.168000 307.276676L424.656000 311.472714
L429.120000 327.875894L429.864000 329.057103L431.352000 328.747000
L432.096000 327.206691L433.584000 321.698910L438.048000 300.137207
L438.792000 298.490511L440.280000 298.073162L442.512000 302.127317
L444.744000 306.385265L446.976000 310.116681L448.464000 314.238626
L450.696000 323.962415L454.416000 340.875906L456.648000 347.350899
L458.136000 350.164090L459.624000 351.791651L461.112000 352.405018
L464.088000 353.227580L465.576000 353.854625L467.064000 353.298724
L468.552000 350.682534L471.528000 343.817013L473.016000 343.384862
L475.992000 346.541214L477.480000 345.706516L478.968000 342.196761
L481.200000 336.108913L482.688000 335.212917L484.176000 338.025413
L488.640000 352.365008L489.384000 353.572625L490.872000 354.918953
L492.360000 355.417375L493.848000 355.146205L495.336000 353.374142
L496.824000 349.227760L501.288000 332.781815L502.776000 331.955628
L506.496000 335.718143L507.984000 334.938063L509.472000 333.091277
L510.960000 332.183710L512.448000 333.644022L515.424000 340.612505
L516.912000 341.584972L516.912000 341.584972"/>
</g>
<g id="line2d2">
<path style="fill: none; stroke: #008000; stroke-width: 1.000000; stroke-linejoin: round; stroke-linecap: square;  opacity: 1.000000" clip-path="url(#p50431ccdcb28178602d99d9270004dde)" d="M109.200000 234.173122L118.872000 257.858531L120.360000 258.588783
L121.848000 257.247555L124.824000 252.367220L129.288000 246.938014
L130.776000 242.541658L132.264000 235.828002L135.240000 220.162449
L136.728000 216.208822L138.216000 217.163947L139.704000 222.170193
L142.680000 233.802165L144.168000 236.793855L147.144000 240.314645
L148.632000 243.654043L152.352000 254.273384L153.096000 255.308667
L154.584000 255.398284L159.048000 249.301622L162.024000 247.581218
L163.512000 244.959429L165.000000 240.237121L167.976000 229.088159
L169.464000 225.756994L170.952000 224.962148L172.440000 226.493767
L173.928000 229.077012L175.416000 230.045748L176.160000 228.880969
L176.904000 226.159029L178.392000 215.629659L180.624000 190.718941
L184.344000 149.482472L187.320000 114.608665L191.040000 68.087682
L192.528000 59.229343L194.016000 60.030670L194.760000 64.032691
L196.248000 77.858232L199.968000 126.030413L208.896000 237.849317
L210.384000 245.834225L211.128000 247.602548L212.616000 247.370754
L213.360000 245.715728L214.848000 240.047954L217.080000 226.985772
L220.056000 203.422060L224.520000 165.382757L226.752000 152.522509
L228.240000 146.954600L229.728000 143.689501L231.216000 143.425034
L231.960000 144.728186L233.448000 150.477151L235.680000 165.141915
L239.400000 190.991588L243.120000 211.331389L245.352000 220.729399
L247.584000 227.134306L255.768000 244.833804L258.000000 247.777133
L259.488000 248.465387L260.976000 247.323324L262.464000 244.166691
L267.672000 229.770573L268.416000 228.610525L271.392000 225.762511
L275.856000 222.591622L278.088000 219.534501L285.528000 206.670962
L287.016000 206.055636L288.504000 206.486436L289.992000 207.298752
L291.480000 207.255846L292.968000 205.081892L294.456000 200.054576
L299.664000 176.089619L300.408000 174.897080L301.896000 174.427744
L303.384000 174.810892L304.872000 174.137299L306.360000 171.567293
L307.848000 167.287598L310.824000 155.962915L313.800000 145.268389
L316.032000 140.163107L321.240000 131.899901L322.728000 131.029054
L324.216000 132.972281L325.704000 138.193384L330.168000 159.020520
L331.656000 162.560662L336.864000 170.914634L339.840000 176.839106
L341.328000 178.493588L344.304000 180.136281L346.536000 182.813799
L348.024000 186.166039L350.256000 193.692047L357.696000 223.101989
L365.136000 244.487159L367.368000 249.063328L368.112000 250.132830
L369.600000 251.514264L374.064000 252.865586L380.016000 257.294698
L381.504000 256.983218L383.736000 254.444834L388.200000 246.063235
L389.688000 245.143493L391.176000 245.784846L394.152000 249.319996
L395.640000 250.327845L397.128000 249.540151L398.616000 246.513747
L401.592000 237.865555L403.080000 237.024491L403.824000 238.453851
L405.312000 245.116564L409.776000 273.391956L411.264000 277.203751
L412.752000 277.497307L415.728000 274.808345L417.216000 275.972945
L418.704000 280.258725L422.424000 294.329893L423.912000 294.796321
L424.656000 293.503852L426.888000 286.593995L428.376000 282.617411
L429.120000 281.404971L430.608000 280.522453L432.096000 281.333909
L434.328000 285.314539L435.816000 289.902047L441.024000 308.750319
L441.768000 310.000877L443.256000 310.333027L444.744000 307.848644
L449.208000 296.346747L450.696000 296.322487L451.440000 297.364232
L452.928000 301.022685L456.648000 311.624402L457.392000 312.951919
L458.880000 314.605577L461.856000 316.625162L464.832000 319.726668
L466.320000 319.754259L467.808000 317.331691L469.296000 312.517896
L473.760000 295.527575L474.504000 294.031549L475.992000 293.370810
L477.480000 295.643997L479.712000 302.805731L481.944000 309.694535
L482.688000 311.094162L484.176000 312.182144L485.664000 311.423681
L487.152000 310.091132L488.640000 309.444041L490.128000 310.006969
L491.616000 311.145796L493.104000 311.598894L494.592000 310.585723
L496.824000 306.880580L498.312000 304.579172L499.800000 303.508534
L501.288000 304.288144L502.776000 306.876148L505.008000 312.832031
L507.984000 320.464990L509.472000 322.846777L510.960000 323.644955
L512.448000 322.529464L513.936000 319.576781L517.656000 310.220943
L517.656000 310.220943"/>
</g>
<g id="line2d3">
<path style="fill: none; stroke: #ff0000; stroke-width: 1.000000; stroke-linejoin: round; stroke-linecap: square;  opacity: 1.000000" clip-path="url(#p50431ccdcb28178602d99d9270004dde)" d="M109.200000 262.388440L112.176000 251.807695L112.920000 250.405539
L114.408000 249.970439L117.384000 252.497601L118.872000 251.656347
L120.360000 248.218392L121.848000 242.405109L126.312000 221.430433
L127.056000 219.708061L128.544000 219.633279L129.288000 221.357308
L130.776000 227.655342L134.496000 246.058734L135.984000 249.174168
L137.472000 248.704097L138.960000 245.124104L142.680000 232.342451
L143.424000 230.923064L144.912000 230.509476L145.656000 231.569308
L147.144000 235.752289L150.864000 248.126284L151.608000 249.435914
L153.096000 250.680487L156.072000 251.643810L157.560000 252.687341
L159.048000 253.196667L160.536000 251.889015L162.024000 248.012809
L163.512000 241.699255L167.232000 224.055142L167.976000 222.206506
L169.464000 221.871394L170.208000 223.491763L171.696000 229.676255
L173.928000 240.493478L174.672000 242.351267L176.160000 240.497886
L176.904000 236.357919L178.392000 222.352574L183.600000 163.602566
L185.832000 142.797684L188.064000 114.446577L191.040000 72.794519
L192.528000 60.137034L193.272000 57.327833L194.760000 59.110985
L195.504000 63.466633L196.992000 78.095560L199.224000 111.739420
L206.664000 241.219735L208.152000 253.986451L209.640000 261.000302
L210.384000 262.525723L211.872000 262.007588L212.616000 260.061814
L214.104000 252.930488L215.592000 241.736359L217.824000 218.585295
L222.288000 168.464764L223.776000 158.654557L224.520000 155.964015
L225.264000 154.730066L226.752000 155.937377L228.240000 160.290871
L231.960000 172.865512L237.168000 186.902072L238.656000 193.998192
L240.888000 208.234716L246.840000 248.045110L249.072000 258.896733
L251.304000 266.145432L252.792000 268.864778L254.280000 269.924147
L255.768000 269.719443L257.256000 269.110931L258.744000 269.084140
L260.232000 270.107390L261.720000 271.674999L263.208000 272.513037
L264.696000 271.566726L266.184000 268.719143L269.904000 258.187628
L272.880000 248.557013L277.344000 232.461613L278.832000 229.912293
L280.320000 229.168773L281.808000 229.119206L283.296000 228.265346
L284.040000 227.094946L285.528000 222.737378L287.760000 211.959785
L289.992000 201.299825L291.480000 197.520577L292.968000 197.004410
L295.944000 200.044650L297.432000 200.497851L300.408000 199.704675
L301.896000 200.309381L304.872000 202.730010L306.360000 201.538036
L307.104000 199.646146L308.592000 193.119870L314.544000 158.825473
L316.776000 151.861722L319.008000 147.094452L320.496000 144.662191
L321.984000 142.997044L323.472000 142.743896L324.960000 144.680083
L326.448000 148.968736L329.424000 159.534009L330.912000 162.460337
L332.400000 163.682374L333.888000 165.358662L334.632000 167.192753
L336.120000 173.834847L338.352000 189.938996L340.584000 206.083483
L342.072000 212.990239L343.560000 216.070512L345.048000 216.246230
L346.536000 215.150535L348.024000 214.569159L349.512000 216.029420
L351.000000 220.329071L352.488000 227.345061L355.464000 246.173999
L357.696000 259.044595L359.184000 263.752707L360.672000 264.522430
L364.392000 260.252748L365.880000 260.841347L367.368000 262.490847
L368.856000 263.526735L370.344000 262.915251L374.808000 257.132302
L376.296000 256.213579L377.784000 256.002539L379.272000 256.674405
L381.504000 259.585217L383.736000 264.393684L385.968000 271.206932
L391.176000 289.510824L391.920000 290.797060L393.408000 292.232018
L394.896000 292.834908L396.384000 293.053768L397.872000 292.536165
L399.360000 290.606752L403.080000 282.757499L404.568000 282.816013
L405.312000 284.175921L406.800000 289.081563L409.776000 300.635376
L411.264000 304.397662L415.728000 313.127049L418.704000 320.484654
L419.448000 321.759901L420.936000 323.093899L422.424000 322.738018
L423.912000 320.725419L425.400000 317.194705L429.864000 304.693669
L431.352000 303.928720L432.840000 305.958941L435.816000 312.441031
L437.304000 312.878379L439.536000 308.973681L441.024000 305.913440
L442.512000 304.956140L444.000000 306.973536L445.488000 311.382959
L448.464000 321.299388L449.952000 324.408850L452.184000 326.948264
L454.416000 329.830898L456.648000 333.621634L458.136000 335.217914
L459.624000 335.331952L462.600000 334.013899L464.088000 334.939417
L465.576000 337.252443L469.296000 344.010612L471.528000 346.643458
L473.016000 347.598621L474.504000 347.876559L477.480000 347.763957
L478.968000 348.515340L481.944000 350.595417L483.432000 350.562493
L486.408000 349.363892L490.872000 349.183501L493.104000 346.847804
L496.080000 341.213724L499.056000 334.393139L504.264000 320.762686
L505.752000 319.781309L507.240000 321.255223L508.728000 325.132953
L513.936000 343.049587L514.680000 344.051693L516.168000 344.701562
L517.656000 344.732343L517.656000 344.732343"/>
</g>
<g id="matplotlib.axis1">
<g id="xtick1">
<g id="line2d4">
<defs><path id="m30e32995789d870ad79a2e54c91cf9c6" d="M0.000000 0.000000L0.000000 -4.000000"/></defs>
<g ><use style="fill: none; stroke: #000000; stroke-width: 0.500000; stroke-linejoin: round; stroke-linecap: butt;  opacity: 1.000000" xlink:href="#m30e32995789d870ad79a2e54c91cf9c6" x="72.000000" y="388.800000"/>
</g></g>
<g id="line2d5">
<defs><path id="m9281cae24120827b11d5ea8a7ad3e96b" d="M0.000000 0.000000L0.000000 4.000000"/></defs>
<g ><use style="fill: none; stroke: #000000; stroke-width: 0.500000; stroke-linejoin: round; stroke-linecap: butt;  opacity: 1.000000" xlink:href="#m9281cae24120827b11d5ea8a7ad3e96b" x="72.000000" y="43.200000"/>
</g></g>
<g id="text1">
<defs>
<path id="c_6a8d56c819c37117ab4cf023bec22a5a" d="M10.593750 -35.500000l62.593750 0.000000l0.000000 8.296875l-62.593750 0.000000z"/>
<path id="c_ed3f3ed3ebfbd18bcb9c012009a68ad1" d="M19.187500 -8.296875l34.421875 0.000000l0.000000 8.296875l-46.281250 0.000000l0.000000 -8.296875q5.609375 -5.812500 15.296875 -15.593750q9.703125 -9.796875 12.187500 -12.640625q4.734375 -5.312500 6.609375 -9.000000q1.890625 -3.687500 1.890625 -7.250000q0.000000 -5.812500 -4.078125 -9.468750q-4.078125 -3.671875 -10.625000 -3.671875q-4.640625 0.000000 -9.796875 1.609375q-5.140625 1.609375 -11.000000 4.890625l0.000000 -9.968750q5.953125 -2.390625 11.125000 -3.609375q5.187500 -1.218750 9.484375 -1.218750q11.328125 0.000000 18.062500 5.671875q6.734375 5.656250 6.734375 15.125000q0.000000 4.500000 -1.687500 8.531250q-1.671875 4.015625 -6.125000 9.484375q-1.218750 1.421875 -7.765625 8.187500q-6.531250 6.765625 -18.453125 18.921875"/>
<path id="c_7a2040fe3b94fcd41d0a72c84e93b115" d="M31.781250 -66.406250q-7.609375 0.000000 -11.453125 7.500000q-3.828125 7.484375 -3.828125 22.531250q0.000000 14.984375 3.828125 22.484375q3.843750 7.500000 11.453125 7.500000q7.671875 0.000000 11.500000 -7.500000q3.843750 -7.500000 3.843750 -22.484375q0.000000 -15.046875 -3.843750 -22.531250q-3.828125 -7.500000 -11.500000 -7.500000M31.781250 -74.218750q12.265625 0.000000 18.734375 9.703125q6.468750 9.687500 6.468750 28.140625q0.000000 18.406250 -6.468750 28.109375q-6.468750 9.687500 -18.734375 9.687500q-12.250000 0.000000 -18.718750 -9.687500q-6.468750 -9.703125 -6.468750 -28.109375q0.000000 -18.453125 6.468750 -28.140625q6.468750 -9.703125 18.718750 -9.703125"/>
</defs>
<g style="fill: #000000; opacity: 1.000000" transform="translate(56.539062,401.706250)scale(0.120000)">
<use xlink:href="#c_6a8d56c819c37117ab4cf023bec22a5a"/>
<use xlink:href="#c_ed3f3ed3ebfbd18bcb9c012009a68ad1" x="83.789062"/>
<use xlink:href="#c_7a2040fe3b94fcd41d0a72c84e93b115" x="147.412109"/>
<use xlink:href="#c_7a2040fe3b94fcd41d0a72c84e93b115" x="211.035156"/>
</g>
</g>
</g>
<g id="xtick2">
<g id="line2d6">
<g ><use style="fill: none; stroke: #000000; stroke-width: 0.500000; stroke-linejoin: round; stroke-linecap: butt;  opacity: 1.000000" xlink:href="#m30e32995789d870ad79a2e54c91cf9c6" x="146.400000" y="388.800000"/>
</g></g>
<g id="line2d7">
<g ><use style="fill: none; stroke: #000000; stroke-width: 0.500000; stroke-linejoin: round; stroke-linecap: butt;  opacity: 1.000000" xlink:href="#m9281cae24120827b11d5ea8a7ad3e96b" x="146.400000" y="43.200000"/>
</g></g>
<g id="text2">
<g style="fill: #000000; opacity: 1.000000" transform="translate(143.376563,401.706250)scale(0.120000)">
<use xlink:href="#c_7a2040fe3b94fcd41d0a72c84e93b115"/>
</g>
</g>
</g>
<g id="xtick3">
<g id="line2d8">
<g ><use style="fill: none; stroke: #000000; stroke-width: 0.500000; stroke-linejoin: round; stroke-linecap: butt;  opacity: 1.000000" xlink:href="#m30e32995789d870ad79a2e54c91cf9c6" x="220.800000" y="388.800000"/>
</g></g>
<g id="line2d9">
<g ><use style="fill: none; stroke: #000000; stroke-width: 0.500000; stroke-linejoin: round; stroke-linecap: butt;  opacity: 1.000000" xlink:href="#m9281cae24120827b11d5ea8a7ad3e96b" x="220.800000" y="43.200000"/>
</g></g>
<g id="text3">
<g style="fill: #000000; opacity: 1.000000" transform="translate(210.175000,401.706250)scale(0.120000)">
<use xlink:href="#c_ed3f3ed3ebfbd18bcb9c012009a68ad1"/>
<use xlink:href="#c_7a2040fe3b94fcd41d0a72c84e93b115" x="63.623047"/>
<use xlink:href="#c_7a2040fe3b94fcd41d0a72c84e93b115" x="127.246094"/>
</g>
</g>
</g>
<g id="xtick4">
<g id="line2d10">
<g ><use style="fill: none; stroke: #000000; stroke-width: 0.500000; stroke-linejoin: round; stroke-linecap: butt;  opacity: 1.000000" xlink:href="#m30e32995789d870ad79a2e54c91cf9c6" x="295.200000" y="388.800000"/>
</g></g>
<g id="line2d11">
<g ><use style="fill: none; stroke: #000000; stroke-width: 0.500000; stroke-linejoin: round; stroke-linecap: butt;  opacity: 1.000000" xlink:href="#m9281cae24120827b11d5ea8a7ad3e96b" x="295.200000" y="43.200000"/>
</g></g>
<g id="text4">
<defs>
<path id="c_a0416418d96557a09b8c1332d34883ba" d="M37.796875 -64.312500l-24.906250 38.921875l24.906250 0.000000zM35.203125 -72.906250l12.406250 0.000000l0.000000 47.515625l10.406250 0.000000l0.000000 8.203125l-10.406250 0.000000l0.000000 17.187500l-9.812500 0.000000l0.000000 -17.187500l-32.906250 0.000000l0.000000 -9.515625z"/>
</defs>
<g style="fill: #000000; opacity: 1.000000" transform="translate(284.434375,401.706250)scale(0.120000)">
<use xlink:href="#c_a0416418d96557a09b8c1332d34883ba"/>
<use xlink:href="#c_7a2040fe3b94fcd41d0a72c84e93b115" x="63.623047"/>
<use xlink:href="#c_7a2040fe3b94fcd41d0a72c84e93b115" x="127.246094"/>
</g>
</g>
</g>
<g id="xtick5">
<g id="line2d12">
<g ><use style="fill: none; stroke: #000000; stroke-width: 0.500000; stroke-linejoin: round; stroke-linecap: butt;  opacity: 1.000000" xlink:href="#m30e32995789d870ad79a2e54c91cf9c6" x="369.600000" y="388.800000"/>
</g></g>
<g id="line2d13">
<g ><use style="fill: none; stroke: #000000; stroke-width: 0.500000; stroke-linejoin: round; stroke-linecap: butt;  opacity: 1.000000" xlink:href="#m9281cae24120827b11d5ea8a7ad3e96b" x="369.600000" y="43.200000"/>
</g></g>
<g id="text5">
<defs>
<path id="c_cc8d6d580d1b10c8632f7a42cd53db8a" d="M33.015625 -40.375000q-6.640625 0.000000 -10.531250 4.546875q-3.875000 4.531250 -3.875000 12.437500q0.000000 7.859375 3.875000 12.437500q3.890625 4.562500 10.531250 4.562500q6.640625 0.000000 10.515625 -4.562500q3.875000 -4.578125 3.875000 -12.437500q0.000000 -7.906250 -3.875000 -12.437500q-3.875000 -4.546875 -10.515625 -4.546875M52.593750 -71.296875l0.000000 8.984375q-3.718750 -1.750000 -7.500000 -2.671875q-3.781250 -0.937500 -7.500000 -0.937500q-9.765625 0.000000 -14.921875 6.593750q-5.140625 6.593750 -5.875000 19.921875q2.875000 -4.250000 7.218750 -6.515625q4.359375 -2.265625 9.578125 -2.265625q10.984375 0.000000 17.359375 6.671875q6.375000 6.656250 6.375000 18.125000q0.000000 11.234375 -6.640625 18.031250q-6.640625 6.781250 -17.671875 6.781250q-12.656250 0.000000 -19.343750 -9.687500q-6.687500 -9.703125 -6.687500 -28.109375q0.000000 -17.281250 8.203125 -27.562500q8.203125 -10.281250 22.015625 -10.281250q3.718750 0.000000 7.500000 0.734375q3.781250 0.734375 7.890625 2.187500"/>
</defs>
<g style="fill: #000000; opacity: 1.000000" transform="translate(358.959375,401.706250)scale(0.120000)">
<use xlink:href="#c_cc8d6d580d1b10c8632f7a42cd53db8a"/>
<use xlink:href="#c_7a2040fe3b94fcd41d0a72c84e93b115" x="63.623047"/>
<use xlink:href="#c_7a2040fe3b94fcd41d0a72c84e93b115" x="127.246094"/>
</g>
</g>
</g>
<g id="xtick6">
<g id="line2d14">
<g ><use style="fill: none; stroke: #000000; stroke-width: 0.500000; stroke-linejoin: round; stroke-linecap: butt;  opacity: 1.000000" xlink:href="#m30e32995789d870ad79a2e54c91cf9c6" x="444.000000" y="388.800000"/>
</g></g>
<g id="line2d15">
<g ><use style="fill: none; stroke: #000000; stroke-width: 0.500000; stroke-linejoin: round; stroke-linecap: butt;  opacity: 1.000000" xlink:href="#m9281cae24120827b11d5ea8a7ad3e96b" x="444.000000" y="43.200000"/>
</g></g>
<g id="text6">
<defs>
<path id="c_bef35738d52871942e50b9de9b122bab" d="M31.781250 -34.625000q-7.031250 0.000000 -11.062500 3.765625q-4.015625 3.765625 -4.015625 10.343750q0.000000 6.593750 4.015625 10.359375q4.031250 3.765625 11.062500 3.765625q7.031250 0.000000 11.078125 -3.781250q4.062500 -3.796875 4.062500 -10.343750q0.000000 -6.578125 -4.031250 -10.343750q-4.015625 -3.765625 -11.109375 -3.765625M21.921875 -38.812500q-6.343750 -1.562500 -9.890625 -5.906250q-3.531250 -4.359375 -3.531250 -10.609375q0.000000 -8.734375 6.218750 -13.812500q6.234375 -5.078125 17.062500 -5.078125q10.890625 0.000000 17.093750 5.078125q6.203125 5.078125 6.203125 13.812500q0.000000 6.250000 -3.546875 10.609375q-3.531250 4.343750 -9.828125 5.906250q7.125000 1.656250 11.093750 6.500000q3.984375 4.828125 3.984375 11.796875q0.000000 10.609375 -6.468750 16.281250q-6.468750 5.656250 -18.531250 5.656250q-12.046875 0.000000 -18.531250 -5.656250q-6.468750 -5.671875 -6.468750 -16.281250q0.000000 -6.968750 4.000000 -11.796875q4.015625 -4.843750 11.140625 -6.500000M18.312500 -54.390625q0.000000 5.656250 3.531250 8.828125q3.546875 3.171875 9.937500 3.171875q6.359375 0.000000 9.937500 -3.171875q3.593750 -3.171875 3.593750 -8.828125q0.000000 -5.671875 -3.593750 -8.843750q-3.578125 -3.171875 -9.937500 -3.171875q-6.390625 0.000000 -9.937500 3.171875q-3.531250 3.171875 -3.531250 8.843750"/>
</defs>
<g style="fill: #000000; opacity: 1.000000" transform="translate(433.343750,401.706250)scale(0.120000)">
<use xlink:href="#c_bef35738d52871942e50b9de9b122bab"/>
<use xlink:href="#c_7a2040fe3b94fcd41d0a72c84e93b115" x="63.623047"/>
<use xlink:href="#c_7a2040fe3b94fcd41d0a72c84e93b115" x="127.246094"/>
</g>
</g>
</g>
<g id="xtick7">
<g id="line2d16">
<g ><use style="fill: none; stroke: #000000; stroke-width: 0.500000; stroke-linejoin: round; stroke-linecap: butt;  opacity: 1.000000" xlink:href="#m30e32995789d870ad79a2e54c91cf9c6" x="518.400000" y="388.800000"/>
</g></g>
<g id="line2d17">
<g ><use style="fill: none; stroke: #000000; stroke-width: 0.500000; stroke-linejoin: round; stroke-linecap: butt;  opacity: 1.000000" xlink:href="#m9281cae24120827b11d5ea8a7ad3e96b" x="518.400000" y="43.200000"/>
</g></g>
<g id="text7">
<defs>
<path id="c_42baa63129a918535c52adb20d687ea7" d="M12.406250 -8.296875l16.109375 0.000000l0.000000 -55.625000l-17.531250 3.515625l0.000000 -8.984375l17.437500 -3.515625l9.859375 0.000000l0.000000 64.609375l16.109375 0.000000l0.000000 8.296875l-41.984375 0.000000z"/>
</defs>
<g style="fill: #000000; opacity: 1.000000" transform="translate(504.173437,401.706250)scale(0.120000)">
<use xlink:href="#c_42baa63129a918535c52adb20d687ea7"/>
<use xlink:href="#c_7a2040fe3b94fcd41d0a72c84e93b115" x="63.623047"/>
<use xlink:href="#c_7a2040fe3b94fcd41d0a72c84e93b115" x="127.246094"/>
<use xlink:href="#c_7a2040fe3b94fcd41d0a72c84e93b115" x="190.869141"/>
</g>
</g>
</g>
</g>
<g id="matplotlib.axis2">
<g id="ytick1">
<g id="line2d18">
<defs><path id="m3400efa6b1638b3fea9e19e898273957" d="M0.000000 0.000000L4.000000 0.000000"/></defs>
<g ><use style="fill: none; stroke: #000000; stroke-width: 0.500000; stroke-linejoin: round; stroke-linecap: butt;  opacity: 1.000000" xlink:href="#m3400efa6b1638b3fea9e19e898273957" x="72.000000" y="388.800000"/>
</g></g>
<g id="line2d19">
<defs><path id="m20b58b2501143cb5e0a5e8f1ef6f1643" d="M0.000000 0.000000L-4.000000 0.000000"/></defs>
<g ><use style="fill: none; stroke: #000000; stroke-width: 0.500000; stroke-linejoin: round; stroke-linecap: butt;  opacity: 1.000000" xlink:href="#m20b58b2501143cb5e0a5e8f1ef6f1643" x="518.400000" y="388.800000"/>
</g></g>
<g id="text8">
<defs>
<path id="c_3dcfa38a02242cb63ec6726c6e70be7a" d="M40.578125 -39.312500q7.078125 1.515625 11.046875 6.312500q3.984375 4.781250 3.984375 11.812500q0.000000 10.781250 -7.421875 16.703125q-7.421875 5.906250 -21.093750 5.906250q-4.578125 0.000000 -9.437500 -0.906250q-4.859375 -0.906250 -10.031250 -2.718750l0.000000 -9.515625q4.093750 2.390625 8.968750 3.609375q4.890625 1.218750 10.218750 1.218750q9.265625 0.000000 14.125000 -3.656250q4.859375 -3.656250 4.859375 -10.640625q0.000000 -6.453125 -4.515625 -10.078125q-4.515625 -3.640625 -12.562500 -3.640625l-8.500000 0.000000l0.000000 -8.109375l8.890625 0.000000q7.265625 0.000000 11.125000 -2.906250q3.859375 -2.906250 3.859375 -8.375000q0.000000 -5.609375 -3.984375 -8.609375q-3.968750 -3.015625 -11.390625 -3.015625q-4.062500 0.000000 -8.703125 0.890625q-4.640625 0.875000 -10.203125 2.718750l0.000000 -8.781250q5.625000 -1.562500 10.531250 -2.343750q4.906250 -0.781250 9.250000 -0.781250q11.234375 0.000000 17.765625 5.109375q6.546875 5.093750 6.546875 13.781250q0.000000 6.062500 -3.468750 10.234375q-3.468750 4.171875 -9.859375 5.781250"/>
</defs>
<g style="fill: #000000; opacity: 1.000000" transform="translate(52.531250,393.167188)scale(0.120000)">
<use xlink:href="#c_6a8d56c819c37117ab4cf023bec22a5a"/>
<use xlink:href="#c_3dcfa38a02242cb63ec6726c6e70be7a" x="83.789062"/>
</g>
</g>
</g>
<g id="ytick2">
<g id="line2d20">
<g ><use style="fill: none; stroke: #000000; stroke-width: 0.500000; stroke-linejoin: round; stroke-linecap: butt;  opacity: 1.000000" xlink:href="#m3400efa6b1638b3fea9e19e898273957" x="72.000000" y="339.428571"/>
</g></g>
<g id="line2d21">
<g ><use style="fill: none; stroke: #000000; stroke-width: 0.500000; stroke-linejoin: round; stroke-linecap: butt;  opacity: 1.000000" xlink:href="#m20b58b2501143cb5e0a5e8f1ef6f1643" x="518.400000" y="339.428571"/>
</g></g>
<g id="text9">
<g style="fill: #000000; opacity: 1.000000" transform="translate(52.765625,343.881696)scale(0.120000)">
<use xlink:href="#c_6a8d56c819c37117ab4cf023bec22a5a"/>
<use xlink:href="#c_ed3f3ed3ebfbd18bcb9c012009a68ad1" x="83.789062"/>
</g>
</g>
</g>
<g id="ytick3">
<g id="line2d22">
<g ><use style="fill: none; stroke: #000000; stroke-width: 0.500000; stroke-linejoin: round; stroke-linecap: butt;  opacity: 1.000000" xlink:href="#m3400efa6b1638b3fea9e19e898273957" x="72.000000" y="290.057143"/>
</g></g>
<g id="line2d23">
<g ><use style="fill: none; stroke: #000000; stroke-width: 0.500000; stroke-linejoin: round; stroke-linecap: butt;  opacity: 1.000000" xlink:href="#m20b58b2501143cb5e0a5e8f1ef6f1643" x="518.400000" y="290.057143"/>
</g></g>
<g id="text10">
<g style="fill: #000000; opacity: 1.000000" transform="translate(52.671875,294.432143)scale(0.120000)">
<use xlink:href="#c_6a8d56c819c37117ab4cf023bec22a5a"/>
<use xlink:href="#c_42baa63129a918535c52adb20d687ea7" x="83.789062"/>
</g>
</g>
</g>
<g id="ytick4">
<g id="line2d24">
<g ><use style="fill: none; stroke: #000000; stroke-width: 0.500000; stroke-linejoin: round; stroke-linecap: butt;  opacity: 1.000000" xlink:href="#m3400efa6b1638b3fea9e19e898273957" x="72.000000" y="240.685714"/>
</g></g>
<g id="line2d25">
<g ><use style="fill: none; stroke: #000000; stroke-width: 0.500000; stroke-linejoin: round; stroke-linecap: butt;  opacity: 1.000000" xlink:href="#m20b58b2501143cb5e0a5e8f1ef6f1643" x="518.400000" y="240.685714"/>
</g></g>
<g id="text11">
<g style="fill: #000000; opacity: 1.000000" transform="translate(61.953125,245.052902)scale(0.120000)">
<use xlink:href="#c_7a2040fe3b94fcd41d0a72c84e93b115"/>
</g>
</g>
</g>
<g id="ytick5">
<g id="line2d26">
<g ><use style="fill: none; stroke: #000000; stroke-width: 0.500000; stroke-linejoin: round; stroke-linecap: butt;  opacity: 1.000000" xlink:href="#m3400efa6b1638b3fea9e19e898273957" x="72.000000" y="191.314286"/>
</g></g>
<g id="line2d27">
<g ><use style="fill: none; stroke: #000000; stroke-width: 0.500000; stroke-linejoin: round; stroke-linecap: butt;  opacity: 1.000000" xlink:href="#m20b58b2501143cb5e0a5e8f1ef6f1643" x="518.400000" y="191.314286"/>
</g></g>
<g id="text12">
<g style="fill: #000000; opacity: 1.000000" transform="translate(62.781250,195.689286)scale(0.120000)">
<use xlink:href="#c_42baa63129a918535c52adb20d687ea7"/>
</g>
</g>
</g>
<g id="ytick6">
<g id="line2d28">
<g ><use style="fill: none; stroke: #000000; stroke-width: 0.500000; stroke-linejoin: round; stroke-linecap: butt;  opacity: 1.000000" xlink:href="#m3400efa6b1638b3fea9e19e898273957" x="72.000000" y="141.942857"/>
</g></g>
<g id="line2d29">
<g ><use style="fill: none; stroke: #000000; stroke-width: 0.500000; stroke-linejoin: round; stroke-linecap: butt;  opacity: 1.000000" xlink:href="#m20b58b2501143cb5e0a5e8f1ef6f1643" x="518.400000" y="141.942857"/>
</g></g>
<g id="text13">
<g style="fill: #000000; opacity: 1.000000" transform="translate(62.437500,146.395982)scale(0.120000)">
<use xlink:href="#c_ed3f3ed3ebfbd18bcb9c012009a68ad1"/>
</g>
</g>
</g>
<g id="ytick7">
<g id="line2d30">
<g ><use style="fill: none; stroke: #000000; stroke-width: 0.500000; stroke-linejoin: round; stroke-linecap: butt;  opacity: 1.000000" xlink:href="#m3400efa6b1638b3fea9e19e898273957" x="72.000000" y="92.571429"/>
</g></g>
<g id="line2d31">
<g ><use style="fill: none; stroke: #000000; stroke-width: 0.500000; stroke-linejoin: round; stroke-linecap: butt;  opacity: 1.000000" xlink:href="#m20b58b2501143cb5e0a5e8f1ef6f1643" x="518.400000" y="92.571429"/>
</g></g>
<g id="text14">
<g style="fill: #000000; opacity: 1.000000" transform="translate(62.250000,96.938616)scale(0.120000)">
<use xlink:href="#c_3dcfa38a02242cb63ec6726c6e70be7a"/>
</g>
</g>
</g>
<g id="ytick8">
<g id="line2d32">
<g ><use style="fill: none; stroke: #000000; stroke-width: 0.500000; stroke-linejoin: round; stroke-linecap: butt;  opacity: 1.000000" xlink:href="#m3400efa6b1638b3fea9e19e898273957" x="72.000000" y="43.200000"/>
</g></g>
<g id="line2d33">
<g ><use style="fill: none; stroke: #000000; stroke-width: 0.500000; stroke-linejoin: round; stroke-linecap: butt;  opacity: 1.000000" xlink:href="#m20b58b2501143cb5e0a5e8f1ef6f1643" x="518.400000" y="43.200000"/>
</g></g>
<g id="text15">
<g style="fill: #000000; opacity: 1.000000" transform="translate(61.625000,47.575000)scale(0.120000)">
<use xlink:href="#c_a0416418d96557a09b8c1332d34883ba"/>
</g>
</g>
</g>
</g>
<g id="patch3">
<path style="fill: none; stroke: #000000; stroke-width: 1.000000; stroke-linejoin: round; stroke-linecap: square;  opacity: 1.000000"  d="M72.000000 43.200000L518.400000 43.200000"/>
</g>
<g id="patch4">
<path style="fill: none; stroke: #000000; stroke-width: 1.000000; stroke-linejoin: round; stroke-linecap: square;  opacity: 1.000000"  d="M518.400000 388.800000L518.400000 43.200000"/>
</g>
<g id="patch5">
<path style="fill: none; stroke: #000000; stroke-width: 1.000000; stroke-linejoin: round; stroke-linecap: square;  opacity: 1.000000"  d="M72.000000 388.800000L518.400000 388.800000"/>
</g>
<g id="patch6">
<path style="fill: none; stroke: #000000; stroke-width: 1.000000; stroke-linejoin: round; stroke-linecap: square;  opacity: 1.000000"  d="M72.000000 388.800000L72.000000 43.200000"/>
</g>
</g>
</g>
</svg>
