<?xml version="1.0" standalone="no"?>
<!DOCTYPE svg PUBLIC "-//W3C//DTD SVG 1.1//EN"
  "http://www.w3.org/Graphics/SVG/1.1/DTD/svg11.dtd">
<!-- Created with matplotlib (http://matplotlib.sourceforge.net/) -->
<svg width="576pt" height="432pt" viewBox="0 0 576 432"
   xmlns="http://www.w3.org/2000/svg"
   xmlns:xlink="http://www.w3.org/1999/xlink"
   version="1.1"
   id="svg1">
<g id="figure1">
<g id="patch1">
<path style="fill: #ffffff; stroke: #ffffff; stroke-width: 1.000000; stroke-linejoin: round; stroke-linecap: square;  opacity: 1.000000"  d="M0.000000 432.000000L576.000000 432.000000L576.000000 0.000000
L0.000000 0.000000L0.000000 432.000000"/>
</g>
<g id="axes1">
<g id="patch2">
<path style="fill: #ffffff; opacity: 1.000000"  d="M72.000000 388.800000L518.400000 388.800000L518.400000 43.200000
L72.000000 43.200000L72.000000 388.800000"/>
</g>
<g id="line2d1">
<defs>
  <clipPath id="p50431ccdcb28178602d99d9270004dde">
<rect x="72.000000" y="43.200000" width="446.400000" height="345.600000"/>
  </clipPath>
</defs><path style="fill: none; stroke: #0000ff; stroke-width: 1.000000; stroke-linejoin: round; stroke-linecap: square;  opacity: 1.000000" clip-path="url(#p50431ccdcb28178602d99d9270004dde)" d="M72.000000 326.683785L72.744000 328.081818L74.232000 329.295368
L75.720000 328.138305L77.952000 323.555037L79.440000 320.603683
L80.928000 319.031756L82.416000 319.138692L83.904000 320.555414
L86.880000 324.022703L88.368000 324.635674L89.856000 324.175363
L91.344000 322.836066L99.528000 312.316942L101.016000 311.407292
L102.504000 311.536918L106.968000 314.729478L108.456000 314.881304
L112.920000 313.475426L114.408000 313.704195L115.896000 314.418936
L117.384000 315.750063L119.616000 319.131457L122.592000 325.091211
L124.080000 326.526747L125.568000 325.470590L127.056000 321.904656
L130.032000 313.004886L130.776000 311.835551L132.264000 311.913743
L133.008000 313.189473L134.496000 317.675435L137.472000 327.719173
L138.216000 328.921676L139.704000 328.676973L141.192000 325.363341
L143.424000 319.045899L144.168000 317.798041L145.656000 317.536349
L147.888000 320.498699L149.376000 320.787656L150.120000 319.388971
L150.864000 316.686631L152.352000 307.310037L154.584000 286.322737
L156.816000 265.795027L158.304000 257.032811L159.048000 254.614548
L159.792000 253.437727L161.280000 254.010451L163.512000 258.270165
L165.000000 260.927718L166.488000 262.615189L167.976000 263.437759
L169.464000 263.729792L170.952000 263.660673L172.440000 263.206762
L176.904000 260.468031L179.880000 258.422432L182.856000 255.314301
L184.344000 252.755295L186.576000 247.196206L191.040000 235.150068
L192.528000 232.693487L196.248000 227.907405L197.736000 224.435778
L199.224000 219.017131L201.456000 207.231180L205.176000 186.811540
L207.408000 179.401322L212.616000 165.895604L217.824000 149.714225
L219.312000 147.059478L220.800000 145.583641L222.288000 144.989852
L225.264000 144.990824L231.216000 145.736060L232.704000 145.184161
L235.680000 142.275515L237.168000 140.843859L238.656000 140.470697
L240.144000 141.572335L243.864000 146.543472L245.352000 146.786380
L249.816000 143.466010L251.304000 143.647498L255.768000 146.177792
L258.744000 147.152060L260.232000 148.140203L263.208000 150.760162
L264.696000 150.703802L266.184000 148.342489L267.672000 143.319985
L270.648000 128.413477L272.880000 118.185529L275.112000 111.015648
L280.320000 97.679669L281.808000 95.254530L283.296000 94.505043
L284.784000 95.436859L289.248000 101.197562L290.736000 100.922668
L292.224000 98.397960L293.712000 93.693593L298.176000 77.326705
L299.664000 74.713519L301.152000 73.630140L304.128000 72.579293
L307.104000 70.593975L308.592000 70.786456L310.080000 72.808028
L311.568000 76.664048L316.032000 90.504465L317.520000 93.052046
L319.008000 94.251539L320.496000 94.536601L324.960000 94.650441
L327.936000 95.504590L329.424000 96.750406L330.912000 99.408763
L332.400000 103.910482L334.632000 113.710787L339.840000 137.906537
L348.768000 173.092462L352.488000 186.268607L362.160000 217.653956
L367.368000 236.913753L370.344000 245.165257L373.320000 253.443338
L379.272000 272.052138L380.016000 273.205714L381.504000 274.458844
L382.992000 274.737524L385.968000 274.020844L387.456000 273.495593
L388.944000 273.489376L390.432000 274.507211L393.408000 279.163817
L395.640000 282.557138L398.616000 287.035432L400.104000 290.604179
L402.336000 298.214207L406.056000 311.546663L407.544000 314.343245
L409.032000 315.345326L412.008000 315.719392L413.496000 316.881020
L417.960000 322.579468L419.448000 323.043201L420.936000 322.454957
L425.400000 318.386410L426.888000 317.597130L428.376000 317.321042
L429.864000 317.396040L431.352000 317.836626L432.840000 318.732680
L434.328000 320.168679L439.536000 327.207137L441.024000 328.447002
L445.488000 330.934631L447.720000 334.275632L449.952000 340.491741
L453.672000 352.208954L454.416000 353.547670L455.904000 354.428002
L458.136000 352.039160L464.088000 341.548809L468.552000 333.386018
L470.040000 332.149707L471.528000 332.300215L473.016000 333.614063
L475.992000 337.108896L477.480000 338.003916L480.456000 338.772987
L480.456000 338.772987"/>
</g>
<g id="line2d2">
<path style="fill: none; stroke: #008000; stroke-width: 1.000000; stroke-linejoin: round; stroke-linecap: square;  opacity: 1.000000" clip-path="url(#p50431ccdcb28178602d99d9270004dde)" d="M72.000000 310.478659L73.488000 308.967294L74.976000 308.795865
L76.464000 310.723785L77.952000 314.658244L80.928000 323.862833
L81.672000 325.247795L83.160000 326.503201L84.648000 326.350006
L86.136000 325.828787L87.624000 326.094175L89.856000 328.547264
L91.344000 330.755295L92.832000 332.347037L94.320000 332.515654
L95.808000 330.822394L97.296000 327.182549L103.248000 309.070745
L103.992000 308.039016L105.480000 307.073417L106.968000 307.162612
L109.944000 307.914344L112.920000 307.927324L114.408000 309.269429
L115.896000 312.776134L118.128000 321.591589L120.360000 329.985833
L121.104000 331.626510L122.592000 332.467633L124.080000 330.229118
L125.568000 325.759581L130.776000 307.297471L132.264000 304.578175
L133.752000 303.686454L135.240000 304.327377L144.168000 314.190992
L147.888000 320.827333L149.376000 320.677420L150.120000 319.131778
L151.608000 312.756639L153.840000 296.631700L157.560000 266.583006
L159.048000 257.929621L160.536000 252.345957L161.280000 250.695264
L162.768000 249.226653L164.256000 249.321443L167.232000 250.387567
L170.208000 251.159586L171.696000 252.069917L174.672000 255.323368
L177.648000 258.414657L179.136000 258.802313L180.624000 258.267257
L185.088000 254.553776L191.040000 248.779317L192.528000 246.150121
L194.016000 241.501734L195.504000 234.138829L197.736000 218.569969
L203.688000 173.589022L205.920000 162.852352L207.408000 158.403466
L209.640000 154.149022L211.872000 150.916371L213.360000 149.235381
L214.848000 148.239772L216.336000 148.024352L217.824000 148.430209
L220.800000 150.007923L222.288000 150.358013L223.776000 149.575007
L225.264000 147.165112L226.752000 143.103065L234.936000 116.093491
L236.424000 112.984288L237.168000 111.953925L238.656000 111.416265
L240.144000 113.276124L241.632000 117.385384L249.072000 143.406964
L251.304000 148.185868L252.792000 150.437840L254.280000 151.735139
L257.256000 152.767150L258.744000 153.830308L261.720000 157.122878
L263.208000 157.781118L264.696000 156.919175L266.184000 154.460468
L268.416000 148.626299L271.392000 140.408701L272.880000 137.609050
L274.368000 135.847540L280.320000 131.287104L294.456000 114.897656
L295.944000 114.750016L298.176000 117.158676L301.152000 122.306276
L302.640000 123.921859L304.128000 124.187080L305.616000 123.135952
L309.336000 117.601479L311.568000 114.664274L313.056000 113.457711
L314.544000 113.071547L316.032000 113.687369L319.008000 117.199281
L321.984000 120.298530L323.472000 121.538331L325.704000 125.071650
L327.192000 129.284368L333.888000 152.397466L339.840000 166.794857
L342.816000 176.237606L348.768000 196.442600L351.744000 202.770140
L353.976000 207.802244L358.440000 219.225350L359.928000 220.862785
L362.904000 222.366069L364.392000 224.360969L365.880000 228.017291
L373.320000 250.622972L375.552000 256.917561L378.528000 266.073670
L379.272000 267.365881L380.760000 267.631258L381.504000 266.549961
L382.992000 262.567457L385.968000 253.791332L386.712000 252.659088
L388.200000 252.286449L389.688000 254.104314L392.664000 260.554462
L394.896000 264.914705L400.848000 274.589382L403.824000 280.805084
L405.312000 283.004993L406.800000 284.524707L409.776000 286.267527
L412.752000 288.162572L414.984000 290.986664L424.656000 306.090602
L426.144000 306.816680L427.632000 306.392825L430.608000 304.373409
L432.096000 304.288512L433.584000 305.218677L435.816000 308.136339
L438.048000 312.754284L441.768000 321.392477L442.512000 322.485886
L444.000000 323.608307L445.488000 322.948915L447.720000 319.275988
L449.952000 315.043584L451.440000 313.639066L452.928000 314.289545
L454.416000 317.060942L455.904000 321.658283L460.368000 338.051251
L461.856000 340.793258L463.344000 340.847417L465.576000 336.790443
L467.808000 331.628742L468.552000 330.395221L470.040000 329.172058
L471.528000 329.656798L475.992000 335.209957L477.480000 336.005371
L478.968000 335.768119L480.456000 334.568343L480.456000 334.568343"/>
</g>
<g id="line2d3">
<path style="fill: none; stroke: #ff0000; stroke-width: 1.000000; stroke-linejoin: round; stroke-linecap: square;  opacity: 1.000000" clip-path="url(#p50431ccdcb28178602d99d9270004dde)" d="M72.000000 312.280717L73.488000 313.338407L77.952000 318.225591
L80.928000 320.110052L86.880000 326.382045L88.368000 327.059824
L89.856000 326.811776L91.344000 325.556480L94.320000 320.664208
L97.296000 315.233108L98.784000 313.529212L100.272000 313.198476
L101.760000 314.425496L103.992000 318.204673L105.480000 320.665666
L106.968000 322.092683L108.456000 322.246766L111.432000 320.411410
L115.896000 317.315765L120.360000 312.738851L121.848000 312.042379
L123.336000 312.257274L126.312000 313.583407L127.800000 313.392354
L130.776000 311.976467L132.264000 312.665072L133.752000 315.108102
L136.728000 321.578491L138.216000 321.841940L138.960000 320.530867
L140.448000 314.859446L141.936000 305.792706L144.912000 282.347268
L151.608000 226.686687L152.352000 223.520919L153.096000 221.987931
L154.584000 224.497329L156.072000 234.305263L158.304000 257.667387
L160.536000 280.032385L162.024000 289.126039L162.768000 291.515559
L163.512000 292.590481L165.000000 291.669440L166.488000 288.305519
L170.208000 277.124748L173.184000 265.911660L175.416000 255.042611
L177.648000 241.182427L179.880000 223.506796L188.064000 152.704957
L190.296000 142.035688L191.784000 137.583820L192.528000 136.164902
L194.016000 135.005685L195.504000 135.955860L196.992000 138.484193
L200.712000 145.937340L202.200000 147.635239L203.688000 148.366747
L205.176000 148.224051L206.664000 147.224734L208.896000 144.148722
L213.360000 136.440456L216.336000 131.947471L217.824000 127.974512
L220.056000 118.889500L223.032000 106.032184L224.520000 102.036237
L225.264000 100.887155L226.752000 100.071156L231.216000 101.774097
L234.192000 101.287820L235.680000 101.835005L237.912000 104.845397
L239.400000 107.277803L240.888000 108.717402L242.376000 108.721176
L245.352000 107.118825L246.840000 107.619291L249.072000 111.037879
L253.536000 120.091201L255.024000 121.766984L259.488000 124.580643
L262.464000 126.230982L263.952000 126.552827L266.928000 125.938109
L269.904000 125.282225L277.344000 124.641650L278.832000 123.691459
L281.064000 120.503419L285.528000 111.442994L287.016000 109.854404
L288.504000 109.459078L291.480000 110.079448L292.968000 109.915411
L298.920000 107.398152L301.896000 105.426711L304.872000 103.197003
L306.360000 102.771700L307.848000 103.105047L309.336000 104.141541
L310.824000 105.712861L313.056000 109.028633L315.288000 113.747520
L319.008000 121.872997L320.496000 123.495914L321.984000 123.937548
L327.936000 122.733853L330.912000 121.301801L333.888000 119.868613
L335.376000 120.085977L336.864000 121.195805L339.096000 124.502695
L341.328000 129.848231L345.792000 142.661777L347.280000 145.041235
L348.768000 145.892516L350.256000 145.638221L353.232000 144.604808
L354.720000 144.779310L356.208000 145.600153L359.184000 148.838967
L362.160000 152.586403L365.136000 155.050400L366.624000 156.234056
L368.856000 159.072946L372.576000 165.135306L374.064000 166.490217
L377.040000 167.781649L378.528000 169.234596L380.016000 171.970323
L382.992000 179.977264L385.224000 185.109011L385.968000 186.258208
L387.456000 187.700279L388.944000 188.285993L393.408000 189.058494
L394.896000 189.996045L397.128000 192.601420L400.104000 197.008234
L401.592000 198.492047L404.568000 199.986919L406.056000 201.568406
L407.544000 204.804665L409.776000 212.469351L412.008000 220.270257
L413.496000 223.747932L414.240000 224.862292L415.728000 226.059066
L417.216000 226.309587L421.680000 225.427110L423.168000 225.852891
L425.400000 228.445131L429.120000 235.087792L430.608000 236.020259
L432.096000 235.235193L434.328000 231.788977L436.560000 228.013797
L438.048000 226.627114L439.536000 226.397686L441.024000 227.112665
L443.256000 229.584317L445.488000 233.929135L451.440000 248.291219
L453.672000 251.811049L455.160000 253.046315L456.648000 252.969833
L458.136000 251.633709L461.856000 246.895661L463.344000 246.374604
L464.832000 247.573644L466.320000 250.708954L471.528000 265.382623
L473.016000 266.375332L474.504000 265.661564L478.968000 261.171874
L480.456000 260.660227L480.456000 260.660227"/>
</g>
<g id="line2d4">
<path style="fill: none; stroke: #00bfbf; stroke-width: 1.000000; stroke-linejoin: round; stroke-linecap: square;  opacity: 1.000000" clip-path="url(#p50431ccdcb28178602d99d9270004dde)" d="M72.000000 312.280717L73.488000 313.338407L77.952000 318.225591
L80.928000 320.110052L86.880000 326.382045L88.368000 327.059824
L89.856000 326.811776L91.344000 325.556480L94.320000 320.664208
L97.296000 315.233108L98.784000 313.529212L100.272000 313.198476
L101.760000 314.425496L103.992000 318.204673L105.480000 320.665666
L106.968000 322.092683L108.456000 322.246766L111.432000 320.411410
L115.896000 317.315765L120.360000 312.738851L121.848000 312.042379
L123.336000 312.257274L126.312000 313.583407L127.800000 313.392354
L130.776000 311.976467L132.264000 312.665072L133.752000 315.108102
L136.728000 321.578491L138.216000 321.841940L138.960000 320.530867
L140.448000 314.859446L141.936000 305.792706L144.912000 282.347268
L151.608000 226.686687L152.352000 223.520919L153.096000 221.987931
L154.584000 224.497329L156.072000 234.305263L158.304000 257.667387
L160.536000 280.032385L162.024000 289.126039L162.768000 291.515559
L163.512000 292.590481L165.000000 291.669440L166.488000 288.305519
L170.208000 277.124748L173.184000 265.911660L175.416000 255.042611
L177.648000 241.182427L179.880000 223.506796L188.064000 152.704957
L190.296000 142.035688L191.784000 137.583820L192.528000 136.164902
L194.016000 135.005685L195.504000 135.955860L196.992000 138.484193
L200.712000 145.937340L202.200000 147.635239L203.688000 148.366747
L205.176000 148.224051L206.664000 147.224734L208.896000 144.148722
L213.360000 136.440456L216.336000 131.947471L217.824000 127.974512
L220.056000 118.889500L223.032000 106.032184L224.520000 102.036237
L225.264000 100.887155L226.752000 100.071156L231.216000 101.774097
L234.192000 101.287820L235.680000 101.835005L237.912000 104.845397
L239.400000 107.277803L240.888000 108.717402L242.376000 108.721176
L245.352000 107.118825L246.840000 107.619291L249.072000 111.037879
L253.536000 120.091201L255.024000 121.766984L259.488000 124.580643
L262.464000 126.230982L263.952000 126.552827L266.928000 125.938109
L269.904000 125.282225L277.344000 124.641650L278.832000 123.691459
L281.064000 120.503419L285.528000 111.442994L287.016000 109.854404
L288.504000 109.459078L291.480000 110.079448L292.968000 109.915411
L298.920000 107.398152L301.896000 105.426711L304.872000 103.197003
L306.360000 102.771700L307.848000 103.105047L309.336000 104.141541
L310.824000 105.712861L313.056000 109.028633L315.288000 113.747520
L319.008000 121.872997L320.496000 123.495914L321.984000 123.937548
L327.936000 122.733853L330.912000 121.301801L333.888000 119.868613
L335.376000 120.085977L336.864000 121.195805L339.096000 124.502695
L341.328000 129.848231L345.792000 142.661777L347.280000 145.041235
L348.768000 145.892516L350.256000 145.638221L353.232000 144.604808
L354.720000 144.779310L356.208000 145.600153L359.184000 148.838967
L362.160000 152.586403L365.136000 155.050400L366.624000 156.234056
L368.856000 159.072946L372.576000 165.135306L374.064000 166.490217
L377.040000 167.781649L378.528000 169.234596L380.016000 171.970323
L382.992000 179.977264L385.224000 185.109011L385.968000 186.258208
L387.456000 187.700279L388.944000 188.285993L393.408000 189.058494
L394.896000 189.996045L397.128000 192.601420L400.104000 197.008234
L401.592000 198.492047L404.568000 199.986919L406.056000 201.568406
L407.544000 204.804665L409.776000 212.469351L412.008000 220.270257
L413.496000 223.747932L414.240000 224.862292L415.728000 226.059066
L417.216000 226.309587L421.680000 225.427110L423.168000 225.852891
L425.400000 228.445131L429.120000 235.087792L430.608000 236.020259
L432.096000 235.235193L434.328000 231.788977L436.560000 228.013797
L438.048000 226.627114L439.536000 226.397686L441.024000 227.112665
L443.256000 229.584317L445.488000 233.929135L451.440000 248.291219
L453.672000 251.811049L455.160000 253.046315L456.648000 252.969833
L458.136000 251.633709L461.856000 246.895661L463.344000 246.374604
L464.832000 247.573644L466.320000 250.708954L471.528000 265.382623
L473.016000 266.375332L474.504000 265.661564L478.968000 261.171874
L480.456000 260.660227L480.456000 260.660227"/>
</g>
<g id="line2d5">
<path style="fill: none; stroke: #bf00bf; stroke-width: 1.000000; stroke-linejoin: round; stroke-linecap: square;  opacity: 1.000000" clip-path="url(#p50431ccdcb28178602d99d9270004dde)" d="M72.000000 327.785033L73.488000 326.906571L74.976000 326.344447
L76.464000 326.123594L80.928000 326.653355L82.416000 324.736431
L83.904000 320.616208L89.112000 302.354904L90.600000 301.434287
L92.088000 303.208380L93.576000 306.832068L100.272000 325.854737
L101.760000 327.269618L103.248000 327.145659L104.736000 326.286255
L106.224000 325.854083L107.712000 326.741000L109.200000 329.158953
L112.920000 337.219659L114.408000 338.350781L115.896000 337.308321
L117.384000 334.408749L121.848000 323.775155L123.336000 322.652135
L124.824000 323.597895L126.312000 326.385778L130.776000 337.215920
L131.520000 338.276143L134.496000 340.624891L135.984000 341.588618
L137.472000 341.951634L138.960000 340.364999L140.448000 335.756237
L141.936000 328.067603L144.168000 312.229592L147.144000 285.027459
L150.864000 247.828944L152.352000 238.284509L153.096000 235.818328
L154.584000 236.142834L155.328000 238.891523L156.816000 248.760851
L162.768000 299.960938L164.256000 305.555404L165.000000 307.027088
L166.488000 307.953236L167.976000 307.101535L170.952000 303.490228
L173.184000 300.328831L174.672000 297.030701L176.160000 291.426389
L177.648000 282.512363L179.880000 262.677560L186.576000 193.493059
L188.064000 185.236793L189.552000 181.185244L191.040000 180.502103
L192.528000 181.741789L196.992000 187.742664L199.224000 192.302161
L202.200000 199.039620L202.944000 200.191240L204.432000 201.263074
L205.920000 200.454565L207.408000 197.836897L210.384000 189.578958
L212.616000 184.023902L218.568000 172.148417L226.752000 150.479171
L228.984000 146.690436L230.472000 145.082516L234.936000 141.366654
L237.168000 137.815060L241.632000 129.878619L243.120000 128.026357
L244.608000 126.881955L246.096000 126.905273L247.584000 128.681614
L249.072000 132.387556L253.536000 146.376255L254.280000 147.711011
L255.768000 149.205339L258.744000 149.801995L261.720000 149.571167
L264.696000 147.802440L267.672000 146.369152L269.160000 145.909770
L270.648000 144.731437L272.136000 142.121761L274.368000 135.778145
L276.600000 129.911298L277.344000 128.832105L278.832000 128.439498
L280.320000 130.125778L283.296000 136.219202L285.528000 140.170062
L287.016000 141.870597L288.504000 142.812680L291.480000 143.178063
L297.432000 142.906119L298.920000 141.638615L300.408000 138.995173
L304.872000 128.507921L306.360000 128.019534L307.848000 129.671669
L311.568000 136.365820L316.776000 142.694637L319.008000 147.556219
L321.984000 154.281682L322.728000 155.343884L324.216000 156.368661
L327.192000 156.241225L328.680000 157.097598L330.912000 161.249771
L333.144000 168.262520L336.120000 177.717200L337.608000 180.586198
L339.096000 181.523230L340.584000 180.342037L342.072000 177.133645
L346.536000 164.411082L348.024000 163.814903L349.512000 166.435175
L351.000000 171.779013L356.208000 194.088826L357.696000 197.810077
L359.184000 200.247435L360.672000 201.811091L362.160000 202.596949
L363.648000 202.352097L365.136000 200.999501L368.112000 197.623199
L369.600000 197.324937L371.088000 198.274658L380.016000 208.872990
L385.224000 220.299030L386.712000 221.209612L388.200000 221.222302
L389.688000 221.572985L391.920000 224.238766L393.408000 226.577057
L394.896000 227.887498L396.384000 227.404748L399.360000 223.105883
L400.848000 222.082465L402.336000 223.566122L403.824000 227.735837
L409.032000 247.036635L411.264000 251.320669L414.240000 256.459160
L416.472000 262.213189L420.192000 272.472571L421.680000 273.650813
L423.168000 271.673315L424.656000 267.006982L427.632000 256.838847
L428.376000 255.436566L429.864000 254.589553L431.352000 255.928190
L433.584000 260.005114L436.560000 265.247920L438.048000 266.801170
L442.512000 268.933390L444.744000 272.079061L449.952000 283.278306
L451.440000 284.289718L452.928000 283.991571L455.904000 281.644166
L458.880000 278.918203L461.856000 274.413604L463.344000 271.924170
L464.832000 270.297706L466.320000 270.242525L467.808000 272.069935
L469.296000 275.587162L475.248000 292.703380L475.992000 293.738910
L477.480000 294.555294L478.968000 293.681446L480.456000 291.524460
L480.456000 291.524460"/>
</g>
<g id="line2d6">
<path style="fill: none; stroke: #bfbf00; stroke-width: 1.000000; stroke-linejoin: round; stroke-linecap: square;  opacity: 1.000000" clip-path="url(#p50431ccdcb28178602d99d9270004dde)" d="M72.000000 327.785033L73.488000 326.906571L74.976000 326.344447
L76.464000 326.123594L80.928000 326.653355L82.416000 324.736431
L83.904000 320.616208L89.112000 302.354904L90.600000 301.434287
L92.088000 303.208380L93.576000 306.832068L100.272000 325.854737
L101.760000 327.269618L103.248000 327.145659L104.736000 326.286255
L106.224000 325.854083L107.712000 326.741000L109.200000 329.158953
L112.920000 337.219659L114.408000 338.350781L115.896000 337.308321
L117.384000 334.408749L121.848000 323.775155L123.336000 322.652135
L124.824000 323.597895L126.312000 326.385778L130.776000 337.215920
L131.520000 338.276143L134.496000 340.624891L135.984000 341.588618
L137.472000 341.951634L138.960000 340.364999L140.448000 335.756237
L141.936000 328.067603L144.168000 312.229592L147.144000 285.027459
L150.864000 247.828944L152.352000 238.284509L153.096000 235.818328
L154.584000 236.142834L155.328000 238.891523L156.816000 248.760851
L162.768000 299.960938L164.256000 305.555404L165.000000 307.027088
L166.488000 307.953236L167.976000 307.101535L170.952000 303.490228
L173.184000 300.328831L174.672000 297.030701L176.160000 291.426389
L177.648000 282.512363L179.880000 262.677560L186.576000 193.493059
L188.064000 185.236793L189.552000 181.185244L191.040000 180.502103
L192.528000 181.741789L196.992000 187.742664L199.224000 192.302161
L202.200000 199.039620L202.944000 200.191240L204.432000 201.263074
L205.920000 200.454565L207.408000 197.836897L210.384000 189.578958
L212.616000 184.023902L218.568000 172.148417L226.752000 150.479171
L228.984000 146.690436L230.472000 145.082516L234.936000 141.366654
L237.168000 137.815060L241.632000 129.878619L243.120000 128.026357
L244.608000 126.881955L246.096000 126.905273L247.584000 128.681614
L249.072000 132.387556L253.536000 146.376255L254.280000 147.711011
L255.768000 149.205339L258.744000 149.801995L261.720000 149.571167
L264.696000 147.802440L267.672000 146.369152L269.160000 145.909770
L270.648000 144.731437L272.136000 142.121761L274.368000 135.778145
L276.600000 129.911298L277.344000 128.832105L278.832000 128.439498
L280.320000 130.125778L283.296000 136.219202L285.528000 140.170062
L287.016000 141.870597L288.504000 142.812680L291.480000 143.178063
L297.432000 142.906119L298.920000 141.638615L300.408000 138.995173
L304.872000 128.507921L306.360000 128.019534L307.848000 129.671669
L311.568000 136.365820L316.776000 142.694637L319.008000 147.556219
L321.984000 154.281682L322.728000 155.343884L324.216000 156.368661
L327.192000 156.241225L328.680000 157.097598L330.912000 161.249771
L333.144000 168.262520L336.120000 177.717200L337.608000 180.586198
L339.096000 181.523230L340.584000 180.342037L342.072000 177.133645
L346.536000 164.411082L348.024000 163.814903L349.512000 166.435175
L351.000000 171.779013L356.208000 194.088826L357.696000 197.810077
L359.184000 200.247435L360.672000 201.811091L362.160000 202.596949
L363.648000 202.352097L365.136000 200.999501L368.112000 197.623199
L369.600000 197.324937L371.088000 198.274658L380.016000 208.872990
L385.224000 220.299030L386.712000 221.209612L388.200000 221.222302
L389.688000 221.572985L391.920000 224.238766L393.408000 226.577057
L394.896000 227.887498L396.384000 227.404748L399.360000 223.105883
L400.848000 222.082465L402.336000 223.566122L403.824000 227.735837
L409.032000 247.036635L411.264000 251.320669L414.240000 256.459160
L416.472000 262.213189L420.192000 272.472571L421.680000 273.650813
L423.168000 271.673315L424.656000 267.006982L427.632000 256.838847
L428.376000 255.436566L429.864000 254.589553L431.352000 255.928190
L433.584000 260.005114L436.560000 265.247920L438.048000 266.801170
L442.512000 268.933390L444.744000 272.079061L449.952000 283.278306
L451.440000 284.289718L452.928000 283.991571L455.904000 281.644166
L458.880000 278.918203L461.856000 274.413604L463.344000 271.924170
L464.832000 270.297706L466.320000 270.242525L467.808000 272.069935
L469.296000 275.587162L475.248000 292.703380L475.992000 293.738910
L477.480000 294.555294L478.968000 293.681446L480.456000 291.524460
L480.456000 291.524460"/>
</g>
<g id="matplotlib.axis1">
<g id="xtick1">
<g id="line2d7">
<defs><path id="m30e32995789d870ad79a2e54c91cf9c6" d="M0.000000 0.000000L0.000000 -4.000000"/></defs>
<g ><use style="fill: none; stroke: #000000; stroke-width: 0.500000; stroke-linejoin: round; stroke-linecap: butt;  opacity: 1.000000" xlink:href="#m30e32995789d870ad79a2e54c91cf9c6" x="72.000000" y="388.800000"/>
</g></g>
<g id="line2d8">
<defs><path id="m9281cae24120827b11d5ea8a7ad3e96b" d="M0.000000 0.000000L0.000000 4.000000"/></defs>
<g ><use style="fill: none; stroke: #000000; stroke-width: 0.500000; stroke-linejoin: round; stroke-linecap: butt;  opacity: 1.000000" xlink:href="#m9281cae24120827b11d5ea8a7ad3e96b" x="72.000000" y="43.200000"/>
</g></g>
<g id="text1">
<defs>
<path id="c_7a2040fe3b94fcd41d0a72c84e93b115" d="M31.781250 -66.406250q-7.609375 0.000000 -11.453125 7.500000q-3.828125 7.484375 -3.828125 22.531250q0.000000 14.984375 3.828125 22.484375q3.843750 7.500000 11.453125 7.500000q7.671875 0.000000 11.500000 -7.500000q3.843750 -7.500000 3.843750 -22.484375q0.000000 -15.046875 -3.843750 -22.531250q-3.828125 -7.500000 -11.500000 -7.500000M31.781250 -74.218750q12.265625 0.000000 18.734375 9.703125q6.468750 9.687500 6.468750 28.140625q0.000000 18.406250 -6.468750 28.109375q-6.468750 9.687500 -18.734375 9.687500q-12.250000 0.000000 -18.718750 -9.687500q-6.468750 -9.703125 -6.468750 -28.109375q0.000000 -18.453125 6.468750 -28.140625q6.468750 -9.703125 18.718750 -9.703125"/>
</defs>
<g style="fill: #000000; opacity: 1.000000" transform="translate(68.976562,401.706250)scale(0.120000)">
<use xlink:href="#c_7a2040fe3b94fcd41d0a72c84e93b115"/>
</g>
</g>
</g>
<g id="xtick2">
<g id="line2d9">
<g ><use style="fill: none; stroke: #000000; stroke-width: 0.500000; stroke-linejoin: round; stroke-linecap: butt;  opacity: 1.000000" xlink:href="#m30e32995789d870ad79a2e54c91cf9c6" x="146.400000" y="388.800000"/>
</g></g>
<g id="line2d10">
<g ><use style="fill: none; stroke: #000000; stroke-width: 0.500000; stroke-linejoin: round; stroke-linecap: butt;  opacity: 1.000000" xlink:href="#m9281cae24120827b11d5ea8a7ad3e96b" x="146.400000" y="43.200000"/>
</g></g>
<g id="text2">
<defs>
<path id="c_42baa63129a918535c52adb20d687ea7" d="M12.406250 -8.296875l16.109375 0.000000l0.000000 -55.625000l-17.531250 3.515625l0.000000 -8.984375l17.437500 -3.515625l9.859375 0.000000l0.000000 64.609375l16.109375 0.000000l0.000000 8.296875l-41.984375 0.000000z"/>
</defs>
<g style="fill: #000000; opacity: 1.000000" transform="translate(135.993750,401.706250)scale(0.120000)">
<use xlink:href="#c_42baa63129a918535c52adb20d687ea7"/>
<use xlink:href="#c_7a2040fe3b94fcd41d0a72c84e93b115" x="63.623047"/>
<use xlink:href="#c_7a2040fe3b94fcd41d0a72c84e93b115" x="127.246094"/>
</g>
</g>
</g>
<g id="xtick3">
<g id="line2d11">
<g ><use style="fill: none; stroke: #000000; stroke-width: 0.500000; stroke-linejoin: round; stroke-linecap: butt;  opacity: 1.000000" xlink:href="#m30e32995789d870ad79a2e54c91cf9c6" x="220.800000" y="388.800000"/>
</g></g>
<g id="line2d12">
<g ><use style="fill: none; stroke: #000000; stroke-width: 0.500000; stroke-linejoin: round; stroke-linecap: butt;  opacity: 1.000000" xlink:href="#m9281cae24120827b11d5ea8a7ad3e96b" x="220.800000" y="43.200000"/>
</g></g>
<g id="text3">
<defs>
<path id="c_ed3f3ed3ebfbd18bcb9c012009a68ad1" d="M19.187500 -8.296875l34.421875 0.000000l0.000000 8.296875l-46.281250 0.000000l0.000000 -8.296875q5.609375 -5.812500 15.296875 -15.593750q9.703125 -9.796875 12.187500 -12.640625q4.734375 -5.312500 6.609375 -9.000000q1.890625 -3.687500 1.890625 -7.250000q0.000000 -5.812500 -4.078125 -9.468750q-4.078125 -3.671875 -10.625000 -3.671875q-4.640625 0.000000 -9.796875 1.609375q-5.140625 1.609375 -11.000000 4.890625l0.000000 -9.968750q5.953125 -2.390625 11.125000 -3.609375q5.187500 -1.218750 9.484375 -1.218750q11.328125 0.000000 18.062500 5.671875q6.734375 5.656250 6.734375 15.125000q0.000000 4.500000 -1.687500 8.531250q-1.671875 4.015625 -6.125000 9.484375q-1.218750 1.421875 -7.765625 8.187500q-6.531250 6.765625 -18.453125 18.921875"/>
</defs>
<g style="fill: #000000; opacity: 1.000000" transform="translate(210.175000,401.706250)scale(0.120000)">
<use xlink:href="#c_ed3f3ed3ebfbd18bcb9c012009a68ad1"/>
<use xlink:href="#c_7a2040fe3b94fcd41d0a72c84e93b115" x="63.623047"/>
<use xlink:href="#c_7a2040fe3b94fcd41d0a72c84e93b115" x="127.246094"/>
</g>
</g>
</g>
<g id="xtick4">
<g id="line2d13">
<g ><use style="fill: none; stroke: #000000; stroke-width: 0.500000; stroke-linejoin: round; stroke-linecap: butt;  opacity: 1.000000" xlink:href="#m30e32995789d870ad79a2e54c91cf9c6" x="295.200000" y="388.800000"/>
</g></g>
<g id="line2d14">
<g ><use style="fill: none; stroke: #000000; stroke-width: 0.500000; stroke-linejoin: round; stroke-linecap: butt;  opacity: 1.000000" xlink:href="#m9281cae24120827b11d5ea8a7ad3e96b" x="295.200000" y="43.200000"/>
</g></g>
<g id="text4">
<defs>
<path id="c_3dcfa38a02242cb63ec6726c6e70be7a" d="M40.578125 -39.312500q7.078125 1.515625 11.046875 6.312500q3.984375 4.781250 3.984375 11.812500q0.000000 10.781250 -7.421875 16.703125q-7.421875 5.906250 -21.093750 5.906250q-4.578125 0.000000 -9.437500 -0.906250q-4.859375 -0.906250 -10.031250 -2.718750l0.000000 -9.515625q4.093750 2.390625 8.968750 3.609375q4.890625 1.218750 10.218750 1.218750q9.265625 0.000000 14.125000 -3.656250q4.859375 -3.656250 4.859375 -10.640625q0.000000 -6.453125 -4.515625 -10.078125q-4.515625 -3.640625 -12.562500 -3.640625l-8.500000 0.000000l0.000000 -8.109375l8.890625 0.000000q7.265625 0.000000 11.125000 -2.906250q3.859375 -2.906250 3.859375 -8.375000q0.000000 -5.609375 -3.984375 -8.609375q-3.968750 -3.015625 -11.390625 -3.015625q-4.062500 0.000000 -8.703125 0.890625q-4.640625 0.875000 -10.203125 2.718750l0.000000 -8.781250q5.625000 -1.562500 10.531250 -2.343750q4.906250 -0.781250 9.250000 -0.781250q11.234375 0.000000 17.765625 5.109375q6.546875 5.093750 6.546875 13.781250q0.000000 6.062500 -3.468750 10.234375q-3.468750 4.171875 -9.859375 5.781250"/>
</defs>
<g style="fill: #000000; opacity: 1.000000" transform="translate(284.598437,401.706250)scale(0.120000)">
<use xlink:href="#c_3dcfa38a02242cb63ec6726c6e70be7a"/>
<use xlink:href="#c_7a2040fe3b94fcd41d0a72c84e93b115" x="63.623047"/>
<use xlink:href="#c_7a2040fe3b94fcd41d0a72c84e93b115" x="127.246094"/>
</g>
</g>
</g>
<g id="xtick5">
<g id="line2d15">
<g ><use style="fill: none; stroke: #000000; stroke-width: 0.500000; stroke-linejoin: round; stroke-linecap: butt;  opacity: 1.000000" xlink:href="#m30e32995789d870ad79a2e54c91cf9c6" x="369.600000" y="388.800000"/>
</g></g>
<g id="line2d16">
<g ><use style="fill: none; stroke: #000000; stroke-width: 0.500000; stroke-linejoin: round; stroke-linecap: butt;  opacity: 1.000000" xlink:href="#m9281cae24120827b11d5ea8a7ad3e96b" x="369.600000" y="43.200000"/>
</g></g>
<g id="text5">
<defs>
<path id="c_a0416418d96557a09b8c1332d34883ba" d="M37.796875 -64.312500l-24.906250 38.921875l24.906250 0.000000zM35.203125 -72.906250l12.406250 0.000000l0.000000 47.515625l10.406250 0.000000l0.000000 8.203125l-10.406250 0.000000l0.000000 17.187500l-9.812500 0.000000l0.000000 -17.187500l-32.906250 0.000000l0.000000 -9.515625z"/>
</defs>
<g style="fill: #000000; opacity: 1.000000" transform="translate(358.834375,401.706250)scale(0.120000)">
<use xlink:href="#c_a0416418d96557a09b8c1332d34883ba"/>
<use xlink:href="#c_7a2040fe3b94fcd41d0a72c84e93b115" x="63.623047"/>
<use xlink:href="#c_7a2040fe3b94fcd41d0a72c84e93b115" x="127.246094"/>
</g>
</g>
</g>
<g id="xtick6">
<g id="line2d17">
<g ><use style="fill: none; stroke: #000000; stroke-width: 0.500000; stroke-linejoin: round; stroke-linecap: butt;  opacity: 1.000000" xlink:href="#m30e32995789d870ad79a2e54c91cf9c6" x="444.000000" y="388.800000"/>
</g></g>
<g id="line2d18">
<g ><use style="fill: none; stroke: #000000; stroke-width: 0.500000; stroke-linejoin: round; stroke-linecap: butt;  opacity: 1.000000" xlink:href="#m9281cae24120827b11d5ea8a7ad3e96b" x="444.000000" y="43.200000"/>
</g></g>
<g id="text6">
<defs>
<path id="c_1260a2df50f305f3db244e29828f968e" d="M10.796875 -72.906250l38.718750 0.000000l0.000000 8.312500l-29.687500 0.000000l0.000000 17.859375q2.140625 -0.734375 4.281250 -1.093750q2.156250 -0.359375 4.312500 -0.359375q12.203125 0.000000 19.328125 6.687500q7.140625 6.687500 7.140625 18.109375q0.000000 11.765625 -7.328125 18.296875q-7.328125 6.515625 -20.656250 6.515625q-4.593750 0.000000 -9.359375 -0.781250q-4.750000 -0.781250 -9.828125 -2.343750l0.000000 -9.921875q4.390625 2.390625 9.078125 3.562500q4.687500 1.171875 9.906250 1.171875q8.453125 0.000000 13.375000 -4.437500q4.937500 -4.437500 4.937500 -12.062500q0.000000 -7.609375 -4.937500 -12.046875q-4.921875 -4.453125 -13.375000 -4.453125q-3.953125 0.000000 -7.890625 0.875000q-3.921875 0.875000 -8.015625 2.734375z"/>
</defs>
<g style="fill: #000000; opacity: 1.000000" transform="translate(433.398438,401.706250)scale(0.120000)">
<use xlink:href="#c_1260a2df50f305f3db244e29828f968e"/>
<use xlink:href="#c_7a2040fe3b94fcd41d0a72c84e93b115" x="63.623047"/>
<use xlink:href="#c_7a2040fe3b94fcd41d0a72c84e93b115" x="127.246094"/>
</g>
</g>
</g>
<g id="xtick7">
<g id="line2d19">
<g ><use style="fill: none; stroke: #000000; stroke-width: 0.500000; stroke-linejoin: round; stroke-linecap: butt;  opacity: 1.000000" xlink:href="#m30e32995789d870ad79a2e54c91cf9c6" x="518.400000" y="388.800000"/>
</g></g>
<g id="line2d20">
<g ><use style="fill: none; stroke: #000000; stroke-width: 0.500000; stroke-linejoin: round; stroke-linecap: butt;  opacity: 1.000000" xlink:href="#m9281cae24120827b11d5ea8a7ad3e96b" x="518.400000" y="43.200000"/>
</g></g>
<g id="text7">
<defs>
<path id="c_cc8d6d580d1b10c8632f7a42cd53db8a" d="M33.015625 -40.375000q-6.640625 0.000000 -10.531250 4.546875q-3.875000 4.531250 -3.875000 12.437500q0.000000 7.859375 3.875000 12.437500q3.890625 4.562500 10.531250 4.562500q6.640625 0.000000 10.515625 -4.562500q3.875000 -4.578125 3.875000 -12.437500q0.000000 -7.906250 -3.875000 -12.437500q-3.875000 -4.546875 -10.515625 -4.546875M52.593750 -71.296875l0.000000 8.984375q-3.718750 -1.750000 -7.500000 -2.671875q-3.781250 -0.937500 -7.500000 -0.937500q-9.765625 0.000000 -14.921875 6.593750q-5.140625 6.593750 -5.875000 19.921875q2.875000 -4.250000 7.218750 -6.515625q4.359375 -2.265625 9.578125 -2.265625q10.984375 0.000000 17.359375 6.671875q6.375000 6.656250 6.375000 18.125000q0.000000 11.234375 -6.640625 18.031250q-6.640625 6.781250 -17.671875 6.781250q-12.656250 0.000000 -19.343750 -9.687500q-6.687500 -9.703125 -6.687500 -28.109375q0.000000 -17.281250 8.203125 -27.562500q8.203125 -10.281250 22.015625 -10.281250q3.718750 0.000000 7.500000 0.734375q3.781250 0.734375 7.890625 2.187500"/>
</defs>
<g style="fill: #000000; opacity: 1.000000" transform="translate(507.759375,401.706250)scale(0.120000)">
<use xlink:href="#c_cc8d6d580d1b10c8632f7a42cd53db8a"/>
<use xlink:href="#c_7a2040fe3b94fcd41d0a72c84e93b115" x="63.623047"/>
<use xlink:href="#c_7a2040fe3b94fcd41d0a72c84e93b115" x="127.246094"/>
</g>
</g>
</g>
</g>
<g id="matplotlib.axis2">
<g id="ytick1">
<g id="line2d21">
<defs><path id="m3400efa6b1638b3fea9e19e898273957" d="M0.000000 0.000000L4.000000 0.000000"/></defs>
<g ><use style="fill: none; stroke: #000000; stroke-width: 0.500000; stroke-linejoin: round; stroke-linecap: butt;  opacity: 1.000000" xlink:href="#m3400efa6b1638b3fea9e19e898273957" x="72.000000" y="388.800000"/>
</g></g>
<g id="line2d22">
<defs><path id="m20b58b2501143cb5e0a5e8f1ef6f1643" d="M0.000000 0.000000L-4.000000 0.000000"/></defs>
<g ><use style="fill: none; stroke: #000000; stroke-width: 0.500000; stroke-linejoin: round; stroke-linecap: butt;  opacity: 1.000000" xlink:href="#m20b58b2501143cb5e0a5e8f1ef6f1643" x="518.400000" y="388.800000"/>
</g></g>
<g id="text8">
<defs>
<path id="c_6a8d56c819c37117ab4cf023bec22a5a" d="M10.593750 -35.500000l62.593750 0.000000l0.000000 8.296875l-62.593750 0.000000z"/>
</defs>
<g style="fill: #000000; opacity: 1.000000" transform="translate(52.765625,393.253125)scale(0.120000)">
<use xlink:href="#c_6a8d56c819c37117ab4cf023bec22a5a"/>
<use xlink:href="#c_ed3f3ed3ebfbd18bcb9c012009a68ad1" x="83.789062"/>
</g>
</g>
</g>
<g id="ytick2">
<g id="line2d23">
<g ><use style="fill: none; stroke: #000000; stroke-width: 0.500000; stroke-linejoin: round; stroke-linecap: butt;  opacity: 1.000000" xlink:href="#m3400efa6b1638b3fea9e19e898273957" x="72.000000" y="319.680000"/>
</g></g>
<g id="line2d24">
<g ><use style="fill: none; stroke: #000000; stroke-width: 0.500000; stroke-linejoin: round; stroke-linecap: butt;  opacity: 1.000000" xlink:href="#m20b58b2501143cb5e0a5e8f1ef6f1643" x="518.400000" y="319.680000"/>
</g></g>
<g id="text9">
<g style="fill: #000000; opacity: 1.000000" transform="translate(61.953125,324.047188)scale(0.120000)">
<use xlink:href="#c_7a2040fe3b94fcd41d0a72c84e93b115"/>
</g>
</g>
</g>
<g id="ytick3">
<g id="line2d25">
<g ><use style="fill: none; stroke: #000000; stroke-width: 0.500000; stroke-linejoin: round; stroke-linecap: butt;  opacity: 1.000000" xlink:href="#m3400efa6b1638b3fea9e19e898273957" x="72.000000" y="250.560000"/>
</g></g>
<g id="line2d26">
<g ><use style="fill: none; stroke: #000000; stroke-width: 0.500000; stroke-linejoin: round; stroke-linecap: butt;  opacity: 1.000000" xlink:href="#m20b58b2501143cb5e0a5e8f1ef6f1643" x="518.400000" y="250.560000"/>
</g></g>
<g id="text10">
<g style="fill: #000000; opacity: 1.000000" transform="translate(62.437500,255.013125)scale(0.120000)">
<use xlink:href="#c_ed3f3ed3ebfbd18bcb9c012009a68ad1"/>
</g>
</g>
</g>
<g id="ytick4">
<g id="line2d27">
<g ><use style="fill: none; stroke: #000000; stroke-width: 0.500000; stroke-linejoin: round; stroke-linecap: butt;  opacity: 1.000000" xlink:href="#m3400efa6b1638b3fea9e19e898273957" x="72.000000" y="181.440000"/>
</g></g>
<g id="line2d28">
<g ><use style="fill: none; stroke: #000000; stroke-width: 0.500000; stroke-linejoin: round; stroke-linecap: butt;  opacity: 1.000000" xlink:href="#m20b58b2501143cb5e0a5e8f1ef6f1643" x="518.400000" y="181.440000"/>
</g></g>
<g id="text11">
<g style="fill: #000000; opacity: 1.000000" transform="translate(61.625000,185.815000)scale(0.120000)">
<use xlink:href="#c_a0416418d96557a09b8c1332d34883ba"/>
</g>
</g>
</g>
<g id="ytick5">
<g id="line2d29">
<g ><use style="fill: none; stroke: #000000; stroke-width: 0.500000; stroke-linejoin: round; stroke-linecap: butt;  opacity: 1.000000" xlink:href="#m3400efa6b1638b3fea9e19e898273957" x="72.000000" y="112.320000"/>
</g></g>
<g id="line2d30">
<g ><use style="fill: none; stroke: #000000; stroke-width: 0.500000; stroke-linejoin: round; stroke-linecap: butt;  opacity: 1.000000" xlink:href="#m20b58b2501143cb5e0a5e8f1ef6f1643" x="518.400000" y="112.320000"/>
</g></g>
<g id="text12">
<g style="fill: #000000; opacity: 1.000000" transform="translate(61.968750,116.687187)scale(0.120000)">
<use xlink:href="#c_cc8d6d580d1b10c8632f7a42cd53db8a"/>
</g>
</g>
</g>
<g id="ytick6">
<g id="line2d31">
<g ><use style="fill: none; stroke: #000000; stroke-width: 0.500000; stroke-linejoin: round; stroke-linecap: butt;  opacity: 1.000000" xlink:href="#m3400efa6b1638b3fea9e19e898273957" x="72.000000" y="43.200000"/>
</g></g>
<g id="line2d32">
<g ><use style="fill: none; stroke: #000000; stroke-width: 0.500000; stroke-linejoin: round; stroke-linecap: butt;  opacity: 1.000000" xlink:href="#m20b58b2501143cb5e0a5e8f1ef6f1643" x="518.400000" y="43.200000"/>
</g></g>
<g id="text13">
<defs>
<path id="c_bef35738d52871942e50b9de9b122bab" d="M31.781250 -34.625000q-7.031250 0.000000 -11.062500 3.765625q-4.015625 3.765625 -4.015625 10.343750q0.000000 6.593750 4.015625 10.359375q4.031250 3.765625 11.062500 3.765625q7.031250 0.000000 11.078125 -3.781250q4.062500 -3.796875 4.062500 -10.343750q0.000000 -6.578125 -4.031250 -10.343750q-4.015625 -3.765625 -11.109375 -3.765625M21.921875 -38.812500q-6.343750 -1.562500 -9.890625 -5.906250q-3.531250 -4.359375 -3.531250 -10.609375q0.000000 -8.734375 6.218750 -13.812500q6.234375 -5.078125 17.062500 -5.078125q10.890625 0.000000 17.093750 5.078125q6.203125 5.078125 6.203125 13.812500q0.000000 6.250000 -3.546875 10.609375q-3.531250 4.343750 -9.828125 5.906250q7.125000 1.656250 11.093750 6.500000q3.984375 4.828125 3.984375 11.796875q0.000000 10.609375 -6.468750 16.281250q-6.468750 5.656250 -18.531250 5.656250q-12.046875 0.000000 -18.531250 -5.656250q-6.468750 -5.671875 -6.468750 -16.281250q0.000000 -6.968750 4.000000 -11.796875q4.015625 -4.843750 11.140625 -6.500000M18.312500 -54.390625q0.000000 5.656250 3.531250 8.828125q3.546875 3.171875 9.937500 3.171875q6.359375 0.000000 9.937500 -3.171875q3.593750 -3.171875 3.593750 -8.828125q0.000000 -5.671875 -3.593750 -8.843750q-3.578125 -3.171875 -9.937500 -3.171875q-6.390625 0.000000 -9.937500 3.171875q-3.531250 3.171875 -3.531250 8.843750"/>
</defs>
<g style="fill: #000000; opacity: 1.000000" transform="translate(62.000000,47.567187)scale(0.120000)">
<use xlink:href="#c_bef35738d52871942e50b9de9b122bab"/>
</g>
</g>
</g>
</g>
<g id="patch3">
<path style="fill: none; stroke: #000000; stroke-width: 1.000000; stroke-linejoin: round; stroke-linecap: square;  opacity: 1.000000"  d="M72.000000 43.200000L518.400000 43.200000"/>
</g>
<g id="patch4">
<path style="fill: none; stroke: #000000; stroke-width: 1.000000; stroke-linejoin: round; stroke-linecap: square;  opacity: 1.000000"  d="M518.400000 388.800000L518.400000 43.200000"/>
</g>
<g id="patch5">
<path style="fill: none; stroke: #000000; stroke-width: 1.000000; stroke-linejoin: round; stroke-linecap: square;  opacity: 1.000000"  d="M72.000000 388.800000L518.400000 388.800000"/>
</g>
<g id="patch6">
<path style="fill: none; stroke: #000000; stroke-width: 1.000000; stroke-linejoin: round; stroke-linecap: square;  opacity: 1.000000"  d="M72.000000 388.800000L72.000000 43.200000"/>
</g>
</g>
</g>
</svg>
